<svg width="1009" height="545" viewBox="0 0 1009 545" fill="none" xmlns="http://www.w3.org/2000/svg">
<path d="M188.643 451.309C181.738 482.191 180.066 513.011 181.41 543.706H157.048C156.452 541.05 155.854 538.39 155.26 535.731C150.295 513.598 145.328 491.43 142.767 468.843C140.743 450.994 140.315 432.441 147.422 414.824C150.73 406.609 157.588 397.542 167.738 396.701C172.141 396.336 176.361 397.685 179.78 399.727C197.146 410.088 192.788 432.772 188.643 451.309Z" fill="#011C1A"/>
<path d="M107.269 543.706H73.4058C66.2514 535.276 58.0093 527.17 48.539 519.426C39.5649 512.091 29.0974 501.174 36.3991 492.921C40.3581 488.441 48.3781 487.396 54.9047 489.127C61.4335 490.859 66.7409 494.793 71.509 498.856C86.7581 511.855 98.5807 527.197 107.269 543.706Z" fill="#011C1A"/>
<path d="M152.138 543.706H109.878C107.118 539.054 104.192 534.44 101.101 529.862C82.3373 502.092 58.1934 475.832 50.8193 444.45C48.4035 434.17 48.0092 423.016 53.7562 413.448C59.501 403.876 72.8171 396.613 85.2878 398.918C94.4681 400.617 101.162 406.817 106.381 413.151C120.232 429.946 128.012 449.653 134.371 469.371C142.237 493.759 148.165 518.604 152.138 543.706Z" fill="#314E52"/>
<path d="M134.237 544.273C133.997 544.273 133.775 544.118 133.698 543.878C126.448 521.092 116.905 498.736 105.332 477.434C101.366 470.132 97.074 462.788 92.9224 455.685C83.0736 438.834 72.8893 421.407 66.2313 403.142C66.1248 402.847 66.2766 402.523 66.569 402.417C66.8636 402.308 67.1876 402.462 67.2942 402.754C73.9159 420.924 84.0729 438.306 93.8991 455.114C98.053 462.223 102.35 469.575 106.325 476.892C117.93 498.258 127.502 520.679 134.774 543.536C134.869 543.835 134.704 544.152 134.407 544.248C134.353 544.266 134.294 544.273 134.237 544.273Z" fill="black"/>
<path d="M782.039 505.031C774.93 517.647 768.85 530.56 763.601 543.706H726.928C728.093 531.976 729.57 520.28 731.689 508.662C735 490.498 740.083 472.115 752.311 456.889C758.008 449.789 767.449 442.902 777.688 445.086C782.127 446.036 785.882 448.617 788.64 451.64C802.652 466.996 791.623 488.024 782.039 505.031Z" fill="#011C1A"/>
<path d="M658.451 543.706H609.846C603.891 535.86 597.317 528.117 590.074 520.484C578.872 508.675 566.227 491.609 577.862 481.404C584.173 475.866 595.526 475.834 604.315 479.401C613.101 482.968 619.8 489.39 625.719 495.894C639.175 510.683 650.01 526.809 658.451 543.706Z" fill="#011C1A"/>
<path d="M719.077 505.532C718.966 518.307 718.372 531.04 717.307 543.708H664.054C654.865 513.842 642.979 483.813 645.655 454.142C646.629 443.332 649.859 432.325 658.568 424.854C667.277 417.38 682.616 414.608 694.036 420.899C702.441 425.531 706.96 433.751 709.999 441.619C718.062 462.491 719.265 484.237 719.077 505.532Z" fill="#314E52"/>
<path d="M693.769 544.272C693.477 544.272 693.228 544.046 693.205 543.749C692.206 530.535 690.508 517.155 688.154 503.978C686.651 495.568 684.845 487.011 683.096 478.737C678.951 459.107 674.663 438.811 674.092 418.842C674.083 418.529 674.33 418.268 674.643 418.259C674.953 418.241 675.216 418.497 675.225 418.81C675.796 438.678 680.07 458.924 684.206 478.503C685.955 486.786 687.764 495.35 689.269 503.778C691.628 516.992 693.332 530.41 694.334 543.663C694.356 543.976 694.123 544.248 693.812 544.27C693.799 544.272 693.785 544.272 693.769 544.272Z" fill="black"/>
<path d="M966.098 207.201C955.454 224.599 943.899 241.074 931.582 256.411C917.851 273.505 902.897 289.618 892.678 310.421C890.514 314.827 888.031 320.34 885.105 325.12L871.578 321.197C873.742 304.006 881.128 282.758 885.01 268.791C891.559 245.221 899.359 221.983 908.333 199.344C922.105 164.608 941.308 128.304 968.283 115.165C973.975 112.391 980.47 110.918 984.724 114.995C987.042 117.218 988.384 120.833 989.256 124.606C995.302 150.798 981.218 182.491 966.098 207.201Z" fill="#314E52"/>
<path d="M876.428 323.171C876.36 323.171 876.29 323.157 876.222 323.132C875.93 323.019 875.787 322.69 875.9 322.398C895.183 272.995 923.615 219.151 944.071 182.681C966.232 143.17 984.067 114.972 984.244 114.691C984.412 114.426 984.761 114.349 985.026 114.517C985.291 114.684 985.368 115.033 985.2 115.299C985.023 115.58 967.202 143.755 945.055 183.243C924.619 219.681 896.214 273.473 876.956 322.813C876.868 323.032 876.655 323.171 876.428 323.171Z" fill="black"/>
<path d="M990.819 243.016C963.681 270.036 936.542 297.053 909.404 324.073C907.306 326.162 905.207 328.249 903.109 330.339L890.318 326.631C896.87 312.962 908.622 294.871 910.863 291.73C926.192 270.251 942.082 249.463 958.419 229.387C969.313 216.005 981.557 202.188 995.077 199.684C1000.33 198.71 1006.09 200.101 1008.13 205.966C1009.21 209.048 1009.08 212.955 1008.25 216.642C1005.78 227.635 998 235.866 990.819 243.016Z" fill="#011C1A"/>
<path d="M183.849 73.6689C194.142 96.2854 203.601 119.28 212.208 142.588L147.044 183.567C128.132 177.297 109.881 169.046 92.6803 158.991C91.6333 158.383 90.5909 157.762 89.553 157.139C73.7668 147.637 58.1392 135.644 51.5537 118.437C50.339 115.274 49.7906 110.991 52.6188 109.126C53.9196 108.264 55.5875 108.226 57.1466 108.276C78.8929 108.971 98.3027 121.347 116.475 133.308C94.7538 111.403 72.8557 89.2761 56.3126 63.2377C47.8326 49.8922 40.6964 35.1167 39.7582 19.3327C39.5112 15.1222 39.9259 10.4539 42.1921 7.07271C42.8062 6.15718 43.5518 5.33682 44.4628 4.64564C48.2292 1.77666 53.5003 2.10072 58.1256 3.10917C76.8397 7.19962 92.4559 20.0307 105.371 34.1785C118.286 48.3262 129.333 64.2099 143.388 77.2268C132.37 56.2012 121.039 33.7524 122.777 10.0799C122.954 7.68685 123.335 5.1374 124.951 3.35845C128.932 -1.03794 136.184 2.53809 140.544 6.55829C160.251 24.733 172.744 49.269 183.849 73.6689Z" fill="#314E52"/>
<path d="M165.253 172.681C165.183 172.681 165.11 172.667 165.04 172.64L162.939 171.785C122.731 155.419 84.7517 139.959 51.167 111.748C50.9267 111.546 50.8973 111.19 51.0967 110.95C51.2984 110.71 51.6542 110.678 51.8944 110.88C85.3432 138.976 123.243 154.404 163.365 170.734L165.466 171.588C165.756 171.706 165.895 172.037 165.777 172.327C165.688 172.547 165.478 172.681 165.253 172.681Z" fill="black"/>
<path d="M184.186 147.78C184.104 147.78 184.022 147.762 183.943 147.725C156.549 134.731 130.629 114.916 104.695 87.1436C82.4001 63.2694 62.9608 36.8662 41.6655 7.3152C41.482 7.06139 41.5409 6.70786 41.7947 6.5243C42.0485 6.34074 42.4021 6.39966 42.5856 6.65347C79.9277 58.4742 122.253 117.209 184.428 146.701C184.711 146.835 184.831 147.172 184.698 147.456C184.6 147.66 184.399 147.78 184.186 147.78Z" fill="black"/>
<path d="M153.386 187.921L136.793 209.39C122.156 208.985 90.2027 206.077 77.7727 198.71C69.3629 193.724 61.4584 184.761 63.8289 175.241C65.0209 170.46 68.6785 166.734 73.161 164.484C75.3343 163.385 77.7069 162.639 80.0796 162.288C87.345 161.22 94.6693 163.14 101.647 165.331C119.656 170.983 137.033 178.57 153.386 187.921Z" fill="#011C1A"/>
<path d="M744.812 32.948L736.464 46.3388L752.801 58.5241C750.51 64.5929 749.503 70.9359 749.698 77.1974L730.293 83.4407L733.858 98.8144L754.031 95.8775C756.612 101.586 760.306 106.839 765.036 111.278L755.729 129.41L769.119 137.759L781.305 121.422C787.373 123.713 793.717 124.719 799.978 124.524L806.221 143.93L821.595 140.365L818.658 120.191C824.367 117.61 829.62 113.916 834.059 109.187L852.191 118.494L860.539 105.103L844.202 92.9179C846.494 86.849 847.5 80.506 847.305 74.2445L866.71 68.0012L863.145 52.6275L842.972 55.5644C840.391 49.8559 836.697 44.6029 831.967 40.1635L841.275 22.0318L827.884 13.6832L815.698 30.0201C809.63 27.7289 803.287 26.7228 797.025 26.9177L790.782 7.51237L775.408 11.0771L778.345 31.2506C772.637 33.8318 767.383 37.5257 762.944 42.2552L744.812 32.948ZM765.84 71.3642L786.966 77.0501C787.185 78.9469 787.87 80.7847 788.98 82.371L777.704 101.271C768.659 93.9286 764.363 82.4889 765.84 71.3642ZM770.547 58.2929C775.605 50.18 783.618 45.029 792.325 43.3656L793.449 65.2659C791.96 65.982 790.61 67.0245 789.515 68.3683V68.3706L767.925 63.4553C768.634 61.6876 769.507 59.9608 770.547 58.2929ZM826.456 93.1513C825.416 94.8214 824.249 96.3647 822.977 97.7788L809.063 80.5558C809.786 78.9831 810.128 77.3107 810.117 75.6564L830.274 67.0268C832.613 75.5748 831.516 85.0361 826.456 93.1513ZM799.389 70.1518C800.112 70.2674 800.823 70.5257 801.485 70.9382C802.151 71.3529 802.702 71.8854 803.123 72.4928L803.126 72.4973C803.611 73.193 803.93 73.9885 804.064 74.8133C804.232 75.8286 804.121 76.8937 803.706 77.884C803.59 78.165 803.45 78.437 803.284 78.7021C802.453 80.0346 801.159 80.9003 799.74 81.2198C799.42 81.2923 799.09 81.3354 798.761 81.3513C797.657 81.4034 796.529 81.1315 795.52 80.5037C794.512 79.876 793.771 78.9786 793.331 77.9656C793.2 77.6619 793.096 77.3492 793.019 77.0297V77.0274C792.681 75.6133 792.887 74.07 793.719 72.7375C793.884 72.4724 794.068 72.2276 794.267 72.001V71.9988C794.972 71.1943 795.872 70.63 796.848 70.3308H796.851C797.664 70.0816 798.53 70.0181 799.382 70.1518H799.389ZM806.534 67.3304C805.967 66.7888 805.337 66.297 804.646 65.8665C803.955 65.4359 803.234 65.0846 802.498 64.815L800.506 42.833C805.807 43.1526 811.107 44.7593 815.93 47.7665C820.752 50.7737 824.527 54.8234 827.147 59.4441L806.534 67.3304ZM784.625 105.602L796.615 87.1844C798.564 87.5039 800.551 87.3181 802.387 86.6655L816.791 103.132C807.427 109.373 795.221 110.537 784.625 105.602Z" fill="#EBE6E6"/>
<path d="M35.4317 323.778L48.5619 327.635L54.939 311.149C60.541 311.649 66.075 311.013 71.26 309.392L80.9932 324.152L93.0062 317.596L85.8564 301.427C90.0239 297.941 93.5524 293.631 96.1608 288.648L113.477 292.201L117.334 279.071L100.847 272.694C101.348 267.092 100.711 261.558 99.0909 256.373L113.851 246.64L107.294 234.627L91.1253 241.776C87.6399 237.609 83.3297 234.08 78.3463 231.472L81.8997 214.156L68.7695 210.297L62.3924 226.783C56.7904 226.282 51.2564 226.919 46.0714 228.54L36.3382 213.78L24.3252 220.336L31.475 236.505C27.3074 239.991 23.779 244.301 21.1706 249.284L3.85703 245.729L0 258.859L16.4864 265.236C15.9856 270.838 16.6224 276.372 18.2427 281.557L3.48312 291.29L10.0392 303.303L26.2084 296.153C29.6937 300.321 34.004 303.849 38.9873 306.458L35.4317 323.778ZM62.6326 297.268L62.4649 278.296C63.9991 277.67 65.3747 276.671 66.4421 275.375L84.8571 280.397C80.8278 289.661 72.2707 295.911 62.6326 297.268ZM50.6151 296.378C42.6585 294.039 36.4923 288.543 33.0749 281.659L51.1091 275.622C52.0541 276.7 53.2393 277.584 54.6149 278.185H54.6172L55.5372 297.366C53.8988 297.187 52.2513 296.858 50.6151 296.378ZM66.7231 241.554C68.3615 242.035 69.9229 242.651 71.4005 243.383L60.2509 259.017C58.7688 258.779 57.2913 258.884 55.9112 259.278L44.0092 244.446C50.606 240.503 58.7665 239.216 66.7231 241.554ZM53.8104 269.521C53.7379 268.891 53.7877 268.236 53.9781 267.588C54.1707 266.935 54.488 266.351 54.8959 265.857L54.8982 265.852C55.3673 265.283 55.9565 264.835 56.6159 264.529C57.4272 264.153 58.3405 263.996 59.2651 264.114C59.5257 264.146 59.7863 264.198 60.0469 264.275C61.3545 264.658 62.3766 265.539 62.9748 266.65C63.1085 266.901 63.2241 267.167 63.3125 267.439C63.6116 268.347 63.6479 269.356 63.3578 270.344C63.0677 271.332 62.4921 272.159 61.7466 272.762C61.5245 272.943 61.2865 273.102 61.0373 273.24H61.035C59.9314 273.852 58.5943 274.038 57.2867 273.655C57.0261 273.578 56.7791 273.482 56.5434 273.367H56.5411C55.7049 272.966 55.0251 272.345 54.5469 271.599V271.597C54.1503 270.976 53.8943 270.267 53.8081 269.523L53.8104 269.521ZM49.7879 264.209C49.4684 264.81 49.2033 265.449 49.0038 266.126C48.8044 266.804 48.6798 267.488 48.6254 268.166L30.7248 274.946C29.7572 270.444 29.866 265.641 31.2551 260.912C32.6443 256.182 35.1484 252.085 38.3981 248.822L49.7879 264.209ZM86.8626 273.603L68.6833 267.871C68.4975 266.169 67.8788 264.551 66.9066 263.171L77.3107 247.306C84.7052 253.676 88.5215 263.602 86.8626 273.603Z" fill="#EBE6E6"/>
<path d="M635.289 79.5905L618.694 67.0811L609.384 79.4318C604.387 77.2359 599.112 76.0076 593.818 75.7107L591.789 61.2639L571.21 64.1532L573.338 79.314C569.567 80.9298 565.991 83.0736 562.728 85.7227L550.67 76.6331L538.16 93.2283L550.035 102.18C548.036 106.599 546.797 111.242 546.296 115.931L530.51 118.147L533.399 138.726L548.866 136.555C550.606 141.26 553.142 145.706 556.437 149.674L547.71 161.252L564.305 173.761L573.032 162.184C577.397 164.101 581.975 165.284 586.593 165.748L588.646 180.37L609.226 177.48L607.2 163.056C611.963 161.261 616.457 158.653 620.452 155.26L632.327 164.212L644.836 147.617L632.778 138.527C634.58 134.301 635.697 129.879 636.148 125.424L649.924 123.491L647.034 102.912L633.455 104.818C631.717 100.204 629.215 95.8435 625.979 91.9434L635.289 79.5905ZM617.717 140.786C606.681 155.426 585.868 158.347 571.228 147.313C556.589 136.277 553.668 115.464 564.702 100.825C575.738 86.185 596.551 83.2617 611.19 94.2979C625.83 105.332 628.753 126.147 617.717 140.786Z" fill="#EBE6E6"/>
<path d="M878.301 456.248C877.531 461.197 877.617 466.164 878.478 470.96L865.989 476.222L873.964 495.149L886.634 489.81C889.274 493.363 892.463 496.547 896.132 499.221L890.505 513.042L909.527 520.786L915.068 507.173C920.178 508.027 925.313 507.964 930.265 507.073L935.855 520.34L954.783 512.365L949.117 498.917C952.8 496.182 956.086 492.86 958.819 489.021L972.089 494.424L979.833 475.401L966.562 469.999C967.346 464.961 967.247 459.903 966.34 455.031L980.565 449.037L972.59 430.109L958.071 436.228C955.27 432.505 951.866 429.189 947.932 426.454L953.473 412.841L934.451 405.098L928.824 418.919C924.713 418.325 920.593 418.319 916.575 418.858L910.699 404.916L891.772 412.891L897.369 426.178C893.027 429.112 889.172 432.829 886.045 437.223L871.888 431.46L864.145 450.482L878.301 456.248ZM905.94 456.411C909.647 447.303 920.038 442.925 929.145 446.632C938.253 450.34 942.631 460.73 938.924 469.838C935.216 478.946 924.826 483.324 915.718 479.616C906.61 475.911 902.232 465.521 905.94 456.411Z" fill="#EBE6E6"/>
<path d="M291.956 88.0048V291.197H338.603V349.565H291.956V426.495H214.049L217.714 349.565H68.25V291.197L202.7 88.0048H291.956ZM127.125 291.195H217.711V178.364C217.711 173.968 217.872 168.678 218.201 162.49L218.69 148.813L127.125 291.195Z" fill="#B68C5A"/>
<path d="M496.125 431.623C455.257 431.623 423.471 415.425 400.757 383.023C378.046 350.625 366.688 309.676 366.688 260.18C366.688 211.663 377.758 170.838 399.901 137.704C422.041 104.575 454.278 88.0047 496.612 88.0047C538.618 88.0047 570.854 104.573 593.323 137.704C615.793 170.838 627.026 211.337 627.026 259.203C627.026 308.212 615.75 349.198 593.203 382.168C570.65 415.139 538.289 431.623 496.125 431.623ZM497.102 143.932C478.7 143.932 465.88 152.441 458.638 169.453C451.39 186.468 447.769 216.307 447.769 258.961C447.769 301.943 451.556 331.823 459.127 348.59C466.698 365.362 479.274 373.745 496.859 373.745C514.279 373.745 526.897 365.526 534.713 349.078C542.529 332.634 546.436 303.652 546.436 262.136C546.436 216.551 542.609 185.45 534.958 168.844C527.301 152.235 514.685 143.932 497.102 143.932Z" fill="#B68C5A"/>
<path d="M881.016 88.0047V291.197H927.663V349.565H881.016V426.495H803.11V349.565H657.311V291.197L791.761 88.0047H881.016ZM716.188 291.195H806.774V178.364C806.774 173.968 806.935 168.678 807.264 162.489L807.753 148.813L716.188 291.195Z" fill="#B68C5A"/>
<path d="M372.678 169.177C363.794 179.737 305.037 166.623 305.037 166.276C305.037 165.927 299.24 157.69 306.066 149.799C312.894 141.908 303.215 138.194 305.492 129.258C307.77 120.323 313.805 119.974 312.894 111.852C311.983 103.728 316.359 97.9374 321.195 96.9176C329.097 95.2543 335.388 89.0064 340.793 96.2536C341.092 96.6548 341.386 97.0944 341.681 97.5816C341.681 97.5816 342.078 97.0559 342.934 96.4757C344.484 95.4288 347.541 94.205 352.493 95.6055C360.18 97.7811 357.216 106.572 360.746 110.141C364.279 113.71 364.449 120.413 362.997 124.547C361.544 128.68 370.425 134.312 368.463 146.551C366.5 158.791 381.559 158.617 372.678 169.177Z" fill="#370B00"/>
<path d="M327.977 154.313C327.965 153.293 326.946 120.495 326.946 120.495L346.535 134.632C346.394 136.789 346.584 154.619 346.584 154.619L351.033 156.865C351.033 156.865 334.431 179.595 318.951 159.292C313.725 160.452 327.977 154.313 327.977 154.313Z" fill="#FAB09D"/>
<path d="M346.496 144.181C342.772 145.298 331.546 149.121 327.455 136.995C328.978 137.004 340.03 136.501 346.5 135.805C346.473 137.573 346.48 140.823 346.496 144.181Z" fill="#C9785E"/>
<path d="M335.024 142.119C342.473 142.928 347.762 139.245 350.214 131.402C352.598 123.777 352.073 110.028 352.073 110.028C352.22 103.012 346.33 98.8916 338.838 98.7352L335.722 96.9223C328.23 96.7637 322.682 102.585 322.535 109.599L324.548 125.85C326.415 140.988 333.361 141.938 335.024 142.119Z" fill="#FAB09D"/>
<path d="M330.848 120.18C330.862 121.055 331.344 121.755 331.927 121.746C332.509 121.737 332.971 121.021 332.958 120.146C332.944 119.271 332.461 118.571 331.877 118.58C331.297 118.589 330.834 119.305 330.848 120.18Z" fill="#370B00"/>
<path d="M343.789 120.18C343.803 121.055 344.286 121.755 344.868 121.746C345.45 121.737 345.913 121.021 345.899 120.146C345.886 119.271 345.403 118.571 344.818 118.58C344.238 118.589 343.776 119.305 343.789 120.18Z" fill="#370B00"/>
<path d="M323.923 119.541C323.651 119.378 319.425 114.318 316.689 118.718C315.171 121.232 315.037 132.753 326.205 130.09C326.2 129.78 327.44 121.664 323.923 119.541Z" fill="#FAB09D"/>
<path d="M323.545 126.417C323.387 126.417 323.23 126.351 323.119 126.222L317.683 120.001C317.477 119.765 317.502 119.407 317.737 119.201C317.973 118.995 318.331 119.02 318.537 119.256L323.974 125.476C324.18 125.712 324.155 126.07 323.919 126.276C323.811 126.371 323.677 126.417 323.545 126.417Z" fill="black"/>
<path d="M352.1 119.267C352.372 119.104 356.598 114.043 359.333 118.444C360.852 120.957 360.985 132.479 349.818 129.816C349.822 129.505 348.583 121.39 352.1 119.267Z" fill="#FAB09D"/>
<path d="M352.478 126.142C352.347 126.142 352.213 126.097 352.106 126.002C351.871 125.796 351.846 125.438 352.052 125.202L357.489 118.981C357.695 118.746 358.053 118.721 358.288 118.927C358.524 119.133 358.549 119.491 358.343 119.727L352.906 125.948C352.793 126.077 352.637 126.142 352.478 126.142Z" fill="black"/>
<path d="M334.294 116.289C332.264 115.174 329.993 115.054 327.813 115.643C327.043 115.827 326.333 116.096 325.547 116.289C326.521 115.21 327.861 114.465 329.3 114.229C331.147 113.928 333.338 114.608 334.294 116.289Z" fill="black"/>
<path d="M340.785 116.554C342.396 113.581 346.836 112.926 348.406 116.289C347.747 115.908 347.133 115.573 346.51 115.369C344.499 114.705 342.596 115.652 340.785 116.554Z" fill="black"/>
<path d="M341.92 132.281C341.92 132.281 338.872 133.088 333.504 132.481C333.502 132.483 337.796 137.192 341.92 132.281Z" fill="white"/>
<path d="M376.667 173.404C376.667 173.404 386.436 149.253 405.649 134.031C406.34 133.868 416.408 138.178 417.648 141.534C421.501 151.963 374.811 197.788 374.811 197.788C374.811 197.788 369.97 184.818 376.667 173.404Z" fill="#FAB09D"/>
<path d="M388.312 150.903L374.248 160.906C366.997 171.976 374.026 207.868 374.026 207.868C374.026 207.868 406.424 169.392 408.633 164.182L388.312 150.903Z" fill="#3D5A54"/>
<path d="M415.034 149.276C419.875 144.44 417.786 136.714 411.823 131.3L375.673 104.448L370.531 114.923L395.946 146.953C401.317 153.114 410.119 154.184 415.034 149.276Z" fill="#FAB09D"/>
<path d="M295.043 170.403C295.043 170.403 273.411 197.892 261.59 220.332C258.257 226.661 262.399 234.57 269.259 236.598C270.254 236.893 271.131 237.008 271.783 236.857C287.98 233.106 306.062 192.868 306.062 192.868C306.062 192.868 305.214 178.872 295.043 170.403Z" fill="#FAB09D"/>
<path d="M299.348 164.742C299.348 164.742 284.506 180.782 273.248 199.129L291.072 221.406L307.878 206.166C307.878 206.168 309.518 173.211 299.348 164.742Z" fill="#3D5A54"/>
<path d="M350.078 156.283C350.078 156.283 348.909 157.62 347.517 159.816C341.616 169.134 327.552 167.555 323.856 157.162C323.709 156.749 323.632 156.251 323.632 156.251L299.35 164.74L307.882 247.539C307.882 247.539 320.921 250.973 327.971 251.618C342.72 252.591 371.285 248.725 371.285 248.725C371.285 248.725 375.752 217.778 378.206 158.877L350.078 156.283Z" fill="#3D5A54"/>
<path d="M374.497 219.024C374.479 219.024 374.461 219.024 374.44 219.022C374.13 218.992 373.901 218.713 373.933 218.403L376.763 189.609C376.795 189.298 377.071 189.07 377.382 189.101C377.692 189.131 377.921 189.409 377.889 189.72L375.061 218.514C375.032 218.806 374.785 219.024 374.497 219.024Z" fill="black"/>
<path d="M304.757 217.848C304.462 217.848 304.213 217.621 304.193 217.322L302.173 189.233C302.151 188.92 302.386 188.65 302.697 188.628C303.01 188.605 303.279 188.841 303.302 189.151L305.321 217.24C305.344 217.553 305.108 217.823 304.798 217.845C304.784 217.848 304.77 217.848 304.757 217.848Z" fill="black"/>
<path d="M395.831 147.379C395.663 147.379 395.5 147.306 395.387 147.166L389.295 139.506C389.1 139.261 389.141 138.905 389.386 138.711C389.63 138.516 389.986 138.556 390.181 138.801L396.273 146.461C396.468 146.706 396.427 147.061 396.182 147.256C396.078 147.338 395.953 147.379 395.831 147.379Z" fill="black"/>
<path d="M337.284 129.895C336.978 129.895 336.661 129.863 336.334 129.802C336.026 129.743 335.824 129.446 335.883 129.14C335.942 128.832 336.239 128.633 336.545 128.689C337.003 128.778 337.433 128.785 337.821 128.717C338.229 128.644 338.501 128.239 338.424 127.817L337.191 120.914C337.136 120.606 337.34 120.311 337.649 120.257C337.957 120.2 338.251 120.407 338.306 120.715L339.539 127.618C339.724 128.655 339.042 129.648 338.02 129.832C337.787 129.875 337.54 129.895 337.284 129.895Z" fill="black"/>
<path d="M353.738 110.123C352.915 113.105 354.393 116.747 352.217 118.945C352.161 119.002 352.102 119.058 352.029 119.085C351.755 119.183 351.551 118.829 351.47 118.553C350.803 116.323 349.779 114.204 348.451 112.296C348.07 111.75 347.651 111.208 347.087 110.852C346.033 110.184 344.662 110.27 343.529 109.744C342.45 109.243 341.682 108.224 341.238 107.12C340.816 106.073 340.649 104.944 340.501 103.823C340.728 105.76 339.577 107.693 337.972 108.822C336.32 109.987 334.269 110.433 332.261 110.657C330.251 110.882 328.214 110.909 326.243 111.353C325.991 111.41 325.737 111.476 325.517 111.607C325.186 111.806 324.962 112.14 324.763 112.47C323.587 114.419 324.332 117.365 323.94 119.541C323.049 117.989 321.83 114.773 321.59 113.019C321.259 110.603 321.035 108.149 321.359 105.733C321.683 103.317 322.598 100.922 324.294 99.1702C326.17 97.2304 328.849 96.2333 331.525 95.9024C334.201 95.5715 336.912 95.8503 339.593 96.129C339.996 96.1698 340.397 96.2129 340.798 96.2537C341.097 96.6548 341.392 97.0944 341.687 97.5816C341.687 97.5816 342.083 97.0559 342.94 96.4757C343.622 96.546 344.302 96.6185 344.982 96.6888C345.954 96.7907 346.926 96.8904 347.878 97.1012C349.382 97.4366 350.812 98.0394 352.231 98.6399C353.36 99.1158 351.313 98.6626 352.136 99.5713C352.532 100.011 352.834 100.53 353.088 101.062C354.422 103.852 354.558 107.14 353.738 110.123Z" fill="#370B00"/>
<path d="M261.241 228.805C263.133 235.395 271.321 239.095 279.316 236.702L329.349 211.917L320.314 204.02L278.716 213.413C270.881 215.749 258.812 222.298 261.241 228.805Z" fill="#FAB09D"/>
<path d="M274.226 215.611C273.981 215.611 273.755 215.45 273.682 215.203C273.596 214.902 273.768 214.589 274.068 214.501L287.465 210.616C287.767 210.528 288.079 210.703 288.168 211.002C288.254 211.303 288.082 211.616 287.782 211.704L274.385 215.588C274.33 215.604 274.278 215.611 274.226 215.611Z" fill="black"/>
<path d="M370.396 101.595L360.09 98.5765L356.668 107.759C356.668 107.759 368.151 116.713 374.834 114.426C381.517 112.14 379.522 109.676 379.522 109.676C377.839 105.758 374.491 102.794 370.396 101.595Z" fill="#FAB09D"/>
<path d="M365.958 107.324C365.958 107.324 363.42 108.724 360.8 108.958C358.181 109.191 356.805 109.187 356.805 109.187C356.805 109.187 352.957 106.628 351.538 107.451C350.12 108.273 350.288 109.112 351.688 110.374C353.086 111.636 355.407 113.089 357.102 113.563C364.424 115.611 372.46 114.8 372.46 114.8L365.958 107.324Z" fill="#FAB09D"/>
<path d="M357.407 108.067C357.314 107.904 350.289 105.597 350.289 105.597C350.289 105.597 350.19 101.411 351.332 101.921C352.472 102.431 358.502 104.242 358.502 104.242L357.407 108.067Z" fill="#FAB09D"/>
<path d="M351.069 101.887C351.069 101.887 342.524 100.684 342.551 103.691C342.564 105.282 350.292 105.597 350.292 105.597L351.069 101.887Z" fill="#FAB09D"/>
<path d="M357.619 106.676C357.524 106.513 350.265 104.167 350.265 104.167C350.265 104.167 350.143 99.977 351.321 100.494C352.5 101.01 358.727 102.85 358.727 102.85L357.619 106.676Z" fill="#FAB09D"/>
<path d="M351.048 100.457C351.048 100.457 342.231 99.2088 342.274 102.218C342.296 103.809 350.264 104.165 350.264 104.165L351.048 100.457Z" fill="#FAB09D"/>
<path d="M357.618 107.242C357.5 107.242 357.387 107.206 357.289 107.138C356.77 106.893 352.703 105.552 350.162 104.729C349.77 104.709 348 104.611 346.196 104.351C343.065 103.9 341.721 103.263 341.707 102.227C341.703 101.915 341.952 101.656 342.265 101.654C342.571 101.638 342.824 101.89 342.838 102.193C343.142 102.78 346.609 103.437 350.289 103.601C350.339 103.603 350.389 103.612 350.439 103.628C357.901 106.039 357.969 106.157 358.107 106.39C358.266 106.66 358.175 107.007 357.903 107.165C357.813 107.217 357.715 107.242 357.618 107.242Z" fill="black"/>
<path d="M358.609 105.094C358.514 104.931 351.256 102.585 351.256 102.585C351.256 102.585 351.133 98.3952 352.312 98.9119C353.49 99.4286 359.718 101.269 359.718 101.269L358.609 105.094Z" fill="#FAB09D"/>
<path d="M352.04 98.8756C352.04 98.8756 343.223 97.627 343.266 100.636C343.288 102.227 351.256 102.583 351.256 102.583L352.04 98.8756Z" fill="#FAB09D"/>
<path d="M358.612 105.661C358.494 105.661 358.381 105.624 358.283 105.556C357.765 105.312 353.697 103.97 351.156 103.147C350.764 103.127 348.994 103.029 347.191 102.769C344.059 102.318 342.715 101.681 342.701 100.645C342.697 100.333 342.946 100.074 343.259 100.072C343.567 100.061 343.818 100.308 343.832 100.611C344.136 101.198 347.603 101.856 351.281 102.019C351.331 102.021 351.381 102.03 351.431 102.046C358.893 104.457 358.961 104.575 359.099 104.808C359.258 105.078 359.167 105.425 358.895 105.583C358.809 105.636 358.71 105.661 358.612 105.661Z" fill="black"/>
<path d="M360.091 98.5787C359.959 98.5243 353.805 96.9335 353.805 96.9335L352.773 100.698L359.821 103.195L360.091 98.5787Z" fill="#FAB09D"/>
<path d="M353.804 96.9335C353.471 96.9471 348.479 96.4667 346.188 97.389C344.996 97.8694 345.018 99.5713 346.224 100.02C348.409 100.836 352.776 100.698 352.776 100.698L353.804 96.9335Z" fill="#FAB09D"/>
<path d="M371.637 110.608C371.625 110.608 371.612 110.608 371.601 110.608C366.939 110.311 360.397 104.482 359.526 103.689L352.687 101.266C351.978 101.282 348.121 101.332 346.027 100.55C344.894 100.129 344.538 98.9413 344.851 98.0371C344.953 97.7425 345.274 97.5839 345.571 97.6859C345.868 97.7879 346.024 98.1097 345.922 98.4065C345.789 98.7895 345.92 99.2994 346.423 99.4875C348.481 100.253 352.716 100.131 352.76 100.129C352.83 100.127 352.9 100.138 352.966 100.161L360.014 102.658C360.086 102.683 360.152 102.724 360.208 102.776C360.279 102.839 367.177 109.187 371.671 109.475C371.984 109.495 372.219 109.765 372.201 110.075C372.183 110.376 371.934 110.608 371.637 110.608Z" fill="black"/>
<path d="M370.568 115.489C370.546 115.489 370.525 115.489 370.505 115.487C370.192 115.473 369.95 115.21 369.963 114.898C369.977 114.585 370.244 114.345 370.553 114.356C371.085 114.383 372.468 113.753 373.288 113.302C373.562 113.153 373.907 113.25 374.058 113.524C374.21 113.798 374.111 114.143 373.836 114.295C373.465 114.496 371.611 115.489 370.568 115.489Z" fill="black"/>
<path d="M329.664 192.639C335.6 195.36 331.686 203.253 329.587 211.171C329.587 211.171 327.654 211.752 325.762 211.371C325.782 211.724 320.017 210.632 319.963 204.615C324.081 197.495 329.664 192.639 329.664 192.639Z" fill="#FAB09D"/>
<path d="M328.261 196.104C327.885 194.538 328.726 192.936 330.228 192.355L339.334 190.509C340.564 189.967 341.997 190.563 342.484 191.816C342.917 192.933 341.949 194.109 340.888 194.667L330.083 198.245L328.261 196.104Z" fill="#FAB09D"/>
<path d="M331.376 210.965L337.146 211.251C337.769 211.289 338.254 211.811 338.247 212.436C338.24 213.057 337.751 213.567 337.13 213.599L331.011 213.898C330.521 213.83 329.855 213.295 329.758 212.561C329.64 211.654 330.431 210.872 331.376 210.965Z" fill="#FAB09D"/>
<path d="M339.848 189.301C340.405 189.758 340.963 190.221 341.55 190.64C342.098 191.034 342.721 191.347 343.361 191.598L329.147 216.746L325.34 214.593L339.698 189.19C339.748 189.228 339.798 189.264 339.848 189.301Z" fill="#CCC0C0"/>
<path d="M339.846 189.301C340.403 189.758 340.961 190.221 341.547 190.64C342.096 191.034 342.719 191.347 343.358 191.598L332.202 211.337L328.395 209.184L339.696 189.19C339.746 189.228 339.796 189.264 339.846 189.301Z" fill="#EBE6E6"/>
<path opacity="0.3" d="M362.456 183.34C365.066 175.472 360.804 166.977 352.936 164.366C345.067 161.755 336.572 166.018 333.961 173.886C331.351 181.754 335.613 190.249 343.481 192.86C351.35 195.471 359.845 191.208 362.456 183.34Z" fill="white"/>
<path d="M335.135 171.201C331.056 178.418 333.599 187.576 340.817 191.655C348.034 195.734 357.192 193.192 361.271 185.974C365.35 178.756 362.808 169.598 355.59 165.519C348.372 161.438 339.214 163.983 335.135 171.201ZM337.574 172.578C340.891 166.709 348.338 164.64 354.207 167.958C360.077 171.275 362.146 178.722 358.828 184.591C355.51 190.461 348.064 192.53 342.194 189.212C336.327 185.897 334.258 178.448 337.574 172.578Z" fill="#CCC0C0"/>
<path d="M338.752 183.83C338.544 183.83 338.342 183.714 338.245 183.515C337.445 181.895 337.048 180.086 337.096 178.285C337.105 177.972 337.368 177.729 337.676 177.734C337.989 177.743 338.236 178.001 338.226 178.314C338.183 179.932 338.541 181.557 339.26 183.012C339.398 183.293 339.282 183.633 339.004 183.771C338.922 183.812 338.836 183.83 338.752 183.83Z" fill="black"/>
<path d="M338.117 176.068C338.063 176.068 338.006 176.059 337.952 176.043C337.652 175.951 337.485 175.636 337.575 175.336C337.811 174.57 338.131 173.825 338.529 173.122C341.233 168.338 346.928 166.256 352.07 168.173C352.362 168.282 352.512 168.608 352.403 168.903C352.294 169.195 351.968 169.345 351.673 169.236C347.057 167.516 341.942 169.385 339.515 173.682C339.157 174.314 338.869 174.985 338.659 175.672C338.584 175.91 338.359 176.068 338.117 176.068Z" fill="black"/>
<path d="M329.581 214.661C329.486 214.661 329.391 214.639 329.302 214.589C329.03 214.435 328.933 214.09 329.087 213.816L340.474 193.67C340.629 193.398 340.973 193.3 341.247 193.454C341.519 193.609 341.617 193.953 341.462 194.227L330.075 214.374C329.971 214.557 329.778 214.661 329.581 214.661Z" fill="black"/>
<path d="M333.037 195.218L341.25 199.183C342.181 199.675 343.024 201.275 342.582 202.234C342.143 203.185 341.039 203.63 340.062 203.249L330.451 199.476C329.747 199.032 329.094 197.749 329.45 196.555C329.892 195.075 331.648 194.422 333.037 195.218Z" fill="#FAB09D"/>
<path d="M329.058 205.826L337.96 209.773C338.918 210.213 339.362 211.326 338.975 212.305C338.587 213.279 337.509 213.784 336.514 213.456L326.71 210.217C325.983 209.814 325.26 208.568 325.55 207.355C325.908 205.857 327.626 205.11 329.058 205.826Z" fill="#FAB09D"/>
<path d="M332.057 198.703L341.478 203.358C342.491 203.874 342.93 205.026 342.475 205.977C342.024 206.925 340.845 207.349 339.787 206.943L329.369 202.932C328.604 202.469 327.872 201.162 328.227 199.968C328.671 198.49 330.546 197.871 332.057 198.703Z" fill="#FAB09D"/>
<path d="M330.393 202.238L339.482 206.698C340.459 207.192 340.887 208.287 340.455 209.191C340.024 210.088 338.891 210.485 337.871 210.095L327.823 206.243C327.082 205.801 326.373 204.557 326.713 203.423C327.132 202.023 328.933 201.443 330.393 202.238Z" fill="#FAB09D"/>
<path d="M338.971 212.873C338.912 212.873 338.853 212.864 338.797 212.846C338.5 212.749 338.337 212.429 338.432 212.132C339.13 209.977 334.158 208.316 331.767 207.518C331.083 207.29 330.541 207.108 330.192 206.952C329.907 206.825 329.78 206.49 329.907 206.204C330.034 205.919 330.369 205.792 330.654 205.919C330.951 206.052 331.495 206.234 332.125 206.444C335.277 207.498 340.553 209.259 339.508 212.484C339.434 212.722 339.212 212.873 338.971 212.873Z" fill="black"/>
<path d="M342.506 206.487C342.434 206.487 342.361 206.474 342.291 206.444C342.001 206.326 341.863 205.996 341.981 205.705C342.103 205.406 342.101 205.125 341.972 204.819C341.298 203.231 337.648 201.767 335.463 200.892C334.64 200.564 333.992 200.303 333.578 200.081C333.301 199.933 333.197 199.589 333.344 199.315C333.491 199.038 333.836 198.934 334.11 199.081C334.47 199.274 335.125 199.537 335.882 199.841C338.529 200.901 342.155 202.354 343.012 204.377C343.259 204.962 343.266 205.554 343.028 206.134C342.939 206.354 342.728 206.487 342.506 206.487Z" fill="black"/>
<path d="M340.515 209.617C340.438 209.617 340.361 209.601 340.286 209.569C340.001 209.442 339.869 209.109 339.996 208.822C340.089 208.609 340.091 208.402 339.998 208.173C339.418 206.746 335.897 205.32 334.004 204.557C333.479 204.344 333.064 204.176 332.772 204.038C332.488 203.904 332.368 203.566 332.502 203.283C332.636 203 332.973 202.88 333.257 203.013C333.519 203.138 333.941 203.308 334.428 203.505C337.392 204.704 340.345 206.018 341.045 207.747C341.252 208.257 341.247 208.788 341.032 209.277C340.941 209.49 340.733 209.617 340.515 209.617Z" fill="black"/>
<path d="M342.448 202.83C342.349 202.83 342.247 202.803 342.156 202.748C341.889 202.585 341.803 202.238 341.966 201.971C342.231 201.534 342.186 201.239 342.127 201.058C341.726 199.798 338.891 198.563 335.888 197.255C334.82 196.79 333.719 196.31 332.629 195.791C332.346 195.657 332.228 195.317 332.362 195.036C332.495 194.753 332.835 194.633 333.116 194.769C334.188 195.281 335.283 195.757 336.341 196.217C339.867 197.754 342.652 198.966 343.208 200.718C343.4 201.325 343.31 201.946 342.936 202.562C342.827 202.732 342.641 202.83 342.448 202.83Z" fill="black"/>
<path d="M333.337 212.975C333.278 212.975 333.219 212.966 333.16 212.946L327.434 211.056C327.137 210.958 326.976 210.637 327.073 210.34C327.171 210.043 327.493 209.882 327.789 209.979L333.516 211.869C333.813 211.967 333.974 212.289 333.876 212.586C333.797 212.826 333.575 212.975 333.337 212.975Z" fill="black"/>
<path d="M376.873 349.927C376.873 349.927 371.045 449.673 368.566 491.042C366.395 491.126 354.907 507.862 354.907 507.862C354.907 507.862 345.553 427.732 340.678 349.927C338.752 352.246 376.873 349.927 376.873 349.927Z" fill="#FAB09D"/>
<path d="M356.916 543.708L355.618 518.234L352.488 516.963L352.706 543.708H356.916Z" fill="#331F1F"/>
<path d="M359.525 543.706V512.952H355.315V543.706H359.525Z" fill="#1A1010"/>
<path d="M368.562 491.042C368.562 491.042 367.005 507.61 370.987 514.475C374.968 521.339 380.505 533.313 385.769 536.704C389.329 538.997 388.561 543.468 384.853 543.468C381.146 543.468 369.613 544.816 366.044 541.109C362.475 537.402 362.749 527.791 360.003 525.182C357.256 522.574 352.764 519.005 354.824 510.903C354.861 510.744 354.895 510.593 354.926 510.448C355.275 508.877 353.367 490.217 353.367 490.217L368.562 491.042Z" fill="#FAB09D"/>
<path d="M387.143 537.037C383.024 534.635 374.099 520.111 374.099 520.111C375.926 523.988 378.063 527.129 379.162 528.962C379.457 529.517 382.06 532.597 380.843 533.776C375.142 539.296 365.649 528.779 363.854 526.512C362.222 524.455 359.938 520.729 358.345 518.642C354.189 513.192 354.429 512.954 354.93 510.45C353.371 512.263 351.932 515.739 352.707 519.807C354.057 526.877 358.13 525.985 359.526 530.24C360.922 534.496 361.425 540.767 365.361 542.575H389.07C389.067 542.573 391.263 539.439 387.143 537.037Z" fill="#331F1F"/>
<path d="M368.227 543.708C365.744 543.708 363.446 542.249 362.526 539.942C362.451 539.756 362.387 539.566 362.333 539.375C361.698 537.084 389.622 541.037 389.622 541.037C389.622 541.037 389.572 543.058 389.067 543.708H368.227Z" fill="#331F1F"/>
<path d="M336.608 349.927C336.608 349.927 330.779 449.673 328.3 491.042C326.129 491.126 314.642 507.862 314.642 507.862C314.642 507.862 305.287 427.732 300.412 349.927C298.486 352.246 336.608 349.927 336.608 349.927Z" fill="#FAB09D"/>
<path d="M316.653 543.708L315.354 518.234L312.225 516.963L312.442 543.708H316.653Z" fill="#331F1F"/>
<path d="M319.262 543.706V512.952H315.051V543.706H319.262Z" fill="#1A1010"/>
<path d="M328.296 491.042C328.296 491.042 326.739 507.61 330.721 514.475C334.703 521.339 340.239 533.313 345.503 536.704C349.064 538.997 348.295 543.468 344.588 543.468C340.88 543.468 329.348 544.816 325.779 541.109C322.209 537.402 322.484 527.791 319.737 525.182C316.99 522.574 312.499 519.005 314.559 510.903C314.595 510.744 314.629 510.593 314.661 510.448C315.01 508.877 313.102 490.217 313.102 490.217L328.296 491.042Z" fill="#FAB09D"/>
<path d="M346.88 537.037C342.76 534.635 333.836 520.111 333.836 520.111C335.662 523.988 337.799 527.129 338.898 528.962C339.193 529.517 341.797 532.597 340.58 533.776C334.878 539.296 325.385 528.779 323.59 526.512C321.959 524.455 319.674 520.729 318.081 518.642C313.925 513.192 314.165 512.954 314.666 510.45C313.107 512.263 311.668 515.739 312.443 519.807C313.794 526.877 317.866 525.985 319.262 530.24C320.658 534.496 321.161 540.767 325.097 542.575H348.806C348.804 542.573 351 539.439 346.88 537.037Z" fill="#331F1F"/>
<path d="M327.964 543.708C325.48 543.708 323.182 542.249 322.262 539.942C322.187 539.756 322.124 539.566 322.069 539.375C321.435 537.084 349.359 541.037 349.359 541.037C349.359 541.037 349.309 543.058 348.803 543.708H327.964Z" fill="#331F1F"/>
<path d="M370.259 246.723C381.869 248.024 405.908 411.706 393.449 465.736C383.763 473.706 274.366 472.022 274.37 465.736C257.451 475.58 282.193 264.338 308.082 246.723C308.082 246.723 331.095 252.296 370.259 246.723Z" fill="#4D2F2F"/>
<path d="M286.198 461.8C286.189 461.8 286.178 461.8 286.169 461.8C285.856 461.784 285.616 461.516 285.632 461.206C288.385 407.373 309.95 258.727 310.168 257.232C310.213 256.921 310.501 256.706 310.809 256.753C311.119 256.799 311.332 257.087 311.287 257.395C311.069 258.888 289.514 407.484 286.762 461.265C286.747 461.564 286.497 461.8 286.198 461.8Z" fill="black"/>
<path d="M378.326 455.892C378.32 455.892 378.313 455.892 378.304 455.892C377.991 455.88 377.746 455.617 377.76 455.305C379.716 403.62 367.032 262.777 366.903 261.358C366.875 261.046 367.104 260.771 367.415 260.742C367.725 260.717 368.002 260.944 368.031 261.254C368.16 262.67 380.849 403.586 378.891 455.345C378.879 455.651 378.628 455.892 378.326 455.892Z" fill="black"/>
<path d="M357.976 466.441C357.965 466.441 357.953 466.441 357.944 466.441C357.632 466.423 357.394 466.155 357.412 465.842C360.111 418.323 351.626 262.002 351.54 260.427C351.522 260.114 351.762 259.847 352.075 259.831C352.385 259.811 352.655 260.053 352.671 260.366C352.757 261.941 361.244 418.325 358.543 465.906C358.524 466.207 358.275 466.441 357.976 466.441Z" fill="black"/>
<path d="M327.408 461.8C327.115 461.8 326.868 461.575 326.843 461.281C325.293 442.659 329.74 353.83 332.395 300.756C333.538 277.954 334.44 259.924 334.292 258.741C334.222 258.462 334.372 258.17 334.648 258.07C334.943 257.964 335.267 258.115 335.373 258.41C335.586 258.997 335.194 267.466 333.526 300.815C330.873 353.859 326.429 442.641 327.972 461.188C327.997 461.5 327.766 461.772 327.455 461.8C327.439 461.797 327.423 461.8 327.408 461.8Z" fill="black"/>
<path d="M307.934 450.405C307.641 450.405 307.394 450.181 307.369 449.884C304.981 420.217 322.09 257.347 322.263 255.704C322.294 255.394 322.573 255.169 322.886 255.201C323.196 255.233 323.423 255.514 323.389 255.824C323.217 257.465 306.116 420.231 308.498 449.793C308.523 450.106 308.289 450.378 307.979 450.403C307.965 450.405 307.949 450.405 307.934 450.405Z" fill="black"/>
<path d="M404.926 69.0165L441.028 29.0887L427.229 22.1406L404.926 69.0165Z" fill="#3D5A54"/>
<path d="M384.905 64.3685L384.071 0L366.578 5.95325L384.905 64.3685Z" fill="#B68C5A"/>
<path d="M357.919 57.0919L337.272 17.4451L327.727 27.3505L357.919 57.0919Z" fill="#3D5A54"/>
<path d="M424.186 86.2326C423.941 86.2326 423.719 86.0739 423.644 85.8315C423.562 85.564 423.687 85.2785 423.936 85.1561L464.098 65.531C464.261 65.4517 464.453 65.454 464.614 65.5401C464.775 65.6262 464.884 65.7848 464.909 65.9661L466.701 79.6017C466.742 79.9099 466.527 80.1932 466.221 80.2363L424.267 86.2258C424.238 86.2303 424.211 86.2326 424.186 86.2326ZM463.887 66.8953L427.662 84.5964L465.505 79.1938L463.887 66.8953Z" fill="black"/>
<path d="M984.725 544.839H16.5003C15.8748 544.839 15.3672 544.332 15.3672 543.706C15.3672 543.081 15.8748 542.573 16.5003 542.573H984.725C985.351 542.573 985.858 543.081 985.858 543.706C985.858 544.332 985.351 544.839 984.725 544.839Z" fill="black"/>
</svg>
