<svg width="58" height="58" viewBox="0 0 58 58" fill="none" xmlns="http://www.w3.org/2000/svg">
<g opacity="0.25">
<path d="M31.2052 51.7718H30.5911C30.809 51.3468 30.9329 50.8659 30.9329 50.3563C30.9329 48.6391 29.5356 47.2422 27.818 47.2422H6.50212C4.78453 47.2422 3.38726 48.6391 3.38726 50.3563C3.38726 50.8659 3.51107 51.3468 3.72911 51.7718H3.11486C1.39727 51.7718 0 53.1688 0 54.886C0 56.6031 1.39727 58.0001 3.11486 58.0001H31.2052C32.9228 58.0001 34.32 56.6031 34.32 54.886C34.32 53.1688 32.9228 51.7718 31.2052 51.7718ZM31.2052 56.3015H3.11486C2.3341 56.3015 1.69901 55.6665 1.69901 54.886C1.69901 54.1054 2.3341 53.4704 3.11486 53.4704H8.34577C9.44413 53.4704 9.44413 51.7718 8.34577 51.7718H6.50212C5.72137 51.7718 5.08628 51.1369 5.08628 50.3563C5.08628 49.5757 5.72137 48.9408 6.50212 48.9408H27.818C28.5988 48.9408 29.2339 49.5757 29.2339 50.3563C29.2339 51.1369 28.5988 51.7718 27.818 51.7718H12.875C11.7766 51.7718 11.7766 53.4704 12.875 53.4704H31.2052C31.9859 53.4704 32.621 54.1054 32.621 54.886C32.621 55.6665 31.9859 56.3015 31.2052 56.3015Z" fill="#B68C5A"/>
<path d="M56.9286 36.5201L41.6967 21.2916C42.643 19.7104 42.3492 17.6357 41.0194 16.3661L42.8077 14.5783C45.3631 17.3909 49.7888 13.3907 47.0325 10.6348L41.2687 4.87275C40.4921 4.09625 39.2906 5.2974 40.0674 6.07378L45.8309 11.8359C46.93 12.9347 45.2256 14.5935 44.1491 13.5173L34.3783 3.74883C33.2793 2.65005 34.9836 0.9913 36.0601 2.06743L36.9757 2.98276C37.7524 3.75925 38.9538 2.5581 38.177 1.78172L37.2616 0.866396C34.5274 -1.86713 30.483 2.51258 33.3171 5.09017L20.3519 18.0522C17.7963 15.2435 13.3677 19.2371 16.1271 21.9957L25.8979 31.7643C28.6287 34.4941 32.6815 30.1188 29.8422 27.5405L31.6305 25.7527C32.9001 27.083 34.9778 27.3809 36.5583 26.431L51.7891 41.6583C55.1052 44.9736 60.2448 39.8352 56.9286 36.5201ZM28.7811 30.5632C28.3174 31.0269 27.563 31.0268 27.0993 30.5632L17.3285 20.7945C16.243 19.7095 17.926 18.0293 19.0103 19.1131L28.7811 28.8818C29.2401 29.3405 29.2399 30.1045 28.7811 30.5632ZM28.641 26.3395L21.5533 19.2533L34.5185 6.2912L41.6062 13.3773L28.641 26.3395ZM36.1246 24.6293C35.2045 25.5492 33.7243 25.4491 32.8353 24.5549L39.8213 17.5706C40.7128 18.4645 40.826 19.9289 39.8957 20.8591L36.1246 24.6293ZM55.7272 40.4571C54.9807 41.2035 53.7371 41.2035 52.9906 40.4571L37.8432 25.3133L40.5799 22.5773L55.7272 37.7211C56.4738 38.4675 56.4738 39.7108 55.7272 40.4571Z" fill="#B68C5A"/>
<path d="M6.06404 40.4309L10.9908 43.7635C11.8738 44.3607 12.8502 42.9703 11.943 42.3566L7.01617 39.024C6.1064 38.4086 5.15428 39.8154 6.06404 40.4309Z" fill="#B68C5A"/>
<path d="M23.0853 43.9095C23.249 43.9095 23.4146 43.8622 23.5605 43.7635L28.4873 40.4309C29.3971 39.8154 28.4449 38.4086 27.5352 39.024L22.6084 42.3566C21.9057 42.8319 22.2976 43.9095 23.0853 43.9095Z" fill="#B68C5A"/>
<path d="M18.1253 39.3723V33.7098C18.1253 32.6117 16.4263 32.6117 16.4263 33.7098V39.3723C16.4263 40.4705 18.1253 40.4705 18.1253 39.3723Z" fill="#B68C5A"/>
</g>
</svg>
