<svg width="30" height="30" viewBox="0 0 30 30" fill="none" xmlns="http://www.w3.org/2000/svg">
<path d="M26.9178 20.1005L25.1497 19.7778C23.8588 19.546 22.9179 18.4642 22.8316 17.1733C23.8816 16.2461 24.5861 14.8552 24.7043 13.2689C25.7588 10.4372 26.2224 7.06001 24.4634 5.85095C23.8088 4.49644 22.0907 3.67374 20.018 3.7601C18.0545 3.83283 15.4545 4.84189 14.5727 7.43727C14.5682 7.45545 14.5636 7.47363 14.5591 7.49636C14.2455 9.08267 14.3591 10.9144 14.9227 13.2598C14.9273 13.278 14.9364 13.2962 14.9454 13.3144C15.0682 14.8825 15.7727 16.2597 16.8136 17.1779C16.7318 18.4688 15.7863 19.5506 14.4955 19.7824L12.7319 20.1051C10.9456 20.4278 9.65015 21.9778 9.65015 23.7868V29.5457C9.65015 29.7957 9.85469 30.0003 10.1047 30.0003H29.545C29.795 30.0003 29.9996 29.7957 29.9996 29.5457V23.7822C29.9996 21.9732 28.7041 20.4233 26.9178 20.1005ZM24.2679 6.90546C24.6861 7.4509 24.8043 8.35088 24.7133 9.40539C24.5679 8.71905 24.2815 8.11907 23.7725 7.66453C23.9634 7.42363 24.127 7.16909 24.2679 6.90546ZM15.4454 7.69635C16.1863 5.56005 18.3863 4.72825 20.0544 4.66462C21.6998 4.60553 23.0907 5.20097 23.6134 6.16912C22.7952 8.20088 20.0089 9.66902 16.759 8.56451C16.5999 8.51451 16.4272 8.54633 16.3045 8.65996C16.1818 8.77359 16.1318 8.94631 16.1727 9.1054C16.35 9.79175 16.0227 10.7554 15.5454 11.7781C15.25 10.1781 15.2182 8.85541 15.4454 7.69635ZM15.85 13.2007C16.5136 11.9235 17.0908 10.6872 17.1272 9.62357C19.5771 10.2372 21.7543 9.56902 23.1498 8.32815C24.0815 9.15994 23.9952 10.8463 23.8497 12.6553C23.8316 12.7053 23.8179 12.7598 23.8179 12.8144C23.8179 15.3643 22.0271 17.4415 19.8271 17.4415C17.7363 17.4415 16.0227 15.5689 15.85 13.2007ZM17.6545 17.7688C18.309 18.137 19.0453 18.346 19.8226 18.346C20.5998 18.346 21.3362 18.1324 21.9907 17.7688C22.168 18.5915 22.6089 19.3233 23.2407 19.8551C22.2861 20.6414 21.0998 21.0732 19.8453 21.0732H19.8408C18.5772 21.0732 17.3817 20.6369 16.4227 19.8415C17.0454 19.3097 17.4817 18.5869 17.6545 17.7688ZM17.5863 29.0912H10.5592V23.7822C10.5592 22.4096 11.541 21.2369 12.8955 20.996L14.6591 20.6732C15.0091 20.6096 15.3363 20.5005 15.6409 20.3505C16.4227 21.0596 17.3545 21.5505 18.3635 21.7959L17.5863 29.0912ZM18.4999 29.0912L19.2635 21.9505C19.4544 21.9687 19.6499 21.9778 19.8453 21.9778H19.8544C20.0362 21.9778 20.2135 21.9687 20.3907 21.9505L21.1498 29.0912H18.4999ZM29.0905 29.0912H22.0634L21.2862 21.8096C22.3043 21.5732 23.2452 21.0778 24.0315 20.3642C24.327 20.5051 24.6497 20.6142 24.9861 20.6732L26.7542 20.996C28.1042 21.2414 29.0859 22.4141 29.0859 23.7822V29.0912H29.0905Z" fill="white"/>
<path d="M10.7002 10.1506C10.7865 10.1778 10.8729 10.1915 10.9593 10.1915C11.1411 10.1915 11.3183 10.1324 11.4683 10.0233C11.6956 9.85967 11.8274 9.59604 11.8274 9.31423V0.878113C11.8274 0.600848 11.6911 0.337219 11.4683 0.169042C11.2411 0.00541071 10.9638 -0.0445877 10.7002 0.0417734C9.95475 0.27813 9.40931 0.873567 9.22295 1.60536C7.02301 1.07356 4.80489 1.07356 2.60496 1.60536C2.4186 0.873567 1.87316 0.27813 1.12773 0.0417734C0.8641 -0.0400424 0.586835 0.00541071 0.359569 0.169042C0.136848 0.332674 0.000488281 0.596303 0.000488281 0.878113V9.31423C0.000488281 9.5915 0.136848 9.85513 0.359569 10.0233C0.509565 10.1324 0.686832 10.1915 0.868645 10.1915C0.955006 10.1915 1.04137 10.1778 1.12773 10.1506C1.87316 9.91422 2.4186 9.31423 2.60496 8.58698C3.18676 8.72789 3.77311 8.83243 4.35945 8.89606C3.9731 11.2733 3.71856 14.6732 3.71856 17.5595C3.71856 22.4048 4.414 24.6638 5.90941 24.6638C7.40482 24.6638 8.1048 22.4048 8.1048 17.5595C8.1048 14.6732 7.85026 11.2733 7.46391 8.89606C8.05026 8.82788 8.6366 8.72789 9.2184 8.58698C9.40931 9.31423 9.95475 9.91422 10.7002 10.1506ZM10.0547 2.16444C10.0547 1.59173 10.4184 1.0872 10.9184 0.905385V9.25969C10.4002 9.06879 10.0547 8.57789 10.0547 8.01882V2.16444ZM1.77316 8.02336C1.77316 8.59607 1.40954 9.1006 0.909553 9.28242V0.928111C1.42772 1.11901 1.77316 1.60991 1.77316 2.16444V8.02336ZM5.91395 23.7547C5.70032 23.7547 4.64126 23.4547 4.63217 17.6231C5.04125 17.714 5.4776 17.764 5.91395 17.764C6.35031 17.764 6.78666 17.714 7.19574 17.6231C7.19119 23.4547 6.12758 23.7547 5.91395 23.7547ZM5.91395 15.6959C6.33667 15.6959 6.75938 15.6504 7.15937 15.5595C7.17301 15.9413 7.1821 16.314 7.19119 16.6867C6.4003 16.9004 5.43215 16.9004 4.64126 16.6867C4.64581 16.314 4.65944 15.9368 4.67308 15.5595C5.06852 15.6504 5.49124 15.6959 5.91395 15.6959ZM4.70944 14.6414C4.81399 12.5914 5.01398 10.5415 5.27306 8.96879C5.48669 8.97788 5.70032 8.99152 5.9185 8.99152C6.13668 8.99152 6.34576 8.97788 6.56394 8.96879C6.82302 10.5415 7.02301 12.5914 7.12756 14.6414C6.36394 14.8323 5.46397 14.8323 4.70944 14.6414ZM9.14568 7.67337C7.00029 8.21426 4.82762 8.21426 2.68223 7.67337V2.51443C4.82762 1.97354 7.00029 1.97354 9.14568 2.51443V7.67337Z" fill="white"/>
</svg>
