<svg width="30" height="30" viewBox="0 0 30 30" fill="none" xmlns="http://www.w3.org/2000/svg">
<path d="M4.72984 20.0768C2.12237 20.0768 0.0065918 17.7876 0.0065918 14.9785C0.0065918 14.6836 0.23009 14.4424 0.503253 14.4424H8.9614C9.23457 14.4424 9.45806 14.6836 9.45806 14.9785C9.45806 17.793 7.33732 20.0768 4.72984 20.0768ZM1.03468 15.5146C1.27805 17.4821 2.84253 19.0046 4.73481 19.0046C6.62709 19.0046 8.19158 17.4821 8.43494 15.5146H1.03468Z" fill="white"/>
<path d="M8.96143 15.5144C8.76774 15.5144 8.58894 15.3965 8.50451 15.1928L4.72988 5.88611L0.955249 15.1928C0.845984 15.4608 0.552953 15.5895 0.299656 15.4662C0.0463582 15.3482 -0.067874 15.0319 0.0413915 14.7585L4.26798 4.33142C4.34745 4.13843 4.52625 4.00977 4.72491 4.00977C4.92358 4.00977 5.10237 4.13843 5.18184 4.33142L9.40843 14.7585C9.5177 15.0319 9.40346 15.3482 9.15017 15.4662C9.09553 15.4983 9.026 15.5144 8.96143 15.5144Z" fill="white"/>
<path d="M12.3089 5.08763H4.72982C4.45665 5.08763 4.23315 4.84638 4.23315 4.55153C4.23315 3.20056 5.25131 2.10156 6.5029 2.10156H12.3089C12.4678 2.10156 12.6168 2.18198 12.7112 2.32672C12.8055 2.46611 12.8304 2.64838 12.7807 2.80921C12.7012 3.06654 12.6615 3.32923 12.6615 3.59191C12.6615 3.85996 12.7012 4.12801 12.7807 4.38534C12.8304 4.54617 12.8055 4.72844 12.7112 4.86783C12.6218 5.00721 12.4678 5.08763 12.3089 5.08763ZM5.33078 4.01543H11.693C11.6781 3.87605 11.6682 3.7313 11.6682 3.59191C11.6682 3.45253 11.6781 3.31314 11.693 3.17376H6.50786C5.97644 3.17376 5.52447 3.52222 5.33078 4.01543Z" fill="white"/>
<path d="M25.2718 5.08713H17.6878C17.5288 5.08713 17.3798 5.00672 17.2855 4.86197C17.1911 4.72258 17.1663 4.54031 17.2159 4.37948C17.2954 4.12215 17.3351 3.8541 17.3351 3.58606C17.3351 3.32337 17.2954 3.05532 17.2159 2.80335C17.1663 2.64252 17.1911 2.46025 17.2855 2.32086C17.3798 2.18148 17.5288 2.0957 17.6878 2.0957H23.4987C24.7503 2.0957 25.7685 3.1947 25.7685 4.54567C25.7685 4.84589 25.545 5.08713 25.2718 5.08713ZM18.3086 4.01493H24.6758C24.4821 3.52172 24.0252 3.17326 23.4987 3.17326H18.3086C18.3235 3.31265 18.3334 3.45203 18.3334 3.59142C18.3334 3.73616 18.3235 3.87555 18.3086 4.01493Z" fill="white"/>
<path d="M25.2718 20.0768C22.6644 20.0768 20.5486 17.7876 20.5486 14.9785C20.5486 14.6836 20.7721 14.4424 21.0452 14.4424H29.5034C29.7766 14.4424 30.0001 14.6836 30.0001 14.9785C29.9951 17.793 27.8743 20.0768 25.2718 20.0768ZM21.5717 15.5146C21.8151 17.4821 23.3796 19.0046 25.2718 19.0046C27.1592 19.0046 28.7286 17.4821 28.972 15.5146H21.5717Z" fill="white"/>
<path d="M29.4982 15.5144C29.3045 15.5144 29.1257 15.3965 29.0413 15.1928L25.2666 5.88611L21.492 15.1928C21.3827 15.4608 21.0897 15.5895 20.8364 15.4662C20.5831 15.3482 20.4689 15.0319 20.5781 14.7585L24.8047 4.33142C24.8842 4.13843 25.063 4.00977 25.2617 4.00977C25.4603 4.00977 25.6391 4.13843 25.7186 4.33142L29.9452 14.7585C30.0544 15.0319 29.9402 15.3482 29.6869 15.4662C29.6323 15.4983 29.5627 15.5144 29.4982 15.5144Z" fill="white"/>
<path d="M16.2178 24.864H13.7841C13.511 24.864 13.2875 24.6228 13.2875 24.3279V6.35258C13.2875 6.16495 13.3769 5.99339 13.5209 5.8969C13.6649 5.8004 13.8487 5.78968 14.0027 5.87009C14.6136 6.19711 15.3735 6.19711 15.9992 5.87545C16.1532 5.79504 16.332 5.80576 16.476 5.90762C16.6201 6.00412 16.7095 6.17567 16.7095 6.3633V24.3279C16.7144 24.6228 16.4909 24.864 16.2178 24.864ZM14.2808 23.7918H15.7211V7.10312C15.2493 7.2157 14.7526 7.2157 14.2808 7.10312V23.7918Z" fill="white"/>
<path d="M20.7074 27.1587H9.29415C9.02098 27.1587 8.79749 26.9174 8.79749 26.6226V25.8989C8.79749 24.7355 9.67161 23.792 10.7494 23.792H19.2522C20.33 23.792 21.2041 24.7355 21.2041 25.8989V26.6226C21.2041 26.9174 20.9806 27.1587 20.7074 27.1587ZM9.79081 26.0865H20.2108V25.8989C20.2108 25.3252 19.7787 24.8642 19.2522 24.8642H10.7494C10.2179 24.8642 9.79081 25.3306 9.79081 25.8989V26.0865Z" fill="white"/>
<path d="M15.0008 7.18907C14.4992 7.18907 14.0025 7.06577 13.5655 6.82989C12.7559 6.41709 12.1202 5.64511 11.8371 4.71766C11.7228 4.35312 11.6682 3.97249 11.6682 3.59186C11.6682 3.21123 11.7278 2.83596 11.8371 2.46605C12.2841 0.991781 13.5506 0 14.9958 0C16.4411 0 17.7126 0.991781 18.1596 2.47141C18.2738 2.83596 18.3284 3.21123 18.3284 3.59186C18.3284 3.97785 18.2688 4.35312 18.1596 4.72302C17.8765 5.65583 17.2457 6.42781 16.4262 6.84061C15.9892 7.06577 15.4925 7.18907 15.0008 7.18907ZM15.0008 1.0722C13.9876 1.0722 13.0936 1.76912 12.7857 2.80379C12.7062 3.06648 12.6665 3.32917 12.6665 3.59186C12.6665 3.85991 12.7062 4.12795 12.7857 4.38528C12.9844 5.03932 13.4264 5.57542 13.9976 5.86491C14.6283 6.19729 15.3733 6.19729 16.0041 5.87027C16.5802 5.58078 17.0222 5.03932 17.2209 4.38528C17.3004 4.12795 17.3401 3.85991 17.3401 3.59186C17.3401 3.32917 17.3004 3.06112 17.2209 2.80915C16.903 1.76912 16.014 1.0722 15.0008 1.0722Z" fill="white"/>
<path d="M25.0582 30H4.94344C4.67028 30 4.44678 29.7587 4.44678 29.4639V28.4024C4.44678 27.1265 5.4103 26.0918 6.58739 26.0918H23.4093C24.5914 26.0918 25.5499 27.1265 25.5499 28.4024V29.4639C25.5549 29.7587 25.3314 30 25.0582 30ZM5.4401 28.9278H24.5616V28.4024C24.5616 27.7162 24.045 27.164 23.4143 27.164H6.58739C5.95166 27.164 5.4401 27.7215 5.4401 28.4024V28.9278Z" fill="white"/>
</svg>
