<svg width="30" height="30" viewBox="0 0 30 30" fill="none" xmlns="http://www.w3.org/2000/svg">
<path d="M26.9178 20.1003L25.1497 19.7776C23.8588 19.5458 22.9179 18.464 22.8316 17.1731C23.8816 16.2459 24.5861 14.855 24.7043 13.2687C25.7588 10.4369 26.2224 7.05976 24.4634 5.85071C23.8088 4.4962 22.0907 3.6735 20.018 3.75986C18.0545 3.83258 15.4545 4.84164 14.5727 7.43702C14.5682 7.4552 14.5636 7.47339 14.5591 7.49611C14.2455 9.08243 14.3591 10.9142 14.9227 13.2596C14.9273 13.2778 14.9364 13.2959 14.9454 13.3141C15.0682 14.8823 15.7727 16.2595 16.8136 17.1777C16.7318 18.4685 15.7863 19.5503 14.4955 19.7821L12.7319 20.1048C10.9456 20.4276 9.65015 21.9775 9.65015 23.7866V29.5455C9.65015 29.7955 9.85469 30 10.1047 30H29.545C29.795 30 29.9996 29.7955 29.9996 29.5455V23.782C29.9996 21.973 28.7041 20.423 26.9178 20.1003ZM24.2679 6.90522C24.6861 7.45066 24.8043 8.35063 24.7133 9.40515C24.5679 8.7188 24.2815 8.11882 23.7725 7.66429C23.9634 7.42339 24.127 7.16885 24.2679 6.90522ZM15.4454 7.69611C16.1863 5.5598 18.3863 4.72801 20.0544 4.66438C21.6998 4.60529 23.0907 5.20072 23.6134 6.16888C22.7952 8.20064 20.0089 9.66878 16.759 8.56426C16.5999 8.51426 16.4272 8.54608 16.3045 8.65971C16.1818 8.77335 16.1318 8.94607 16.1727 9.10516C16.35 9.7915 16.0227 10.7551 15.5454 11.7778C15.25 10.1779 15.2182 8.85516 15.4454 7.69611ZM15.85 13.2005C16.5136 11.9233 17.0908 10.6869 17.1272 9.62332C19.5771 10.2369 21.7543 9.56878 23.1498 8.32791C24.0815 9.1597 23.9952 10.846 23.8497 12.6551C23.8316 12.7051 23.8179 12.7596 23.8179 12.8141C23.8179 15.3641 22.0271 17.4413 19.8271 17.4413C17.7363 17.4413 16.0227 15.5686 15.85 13.2005ZM17.6545 17.7685C18.309 18.1367 19.0453 18.3458 19.8226 18.3458C20.5998 18.3458 21.3362 18.1322 21.9907 17.7685C22.168 18.5912 22.6089 19.323 23.2407 19.8548C22.2861 20.6412 21.0998 21.073 19.8453 21.073H19.8408C18.5772 21.073 17.3817 20.6366 16.4227 19.8412C17.0454 19.3094 17.4817 18.5867 17.6545 17.7685ZM17.5863 29.0909H10.5592V23.782C10.5592 22.4093 11.541 21.2366 12.8955 20.9957L14.6591 20.673C15.0091 20.6094 15.3363 20.5003 15.6409 20.3503C16.4227 21.0594 17.3545 21.5503 18.3635 21.7957L17.5863 29.0909ZM18.4999 29.0909L19.2635 21.9502C19.4544 21.9684 19.6499 21.9775 19.8453 21.9775H19.8544C20.0362 21.9775 20.2135 21.9684 20.3907 21.9502L21.1498 29.0909H18.4999ZM29.0905 29.0909H22.0634L21.2862 21.8093C22.3043 21.573 23.2452 21.0775 24.0315 20.3639C24.327 20.5048 24.6497 20.6139 24.9861 20.673L26.7542 20.9957C28.1042 21.2412 29.0859 22.4139 29.0859 23.782V29.0909H29.0905Z" fill="white"/>
<path d="M10.7002 10.1506C10.7865 10.1778 10.8729 10.1915 10.9593 10.1915C11.1411 10.1915 11.3183 10.1324 11.4683 10.0233C11.6956 9.85967 11.8274 9.59604 11.8274 9.31423V0.878113C11.8274 0.600848 11.6911 0.337219 11.4683 0.169042C11.2411 0.00541071 10.9638 -0.0445877 10.7002 0.0417734C9.95475 0.27813 9.40931 0.873567 9.22295 1.60536C7.02301 1.07356 4.80489 1.07356 2.60496 1.60536C2.4186 0.873567 1.87316 0.27813 1.12773 0.0417734C0.8641 -0.0400424 0.586835 0.00541071 0.359569 0.169042C0.136848 0.332674 0.000488281 0.596303 0.000488281 0.878113V9.31423C0.000488281 9.5915 0.136848 9.85513 0.359569 10.0233C0.509565 10.1324 0.686832 10.1915 0.868645 10.1915C0.955006 10.1915 1.04137 10.1778 1.12773 10.1506C1.87316 9.91422 2.4186 9.31423 2.60496 8.58698C3.18676 8.72789 3.77311 8.83243 4.35945 8.89606C3.9731 11.2733 3.71856 14.6732 3.71856 17.5595C3.71856 22.4048 4.414 24.6638 5.90941 24.6638C7.40482 24.6638 8.1048 22.4048 8.1048 17.5595C8.1048 14.6732 7.85026 11.2733 7.46391 8.89606C8.05026 8.82788 8.6366 8.72789 9.2184 8.58698C9.40931 9.31423 9.95475 9.91422 10.7002 10.1506ZM10.0547 2.16444C10.0547 1.59173 10.4184 1.0872 10.9184 0.905385V9.25969C10.4002 9.06879 10.0547 8.57789 10.0547 8.01882V2.16444ZM1.77316 8.02336C1.77316 8.59607 1.40954 9.1006 0.909553 9.28242V0.928111C1.42772 1.11901 1.77316 1.60991 1.77316 2.16444V8.02336ZM5.91395 23.7547C5.70032 23.7547 4.64126 23.4547 4.63217 17.6231C5.04125 17.714 5.4776 17.764 5.91395 17.764C6.35031 17.764 6.78666 17.714 7.19574 17.6231C7.19119 23.4547 6.12758 23.7547 5.91395 23.7547ZM5.91395 15.6959C6.33667 15.6959 6.75938 15.6504 7.15937 15.5595C7.17301 15.9413 7.1821 16.314 7.19119 16.6867C6.4003 16.9004 5.43215 16.9004 4.64126 16.6867C4.64581 16.314 4.65944 15.9368 4.67308 15.5595C5.06852 15.6504 5.49124 15.6959 5.91395 15.6959ZM4.70944 14.6414C4.81399 12.5914 5.01398 10.5415 5.27306 8.96879C5.48669 8.97788 5.70032 8.99152 5.9185 8.99152C6.13668 8.99152 6.34576 8.97788 6.56394 8.96879C6.82302 10.5415 7.02301 12.5914 7.12756 14.6414C6.36394 14.8323 5.46397 14.8323 4.70944 14.6414ZM9.14568 7.67337C7.00029 8.21426 4.82762 8.21426 2.68223 7.67337V2.51443C4.82762 1.97354 7.00029 1.97354 9.14568 2.51443V7.67337Z" fill="white"/>
</svg>
