<svg width="30" height="30" viewBox="0 0 30 30" fill="none" xmlns="http://www.w3.org/2000/svg">
<path d="M4.72984 20.0769C2.12237 20.0769 0.0065918 17.7878 0.0065918 14.9786C0.0065918 14.6837 0.23009 14.4425 0.503253 14.4425H8.9614C9.23457 14.4425 9.45806 14.6837 9.45806 14.9786C9.45806 17.7931 7.33732 20.0769 4.72984 20.0769ZM1.03468 15.5147C1.27805 17.4822 2.84253 19.0047 4.73481 19.0047C6.62709 19.0047 8.19158 17.4822 8.43494 15.5147H1.03468Z" fill="white"/>
<path d="M8.96143 15.5147C8.76774 15.5147 8.58894 15.3967 8.50451 15.193L4.72988 5.88635L0.955249 15.193C0.845984 15.4611 0.552953 15.5897 0.299656 15.4664C0.0463582 15.3485 -0.067874 15.0322 0.0413915 14.7588L4.26798 4.33167C4.34745 4.13867 4.52625 4.01001 4.72491 4.01001C4.92358 4.01001 5.10237 4.13867 5.18184 4.33167L9.40843 14.7588C9.5177 15.0322 9.40346 15.3485 9.15017 15.4664C9.09553 15.4986 9.026 15.5147 8.96143 15.5147Z" fill="white"/>
<path d="M12.3089 5.08751H4.72982C4.45665 5.08751 4.23315 4.84626 4.23315 4.55141C4.23315 3.20044 5.25131 2.10144 6.5029 2.10144H12.3089C12.4678 2.10144 12.6168 2.18185 12.7112 2.3266C12.8055 2.46599 12.8304 2.64826 12.7807 2.80909C12.7012 3.06642 12.6615 3.3291 12.6615 3.59179C12.6615 3.85984 12.7012 4.12789 12.7807 4.38522C12.8304 4.54605 12.8055 4.72832 12.7112 4.86771C12.6218 5.00709 12.4678 5.08751 12.3089 5.08751ZM5.33078 4.01531H11.693C11.6781 3.87592 11.6682 3.73118 11.6682 3.59179C11.6682 3.45241 11.6781 3.31302 11.693 3.17364H6.50786C5.97644 3.17364 5.52447 3.5221 5.33078 4.01531Z" fill="white"/>
<path d="M25.2718 5.0875H17.6878C17.5288 5.0875 17.3798 5.00708 17.2855 4.86233C17.1911 4.72295 17.1663 4.54068 17.2159 4.37985C17.2954 4.12252 17.3351 3.85447 17.3351 3.58642C17.3351 3.32373 17.2954 3.05568 17.2159 2.80372C17.1663 2.64289 17.1911 2.46062 17.2855 2.32123C17.3798 2.18185 17.5288 2.09607 17.6878 2.09607H23.4987C24.7503 2.09607 25.7685 3.19507 25.7685 4.54604C25.7685 4.84625 25.545 5.0875 25.2718 5.0875ZM18.3086 4.0153H24.6758C24.4821 3.52209 24.0252 3.17363 23.4987 3.17363H18.3086C18.3235 3.31301 18.3334 3.4524 18.3334 3.59178C18.3334 3.73653 18.3235 3.87591 18.3086 4.0153Z" fill="white"/>
<path d="M25.2718 20.0769C22.6644 20.0769 20.5486 17.7878 20.5486 14.9786C20.5486 14.6837 20.7721 14.4425 21.0452 14.4425H29.5034C29.7766 14.4425 30.0001 14.6837 30.0001 14.9786C29.9951 17.7931 27.8743 20.0769 25.2718 20.0769ZM21.5717 15.5147C21.8151 17.4822 23.3796 19.0047 25.2718 19.0047C27.1592 19.0047 28.7286 17.4822 28.972 15.5147H21.5717Z" fill="white"/>
<path d="M29.4983 15.5147C29.3046 15.5147 29.1258 15.3967 29.0414 15.193L25.2667 5.88635L21.4921 15.193C21.3828 15.4611 21.0898 15.5897 20.8365 15.4664C20.5832 15.3485 20.469 15.0322 20.5783 14.7588L24.8048 4.33167C24.8843 4.13867 25.0631 4.01001 25.2618 4.01001C25.4604 4.01001 25.6392 4.13867 25.7187 4.33167L29.9453 14.7588C30.0546 15.0322 29.9403 15.3485 29.687 15.4664C29.6324 15.4986 29.5629 15.5147 29.4983 15.5147Z" fill="white"/>
<path d="M16.2177 24.8642H13.784C13.5109 24.8642 13.2874 24.6229 13.2874 24.3281V6.3527C13.2874 6.16507 13.3768 5.99352 13.5208 5.89702C13.6648 5.80052 13.8486 5.7898 14.0025 5.87021C14.6134 6.19723 15.3733 6.19723 15.9991 5.87557C16.1531 5.79516 16.3319 5.80588 16.4759 5.90774C16.62 6.00424 16.7094 6.17579 16.7094 6.36342V24.3281C16.7143 24.6229 16.4908 24.8642 16.2177 24.8642ZM14.2807 23.792H15.721V7.10324C15.2492 7.21582 14.7525 7.21582 14.2807 7.10324V23.792Z" fill="white"/>
<path d="M20.7076 27.1587H9.29427C9.02111 27.1587 8.79761 26.9174 8.79761 26.6226V25.8989C8.79761 24.7355 9.67173 23.792 10.7495 23.792H19.2523C20.3301 23.792 21.2042 24.7355 21.2042 25.8989V26.6226C21.2042 26.9174 20.9807 27.1587 20.7076 27.1587ZM9.79093 26.0865H20.2109V25.8989C20.2109 25.3252 19.7788 24.8642 19.2523 24.8642H10.7495C10.2181 24.8642 9.79093 25.3306 9.79093 25.8989V26.0865Z" fill="white"/>
<path d="M15.0008 7.18907C14.4992 7.18907 14.0025 7.06577 13.5655 6.82989C12.7559 6.41709 12.1202 5.64511 11.8371 4.71766C11.7228 4.35312 11.6682 3.97249 11.6682 3.59186C11.6682 3.21123 11.7278 2.83596 11.8371 2.46605C12.2841 0.991781 13.5506 0 14.9958 0C16.4411 0 17.7126 0.991781 18.1596 2.47141C18.2738 2.83596 18.3284 3.21123 18.3284 3.59186C18.3284 3.97785 18.2688 4.35312 18.1596 4.72302C17.8765 5.65583 17.2457 6.42781 16.4262 6.84061C15.9892 7.06577 15.4925 7.18907 15.0008 7.18907ZM15.0008 1.0722C13.9876 1.0722 13.0936 1.76912 12.7857 2.80379C12.7062 3.06648 12.6665 3.32917 12.6665 3.59186C12.6665 3.85991 12.7062 4.12795 12.7857 4.38528C12.9844 5.03932 13.4264 5.57542 13.9976 5.86491C14.6283 6.19729 15.3733 6.19729 16.0041 5.87027C16.5802 5.58078 17.0222 5.03932 17.2209 4.38528C17.3004 4.12795 17.3401 3.85991 17.3401 3.59186C17.3401 3.32917 17.3004 3.06112 17.2209 2.80915C16.903 1.76912 16.014 1.0722 15.0008 1.0722Z" fill="white"/>
<path d="M25.0582 30H4.94344C4.67028 30 4.44678 29.7587 4.44678 29.4639V28.4024C4.44678 27.1265 5.4103 26.0918 6.58739 26.0918H23.4093C24.5914 26.0918 25.5499 27.1265 25.5499 28.4024V29.4639C25.5549 29.7587 25.3314 30 25.0582 30ZM5.4401 28.9278H24.5616V28.4024C24.5616 27.7162 24.045 27.164 23.4143 27.164H6.58739C5.95166 27.164 5.4401 27.7215 5.4401 28.4024V28.9278Z" fill="white"/>
</svg>
