<svg width="36" height="36" viewBox="0 0 36 36" fill="none" xmlns="http://www.w3.org/2000/svg">
<path d="M30.0756 27.1305C30.9708 26.3699 31.5402 25.2371 31.5402 23.9733V22.4441C31.5402 20.1595 29.6816 18.3009 27.397 18.3009C25.1125 18.3009 23.2539 20.1595 23.2539 22.4441V23.9733C23.2539 25.2455 23.8307 26.385 24.736 27.1457C23.1714 27.6634 21.774 28.6267 20.7266 29.9391C20.5948 29.8712 20.461 29.8066 20.3238 29.7483C20.9721 29.1323 21.3776 28.263 21.3776 27.3003C21.3776 25.4373 19.862 23.9217 17.999 23.9217C16.1361 23.9217 14.6204 25.4373 14.6204 27.3003C14.6204 28.2585 15.0221 29.1241 15.6651 29.7396C15.528 29.7971 15.3942 29.8608 15.2625 29.9279C14.2111 28.615 12.809 27.6527 11.2399 27.1383C12.1403 26.3777 12.7136 25.2414 12.7136 23.9732V22.444C12.7136 20.1594 10.8549 18.3008 8.57034 18.3008C6.28579 18.3008 4.42719 20.1594 4.42719 22.444V23.9732C4.42719 25.241 5.00024 26.377 5.90018 27.1377C2.47747 28.2625 -0.000976562 31.4884 -0.000976562 35.2827C-0.000976562 35.6706 0.313545 35.9852 0.70155 35.9852C1.08956 35.9852 1.40408 35.6706 1.40408 35.2827C1.40408 31.3312 4.61891 28.1163 8.57041 28.1163C10.7158 28.1163 12.7338 29.0756 14.0899 30.7116C12.797 31.8147 11.9749 33.454 11.9749 35.2827C11.9749 35.6706 12.2894 35.9852 12.6774 35.9852C13.0654 35.9852 13.3799 35.6706 13.3799 35.2827C13.3799 32.7441 15.4451 30.6789 17.9837 30.6789C20.5223 30.6789 22.5875 32.7441 22.5875 35.2827C22.5875 35.6706 22.902 35.9852 23.29 35.9852C23.678 35.9852 23.9926 35.6706 23.9926 35.2827C23.9926 33.4625 23.178 31.83 21.8955 30.7272C23.2517 29.0818 25.2755 28.1163 27.4277 28.1163C31.3792 28.1163 34.594 31.3312 34.594 35.2827C34.594 35.6706 34.9085 35.9852 35.2965 35.9852C35.6845 35.9852 35.999 35.6706 35.999 35.2827C35.999 31.4802 33.5098 28.2486 30.0756 27.1305ZM5.83224 23.9733V22.4441C5.83224 20.9343 7.06054 19.7059 8.57041 19.7059C10.0802 19.7059 11.3085 20.9342 11.3085 22.4441V23.9733C11.3085 25.483 10.0802 26.7114 8.57041 26.7114C7.06061 26.7113 5.83224 25.483 5.83224 23.9733ZM17.999 25.3268C19.0872 25.3268 19.9726 26.2121 19.9726 27.3003C19.9726 28.3885 19.0872 29.2738 17.999 29.2738C16.9108 29.2738 16.0255 28.3885 16.0255 27.3003C16.0255 26.2121 16.9109 25.3268 17.999 25.3268ZM24.6589 22.4441C24.6589 20.9343 25.8872 19.7059 27.3971 19.7059C28.9069 19.7059 30.1352 20.9342 30.1352 22.4441V23.9733C30.1352 25.483 28.9069 26.7114 27.397 26.7114C25.8872 26.7114 24.6589 25.4831 24.6589 23.9733V22.4441Z" fill="#B68C5A"/>
<path d="M9.12048 14.6048C10.2089 14.6048 11.2321 14.181 12.0017 13.4113C12.7713 12.6418 13.1951 11.6185 13.1951 10.5301C13.1951 10.4245 13.1713 10.3204 13.1255 10.2253L10.2386 4.23079H15.7359V14.4877H15.5956C14.0267 14.4877 12.7502 15.7642 12.7502 17.3332V18.0003C12.7502 18.3882 13.0647 18.7028 13.4527 18.7028H22.5153C22.9033 18.7028 23.2178 18.3882 23.2178 18.0003V17.3332C23.2178 15.7642 21.9413 14.4877 20.3724 14.4877H20.2321V12.0199C20.2321 11.632 19.9175 11.3174 19.5295 11.3174C19.1415 11.3174 18.827 11.632 18.827 12.0199V14.4877H17.141V2.26371C17.141 1.79885 17.5191 1.42068 17.984 1.42068C18.4488 1.42068 18.827 1.79885 18.827 2.26371V5.69717C18.827 6.08511 19.1415 6.3997 19.5295 6.3997C19.9175 6.3997 20.2321 6.08511 20.2321 5.69717V4.23079H25.7294L22.8424 10.2253C22.7966 10.3204 22.7729 10.4245 22.7729 10.5301C22.7729 11.6185 23.1967 12.6418 23.9663 13.4113C24.7359 14.181 25.7591 14.6048 26.8475 14.6048C29.0942 14.6048 30.9221 12.7769 30.9221 10.5301C30.9221 10.4156 30.8947 10.3074 30.8461 10.212C30.7268 9.96432 28.8685 6.10576 27.9656 4.23079H29.1074C29.4954 4.23079 29.8099 3.91619 29.8099 3.52826C29.8099 3.14032 29.4954 2.82573 29.1074 2.82573H20.2321V2.26371C20.2321 1.0241 19.2236 0.015625 17.984 0.015625C16.7444 0.015625 15.7359 1.0241 15.7359 2.26371V2.82573H6.86067C6.47266 2.82573 6.15814 3.14032 6.15814 3.52826C6.15814 3.91619 6.47266 4.23079 6.86067 4.23079H8.00241C7.09967 6.10527 5.24155 9.96354 5.12184 10.2121C5.0733 10.3076 5.0459 10.4156 5.0459 10.5301C5.04583 12.7769 6.87373 14.6048 9.12048 14.6048ZM20.3724 15.8927C21.1548 15.8927 21.7935 16.5198 21.8123 17.2978H14.1556C14.1745 16.5198 14.8132 15.8927 15.5956 15.8927H20.3724ZM26.8475 5.14737L29.1015 9.82761H24.5934L26.8475 5.14737ZM26.8475 13.1997C26.1344 13.1997 25.464 12.922 24.9598 12.4178C24.6258 12.0838 24.3919 11.6767 24.2715 11.2327H29.4226C29.1133 12.3649 28.0763 13.1997 26.8475 13.1997ZM9.12048 13.1997C7.89155 13.1997 6.85462 12.3649 6.54537 11.2327H11.6964C11.5761 11.6767 11.3422 12.0838 11.0082 12.4178C10.504 12.922 9.83362 13.1997 9.12048 13.1997ZM6.8665 9.82761L9.12048 5.14737L11.3745 9.82761H6.8665Z" fill="#B68C5A"/>
<path d="M19.5297 8.15625C19.3449 8.15625 19.1637 8.23135 19.033 8.36209C18.9023 8.49276 18.8271 8.67401 18.8271 8.85878C18.8271 9.04424 18.9023 9.22479 19.033 9.35539C19.1637 9.48677 19.3449 9.5613 19.5297 9.5613C19.7144 9.5613 19.8957 9.48677 20.0264 9.35539C20.157 9.22479 20.2322 9.04354 20.2322 8.85878C20.2322 8.67401 20.157 8.49276 20.0264 8.36209C19.8957 8.23142 19.7144 8.15625 19.5297 8.15625Z" fill="#B68C5A"/>
</svg>
