<svg width="30" height="36" viewBox="0 0 30 36" fill="none" xmlns="http://www.w3.org/2000/svg">
<path d="M28.5 0H4.3125C2.37398 0 0.796875 1.57711 0.796875 3.51562V32.4844C0.796875 34.4229 2.37398 36 4.3125 36H28.5C28.8883 36 29.2031 35.6851 29.2031 35.2969V19.7578C29.2031 19.3695 28.8883 19.0547 28.5 19.0547C28.1117 19.0547 27.7969 19.3695 27.7969 19.7578V28.9688H4.3125C3.5217 28.9688 2.79115 29.2314 2.20312 29.6738V26.9843L11.8696 17.3178L13.1451 18.5933C13.0615 18.8244 13.0177 19.0708 13.0177 19.3238C13.0177 19.6265 13.0806 19.9193 13.1992 20.1881H12.1875C11.7992 20.1881 11.4844 20.503 11.4844 20.8913V24.8288C11.4844 25.217 11.7992 25.5319 12.1875 25.5319H24.3047C24.6929 25.5319 25.0078 25.217 25.0078 24.8288V20.8913C25.0078 20.503 24.6929 20.1881 24.3047 20.1881H17.3278L21.3318 16.1842V16.1841C22.1674 15.3484 22.1674 13.9888 21.3317 13.1531C20.7258 12.5472 19.8442 12.3811 19.0868 12.654L13.1025 6.66956C13.3754 5.91209 13.2092 5.03065 12.6033 4.42462C12.1984 4.01984 11.6602 3.79688 11.0877 3.79688C10.5152 3.79688 9.97694 4.01984 9.57216 4.42462L4.91691 9.0798C4.51212 9.48466 4.28916 10.0228 4.28916 10.5954C4.28916 11.1679 4.51212 11.7061 4.91691 12.1109C5.32177 12.5157 5.86001 12.7387 6.43242 12.7387C6.68555 12.7387 6.93185 12.6949 7.16297 12.6113L8.43844 13.8868L2.20312 20.1221V3.51562C2.20312 2.35252 3.14939 1.40625 4.3125 1.40625H27.7969V13.4297C27.7969 13.818 28.1117 14.1328 28.5 14.1328C28.8883 14.1328 29.2031 13.818 29.2031 13.4297V0.703125C29.2031 0.314859 28.8883 0 28.5 0ZM23.6015 24.1256H12.8906V21.5944H23.6015V24.1256ZM4.3125 30.375H27.7969V34.5938H4.3125C3.14939 34.5938 2.20312 33.6475 2.20312 32.4844C2.20312 31.3213 3.14939 30.375 4.3125 30.375ZM20.3374 14.1474C20.6246 14.4348 20.6246 14.9024 20.3374 15.1897L15.6821 19.845C15.543 19.9841 15.3579 20.0608 15.161 20.0608C14.9641 20.0608 14.7791 19.9841 14.6399 19.8449C14.5007 19.7058 14.424 19.5207 14.424 19.3238C14.424 19.127 14.5006 18.9419 14.6399 18.8028L19.2951 14.1475C19.4388 14.0038 19.6275 13.932 19.8162 13.932C20.005 13.932 20.1937 14.0039 20.3374 14.1474ZM5.91134 11.1165C5.77219 10.9773 5.69548 10.7923 5.69548 10.5954C5.69548 10.3985 5.77212 10.2134 5.91134 10.0742L10.5666 5.41905C10.7057 5.27984 10.8909 5.2032 11.0877 5.2032C11.2846 5.2032 11.4697 5.27984 11.6089 5.41905C11.8961 5.70621 11.8962 6.17323 11.6096 6.46059L6.95372 11.1165C6.81457 11.2557 6.62944 11.3323 6.43256 11.3323C6.23569 11.3323 6.05055 11.2557 5.91134 11.1165ZM12.2515 7.80736L17.9489 13.5049L13.9971 17.4566L8.29964 11.7591L12.2515 7.80736ZM10.8753 16.3235L9.6758 17.5229L8.23348 16.0806L9.43294 14.8811L10.8753 16.3235ZM7.23912 17.075L8.68144 18.5173L2.20312 24.9955V22.1109L7.23912 17.075Z" fill="#B68C5A"/>
<path d="M25.125 4.07812H18.9434C18.5551 4.07812 18.2402 4.39298 18.2402 4.78125C18.2402 5.16952 18.5551 5.48438 18.9434 5.48438H25.125C25.5133 5.48438 25.8281 5.16952 25.8281 4.78125C25.8281 4.39298 25.5133 4.07812 25.125 4.07812Z" fill="#B68C5A"/>
<path d="M25.125 7.17188H22.0342C21.6459 7.17188 21.3311 7.48673 21.3311 7.875C21.3311 8.26327 21.6459 8.57812 22.0342 8.57812H25.125C25.5132 8.57812 25.8281 8.26327 25.8281 7.875C25.8281 7.48673 25.5132 7.17188 25.125 7.17188Z" fill="#B68C5A"/>
<path d="M28.5 15.8906C28.3151 15.8906 28.1337 15.9658 28.0029 16.0966C27.8721 16.2275 27.7969 16.4088 27.7969 16.5938C27.7969 16.7787 27.872 16.9601 28.0029 17.0908C28.1337 17.2216 28.3151 17.2969 28.5 17.2969C28.6849 17.2969 28.8663 17.2216 28.997 17.0908C29.1279 16.9601 29.2031 16.7787 29.2031 16.5938C29.2031 16.4088 29.1279 16.2274 28.997 16.0966C28.8663 15.9658 28.6849 15.8906 28.5 15.8906Z" fill="#B68C5A"/>
</svg>
