<svg width="36" height="36" viewBox="0 0 36 36" fill="none" xmlns="http://www.w3.org/2000/svg">
<g clip-path="url(#clip0_1488_1127)">
<path d="M8.2814 12.2584C8.00718 11.9842 7.5614 11.9842 7.28725 12.2584C7.01232 12.5333 7.01232 12.9784 7.28725 13.2526C7.56147 13.5275 8.00725 13.5275 8.2814 13.2526C8.55625 12.9784 8.55625 12.5333 8.2814 12.2584Z" fill="#B68C5A"/>
<path d="M17.8031 31.4801C18.1131 31.0602 18.2807 30.5543 18.2807 30.0224C18.2807 28.6655 17.1767 27.5615 15.8198 27.5615H3.86705C3.20942 27.5615 2.59144 27.8175 2.12689 28.2822C1.66212 28.7468 1.40618 29.3648 1.40618 30.0224C1.40618 30.5672 1.5845 31.0711 1.88536 31.4793C0.765775 32.0679 0 33.2422 0 34.5925V35.2956C0 35.684 0.31486 35.9988 0.703126 35.9988H18.9837C19.372 35.9988 19.6868 35.684 19.6868 35.2956V34.5925C19.6868 33.2428 18.9218 32.0691 17.8031 31.4801ZM3.12118 29.2764C3.32023 29.0773 3.58517 28.9676 3.86705 28.9676H15.8198C16.4013 28.9676 16.8744 29.4408 16.8744 30.0223C16.8744 30.3042 16.7647 30.5691 16.5656 30.7682C16.3665 30.9673 16.1016 31.0769 15.8197 31.0769H3.86705C3.2855 31.0769 2.81244 30.6038 2.81244 30.0223C2.81244 29.7404 2.92205 29.4755 3.12118 29.2764ZM1.40618 34.5925C1.40618 33.4295 2.35245 32.4832 3.51549 32.4832H3.86705H15.8198H16.1713C17.3344 32.4832 18.2807 33.4295 18.2807 34.5925H1.40618Z" fill="#B68C5A"/>
<path d="M35.3461 29.54C35.1074 29.1699 34.8225 28.8427 34.4992 28.5673L31.2139 25.7019C31.1883 25.6633 31.1586 25.6268 31.1246 25.5928C31.0676 25.5358 31.0029 25.4913 30.9341 25.458L28.9473 23.7251L19.7511 15.7031C20.1275 15.3095 20.3348 14.7949 20.3348 14.2477C20.3348 13.6839 20.1154 13.1541 19.7165 12.7553C19.5425 12.5815 19.3448 12.4449 19.1335 12.3449L19.9843 11.4941C20.2221 11.5573 20.4664 11.5896 20.711 11.5896C21.4311 11.5896 22.1512 11.3155 22.6994 10.7673C23.2308 10.236 23.5234 9.52968 23.5234 8.77853C23.5234 8.02738 23.2308 7.32109 22.6994 6.78974L16.7335 0.823994C16.2022 0.292641 15.4958 0 14.7445 0C13.9935 0 13.2873 0.292641 12.756 0.823994C12.0217 1.55834 11.78 2.601 12.0293 3.53912L3.54079 12.0275C3.30623 11.9652 3.06217 11.9323 2.81284 11.9323C2.06134 11.9323 1.35533 12.2247 0.8244 12.7556C-0.272196 13.8522 -0.272196 15.6365 0.8244 16.7331L6.79022 22.699C7.33858 23.2473 8.0588 23.5215 8.77901 23.5215C9.49929 23.5215 10.2195 23.2473 10.7679 22.699C11.5022 21.9646 11.744 20.922 11.4946 19.9839L12.3436 19.1348C12.4457 19.3479 12.5841 19.5445 12.7561 19.7164C13.1545 20.1148 13.6842 20.3342 14.2478 20.3342C14.7945 20.3342 15.3089 20.1273 15.703 19.7512L25.4979 31.0051C25.5249 31.0472 25.5564 31.0874 25.5933 31.1242C25.6059 31.1368 25.6192 31.1483 25.6325 31.1597L28.5513 34.5132C28.6238 34.5988 28.7014 34.683 28.7819 34.7635C29.5835 35.5649 30.6424 35.9998 31.754 35.9998C31.95 35.9998 32.1478 35.9863 32.3458 35.9589C33.6698 35.7756 34.8139 34.9836 35.4849 33.7856C36.2198 32.4727 36.1651 30.8058 35.3461 29.54ZM13.7505 1.81836C14.0162 1.55264 14.3693 1.40625 14.7445 1.40625C15.1203 1.40625 15.4736 1.55264 15.7393 1.81836L21.7051 7.78417C21.9709 8.04988 22.1172 8.40306 22.1172 8.7786C22.1172 9.15414 21.9709 9.50732 21.7051 9.77303C21.157 10.3213 20.265 10.3213 19.7169 9.77303L13.7508 3.80694C13.7507 3.8068 13.7506 3.80673 13.7505 3.80659C13.2022 3.25843 13.2022 2.36651 13.7505 1.81836ZM9.77351 21.7047C9.22521 22.253 8.33288 22.253 7.78458 21.7047L1.81876 15.7388C1.27039 15.1905 1.27039 14.2984 1.81876 13.7499C2.08398 13.4846 2.43709 13.3385 2.81284 13.3385C3.18852 13.3385 3.54142 13.4846 3.80657 13.7496L9.77344 19.7165C10.3217 20.2646 10.3217 21.1566 9.77351 21.7047ZM12.7338 16.7561L10.7678 18.7221L4.80135 12.7557L12.756 4.80088L18.7224 10.7673L16.7528 12.737C16.7464 12.743 16.7402 12.7489 16.7334 12.7556L12.7581 16.731C12.7498 16.7391 12.7419 16.7476 12.7338 16.7561ZM15.2444 18.2229C15.243 18.2243 15.2417 18.2256 15.2402 18.227L14.7451 18.7221C14.6123 18.8549 14.4357 18.928 14.2477 18.928C14.0598 18.928 13.8831 18.8549 13.7504 18.7221C13.6174 18.5892 13.5442 18.4124 13.5442 18.2243C13.5442 18.0403 13.6145 17.8671 13.742 17.7364L17.7358 13.7426C18.0095 13.4764 18.4521 13.4797 18.7226 13.7499C18.8554 13.8828 18.9286 14.0596 18.9286 14.2477C18.9286 14.4356 18.8557 14.6119 18.7225 14.7447L18.2302 15.237C18.2268 15.2403 18.2235 15.2436 18.2202 15.247L15.2444 18.2229ZM16.7004 18.7555L18.7554 16.7005L27.456 24.2897L24.2811 27.4647L16.7004 18.7555ZM25.2065 28.5279L28.5182 25.2162L29.5804 26.1427L26.1319 29.5913L25.2065 28.5279ZM34.258 33.0987C33.8042 33.9089 33.037 34.4436 32.1531 34.566C31.2712 34.688 30.4048 34.3976 29.776 33.7691C29.722 33.7151 29.6702 33.6588 29.622 33.6017C29.6197 33.599 29.6175 33.5964 29.6152 33.5938L27.0572 30.6546L30.6425 27.0692L33.5781 29.6297C33.5802 29.6317 33.5825 29.6336 33.5848 29.6356C33.8045 29.8224 33.9995 30.0468 34.165 30.3031C34.6967 31.1247 34.7339 32.2483 34.258 33.0987Z" fill="#B68C5A"/>
<path d="M13.2528 7.28698C12.9782 7.01241 12.5331 7.01241 12.2585 7.28698L9.27526 10.2702C9.00069 10.5448 9.00069 10.99 9.27526 11.2645C9.41258 11.4018 9.59251 11.4704 9.77244 11.4704C9.95237 11.4704 10.1323 11.4017 10.2696 11.2645L13.2528 8.28127C13.5274 8.00677 13.5274 7.56162 13.2528 7.28698Z" fill="#B68C5A"/>
</g>
<defs>
<clipPath id="clip0_1488_1127">
<rect width="36" height="36" fill="white"/>
</clipPath>
</defs>
</svg>
