<svg width="36" height="36" viewBox="0 0 36 36" fill="none" xmlns="http://www.w3.org/2000/svg">
<g clip-path="url(#clip0_1488_1159)">
<path d="M18.5006 8.47125H18.4536L18.6164 8.05546C18.7581 7.69395 18.5798 7.2861 18.2183 7.14443C17.8566 7.00256 17.4489 7.18106 17.3073 7.54258L16.7684 8.91791C16.6836 9.13424 16.7113 9.37863 16.8423 9.57056C16.9732 9.7625 17.1906 9.87738 17.4231 9.87738H18.5006C18.8889 9.87738 19.2037 9.56255 19.2037 9.17432C19.2037 8.78609 18.8889 8.47125 18.5006 8.47125Z" fill="#B68C5A"/>
<path d="M35.2945 5.76831H23.4908C23.4861 5.2666 23.4529 4.76201 23.3452 4.27085C23.0914 3.15094 22.493 2.15646 21.6637 1.40932H35.2945C35.6827 1.40932 35.9976 1.09448 35.9976 0.706253C35.9976 0.318022 35.6827 0.0031902 35.2945 0.0031902H18.186C18.0611 -0.00109848 17.9363 -0.00102818 17.8118 0.0031902H0.703796C0.315564 0.0031902 0.000732422 0.318022 0.000732422 0.706253C0.000732422 1.09448 0.315564 1.40932 0.703796 1.40932H14.3237C13.1886 2.43157 12.5675 3.86519 12.5075 5.38092C12.5023 5.51134 12.4996 5.64077 12.4989 5.76831H6.11738C5.72915 5.76831 5.41432 6.08314 5.41432 6.47137C5.41432 6.8596 5.72915 7.17443 6.11738 7.17443H12.4945C12.4951 7.2645 12.4958 7.3469 12.4966 7.41636C12.4906 7.985 12.4968 8.64567 12.6416 9.3064C12.8262 10.1213 13.2 10.8846 13.7228 11.5334H0.703796C0.315564 11.5334 0.000732422 11.8483 0.000732422 12.2365C0.000732422 12.6247 0.315564 12.9396 0.703796 12.9396H14.1L14.1002 14.4279C13.9465 14.4332 13.7692 14.4407 13.5692 14.4506C13.5667 14.4506 13.5643 14.4508 13.5618 14.4509C13.1447 14.4537 10.4317 14.5337 8.53121 16.0837C8.06796 16.4366 7.64001 16.8467 7.26077 17.2985H6.11738C5.72915 17.2985 5.41432 17.6134 5.41432 18.0016C5.41432 18.3898 5.72915 18.7047 6.11738 18.7047H6.31375C5.9381 19.4113 5.62081 20.2222 5.3696 21.1174L4.80976 23.0637H0.703796C0.315564 23.0637 0.000732422 23.3785 0.000732422 23.7667C0.000732422 24.155 0.315564 24.4698 0.703796 24.4698H4.40521L4.30032 24.8345C4.11077 25.4935 4.01642 26.173 4.01452 26.8515C4.01072 28.1465 4.34391 29.4374 4.99579 30.5724C5.82807 32.022 7.7101 32.5992 9.21002 31.8562V34.594H0.703796C0.315564 34.594 0.000732422 34.9088 0.000732422 35.297C0.000732422 35.6853 0.315564 36.0001 0.703796 36.0001H9.91308C10.3013 36.0001 10.6161 35.6853 10.6161 35.297V30.9279L14.1827 28.4708C14.3365 28.3648 14.4419 28.2019 14.4755 28.0181C14.5058 27.8519 14.4747 27.6814 14.3899 27.5368L14.8323 27.2396C15.3402 26.8983 15.7042 26.4036 15.8785 25.8266H20.0502C20.2245 26.4035 20.5885 26.8983 21.0964 27.2395L21.5522 27.5458C21.4319 27.8418 21.5255 28.1916 21.7971 28.3839L25.3715 30.9145V35.2971C25.3715 35.6853 25.6864 36.0002 26.0746 36.0002H35.2946C35.6828 36.0002 35.9976 35.6853 35.9976 35.2971C35.9976 34.9089 35.6828 34.594 35.2946 34.594H26.7777V31.8594C27.544 32.2355 28.4454 32.2872 29.2509 32.0085C30.1292 31.7046 30.7539 31.0486 31.1668 30.2351H35.2945C35.6827 30.2351 35.9976 29.9203 35.9976 29.5321C35.9976 29.1438 35.6827 28.829 35.2945 28.829H31.7068C31.8675 28.236 31.9555 27.6222 31.9656 27.0078C31.9784 26.2805 31.8852 25.55 31.682 24.8433L31.5746 24.4699H35.2945C35.6827 24.4699 35.9976 24.1551 35.9976 23.7669C35.9976 23.3786 35.6827 23.0638 35.2945 23.0638H31.1701L30.708 21.4572C30.4586 20.481 30.1333 19.6024 29.7393 18.8338H35.2944C35.6827 18.8338 35.9975 18.5189 35.9975 18.1307C35.9975 17.7425 35.6827 17.4276 35.2944 17.4276H28.8293C28.4436 16.9509 27.9997 16.5113 27.4996 16.1146C25.5764 14.5417 23.1059 14.4615 22.8151 14.4577C22.5332 14.4405 22.2352 14.4319 21.8868 14.4308L21.887 12.9397H25.778C26.1662 12.9397 26.481 12.6249 26.481 12.2366C26.481 11.8484 26.1662 11.5336 25.778 11.5336H22.2635C22.7862 10.8848 23.1598 10.1215 23.3442 9.30697C23.4751 8.73074 23.4908 8.14755 23.4876 7.60253C23.4904 7.48343 23.4921 7.33431 23.493 7.17458H35.2944C35.6826 7.17458 35.9974 6.85974 35.9974 6.47151C35.9974 6.08328 35.6827 5.76831 35.2945 5.76831ZM22.0816 7.60042C22.0849 8.13644 22.0678 8.5788 21.9731 8.99586C21.7864 9.8202 21.3388 10.574 20.7052 11.1388C19.5359 12.1802 17.8247 12.4581 16.3853 11.8413C15.9853 11.6699 15.6141 11.4339 15.2884 11.1453C14.6508 10.5797 14.2006 9.82351 14.014 9.0005C13.9013 8.48586 13.8975 7.9168 13.9027 7.42381C13.9028 7.42002 13.8999 6.98601 13.8997 6.61494C13.8997 6.27683 13.9646 5.93986 14.1083 5.63388C14.32 5.18322 14.6371 4.89785 15.0568 4.78304C15.7064 4.6046 16.3683 5.25416 16.9571 5.45432C17.3182 5.57708 17.7079 5.66594 18.0917 5.65624C18.3193 5.66257 19.181 5.63255 20.2667 4.95416L20.2726 4.95051C20.5979 4.74795 21.0111 4.75077 21.3255 4.95761C21.5815 5.12613 21.7823 5.38908 21.926 5.74215C22.0374 6.016 22.0864 6.31121 22.0863 6.60692C22.0861 7.05112 22.0816 7.59466 22.0816 7.60042ZM20.3947 14.8611C19.2656 15.6374 17.7951 15.8202 16.5108 15.34C16.154 15.2067 15.8149 15.0252 15.5063 14.8017L15.506 12.9817C16.3515 13.4119 17.3055 13.6151 18.2529 13.5706C19.0344 13.5337 19.7929 13.3317 20.481 12.9815L20.4808 14.8004C20.4523 14.8209 20.4236 14.8412 20.3947 14.8611ZM14.5879 3.24234C14.8681 2.81804 15.2249 2.44577 15.6423 2.15477C16.3368 1.6705 17.1777 1.4115 18.0213 1.4115C18.2677 1.4115 18.5143 1.43371 18.7575 1.47878C19.9404 1.6994 20.9799 2.47453 21.5654 3.5223C20.9002 3.29564 20.1503 3.37248 19.5292 3.75699C19.0026 4.0619 18.4211 4.32879 17.8011 4.22558C17.2623 4.13587 16.848 3.82814 16.3692 3.59486C15.8499 3.3419 15.2447 3.27384 14.6856 3.42676C14.5951 3.4515 14.5084 3.47977 14.4251 3.51119C14.476 3.41959 14.5302 3.3298 14.5879 3.24234ZM13.4238 22.4443V20.5932H22.5004V22.4417C21.6902 22.4618 20.9113 22.8677 20.4355 23.5242C20.2386 23.7708 20.093 24.0823 20.0115 24.4204H15.9137C15.7512 23.7781 15.3446 23.2135 14.7836 22.8575C14.3791 22.601 13.9026 22.4567 13.4238 22.4443ZM14.0481 26.0722L13.5903 26.3797L12.2018 24.3788L12.695 24.0501C12.8311 23.9594 12.9799 23.9002 13.1323 23.8706C13.961 23.7212 14.7222 24.4436 14.5657 25.2851C14.5054 25.6089 14.3216 25.8885 14.0481 26.0722ZM21.3433 25.0786C21.3353 24.6466 21.5694 24.2332 21.9424 24.0153C22.3389 23.7837 22.8508 23.7949 23.2336 24.0501L23.727 24.3789L22.3392 26.3804L21.8806 26.0722C21.5498 25.85 21.3496 25.4764 21.3433 25.0786ZM22.7905 15.8635C24.1424 15.8635 25.5721 16.3779 26.6221 17.2131C27.3126 17.76 27.8752 18.4002 28.2926 19.1128C28.671 19.7664 28.9887 20.5392 29.2395 21.4139C29.2992 21.8122 30.3302 25.2313 30.3302 25.2313C30.692 26.4895 30.6248 27.8402 30.1567 29.0514C29.828 29.9019 29.3323 30.6953 28.335 30.7763C27.5922 30.8365 27.0443 30.3794 26.4787 29.9753L23.178 27.6385L25.2287 24.6831L26.723 25.6689C27.0469 25.8827 27.4833 25.7934 27.6971 25.4693C27.9109 25.1452 27.8216 24.709 27.4974 24.4952L25.4299 23.1312C25.1435 22.9422 24.7691 22.9905 24.5381 23.2296C24.5381 23.2296 23.9426 22.8341 23.9066 22.8125V19.89C23.9066 19.5017 23.5917 19.1869 23.2035 19.1869H12.7208C12.3326 19.1869 12.0178 19.5017 12.0178 19.89V22.8153C11.9833 22.836 11.3719 23.242 11.3719 23.242C11.146 23.0689 10.829 23.0445 10.5747 23.2017L8.50013 24.484C8.16991 24.6881 8.06761 25.1213 8.27178 25.4517C8.47581 25.7819 8.90904 25.8844 9.23948 25.68L10.7468 24.7483L12.804 27.7129C12.804 27.7129 8.804 30.5324 8.38314 30.6807C7.57265 30.9664 6.64208 30.6158 6.21532 29.8721C5.71235 28.996 5.4435 28.0057 5.42149 27.0071C5.40841 26.408 5.4842 25.8058 5.65167 25.2235L6.72131 21.5046C6.72138 21.5043 6.72145 21.5041 6.72152 21.5038L6.72216 21.5016C6.97856 20.5876 7.30591 19.7839 7.69379 19.1151C8.12667 18.3741 8.71387 17.7104 9.39169 17.1957C10.5813 16.2887 12.0779 15.906 13.5585 15.8573C13.8847 15.8465 14.2091 15.8315 14.5354 15.8315C16.1052 17.0483 18.2561 17.3487 20.0984 16.6068C20.579 16.4132 21.0334 16.1528 21.4439 15.8365C21.893 15.8365 22.3423 15.8635 22.7905 15.8635Z" fill="#B68C5A"/>
<path d="M35.2944 11.5332H32.1452C31.757 11.5332 31.4421 11.848 31.4421 12.2363C31.4421 12.6245 31.757 12.9393 32.1452 12.9393H35.2944C35.6826 12.9393 35.9974 12.6245 35.9974 12.2363C35.9974 11.848 35.6826 11.5332 35.2944 11.5332Z" fill="#B68C5A"/>
<path d="M0.703796 7.17468H2.86726C3.25549 7.17468 3.57033 6.85985 3.57033 6.47162C3.57033 6.08339 3.25549 5.76855 2.86726 5.76855H0.703796C0.315564 5.76855 0.000732422 6.08339 0.000732422 6.47162C0.000732422 6.85985 0.315494 7.17468 0.703796 7.17468Z" fill="#B68C5A"/>
<path d="M0.703796 18.705H2.86726C3.25549 18.705 3.57033 18.3901 3.57033 18.0019C3.57033 17.6137 3.25549 17.2988 2.86726 17.2988H0.703796C0.315564 17.2988 0.000732422 17.6137 0.000732422 18.0019C0.000732422 18.3901 0.315494 18.705 0.703796 18.705Z" fill="#B68C5A"/>
<path d="M0.703796 30.2352H2.86726C3.25549 30.2352 3.57033 29.9204 3.57033 29.5322C3.57033 29.1439 3.25549 28.8291 2.86726 28.8291H0.703796C0.315564 28.8291 0.000732422 29.1439 0.000732422 29.5322C0.000732422 29.9204 0.315494 30.2352 0.703796 30.2352Z" fill="#B68C5A"/>
<path d="M29.6812 11.8461C29.4929 11.5584 29.1045 11.4564 28.7966 11.6021C28.4252 11.7776 28.2846 12.2448 28.4944 12.597C28.688 12.922 29.1204 13.0334 29.4481 12.8449C29.7945 12.6455 29.9024 12.1784 29.6812 11.8461Z" fill="#B68C5A"/>
</g>
<defs>
<clipPath id="clip0_1488_1159">
<rect width="36" height="36" fill="white" transform="translate(-0.000976562)"/>
</clipPath>
</defs>
</svg>
