<svg width="40" height="40" viewBox="0 0 40 40" fill="none" xmlns="http://www.w3.org/2000/svg">
<path d="M34.6565 14.1032H25.893V4.95357C25.893 3.63253 25.3767 2.38872 24.4405 1.4525C23.5036 0.51629 22.2604 0 20.9394 0H4.95357C2.22215 0 0 2.22215 0 4.95357V15.6106C0 18.342 2.22215 20.5642 4.95357 20.5642H5.32819V23.6032C5.32819 24.5439 5.88787 25.378 6.75452 25.729C7.03341 25.8419 7.32378 25.8962 7.6116 25.8962C8.21086 25.8962 8.79543 25.6581 9.22493 25.2152L13.7177 20.7467V29.7131C13.7177 32.4439 15.9424 34.6661 18.6764 34.6661H25.7098L30.3762 39.3076C30.8153 39.7594 31.4024 40 32.0048 40C32.2927 40 32.583 39.9451 32.8626 39.8315C33.7279 39.4812 34.287 38.6483 34.287 37.7096V34.6654H34.6565C37.3911 34.6654 39.6158 32.4439 39.6158 29.7125V19.0549C39.6158 16.3253 37.3911 14.1032 34.6565 14.1032ZM13.5059 18.6496C13.2531 18.6496 13.01 18.7498 12.8307 18.9285L7.86241 23.8699C7.71626 24.0205 7.55672 23.988 7.47312 23.9542C7.38696 23.9191 7.24273 23.8278 7.24273 23.6032V19.6069C7.24273 19.0778 6.81451 18.6496 6.28546 18.6496H4.95357C3.27771 18.6496 1.91455 17.2864 1.91455 15.6106V4.95357C1.91455 3.27771 3.27771 1.91455 4.95357 1.91455H20.9388C21.7493 1.91455 22.5112 2.23109 23.0863 2.80609C23.6613 3.38045 23.9778 4.14308 23.9778 4.95293V15.6099C23.9778 17.2858 22.614 18.649 20.9381 18.649H13.5059V18.6496ZM37.7013 29.7131C37.7013 31.3884 36.3356 32.7515 34.6565 32.7515H33.3297C32.8013 32.7515 32.3724 33.1804 32.3724 33.7088V37.7102C32.3724 37.9323 32.2282 38.0236 32.1433 38.058C32.0585 38.0918 31.8976 38.1263 31.7387 37.9636L26.78 33.031C26.6007 32.853 26.3582 32.7522 26.1049 32.7522H18.6764C16.998 32.7522 15.6323 31.389 15.6323 29.7138V20.5642H20.9381C23.5323 20.5642 25.6626 18.5596 25.8713 16.0184H34.6559C36.3349 16.0184 37.7006 17.3809 37.7006 19.0561L37.7013 29.7131Z" fill="white"/>
<path d="M20.7404 22.9784C19.9618 22.9784 19.3281 23.6128 19.3281 24.3907C19.3281 25.1686 19.9625 25.803 20.7404 25.803C21.5196 25.803 22.154 25.1686 22.154 24.3907C22.154 23.6128 21.5203 22.9784 20.7404 22.9784Z" fill="white"/>
<path d="M26.6662 22.9784C25.8876 22.9784 25.2539 23.6128 25.2539 24.3907C25.2539 25.1687 25.8883 25.803 26.6662 25.803C27.4454 25.803 28.0798 25.1687 28.0798 24.3907C28.0798 23.6128 27.4454 22.9784 26.6662 22.9784Z" fill="white"/>
<path d="M32.592 22.9784C31.8134 22.9784 31.1797 23.6128 31.1797 24.3907C31.1797 25.1687 31.814 25.803 32.592 25.803C33.3712 25.803 34.0056 25.1687 34.0056 24.3907C34.0056 23.6128 33.3712 22.9784 32.592 22.9784Z" fill="white"/>
<path d="M12.6315 13.5078C12.0789 13.5078 11.6309 13.9685 11.6309 14.5218C11.6309 15.0617 12.0655 15.5359 12.6315 15.5359C13.1976 15.5359 13.6456 15.0617 13.6456 14.5218C13.6456 13.9685 13.1848 13.5078 12.6315 13.5078Z" fill="white"/>
<path d="M12.8268 5.02824C10.7897 5.02824 9.85352 6.23568 9.85352 7.05064C9.85352 7.63905 10.3513 7.91091 10.7591 7.91091C11.5741 7.91091 11.2422 6.74878 12.7815 6.74878C13.5358 6.74878 14.1395 7.08064 14.1395 7.77498C14.1395 8.58994 13.2946 9.05773 12.7968 9.4802C12.359 9.85737 11.7853 10.4764 11.7853 11.7745C11.7853 12.5594 11.9965 12.7854 12.6156 12.7854C13.3552 12.7854 13.5058 12.4535 13.5058 12.1663C13.5058 11.3814 13.5212 10.9289 14.3508 10.2798C14.7579 9.96267 16.0407 8.93647 16.0407 7.51779C16.0413 6.09975 14.7586 5.02824 12.8268 5.02824Z" fill="white"/>
</svg>
