<svg width="45" height="40" viewBox="0 0 45 40" fill="none" xmlns="http://www.w3.org/2000/svg">
<path d="M30.1742 40H0.696864C0.348432 40 0 39.7213 0 39.3031C0 38.885 0.278746 38.6063 0.696864 38.6063H30.1742C30.5226 38.6063 30.8711 38.885 30.8711 39.3031C30.8711 39.7213 30.5226 40 30.1742 40Z" fill="white"/>
<path d="M30.1733 40H4.94686C4.59843 40 4.25 39.7212 4.25 39.3031V21.5331C4.25 21.1847 4.52875 20.8362 4.94686 20.8362C5.36498 20.8362 5.64373 21.115 5.64373 21.5331V38.6063H30.1733C30.5218 38.6063 30.8702 38.885 30.8702 39.3031C30.8702 39.7212 30.5218 40 30.1733 40Z" fill="white"/>
<path d="M3.13589 22.9268C2.29965 22.9268 1.5331 22.6481 0.905923 22.0209C0.348432 21.4634 0 20.6272 0 19.7909C0 19.0244 0.348432 18.2578 0.836237 17.6307L16.7944 1.67247C19.0244 -0.557491 22.5784 -0.557491 24.8084 1.67247L31.6376 8.50174C31.9164 8.78049 31.9164 9.19861 31.6376 9.47735C31.3589 9.7561 30.9408 9.7561 30.662 9.47735L23.8328 2.64808C22.1603 0.97561 19.4425 0.97561 17.77 2.64808L1.88153 18.5366C1.60279 18.885 1.39373 19.3728 1.39373 19.7909C1.39373 20.1394 1.46341 20.6272 1.88153 21.0453C2.5784 21.7422 3.76307 21.7422 4.45993 21.0453L20.3484 5.1568C20.6272 4.87805 21.0453 4.87805 21.324 5.1568L27.108 10.9408C27.3868 11.2195 27.3868 11.6376 27.108 11.9164C26.8293 12.1951 26.4111 12.1951 26.1324 11.9164L20.8362 6.62021L5.43554 22.0209C4.80836 22.6481 3.97213 22.9268 3.13589 22.9268Z" fill="white"/>
<path d="M22.9283 40H13.0328C12.6844 40 12.3359 39.7213 12.3359 39.3031V26.6202C12.3359 25.5052 13.2419 24.5296 14.4265 24.5296H21.6042C22.7192 24.5296 23.6251 25.5052 23.6251 26.6202V39.3031C23.6251 39.6516 23.2767 40 22.9283 40ZM13.7297 38.6063H22.2314V26.6202C22.2314 26.2021 21.883 25.9233 21.6042 25.9233H14.4265C14.0084 25.9233 13.7297 26.2718 13.7297 26.6202V38.6063Z" fill="white"/>
<path d="M34.4945 39.9303C33.5886 39.9303 32.7524 39.4425 32.2646 38.676C29.8255 34.6342 24.3203 24.8781 24.3203 20.6969C24.3203 15.122 28.8499 10.5923 34.4248 10.5923C39.9998 10.5923 44.5991 15.122 44.5991 20.6969C44.5991 23.6237 41.951 29.6167 36.7942 38.676C36.2367 39.4425 35.4005 39.9303 34.4945 39.9303ZM34.4248 11.9861C29.6165 11.9861 25.714 15.8885 25.714 20.6969C25.714 24.5993 31.6374 34.9129 33.4492 37.9791C33.6583 38.3275 34.0764 38.6063 34.5642 38.6063C35.052 38.6063 35.4005 38.3972 35.6792 37.9791C41.8813 27.0383 43.2053 22.5087 43.2053 20.6969C43.2053 15.8885 39.3029 11.9861 34.4248 11.9861Z" fill="white"/>
<path d="M34.4926 27.1777C30.9385 27.1777 28.0117 24.2509 28.0117 20.6968C28.0117 17.1428 30.9385 14.216 34.4926 14.216C38.0466 14.216 40.9734 17.1428 40.9734 20.6968C40.9734 24.2509 38.0466 27.1777 34.4926 27.1777ZM34.4926 15.6097C31.7051 15.6097 29.4054 17.9094 29.4054 20.6968C29.4054 23.4843 31.7051 25.784 34.4926 25.784C37.28 25.784 39.5797 23.4843 39.5797 20.6968C39.5797 17.9094 37.28 15.6097 34.4926 15.6097Z" fill="white"/>
<path d="M15.1226 33.5192C14.7742 33.5192 14.4258 33.2404 14.4258 32.8223V31.9164C14.4258 31.5679 14.7045 31.2195 15.1226 31.2195C15.5408 31.2195 15.8195 31.4983 15.8195 31.9164V32.8223C15.8195 33.1707 15.4711 33.5192 15.1226 33.5192Z" fill="white"/>
</svg>
