<svg width="37" height="40" viewBox="0 0 37 40" fill="none" xmlns="http://www.w3.org/2000/svg">
<path d="M31.0386 3.41119H22.5883L18.9007 0.154827C18.6569 -0.0576806 18.2882 -0.0514304 18.0569 0.173578L14.663 3.41744H5.93771C5.59395 3.41744 5.31269 3.6987 5.31269 4.04247V12.3428L0.256259 17.1742C0.250009 17.1804 0.250009 17.1867 0.243759 17.1929C0.193757 17.2429 0.150005 17.3054 0.118754 17.3679C0.118754 17.3742 0.112504 17.3804 0.112504 17.3867C0.112504 17.3929 0.106254 17.3992 0.100003 17.4054C0.031251 17.5805 0 17.7617 0 17.943V38.5124C0 38.9187 0.156256 39.2937 0.443766 39.575C0.725026 39.85 1.10004 40 1.4938 40H35.4763C35.87 40 36.245 39.85 36.5263 39.5687C36.8138 39.2875 36.9701 38.9062 36.9701 38.5062V17.9305C36.9701 17.743 36.9388 17.5617 36.8701 17.3929C36.8701 17.3929 36.8701 17.3867 36.8638 17.3867C36.8576 17.3679 36.8451 17.3554 36.8388 17.3429C36.8138 17.2929 36.7826 17.2429 36.7451 17.1992C36.7388 17.1867 36.7326 17.1742 36.7201 17.1679L31.6511 12.2365V4.03622C31.6636 3.69245 31.3824 3.41119 31.0386 3.41119ZM18.5007 1.47362L20.6945 3.41119H16.4631L18.5007 1.47362ZM6.56273 4.66124H30.4136V12.499V12.5115V22.4244L25.0571 27.5933L19.4757 22.2056C18.9194 21.6681 18.0444 21.6681 17.4944 22.2056L11.9129 27.5933L6.55648 22.4244V4.66124H6.56273ZM5.31269 14.0616V21.2181L1.58756 17.6242L5.31269 14.0616ZM1.25004 37.8999V19.0368L11.0191 28.4683L1.25004 37.8999ZM2.17508 38.75L12.3504 28.9184L18.3632 23.1119C18.4319 23.0431 18.5382 23.0431 18.6132 23.1119L29.7886 33.906L34.8012 38.75H2.17508ZM35.7263 37.8999L32.0511 34.3498L27.7135 30.1621L25.9634 28.4683L35.7263 19.0368V37.8999ZM35.395 17.618L31.6636 21.2243V13.9803L35.395 17.618Z" fill="white"/>
<path d="M18.4123 19.968C18.7561 19.968 19.0374 19.6868 19.0374 19.343C19.0374 18.9993 18.7561 18.718 18.4123 18.718C15.6372 18.718 13.3809 16.4617 13.3809 13.6866C13.3809 10.9115 15.6372 8.65514 18.4123 8.65514C21.1874 8.65514 23.4438 10.9115 23.4438 13.6866C23.4438 14.3803 22.8812 14.9491 22.1812 14.9491C21.4812 14.9491 20.9187 14.3866 20.9187 13.6866C20.9187 12.3053 19.7936 11.174 18.4061 11.174C17.0248 11.174 15.8935 12.299 15.8935 13.6866C15.8935 15.0679 17.0185 16.1992 18.4061 16.1992C19.1624 16.1992 19.8311 15.8554 20.2937 15.3304C20.7562 15.8616 21.4249 16.1992 22.1812 16.1992C23.5625 16.1992 24.6938 15.0741 24.6938 13.6866V13.224C24.6938 13.149 24.6813 13.0803 24.6563 13.0178C24.3188 9.86768 21.6499 7.40509 18.4123 7.40509C14.9497 7.40509 12.1309 10.2239 12.1309 13.6866C12.1309 17.1492 14.9435 19.968 18.4123 19.968ZM18.4123 14.9429C17.7186 14.9429 17.1498 14.3803 17.1498 13.6803C17.1498 12.9803 17.7123 12.4178 18.4123 12.4178C19.1124 12.4178 19.6749 12.9803 19.6749 13.6803C19.6749 14.3803 19.1061 14.9429 18.4123 14.9429Z" fill="white"/>
</svg>
