<svg width="42" height="40" viewBox="0 0 42 40" fill="none" xmlns="http://www.w3.org/2000/svg">
<path d="M39.885 7.73156C38.2936 5.54176 35.5067 3.56526 32.0376 2.16631C28.5873 0.774977 24.5811 0.00559722 20.757 8.8913e-05C16.9325 -0.00946961 12.9214 0.751972 9.46608 2.13253C5.99099 3.52103 3.19739 5.48895 1.60023 7.67356C0.0661684 9.77182 -0.375954 12.0334 0.321575 14.2138C0.774066 15.6283 2.09403 16.58 3.60695 16.5822L8.78727 16.587C8.78897 16.587 8.79067 16.587 8.79245 16.587C9.82542 16.587 10.7959 16.1348 11.4555 15.3459C12.108 14.5654 12.3784 13.5454 12.1971 12.5473C12.1919 12.518 12.1854 12.4889 12.178 12.4599L11.9055 11.4002C13.4149 10.68 16.8349 9.28854 20.741 9.31066C24.6443 9.33067 28.0619 10.7214 29.5732 11.4419L29.2963 12.4956C29.2884 12.5254 29.2818 12.5555 29.2761 12.5857C29.0922 13.5832 29.3595 14.604 30.0098 15.3863C30.6682 16.1785 31.6394 16.6336 32.6751 16.6352L37.8554 16.64C37.8571 16.64 37.8589 16.64 37.8606 16.64C39.3706 16.6399 40.6909 15.6926 41.1469 14.2811C41.8509 12.1012 41.4146 9.83638 39.885 7.73156ZM38.7914 13.5201C38.6687 13.8999 38.2861 14.1648 37.8597 14.1648C37.8593 14.1648 37.8587 14.1648 37.8582 14.1648L32.6779 14.1599C32.3795 14.1595 32.1007 14.0298 31.9131 13.8041C31.8112 13.6813 31.652 13.4261 31.7041 13.0711L32.2194 11.1106C32.3606 10.5733 32.1266 10.0079 31.647 9.72743C31.4471 9.61062 26.6838 6.8657 20.7536 6.83516C20.7207 6.835 20.6887 6.83492 20.6558 6.83492C14.7638 6.83492 10.0344 9.56785 9.8349 9.68482C9.35835 9.96428 9.12473 10.5256 9.26236 11.0608L9.7675 13.0245C9.8191 13.3802 9.65896 13.6354 9.55649 13.758C9.36864 13.9828 9.09014 14.1115 8.79172 14.1115C8.79124 14.1115 8.79075 14.1115 8.79027 14.1115L3.60987 14.1067C3.18354 14.106 2.8008 13.8399 2.67913 13.4593C2.22615 12.0433 2.53543 10.588 3.59837 9.13415C6.42194 5.27218 13.6151 2.47502 20.7148 2.47502C20.7274 2.47502 20.7409 2.47502 20.7536 2.47502C27.8602 2.48522 35.0642 5.30782 37.8829 9.18648C38.9432 10.6459 39.249 12.1039 38.7914 13.5201Z" fill="white"/>
<path d="M32.45 21.9285L28.5868 17.8722C28.3532 17.6269 28.0294 17.4881 27.6907 17.4881H25.1941V15.8014C25.1941 15.1179 24.6401 14.5638 23.9566 14.5638C23.2731 14.5638 22.719 15.1179 22.719 15.8014V17.4881H18.7561V15.8014C18.7561 15.1179 18.202 14.5638 17.5185 14.5638C16.835 14.5638 16.2809 15.1179 16.2809 15.8014V17.4881H13.7844C13.4457 17.4881 13.1218 17.627 12.8883 17.8722L9.02517 21.9285C5.99625 25.1089 4.32812 29.2791 4.32812 33.671V38.7624C4.32812 39.4459 4.8822 40 5.56571 40H35.9093C36.5928 40 37.1469 39.4459 37.1469 38.7624V33.671C37.1471 29.2791 35.479 25.1089 32.45 21.9285ZM6.8033 37.5248V33.671C6.8033 29.9175 8.22889 26.3536 10.8176 23.6354L14.3149 19.9631H27.1603L30.6576 23.6354C33.2461 26.3534 34.6717 29.9175 34.6717 33.671V37.5248H6.8033Z" fill="white"/>
<path d="M20.7388 22.5221C17.1673 22.5221 14.2617 25.4277 14.2617 28.9991C14.2617 32.5706 17.1673 35.4762 20.7388 35.4762C24.3102 35.4762 27.2158 32.5706 27.2158 28.9991C27.2158 25.4276 24.3102 22.5221 20.7388 22.5221ZM20.7388 33.001C18.532 33.001 16.7369 31.2058 16.7369 28.9991C16.7369 26.7924 18.5321 24.9972 20.7388 24.9972C22.9454 24.9972 24.7406 26.7924 24.7406 28.9991C24.7406 31.2058 22.9454 33.001 20.7388 33.001Z" fill="white"/>
</svg>
