<svg width="80" height="80" viewBox="0 0 80 80" fill="none" xmlns="http://www.w3.org/2000/svg">
<path d="M74.3155 48.2728L72.1324 47.6898L57.8208 17.7138L58.3476 15.0753L78.4391 0L80.0001 3.29864L61.2244 17.388L73.9035 43.9454L77.8621 40.4506L79.6137 43.5949L74.3155 48.2728Z" fill="white"/>
<path d="M5.68462 48.2728L0.386408 43.5949L2.13801 40.4506L6.09656 43.9454L18.7757 17.388L0 3.29864L1.56095 0L21.6525 15.0753L22.1793 17.7138L7.86774 47.6898L5.68462 48.2728Z" fill="white"/>
<path d="M62.5988 61.3182C61.7613 61.3182 60.9289 61.0503 60.191 60.5434L47.8438 52.1136L49.2975 48.7378L61.649 57.1698C62.4677 57.7303 63.524 57.4709 64.1095 56.5975C64.7079 55.7058 64.7385 54.3834 64.181 53.4553C64.0883 53.3096 63.9861 53.1735 63.8806 53.062L53.3437 41.8576L42.7541 33.5831C41.983 32.9808 41.034 32.8254 40.1565 33.1577L36.8159 34.4351L33.2174 39.4099C31.8751 41.2682 29.9567 42.3345 27.9532 42.3345C27.1302 42.3345 26.3199 42.1566 25.5454 41.8051C24.3564 41.2703 23.4176 40.1054 22.9741 38.6093C22.529 37.11 22.632 35.45 23.2559 34.0557L28.4477 22.4548L29.309 21.5674C34.363 19.5119 39.4671 18.2088 44.9151 17.584L45.4377 17.6386L56.8427 21.3831L60.7919 19.5173L61.8626 23.1139L57.4615 25.1929L56.5414 25.2529L44.927 21.4399C40.0101 22.0261 35.3835 23.191 30.8138 24.9947L25.9131 35.9408C25.6654 36.496 25.7556 37.0082 25.8314 37.2654C25.9071 37.5194 26.1037 37.977 26.5752 38.1892C28.1115 38.8869 29.881 38.32 30.961 36.825L34.843 31.458L35.5273 30.9136L39.2756 29.4796C40.9957 28.8324 42.8469 29.1389 44.361 30.3177L55.2264 38.8322L65.845 50.1235C66.1046 50.3978 66.3505 50.7193 66.5923 51.103C68.0468 53.5239 67.9753 56.7893 66.4391 59.0784C65.4815 60.5027 64.0823 61.3182 62.5988 61.3182Z" fill="white"/>
<path d="M66.2971 53.8479L64.4978 50.7465C66.9507 48.4917 69.1296 45.8414 70.9748 42.8696L73.3784 45.2359C71.3595 48.4863 68.9764 51.3841 66.2971 53.8479Z" fill="white"/>
<path d="M57.7022 68.3677C56.886 68.3677 56.0672 68.1041 55.3344 67.6068L43.6111 59.655L45.058 56.2727L56.783 64.2257C57.5941 64.7797 58.584 64.5225 59.1695 63.677C59.5125 63.1786 59.6776 62.5356 59.6308 61.8723C59.5849 61.2089 59.3329 60.612 58.9219 60.1929L57.3081 58.5372L59.2351 55.5601L60.8454 57.2126C61.9008 58.2886 62.5493 59.8243 62.6693 61.5336C62.7893 63.243 62.3646 64.8998 61.4727 66.1965C60.516 67.5779 59.1431 68.3677 57.7022 68.3677Z" fill="white"/>
<path d="M53.0255 74.8292C52.3549 74.8292 51.6714 74.6395 51.0475 74.2794L39.7268 67.6586L41.012 64.1756L52.3251 70.7922C52.9847 71.1705 53.7839 70.9593 54.2494 70.3121C54.8546 69.4783 54.8273 68.2105 54.1916 67.4217L53.1872 66.1689L55.3338 63.4404L56.3347 64.6889C58.1425 66.9298 58.2182 70.5371 56.5049 72.8991C55.6214 74.124 54.3516 74.8292 53.0255 74.8292Z" fill="white"/>
<path d="M46.3035 79.5893C45.7434 79.5904 45.1757 79.48 44.62 79.2506C41.7074 78.0611 38.5208 76.5232 34.8806 74.5524L36.0858 71.0244C39.6384 72.9481 42.739 74.4442 45.5647 75.5984C46.6124 76.0302 47.7495 75.4923 48.3385 74.2941L48.5402 73.8965C48.8168 73.3382 48.9343 72.6727 48.8721 71.99L51.9021 71.5506C52.0426 73.0831 51.7642 74.6446 51.12 75.9466L50.9208 76.3389C49.9088 78.3997 48.1461 79.5893 46.3035 79.5893Z" fill="white"/>
<path d="M29.0009 26.1854C24.2389 24.7097 20.5221 22.6146 18.7305 21.4979L20.0837 18.0557C21.7639 19.1038 25.2509 21.0682 29.7295 22.456L29.0009 26.1854Z" fill="white"/>
<path d="M10.9675 54.2378C9.25509 51.8458 7.41157 48.3446 6.16553 45.8283L8.75463 43.7964C9.72065 45.749 11.588 49.3681 13.2332 51.6679L10.9675 54.2378Z" fill="white"/>
<path d="M13.9395 63.3656C12.2577 63.3656 10.638 62.281 9.79457 60.3691L9.73755 60.2245C9.17411 58.9213 9.06857 57.2377 9.4737 55.672C9.84138 54.2863 10.3674 52.966 11.0415 51.7346C11.73 50.4486 12.6228 49.1733 13.6859 47.9591C14.6238 46.8895 15.8435 46.3258 17.0963 46.3773C18.4249 46.4276 19.688 47.1778 20.5604 48.4349C21.6524 50.0199 22.0158 52.2404 21.5119 54.237L18.6045 53.0731C18.7883 52.3444 18.6564 51.5331 18.2598 50.9576C17.9423 50.5 17.4946 50.2353 17.0035 50.216C16.538 50.2214 16.0835 50.4068 15.7337 50.8054C14.8536 51.8107 14.1217 52.8524 13.5616 53.8983C13.0416 54.8478 12.6441 55.8445 12.3709 56.8744C12.2288 57.422 12.256 58.0179 12.445 58.4573L12.4858 58.5591C12.9463 59.6029 14.0553 59.7529 14.8026 59.2567L16.2188 62.6582C15.492 63.1384 14.7089 63.3656 13.9395 63.3656Z" fill="white"/>
<path d="M30.6685 80.0001C30.523 80.0001 30.3766 79.9926 30.2311 79.9755C28.7058 79.804 27.3917 78.773 26.6257 77.1484L26.6376 77.1387L26.5525 76.9951C25.9686 75.7412 25.824 74.063 26.1916 72.4715C26.4904 71.1995 26.9347 69.9595 27.5143 68.7764L30.1102 70.7933C29.6727 71.6871 29.3391 72.6151 29.1186 73.5518C28.9859 74.1284 29.0225 74.7092 29.2208 75.1368L29.2182 75.139L29.2489 75.1872C29.6046 75.9427 30.1868 76.1142 30.5026 76.1496C31.0992 76.2192 31.689 75.9213 32.0771 75.3576C32.9291 74.1284 33.633 72.8359 34.2092 71.7332C34.4858 71.2016 34.7633 70.6561 35.0416 70.1096C35.4705 69.264 35.3948 68.1623 34.8552 67.4346C34.199 66.5323 33.0185 66.5184 32.3291 67.365C32.2286 67.4818 32.169 67.5579 32.1086 67.6393L29.8583 65.048C29.98 64.8787 30.1025 64.7254 30.2353 64.5722C31.1086 63.4994 32.3078 62.8843 33.5759 62.8843C34.9131 62.8843 36.1948 63.5927 37.0945 64.8262C38.5746 66.8259 38.7907 69.8534 37.6111 72.179C37.3268 72.7395 37.0425 73.2957 36.7591 73.8412C36.1242 75.0554 35.3463 76.4818 34.3785 77.8782C33.45 79.2274 32.0865 80.0001 30.6685 80.0001Z" fill="white"/>
<path d="M18.0626 69.2963C17.7111 69.2963 17.3629 69.2534 17.0225 69.1666C15.5271 68.7808 14.3525 67.5548 13.8002 65.8036L13.807 65.8004L13.7797 65.7104L13.7712 65.7147C13.184 63.8039 13.3448 61.6262 14.1917 60.0337C15.5969 57.3909 17.2523 54.8896 18.8541 52.4709C19.2363 51.8932 19.6176 51.3177 19.9946 50.7422C20.9266 49.3169 22.2467 48.4585 23.7114 48.3213C25.1354 48.182 26.5235 48.7575 27.5151 49.8827C27.7525 50.1528 27.956 50.4368 28.1364 50.7529C29.5067 53.1299 29.288 56.6976 27.6028 59.4239C26.0622 61.9134 24.5243 64.3987 22.6884 66.7317L22.6867 66.7328C21.3913 68.3746 19.6925 69.2963 18.0626 69.2963ZM16.6191 64.3419L16.6344 64.3847C16.8106 64.942 17.1374 65.2753 17.6345 65.4028C18.5452 65.6386 19.6771 65.0974 20.5232 64.0257C22.2305 61.8566 23.6451 59.5697 25.143 57.1498C26.0384 55.7009 26.2359 53.9937 25.6656 53.0046C25.6094 52.906 25.5482 52.8224 25.4724 52.7356C25.1073 52.3208 24.5183 52.0936 23.9361 52.1526C23.4936 52.1933 22.8578 52.4055 22.3488 53.1846C21.9684 53.7654 21.5836 54.3474 21.1972 54.9304C19.6456 57.2731 18.0421 59.6951 16.7263 62.1696C16.3876 62.8072 16.4267 63.7128 16.6157 64.3279L16.6191 64.3419Z" fill="white"/>
<path d="M23.6841 76.0777C23.3555 76.0777 23.0287 76.0391 22.7078 75.963C21.1682 75.5933 19.9357 74.3662 19.3263 72.5969L19.2974 72.5079L19.2948 72.509C18.7714 70.9486 18.8242 69.0335 19.4404 67.2524C20.5613 63.9795 22.4082 60.9777 25.0859 58.0831C27.2588 55.7339 30.3253 55.5903 32.2208 57.7412C32.4548 58.007 32.6548 58.2835 32.8336 58.5857C34.232 60.9337 34.1077 64.3878 32.5272 66.977L32.4727 67.0659C31.1067 69.3004 29.693 71.612 27.9822 73.7682L27.9805 73.7703C26.806 75.2471 25.2263 76.0777 23.6841 76.0777ZM22.1061 71.0183L22.1248 71.0686C22.387 71.8285 22.8976 72.0974 23.2798 72.1896C24.1292 72.3922 25.1037 71.9581 25.8255 71.0526C27.3966 69.071 28.6886 66.9587 30.0555 64.7232L30.1092 64.6353C30.8581 63.4083 30.973 61.864 30.3883 60.8823C30.327 60.7783 30.2615 60.6883 30.1781 60.594C29.418 59.7302 28.0835 59.9039 27.0741 60.9959C24.7556 63.5026 23.1742 66.0489 22.2397 68.7795C21.9571 69.5951 21.9078 70.4278 22.1052 71.015L22.1061 71.0183Z" fill="white"/>
</svg>
