<svg width="80" height="80" viewBox="0 0 80 80" fill="none" xmlns="http://www.w3.org/2000/svg">
<path d="M67.2593 48.0001L57.1852 44.6453L45.6296 69.5485L43.2593 55.484H44.7407L46.963 51.613L44.7407 47.742H35.5556L33.3333 51.613L35.5556 55.484H37.037L34.6667 69.9356L23.2593 45.2904L12.8889 48.1291C5.18518 50.4517 0 56.7743 0 63.742V80.0001H80V63.742C80 56.7743 74.8148 50.4517 67.2593 48.0001ZM37.1852 52.9033L36.4444 51.613L37.1852 50.3227H42.8148L43.5556 51.613L42.8148 52.9033H37.1852ZM2.96296 77.4195V63.742C2.96296 57.8066 7.25926 52.3872 13.7778 50.4517L21.4815 48.3872L34.8148 77.4195H2.96296ZM38.0741 77.4195L36.7407 74.7098L39.8518 55.484H40.2963L43.5556 74.3227L42.0741 77.4195H38.0741ZM77.037 77.4195H45.1852L58.8148 48.0001L66.2222 50.4517C72.7407 52.5162 77.037 57.8066 77.037 63.8711V77.4195Z" fill="#B68C5A"/>
<path d="M15.7037 25.5484C15.7037 29.0323 19.5556 28.3871 19.5556 28.3871C22.8149 36.6452 30.3704 45.1613 40 45.1613C49.6297 45.1613 57.1852 36.6452 60.4445 28.3871C62.5186 28.129 64.1482 26.8387 64.2963 25.0323L65.1852 21.0323C65.3334 20 64.8889 17.6774 62.0741 16.9032C61.1852 10.9677 54.6667 0 40 0C28.7408 0 19.5556 7.22581 18.0741 16.9032C15.1112 17.8065 14.8149 20 14.963 21.1613C14.8149 21.1613 15.7037 25.2903 15.7037 25.5484ZM40 2.58065C46.5186 2.58065 52.1482 5.41935 55.7037 9.80645L45.1852 5.41935C45.1852 5.41935 41.4815 14.1935 30.8149 14.1935H21.6297C24.2963 7.35484 31.5556 2.58065 40 2.58065ZM19.4074 19.3548H20.7408C20.7408 19.3548 21.0371 17.2903 21.0371 16.7742H30.963C37.4815 16.7742 43.4074 13.6774 46.6667 8.77419L58.0741 13.5484C59.2593 16.2581 59.4074 19.3548 59.4074 19.3548H60.8889C62.0741 19.4839 62.3704 20.3871 62.3704 20.6452L61.4815 24.6452C61.3334 25.2903 60.7408 25.8064 60 25.8064H58.3704L58.0741 26.7097C55.2593 34.5806 48.2963 42.5806 40.1482 42.5806C32 42.5806 25.0371 34.5806 22.2223 26.7097L21.926 25.8064H18.963C18.963 25.6774 18.6667 22.9677 18.0741 20.7742C17.6297 20.3871 17.926 19.3548 19.4074 19.3548Z" fill="#B68C5A"/>
</svg>
