<svg width="24" height="24" viewBox="0 0 24 24" fill="none" xmlns="http://www.w3.org/2000/svg">
<path d="M3.39815 8.66447C3.39815 8.48531 3.54333 8.34014 3.72248 8.34014H13.4379C13.617 8.34014 13.7623 8.48531 13.7623 8.66447C13.7623 8.84363 13.617 8.9888 13.4379 8.9888H3.72248C3.54333 8.98875 3.39815 8.84363 3.39815 8.66447ZM8.70342 11.0752H3.72248C3.54333 11.0752 3.39815 11.2204 3.39815 11.3995C3.39815 11.5787 3.54333 11.7239 3.72248 11.7239H8.70347C8.88262 11.7239 9.02779 11.5787 9.02779 11.3995C9.02779 11.2204 8.88257 11.0752 8.70342 11.0752ZM8.70342 13.8102H3.72248C3.54333 13.8102 3.39815 13.9555 3.39815 14.1345C3.39815 14.3136 3.54333 14.4589 3.72248 14.4589H8.70347C8.88262 14.4589 9.02779 14.3136 9.02779 14.1345C9.02779 13.9555 8.88257 13.8102 8.70342 13.8102ZM8.70342 16.5452H3.72248C3.54333 16.5452 3.39815 16.6905 3.39815 16.8696C3.39815 17.0486 3.54333 17.1939 3.72248 17.1939H8.70347C8.88262 17.1939 9.02779 17.0486 9.02779 16.8696C9.02775 16.6905 8.88257 16.5452 8.70342 16.5452ZM23.8538 16.3155C23.7666 16.5058 23.611 16.6504 23.4157 16.723L22.4047 17.0986C22.3164 17.1314 22.2246 17.1476 22.133 17.1476C22.0219 17.1476 21.9111 17.1238 21.8068 17.0758C21.7332 17.0421 21.669 16.9954 21.6106 16.9429C21.5857 17.1718 21.4994 17.3911 21.3488 17.5562C21.1421 17.7827 20.8634 17.8712 20.5658 17.8133C20.5584 17.9628 20.519 18.1132 20.4436 18.2538C20.2219 18.6681 19.7601 18.8727 19.3205 18.7871C19.3123 18.9356 19.2715 19.0815 19.1995 19.2162C19.1579 19.294 19.1045 19.3624 19.0462 19.4259V20.3517C19.0462 21.4932 18.1364 22.424 17.004 22.4623C16.7523 23.3484 15.9376 24 14.9719 24H2.18836C1.02272 24 0.0743408 23.0517 0.0743408 21.886V3.648C0.0743408 2.50636 0.984653 1.57556 2.1172 1.53759C2.37248 0.644578 3.20006 0 4.14857 0H16.9322C18.0979 0 19.0462 0.948375 19.0462 2.11402V12.2069C19.0895 12.2247 19.1319 12.2424 19.1733 12.2598C19.4955 12.3945 19.6989 12.4682 19.8599 12.4616C19.8246 12.2977 19.84 12.1278 19.9113 11.9723C19.9985 11.7822 20.1541 11.6374 20.3494 11.5649L21.3606 11.1894C21.5561 11.1171 21.7686 11.1249 21.9586 11.2122C22.1486 11.2994 22.2933 11.455 22.3659 11.6503L23.8767 15.7176C23.949 15.913 23.941 16.1255 23.8538 16.3155ZM18.9229 12.8581C18.3121 12.6026 17.6806 12.3382 16.8022 12.9445C16.616 13.0733 16.4246 13.236 16.233 13.4293C16.1178 13.5457 15.9995 13.662 15.884 13.7754C15.649 14.0062 15.3707 14.2796 15.2208 14.466C15.664 14.928 16.126 14.7874 16.8538 14.5135C17.4467 14.2904 18.1173 14.0374 18.7115 14.4899C18.8747 14.583 19.1152 14.7017 19.3694 14.8273C20.0931 15.1847 20.7024 15.4998 21.0949 15.8186L20.0791 13.0838C20.0021 13.101 19.925 13.1117 19.8483 13.1117C19.5287 13.1117 19.2138 12.98 18.9229 12.8581ZM2.80415 1.53398H14.9719C16.1376 1.53398 17.0859 2.48236 17.0859 3.648V12.0657C17.5776 11.884 18.0139 11.9004 18.3975 11.9898V2.11402C18.3975 1.30608 17.7403 0.648656 16.9322 0.648656H4.14857C3.55682 0.648656 3.03225 1.01034 2.80415 1.53398ZM10.3327 5.26486L12.082 4.08548C12.1917 4.01156 12.3349 4.01156 12.4447 4.08548L14.0088 5.13984V2.18264H10.3327V5.26486ZM16.4372 21.886V21.0926C16.3693 21.1092 16.3008 21.1186 16.2326 21.1186C16.074 21.1186 15.918 21.076 15.7793 21.0017C15.5517 20.88 15.3619 20.6687 15.2603 20.4223C15.2537 20.4244 15.2472 20.4265 15.2405 20.4285C14.9807 20.507 14.7065 20.4804 14.4681 20.3528C14.291 20.2644 14.1455 20.1187 14.0511 19.9356C14.0057 19.9569 13.9586 19.9751 13.9098 19.9899C13.6501 20.0685 13.3756 20.0418 13.1375 19.9143C12.9103 19.8009 12.7354 19.5933 12.6529 19.3338C12.6088 19.1949 12.5946 19.0492 12.6096 18.9077C12.4618 18.9016 12.3132 18.863 12.1742 18.7886C11.9473 18.6755 11.7724 18.4679 11.6899 18.2084C11.6055 17.9434 11.6304 17.6546 11.7582 17.4158L11.8748 17.1977C11.8074 17.2163 11.7388 17.2283 11.6694 17.2283C11.5889 17.2283 11.5079 17.2156 11.4291 17.19L10.4028 16.8592C9.99257 16.7268 9.7664 16.285 9.89873 15.8748L11.231 11.7455C11.2949 11.5471 11.4328 11.3854 11.619 11.2899C11.8053 11.1947 12.0172 11.1775 12.2154 11.2413L13.242 11.5725C13.5053 11.6575 13.6912 11.8703 13.7567 12.12C13.9948 12.1283 14.2323 12.0814 14.4967 12.0288C15.0504 11.9188 15.6685 11.7969 16.4374 12.1766V3.648C16.4374 2.84006 15.7801 2.18264 14.972 2.18264H14.6576V5.74969C14.6576 5.86964 14.5915 5.97975 14.4855 6.036C14.3796 6.09239 14.2516 6.0855 14.1519 6.01856L12.2634 4.74553L10.3308 6.04842C10.2772 6.08452 10.2141 6.10383 10.1495 6.10383H10.0085C9.82931 6.10383 9.68414 5.95866 9.68414 5.7795V2.18264H2.18836C1.38042 2.18264 0.722997 2.84006 0.722997 3.648V21.886C0.722997 22.6941 1.38042 23.3513 2.18836 23.3513H14.9719C15.7799 23.3513 16.4372 22.6941 16.4372 21.886ZM17.3969 19.4354C17.4463 19.6415 17.4052 19.8463 17.343 20.0161L17.376 20.0332C17.5777 20.1371 17.6811 19.9804 17.7075 19.9299C17.7371 19.8734 17.8054 19.6885 17.5834 19.5356L17.3969 19.4354ZM17.0759 20.6083L17.0507 20.5951C17.0481 20.5996 17.0453 20.6039 17.0427 20.6083H17.0759ZM16.0302 19.5834L15.8625 19.8968C15.7559 20.0963 15.9203 20.3417 16.0852 20.4297C16.1469 20.4631 16.3357 20.5636 16.5077 20.242L16.6293 20.0146C16.6292 20.0149 16.6294 20.0145 16.6293 20.0146C16.8592 19.5843 16.793 19.5218 16.548 19.3907C16.4429 19.3343 16.3301 19.3607 16.2725 19.381C16.1676 19.4181 16.0793 19.492 16.0302 19.5834ZM15.4962 18.4304C15.319 18.3358 15.0965 18.4027 15.0012 18.5807C15.0011 18.581 15.0008 18.5812 15.0007 18.5815L14.6239 19.2859C14.5783 19.3712 14.5702 19.4773 14.6017 19.5761C14.6186 19.6289 14.6621 19.725 14.7659 19.7769C14.8593 19.8267 14.9583 19.8362 15.0523 19.8077C15.1462 19.7792 15.2233 19.7165 15.2691 19.631L15.291 19.59C15.2912 19.5897 15.2915 19.5894 15.2917 19.5891L15.4569 19.2801C15.4572 19.2795 15.4574 19.2789 15.4576 19.2784L15.6464 18.9258C15.7415 18.7477 15.6742 18.5256 15.4962 18.4304ZM14.5492 17.822C14.5207 17.7278 14.4579 17.651 14.3724 17.6052C14.1949 17.5099 13.9725 17.5775 13.8773 17.7553C13.8775 17.755 13.8772 17.7556 13.8773 17.7553L13.5466 18.3733L13.2933 18.8471C13.2477 18.9326 13.2397 19.0382 13.2711 19.1372C13.2878 19.19 13.3315 19.2863 13.4354 19.3382C13.6216 19.4377 13.8433 19.3697 13.9385 19.1923L14.0521 18.9799C14.0519 18.9802 14.0522 18.9796 14.0521 18.9799L14.4289 18.2757C14.4287 18.276 14.429 18.2755 14.4289 18.2757L14.5223 18.1005C14.5682 18.0148 14.5777 17.916 14.5492 17.822ZM13.2383 16.7614C13.1568 16.723 13.0642 16.716 12.9759 16.7429C12.8817 16.7714 12.8048 16.8341 12.759 16.9196L12.6203 17.1789C12.6204 17.1788 12.6203 17.1789 12.6203 17.1789L12.33 17.7218C12.2844 17.8071 12.2764 17.9129 12.3078 18.0119C12.3247 18.0645 12.3682 18.1607 12.4723 18.2127C12.6575 18.3121 12.8796 18.2448 12.9749 18.0672C12.9752 18.0666 12.9757 18.0661 12.9759 18.0655L13.3055 17.4494L13.4043 17.2646C13.4413 17.1953 13.5532 16.9861 13.2383 16.7614ZM13.1286 12.3575C13.1507 12.2889 13.1114 12.212 13.0426 12.1898L12.0161 11.8587C12.002 11.854 11.9886 11.8523 11.9762 11.8523C11.9492 11.8523 11.9273 11.8608 11.9146 11.8673C11.8961 11.8769 11.8627 11.8995 11.8483 11.9446L10.516 16.074C10.4938 16.1428 10.5332 16.2196 10.6019 16.2418L11.6284 16.5729C11.6737 16.5877 11.7115 16.5737 11.73 16.5645C11.7485 16.5549 11.7818 16.5322 11.7963 16.4872L12.0279 15.7691C12.0362 15.7402 12.0433 15.7111 12.0526 15.6825C12.0558 15.6725 12.0608 15.6638 12.0649 15.6545L13.1286 12.3575ZM18.3975 20.3518V19.7572C18.3952 19.7575 18.3928 19.7585 18.3904 19.7587C18.3961 19.9243 18.3572 20.0881 18.2819 20.2315C18.1191 20.5419 17.8207 20.7152 17.5027 20.7152C17.3643 20.7152 17.2222 20.6819 17.0859 20.6131V21.8092C17.822 21.732 18.3975 21.1079 18.3975 20.3518ZM20.8957 16.5325C20.6735 16.1949 19.7159 15.7217 19.0821 15.4088C18.7964 15.2678 18.5498 15.1459 18.368 15.0405C18.3545 15.0327 18.3416 15.0239 18.3294 15.0143C18.0329 14.78 17.6624 14.9018 17.0826 15.1206C16.3575 15.3936 15.3642 15.7667 14.5608 14.6866C14.493 14.5952 14.478 14.4751 14.5211 14.3699C14.629 14.1068 14.9367 13.7966 15.4297 13.3125C15.5429 13.2012 15.659 13.0872 15.772 12.9732C15.8642 12.8798 15.9571 12.7924 16.0499 12.7109C15.5249 12.4858 15.1005 12.5703 14.6231 12.6651C14.3227 12.7248 14.0144 12.7849 13.679 12.7646L12.6494 15.9555C12.6266 16.0369 12.6077 16.119 12.5963 16.2016C12.6565 16.1691 12.7207 16.1423 12.7878 16.122C13.0477 16.0426 13.322 16.0701 13.5604 16.1977C13.5752 16.2055 13.5892 16.2145 13.6024 16.2245C13.8702 16.4124 14.0344 16.6577 14.0845 16.9202C14.2825 16.8974 14.4895 16.9322 14.6787 17.0333C14.9168 17.1607 15.0914 17.3741 15.17 17.6339C15.1814 17.6712 15.1905 17.709 15.1975 17.747C15.3987 17.721 15.6098 17.7557 15.8022 17.8583C16.0381 17.9846 16.2024 18.1917 16.2824 18.4269C16.3752 18.2934 16.554 18.2472 16.7009 18.3254L17.7767 18.903C17.7952 18.909 17.8135 18.9161 17.8311 18.9256C17.8315 18.9256 17.8317 18.9258 17.8322 18.9261L18.1008 19.0699C18.192 19.1184 18.2969 19.1284 18.3972 19.0984C18.4971 19.068 18.579 19.0013 18.6276 18.9103C18.6764 18.819 18.6865 18.7139 18.6563 18.6138C18.6259 18.5142 18.5594 18.4325 18.469 18.3837C18.458 18.3778 18.4477 18.3697 18.4376 18.3627L17.195 17.6983C17.037 17.614 16.9775 17.4174 17.0619 17.2595C17.1462 17.1014 17.3436 17.0416 17.5007 17.1265L18.7758 17.8083C18.7867 17.8141 18.796 17.8217 18.806 17.8286L19.3341 18.1111C19.5275 18.2139 19.7686 18.1411 19.8719 17.9479C19.9716 17.7615 19.9056 17.531 19.7267 17.4224L17.9756 16.472C17.8183 16.3865 17.7598 16.1897 17.8453 16.0321C17.9308 15.8748 18.1276 15.817 18.2851 15.9019L19.9987 16.8319C20.0039 16.8344 20.0094 16.8358 20.0146 16.8385L20.5471 17.1234C20.7608 17.2372 20.84 17.1517 20.8698 17.1189C20.9826 16.9952 21.0179 16.7179 20.8957 16.5325ZM23.2685 15.9435L21.7577 11.8761C21.7413 11.8316 21.7071 11.8103 21.6881 11.8017C21.676 11.7962 21.656 11.7892 21.6317 11.7892C21.6178 11.7892 21.6025 11.7914 21.5865 11.7973L20.5753 12.1729C20.5308 12.1894 20.5094 12.2236 20.5008 12.2426C20.4921 12.2616 20.4801 12.3 20.4966 12.3443L22.0073 16.4117C22.0238 16.4562 22.058 16.4775 22.077 16.4862C22.0958 16.4947 22.1344 16.5067 22.1788 16.4904L23.1897 16.1148C23.2342 16.0984 23.2556 16.0642 23.2642 16.0452C23.273 16.0262 23.285 15.9878 23.2685 15.9435Z" fill="#FFF6EE"/>
</svg>
