<svg width="34" height="24" viewBox="0 0 34 24" fill="none" xmlns="http://www.w3.org/2000/svg">
<path d="M33.4745 11.0996L29.8434 1.0386C29.6998 0.640703 29.4133 0.323875 29.0368 0.146208C28.66 -0.0311251 28.24 -0.0477791 27.8534 0.0997099L25.423 1.02854C24.6229 1.33445 24.2136 2.25329 24.5108 3.07667L24.5502 3.18592C23.9752 3.41055 23.3334 3.1652 22.3525 2.74239C20.8878 2.11133 18.9012 1.26397 16.3793 2.88721C14.3325 1.57613 12.7264 1.89956 11.304 2.191C10.5815 2.33876 9.89338 2.47785 9.18268 2.40218C9.16268 2.20999 9.11147 2.0206 9.02312 1.84293C8.83416 1.46335 8.514 1.1825 8.12172 1.05226L5.65445 0.233209C5.26198 0.102974 4.84271 0.138414 4.47399 0.332401C4.10528 0.526855 3.83237 0.856341 3.70595 1.26004L0.503449 11.4742C0.241477 12.3102 0.689166 13.2096 1.50156 13.4792L3.96876 14.2986C4.12444 14.3503 4.28426 14.376 4.44344 14.376C4.68573 14.376 4.9266 14.3166 5.14909 14.1994C5.28651 14.1269 5.4053 14.0304 5.51346 13.9235C5.52868 14.0008 5.54907 14.0772 5.56745 14.1539L4.94978 15.3423C4.68489 15.8523 4.63356 16.4706 4.80924 17.0386C4.98027 17.5916 5.34095 18.0333 5.81402 18.2765C6.2263 18.5035 6.68046 18.5745 7.1117 18.5091C6.98852 18.9295 6.99085 19.3905 7.12439 19.8226C7.29541 20.3757 7.6561 20.8175 8.12916 21.0607C8.62398 21.333 9.19356 21.3898 9.73329 21.2218C9.94892 21.1545 10.1493 21.0545 10.3288 20.9261C10.5021 21.4706 10.86 21.9051 11.3276 22.1456C11.8223 22.4179 12.3919 22.4747 12.9316 22.3067C13.0515 22.2692 13.1667 22.2218 13.276 22.165C13.4383 22.8355 13.9016 23.4326 14.4791 23.7505C14.7549 23.9022 15.0797 24 15.4169 24C16.0297 24 16.6831 23.6768 17.1557 22.7676L17.2479 22.5901C17.2839 22.6094 17.3196 22.6288 17.3524 22.6465L17.5989 22.7788C17.9008 22.9387 18.1959 23.0092 18.4734 23.0092C19.1656 23.0092 19.747 22.5702 20.0442 21.9872C20.2489 21.586 20.321 21.109 20.2217 20.6461C20.4714 20.6594 20.7239 20.6288 20.9707 20.5519C21.525 20.379 21.9799 19.996 22.2515 19.4734C22.471 19.0512 22.5504 18.5773 22.4842 18.1099C22.9479 18.3079 23.4606 18.3337 23.9496 18.1813C24.5087 18.007 24.9675 17.6205 25.2415 17.0934C25.4654 16.6623 25.5448 16.1779 25.4737 15.7011C26.2293 16.0111 26.9584 15.8693 27.4646 15.2985C27.9778 14.7201 28.1504 13.8339 27.9585 13.0431C27.9981 13.0285 28.0383 13.0136 28.083 12.9971L28.0901 12.9945L28.1419 13.1378C28.3735 13.779 28.9661 14.1761 29.5947 14.1761C29.7734 14.1761 29.9549 14.1441 30.1319 14.0765L32.5622 13.1476C33.3624 12.8417 33.7717 11.9231 33.4745 11.0996ZM5.06487 12.9886C5.01166 13.1582 4.89663 13.2968 4.74076 13.3789C4.58462 13.4609 4.40823 13.476 4.24374 13.4215L1.77641 12.602C1.4341 12.4884 1.24541 12.1094 1.35578 11.7571L4.5584 1.54302C4.61149 1.37362 4.72651 1.23499 4.88233 1.15292C4.97651 1.10329 5.0784 1.07804 5.18061 1.07804C5.24742 1.07804 5.31415 1.0887 5.37921 1.11028C5.37934 1.11028 5.37934 1.11028 5.37934 1.11042L7.84667 1.9296C8.01129 1.98423 8.14599 2.1026 8.22574 2.26295C8.30549 2.42336 8.32019 2.60489 8.26717 2.77443L5.71044 10.9295C5.69925 10.9517 5.68844 10.9745 5.68073 10.9992C5.65827 11.0705 5.64092 11.1426 5.62118 11.2143L5.06487 12.9886ZM6.22552 17.4579C5.9596 17.3212 5.75971 17.073 5.6628 16.7591C5.56001 16.4268 5.58804 16.0688 5.73964 15.7771L6.43745 14.4345C6.43758 14.4343 6.43778 14.4342 6.43784 14.434L6.77115 13.7926C7.08167 13.1955 7.80117 12.9647 8.38505 13.2679C8.76807 13.5435 9.34257 14.1296 8.90666 14.9681L8.66916 15.4251L7.87431 16.9544C7.55894 17.5588 6.82474 17.788 6.22552 17.4579ZM10.1904 19.7367C10.0388 20.0287 9.78411 20.2428 9.47326 20.3398C9.16261 20.4367 8.83513 20.404 8.54067 20.2421C8.27475 20.1054 8.07485 19.8571 7.97795 19.5432C7.87515 19.2111 7.90331 18.8531 8.05492 18.5614L8.66418 17.3894L9.45902 15.8601C9.61063 15.5682 9.86535 15.3542 10.176 15.2572C10.4868 15.16 10.814 15.1929 11.0978 15.349C11.3814 15.5051 11.5894 15.7672 11.6836 16.0871C11.7778 16.4068 11.746 16.7438 11.5942 17.0358L11.371 17.4654C11.3709 17.4659 11.3706 17.4663 11.3703 17.4668L10.4635 19.2115C10.4635 19.2117 10.4635 19.2117 10.4633 19.2118L10.1904 19.7367ZM12.6717 21.4246C12.3609 21.5215 12.0337 21.4888 11.7392 21.3269C11.4732 21.1902 11.2735 20.9421 11.1764 20.6283C11.074 20.2964 11.1017 19.9392 11.2527 19.6477L11.2534 19.6463L12.1602 17.9016C12.1603 17.9014 12.1604 17.9012 12.1604 17.901L12.1609 17.9001C12.3127 17.6089 12.5671 17.3954 12.8773 17.2986C13.1879 17.2012 13.5153 17.2342 13.799 17.3904C14.3877 17.7145 14.6105 18.4712 14.2957 19.077L13.8423 19.9494L13.4404 20.7227C13.4402 20.723 13.4401 20.7233 13.4399 20.7236L13.3889 20.8217C13.2373 21.1134 12.9825 21.3277 12.6717 21.4246ZM14.9015 22.9377C14.3144 22.6145 13.8943 21.8039 14.2303 21.1573L14.6322 20.3841L14.6327 20.383C14.7894 20.0823 15.068 19.8408 15.3974 19.7204C15.7261 19.6001 16.0562 19.6162 16.327 19.7653C16.9172 20.0899 17.0124 20.3741 17.0325 20.5595C17.0631 20.8399 16.9478 21.2128 16.659 21.7683C16.6588 21.7688 16.6587 21.7693 16.6585 21.7697L16.3658 22.3328C15.8701 23.2874 15.2358 23.1215 14.9015 22.9377ZM19.2511 21.559C19.0399 21.9739 18.574 22.2586 18.0089 21.9595L17.7689 21.8306C17.7292 21.809 17.6922 21.789 17.6578 21.7705C17.8392 21.3554 17.9714 20.9043 17.9227 20.457C17.8678 19.9526 17.5959 19.532 17.1025 19.1773L18.8664 20.1521C19.4558 20.578 19.4538 21.1617 19.2511 21.559ZM26.8031 14.6771C26.5147 15.0026 26.1188 15.0301 25.6262 14.7587L24.3488 14.0557C24.3479 14.0552 24.347 14.0547 24.3461 14.0543C24.3331 14.0472 24.3194 14.043 24.306 14.0373L20.1869 11.7363C19.97 11.6146 19.6978 11.6977 19.5797 11.9216C19.4618 12.1452 19.5422 12.4249 19.7597 12.5464L23.966 14.8961C24.2444 15.0641 24.4511 15.3284 24.5463 15.6511C24.6463 15.9908 24.6126 16.3486 24.4514 16.6587C24.2903 16.9688 24.0197 17.1963 23.6896 17.2992C23.359 17.402 23.0116 17.3675 22.7105 17.2017L21.4404 16.5026C21.4184 16.4841 21.3945 16.4672 21.3685 16.4529L18.3034 14.7663C18.085 14.646 17.8139 14.7312 17.6974 14.9555C17.5808 15.18 17.663 15.4592 17.8813 15.5792L20.8693 17.2234C20.8914 17.242 20.9155 17.259 20.9417 17.2734C21.2387 17.4368 21.4565 17.7111 21.555 18.0459C21.6535 18.3807 21.6203 18.7332 21.4615 19.0387C21.3028 19.3444 21.0361 19.5683 20.7108 19.6699C20.3858 19.7712 20.043 19.7371 19.7461 19.5737L19.0978 19.2169C19.0652 19.199 19.0312 19.1871 18.997 19.1781L16.3801 17.732C16.1622 17.6108 15.8906 17.6956 15.7738 17.92C15.6567 18.1442 15.7385 18.4237 15.9565 18.544L16.5064 18.8479C16.133 18.7063 15.7241 18.6795 15.3148 18.7844C15.4304 17.9118 15.0189 17.0164 14.2214 16.5774C13.7313 16.3077 13.1675 16.249 12.6323 16.4118C12.6284 16.2137 12.5981 16.0148 12.5407 15.8196C12.3772 15.264 12.0146 14.8082 11.52 14.5361C11.0229 14.2627 10.466 14.2156 9.96199 14.3602C9.95338 13.5772 9.47042 12.926 8.89527 12.5104C8.87559 12.4949 8.85462 12.4809 8.83228 12.4686C7.97361 11.9962 6.93583 12.2003 6.29977 12.8995C6.28947 12.4202 6.35317 11.9389 6.48257 11.4678L9.03878 3.31442C9.90289 3.41735 10.7024 3.2542 11.4785 3.09499C12.7687 2.83092 13.9941 2.57991 15.5775 3.46811C15.2326 3.75076 14.8856 4.07332 14.5406 4.43192C14.2676 4.7161 13.9868 4.99982 13.7128 5.27662C12.7141 6.28606 11.8517 7.15787 11.605 7.7766C11.5454 7.92616 11.5662 8.09689 11.66 8.22653C13.4426 10.6937 15.6029 9.8565 17.338 9.18408C18.6389 8.67979 19.7624 8.24412 20.6574 8.97297C20.6743 8.98676 20.6921 8.99922 20.7107 9.01034C21.1381 9.26522 21.7269 9.56439 22.4086 9.91086C24.0567 10.7486 26.314 11.896 26.8973 12.8084C27.2893 13.421 27.1649 14.2692 26.8031 14.6771ZM27.576 12.2053C26.7941 11.114 24.59 9.99154 22.8054 9.08462C22.1526 8.75273 21.5868 8.46528 21.1864 8.22866C19.9008 7.20616 18.4378 7.77301 17.0225 8.32153C15.3451 8.9713 13.8864 9.53635 12.5541 7.90504C12.867 7.42373 13.6144 6.66844 14.3405 5.93452C14.6175 5.65453 14.9013 5.36768 15.1774 5.0805C15.6559 4.58314 16.1347 4.16479 16.6016 3.83417C18.8578 2.2375 20.5303 2.95689 22.0064 3.59262C22.6966 3.88999 23.401 4.1935 24.0979 4.1935C24.3538 4.1935 24.6084 4.1454 24.8613 4.04821L27.7782 12.1304C27.7102 12.1556 27.6414 12.1811 27.576 12.2053ZM32.2505 12.2835L29.8202 13.2123C29.482 13.3407 29.1065 13.1637 28.9815 12.8168L25.3505 2.75551C25.2903 2.5887 25.2972 2.40671 25.3701 2.24283C25.4432 2.07902 25.5726 1.95465 25.7348 1.89263L28.1651 0.963793C28.2381 0.935881 28.3141 0.921958 28.39 0.921958C28.483 0.921958 28.5759 0.942809 28.6635 0.984045C28.8226 1.05906 28.9434 1.19242 29.0036 1.35943L32.6348 11.4205C32.76 11.7675 32.5876 12.1546 32.2505 12.2835Z" fill="#FFF6EE"/>
</svg>
