<svg width="154" height="61" viewBox="0 0 154 61" fill="none" xmlns="http://www.w3.org/2000/svg">
<path d="M150.704 34.6498C145.206 26.4808 144.196 15.9787 143.341 6.37775C143.341 6.37775 143.319 5.80996 142.996 5.79912C142.673 5.78827 142.649 6.35452 142.649 6.35452C141.675 13.8752 141.464 21.5293 143.007 29.0495C101.188 -4.75733 31.4649 14.6998 0.42805 53.9936C0.42805 53.9936 -0.0739924 54.5042 0.318034 54.8632C0.71006 55.2223 1.35778 54.6713 1.35778 54.6713C19.549 36.5687 50.7669 23.1736 70.333 21.0292C98.3522 17.9665 115.932 22.3789 138.88 31.27C131.506 28.4081 121.477 32.6023 116.893 39.4858C116.893 39.4858 116.633 39.8456 116.771 40.0091C116.91 40.1725 117.348 40.0284 117.348 40.0284C123.488 38.04 129.923 38.0746 136.292 38.1808C141.288 38.0031 146.289 38.3612 151.208 39.2487C151.477 39.294 151.753 39.2595 152.002 39.1497C152.251 39.0398 152.461 38.8595 152.605 38.6319C152.749 38.4043 152.82 38.1396 152.81 37.8716C152.8 37.6036 152.709 37.3446 152.549 37.1275L150.704 34.6498Z" fill="#B68C5A"/>
<path d="M29.1935 19.2681C30.5035 17.4135 32.4792 16.1147 34.7245 15.6317C34.8262 15.6121 34.9317 15.6254 35.0251 15.6697C35.1185 15.7139 35.1948 15.7868 35.2425 15.8773C35.2902 15.9677 35.3068 16.0709 35.2897 16.1713C35.2726 16.2717 35.2228 16.364 35.1478 16.4342C33.5577 17.853 31.7682 19.0399 29.8341 19.9587C29.7388 20.0252 29.622 20.055 29.5057 20.0426C29.3895 20.0302 29.2818 19.9765 29.203 19.8916C29.1242 19.8066 29.0797 19.6963 29.078 19.5815C29.0762 19.4666 29.1173 19.3551 29.1935 19.2681Z" fill="#B68C5A"/>
<path d="M38.7955 13.8629C52.0318 4.93366 69.1565 0.370978 85.0209 3.42716C85.1064 3.43454 85.1855 3.47499 85.2407 3.53958C85.2959 3.60418 85.3227 3.68764 85.3153 3.77162C85.3079 3.85559 85.2668 3.9332 85.2011 3.98736C85.1354 4.04152 85.0505 4.06779 84.965 4.0604C69.0692 4.17311 53.6896 8.34072 39.1055 14.4291C39.0292 14.4694 38.9396 14.4782 38.8565 14.4536C38.7734 14.429 38.7037 14.373 38.6626 14.298C38.6214 14.2229 38.6124 14.1349 38.6373 14.0533C38.6622 13.9717 38.7191 13.9032 38.7955 13.8629Z" fill="#B68C5A"/>
</svg>
