<svg width="26" height="26" viewBox="0 0 26 26" fill="none" xmlns="http://www.w3.org/2000/svg">
<path d="M11.0944 7.69528H14.133C14.2876 7.18026 14.5451 6.76825 14.9056 6.35623C15.5236 5.6867 15.8841 4.70816 15.7296 3.72962C15.5236 2.33906 14.3906 1.20601 13 1.05151C11.0944 0.845499 9.44635 2.33906 9.44635 4.19314C9.44635 5.01717 9.75536 5.7382 10.2704 6.30473C10.6309 6.71674 10.9399 7.18026 11.0944 7.69528Z" stroke="#FFF6EE" stroke-width="0.5" stroke-miterlimit="10" stroke-linecap="round" stroke-linejoin="round"/>
<path d="M13.103 7.69539V4.14174C13.103 3.88423 13.309 3.67822 13.5665 3.67822C13.824 3.67822 14.03 3.88423 14.03 4.14174C14.03 4.39925 13.824 4.60526 13.5665 4.60526H11.6609C11.4034 4.60526 11.1974 4.39925 11.1974 4.14174C11.1974 3.88423 11.4034 3.67822 11.6609 3.67822C11.9184 3.67822 12.1244 3.88423 12.1244 4.14174V7.59239" stroke="#FFF6EE" stroke-width="0.5" stroke-miterlimit="10" stroke-linecap="round" stroke-linejoin="round"/>
<path d="M13.8755 7.69531H11.3004C11.0429 7.69531 10.7854 7.90132 10.7854 8.21033C10.7854 8.46784 10.9914 8.72536 11.3004 8.72536H13.8755C14.133 8.72536 14.3906 8.51935 14.3906 8.21033C14.3906 7.90132 14.1845 7.69531 13.8755 7.69531Z" stroke="#FFF6EE" stroke-width="0.5" stroke-miterlimit="10" stroke-linecap="round" stroke-linejoin="round"/>
<path d="M13.8755 8.72534H11.3004C11.0429 8.72534 10.7854 8.93135 10.7854 9.24036C10.7854 9.49787 10.9914 9.75538 11.3004 9.75538H13.8755C14.133 9.75538 14.3906 9.54938 14.3906 9.24036C14.3906 8.93135 14.1845 8.72534 13.8755 8.72534Z" stroke="#FFF6EE" stroke-width="0.5" stroke-miterlimit="10" stroke-linecap="round" stroke-linejoin="round"/>
<path d="M11.5579 9.75537C11.6609 10.2704 12.0729 10.6309 12.588 10.6309C13.103 10.6309 13.515 10.2704 13.618 9.75537H11.5579Z" stroke="#FFF6EE" stroke-width="0.5" stroke-miterlimit="10" stroke-linecap="round" stroke-linejoin="round"/>
<path d="M16.6051 4.19312H17.0686" stroke="#FFF6EE" stroke-width="0.5" stroke-miterlimit="10" stroke-linecap="round" stroke-linejoin="round"/>
<path d="M8.15875 4.19312H8.62227" stroke="#FFF6EE" stroke-width="0.5" stroke-miterlimit="10" stroke-linecap="round" stroke-linejoin="round"/>
<path d="M16.6051 4.19312H17.0686" stroke="#FFF6EE" stroke-width="0.5" stroke-miterlimit="10" stroke-linecap="round" stroke-linejoin="round"/>
<path d="M8.15875 4.19312H8.62227" stroke="#FFF6EE" stroke-width="0.5" stroke-miterlimit="10" stroke-linecap="round" stroke-linejoin="round"/>
<path d="M9.44635 1L9.80686 1.36052" stroke="#FFF6EE" stroke-width="0.5" stroke-miterlimit="10" stroke-linecap="round" stroke-linejoin="round"/>
<path d="M15.7811 1L15.4206 1.36052" stroke="#FFF6EE" stroke-width="0.5" stroke-miterlimit="10" stroke-linecap="round" stroke-linejoin="round"/>
<path d="M16.2961 2.64816L16.7597 2.49365" stroke="#FFF6EE" stroke-width="0.5" stroke-miterlimit="10" stroke-linecap="round" stroke-linejoin="round"/>
<path d="M8.46777 5.89279L8.93129 5.73828" stroke="#FFF6EE" stroke-width="0.5" stroke-miterlimit="10" stroke-linecap="round" stroke-linejoin="round"/>
<path d="M16.2961 2.64816L16.7597 2.49365" stroke="#FFF6EE" stroke-width="0.5" stroke-miterlimit="10" stroke-linecap="round" stroke-linejoin="round"/>
<path d="M8.46777 5.89279L8.93129 5.73828" stroke="#FFF6EE" stroke-width="0.5" stroke-miterlimit="10" stroke-linecap="round" stroke-linejoin="round"/>
<path d="M16.2961 5.73828L16.7597 5.89279" stroke="#FFF6EE" stroke-width="0.5" stroke-miterlimit="10" stroke-linecap="round" stroke-linejoin="round"/>
<path d="M8.46777 2.49365L8.93129 2.64816" stroke="#FFF6EE" stroke-width="0.5" stroke-miterlimit="10" stroke-linecap="round" stroke-linejoin="round"/>
<path d="M17.5836 22.631C17.5836 23.97 16.3476 25.0001 14.957 25.0001H10.7854C9.3948 25.0001 8.15875 23.97 8.15875 22.631C8.15875 20.5709 9.70382 19.9529 11.8154 19.8499V19.9014L12.8969 21.0859L13.9785 19.9014V19.8499C15.9871 19.9529 17.5836 20.5194 17.5836 22.631Z" stroke="#FFF6EE" stroke-width="0.5" stroke-miterlimit="10" stroke-linecap="round" stroke-linejoin="round"/>
<path d="M11.7639 19.8499C11.7639 19.6439 11.8154 19.2319 11.8669 18.8713" stroke="#FFF6EE" stroke-width="0.5" stroke-miterlimit="10" stroke-linecap="round" stroke-linejoin="round"/>
<path d="M13.824 18.8713C13.8755 19.2834 13.8755 19.6439 13.927 19.8499" stroke="#FFF6EE" stroke-width="0.5" stroke-miterlimit="10" stroke-linecap="round" stroke-linejoin="round"/>
<path d="M16.4506 16.2961C16.2961 16.7597 15.9356 17.0172 15.4206 16.8627C15.3691 16.8627 15.3691 16.8627 15.3691 16.8112C15.5236 16.2961 15.6266 15.6781 15.6266 15.1631C15.8326 15.1631 15.9871 15.1631 16.1416 15.2146C16.7081 15.4206 16.6051 15.8326 16.4506 16.2961Z" stroke="#FFF6EE" stroke-width="0.5" stroke-miterlimit="10" stroke-linecap="round" stroke-linejoin="round"/>
<path d="M10.3734 16.8627C10.3219 16.8627 10.3219 16.8627 10.3219 16.9142C9.75533 17.0687 9.44632 16.8112 9.29181 16.3476C9.13731 15.8841 9.0343 15.4206 9.60083 15.2661C9.75533 15.2146 9.96134 15.2146 10.1158 15.2146C10.1158 15.7296 10.1673 16.2961 10.3734 16.8627Z" stroke="#FFF6EE" stroke-width="0.5" stroke-miterlimit="10" stroke-linecap="round" stroke-linejoin="round"/>
<path d="M15.6266 14.957C15.6266 16.811 14.8025 19.1286 12.8454 19.1286C10.8369 19.1286 10.0643 16.811 10.0643 14.9055C10.0643 14.8025 10.0643 14.751 10.0643 14.6479" stroke="#FFF6EE" stroke-width="0.5" stroke-miterlimit="10" stroke-linecap="round" stroke-linejoin="round"/>
<path d="M15.7296 15.0602C14.7511 13.6696 12.5365 14.2362 11.8155 13.5666C11.1974 14.4422 9.85838 15.1632 8.67383 14.2362C10.4764 13.7727 10.1159 10.5795 11.867 11.9701C12.794 10.734 16.6052 12.3306 15.7296 15.0602Z" stroke="#FFF6EE" stroke-width="0.5" stroke-miterlimit="10" stroke-linecap="round" stroke-linejoin="round"/>
<path d="M13.618 23.6095L12.7939 24.1761L11.9699 23.6095L12.3819 21.3949L12.8454 21.0859L13.206 21.2919L13.618 23.6095Z" stroke="#FFF6EE" stroke-width="0.5" stroke-miterlimit="10" stroke-linecap="round" stroke-linejoin="round"/>
<path d="M15.1116 19.9529L13.927 21.9099L12.8455 21.0859L13.9785 19.8499C14.3905 19.8499 14.751 19.9014 15.1116 19.9529Z" stroke="#FFF6EE" stroke-width="0.5" stroke-miterlimit="10" stroke-linecap="round" stroke-linejoin="round"/>
<path d="M10.5793 19.9529L11.7639 21.9099L12.8454 21.0859L11.7124 19.8499C11.3004 19.8499 10.9399 19.9014 10.5793 19.9529Z" stroke="#FFF6EE" stroke-width="0.5" stroke-miterlimit="10" stroke-linecap="round" stroke-linejoin="round"/>
<path d="M25.103 19.4377C25.103 20.4678 24.176 21.2918 23.0944 21.2918H19.9013C18.8197 21.2918 17.8927 20.4678 17.8927 19.4377C17.8927 17.7897 19.0773 17.3777 20.6738 17.2231V17.2746L21.4979 18.2017L22.3219 17.2746C22.3219 17.2746 22.3219 17.2746 22.3219 17.2231C23.9185 17.3777 25.103 17.8412 25.103 19.4377Z" stroke="#FFF6EE" stroke-width="0.5" stroke-miterlimit="10" stroke-linecap="round" stroke-linejoin="round"/>
<path d="M20.6223 17.2747C20.6223 17.1202 20.6738 16.8112 20.6738 16.5022" stroke="#FFF6EE" stroke-width="0.5" stroke-miterlimit="10" stroke-linecap="round" stroke-linejoin="round"/>
<path d="M22.2704 16.5537C22.3219 16.8627 22.3219 17.1717 22.3219 17.3262" stroke="#FFF6EE" stroke-width="0.5" stroke-miterlimit="10" stroke-linecap="round" stroke-linejoin="round"/>
<path d="M24.279 14.545C24.176 14.9055 23.867 15.1115 23.4549 14.957H23.4034C23.5064 14.545 23.6094 14.0815 23.6094 13.6694C23.764 13.6694 23.9185 13.6694 24.0215 13.7209C24.4335 13.8239 24.382 14.1845 24.279 14.545Z" stroke="#FFF6EE" stroke-width="0.5" stroke-miterlimit="10" stroke-linecap="round" stroke-linejoin="round"/>
<path d="M19.5408 14.957H19.4893C19.0772 15.06 18.8197 14.9055 18.6652 14.545C18.5622 14.1845 18.5107 13.8239 18.9227 13.7209C19.0257 13.6694 19.1802 13.6694 19.3348 13.6694C19.3863 14.0815 19.4378 14.545 19.5408 14.957Z" stroke="#FFF6EE" stroke-width="0.5" stroke-miterlimit="10" stroke-linecap="round" stroke-linejoin="round"/>
<path d="M23.6094 13.4636C23.6094 14.9056 22.9914 16.7082 21.4978 16.7082C19.9528 16.7082 19.3862 14.9056 19.3862 13.4121C19.3862 13.3606 19.3862 13.2576 19.3862 13.2061" stroke="#FFF6EE" stroke-width="0.5" stroke-miterlimit="10" stroke-linecap="round" stroke-linejoin="round"/>
<path d="M23.661 13.5665C22.8884 12.4849 21.1888 12.8969 20.6223 12.3819C20.1588 13.1029 19.1288 13.618 18.2017 12.8969C19.5923 12.5364 19.3348 10.0643 20.6738 11.1459C21.4464 10.1673 24.382 11.4034 23.661 13.5665Z" stroke="#FFF6EE" stroke-width="0.5" stroke-miterlimit="10" stroke-linecap="round" stroke-linejoin="round"/>
<path d="M22.0644 20.2103L21.4463 20.6738L20.8283 20.2103L21.1373 18.5107L21.4463 18.2532H21.4978L21.7553 18.4077L22.0644 20.2103Z" stroke="#FFF6EE" stroke-width="0.5" stroke-miterlimit="10" stroke-linecap="round" stroke-linejoin="round"/>
<path d="M23.1974 17.3777L22.3218 18.8712L21.4978 18.2532L22.3733 17.2747C22.6309 17.2747 22.9399 17.3262 23.1974 17.3777Z" stroke="#FFF6EE" stroke-width="0.5" stroke-miterlimit="10" stroke-linecap="round" stroke-linejoin="round"/>
<path d="M19.7468 17.3777L20.6223 18.8712L21.4463 18.2532L20.5708 17.2747C20.3133 17.2747 20.0043 17.3262 19.7468 17.3777Z" stroke="#FFF6EE" stroke-width="0.5" stroke-miterlimit="10" stroke-linecap="round" stroke-linejoin="round"/>
<path d="M8.15878 19.4377C8.15878 20.4678 7.23174 21.2918 6.15019 21.2918H2.90556C1.82401 21.2918 0.896973 20.4678 0.896973 19.4377C0.896973 17.7897 2.08152 17.3777 3.67809 17.2231V17.2746L4.50212 18.2017L5.32616 17.2746C5.32616 17.2746 5.32616 17.2746 5.32616 17.2231C6.97423 17.3777 8.15878 17.8412 8.15878 19.4377Z" stroke="#FFF6EE" stroke-width="0.5" stroke-miterlimit="10" stroke-linecap="round" stroke-linejoin="round"/>
<path d="M3.6781 17.2747C3.6781 17.1202 3.7296 16.8112 3.7296 16.5537" stroke="#FFF6EE" stroke-width="0.5" stroke-miterlimit="10" stroke-linecap="round" stroke-linejoin="round"/>
<path d="M5.27466 16.5537C5.32616 16.8627 5.32616 17.1717 5.32616 17.3262" stroke="#FFF6EE" stroke-width="0.5" stroke-miterlimit="10" stroke-linecap="round" stroke-linejoin="round"/>
<path d="M7.28325 14.545C7.18025 14.9055 6.87123 15.1115 6.45922 14.957H6.40771C6.51072 14.545 6.61372 14.0815 6.61372 13.6694C6.76823 13.6694 6.92274 13.6694 7.02574 13.7209C7.48926 13.8239 7.43776 14.1845 7.28325 14.545Z" stroke="#FFF6EE" stroke-width="0.5" stroke-miterlimit="10" stroke-linecap="round" stroke-linejoin="round"/>
<path d="M2.59655 14.957H2.54505C2.13303 15.06 1.87552 14.9055 1.72101 14.545C1.61801 14.1845 1.56651 13.8239 1.97852 13.7209C2.08153 13.6694 2.23603 13.6694 2.39054 13.6694C2.39054 14.0815 2.49354 14.545 2.59655 14.957Z" stroke="#FFF6EE" stroke-width="0.5" stroke-miterlimit="10" stroke-linecap="round" stroke-linejoin="round"/>
<path d="M6.66519 13.4636C6.66519 14.9056 6.04717 16.7082 4.5536 16.7082C3.00854 16.7082 2.44202 14.9056 2.44202 13.4121C2.44202 13.3606 2.44202 13.2576 2.44202 13.2061" stroke="#FFF6EE" stroke-width="0.5" stroke-miterlimit="10" stroke-linecap="round" stroke-linejoin="round"/>
<path d="M6.71673 13.5665C5.9957 12.4849 4.24463 12.8969 3.67811 12.3819C3.21459 13.1029 2.18455 13.618 1.25751 12.8969C2.64807 12.5364 2.39055 10.0643 3.72961 11.1459C4.45064 10.1673 7.43776 11.4034 6.71673 13.5665Z" stroke="#FFF6EE" stroke-width="0.5" stroke-miterlimit="10" stroke-linecap="round" stroke-linejoin="round"/>
<path d="M5.12013 20.2103L4.50211 20.6738L3.83258 20.2103L4.1931 18.5107L4.50211 18.2532H4.55361L4.75962 18.4077L5.12013 20.2103Z" stroke="#FFF6EE" stroke-width="0.5" stroke-miterlimit="10" stroke-linecap="round" stroke-linejoin="round"/>
<path d="M6.25322 17.3777L5.37768 18.8712L4.55365 18.2532L5.42919 17.2747C5.6867 17.2747 5.99571 17.3262 6.25322 17.3777Z" stroke="#FFF6EE" stroke-width="0.5" stroke-miterlimit="10" stroke-linecap="round" stroke-linejoin="round"/>
<path d="M2.80255 17.3777L3.67809 18.8712L4.50212 18.2532L3.62659 17.2747C3.36908 17.2747 3.06006 17.3262 2.80255 17.3777Z" stroke="#FFF6EE" stroke-width="0.5" stroke-miterlimit="10" stroke-linecap="round" stroke-linejoin="round"/>
</svg>
