<svg width="80" height="80" viewBox="0 0 80 80" fill="none" xmlns="http://www.w3.org/2000/svg">
<path d="M72.0816 9.94062H69.8357V5.81209C69.8357 2.60566 67.5654 0 64.7718 0C61.9781 0 59.7078 2.60566 59.7078 5.81209V9.94062H53.3171V5.81209C53.3171 2.60566 51.0469 0 48.2532 0C45.4595 0 43.1893 2.60566 43.1893 5.81209V9.94062H36.8046V5.81209C36.8046 2.60566 34.5344 0 31.7407 0C28.947 0 26.6768 2.60566 26.6768 5.81209V9.94062H20.2861V5.81209C20.2861 2.60566 18.0158 0 15.2222 0C12.4285 0 10.1582 2.60566 10.1582 5.81209V9.94062H7.91236C3.54839 9.94062 0 14.0133 0 19.022V70.9256C0 75.9343 3.54839 80 7.91236 80H72.0876C76.4516 80 80 75.9273 80 70.9256V19.022C79.9878 14.0133 76.4394 9.94062 72.0816 9.94062ZM64.7718 1.9979C66.6038 1.9979 68.101 3.7094 68.101 5.81907V10.9466V13.2728C68.101 15.3755 66.6099 17.094 64.7718 17.094C62.9337 17.094 61.4425 15.3825 61.4425 13.2728V10.9466C61.4425 10.9466 61.4425 10.9466 61.4425 10.9396C61.4425 10.9396 61.4425 10.9396 61.4425 10.9326V5.81209C61.4425 3.7094 62.9337 1.9979 64.7718 1.9979ZM44.9239 5.81209C44.9239 3.7094 46.4151 1.99092 48.2532 1.99092C50.0913 1.99092 51.5825 3.70241 51.5825 5.81209V13.2728C51.5825 15.3755 50.0913 17.094 48.2532 17.094C46.4151 17.094 44.9239 15.3825 44.9239 13.2728V5.81209ZM28.4054 5.81209C28.4054 3.7094 29.8965 1.99092 31.7346 1.99092C33.5666 1.99092 35.0639 3.70241 35.0639 5.81209V13.2728C35.0639 15.3755 33.5727 17.094 31.7346 17.094C29.9026 17.094 28.4054 15.3825 28.4054 13.2728V5.81209ZM15.2161 1.9979C17.0481 1.9979 18.5453 3.7094 18.5453 5.81907V10.9396V10.9466V10.9535V13.2798C18.5453 15.3825 17.0542 17.1009 15.2161 17.1009C13.3841 17.1009 11.8868 15.3895 11.8868 13.2798V10.9535V5.82606C11.8929 3.7094 13.3841 1.9979 15.2161 1.9979ZM7.90627 11.9385H10.1522V13.2728C10.1522 16.4792 12.4224 19.0849 15.2161 19.0849C18.0097 19.0849 20.28 16.4792 20.28 13.2728V11.9385H26.6646V13.2728C26.6646 16.4792 28.9349 19.0849 31.7285 19.0849C34.5222 19.0849 36.7924 16.4792 36.7924 13.2728V11.9385H43.1771V13.2728C43.1771 16.4792 45.4473 19.0849 48.241 19.0849C51.0347 19.0849 53.3049 16.4792 53.3049 13.2728V11.9385H59.6896V13.2728C59.6896 16.4792 61.9598 19.0849 64.7535 19.0849C67.5472 19.0849 69.8174 16.4792 69.8174 13.2728V11.9385H72.0633C75.4656 11.9385 78.2349 15.117 78.2349 19.022V23.5487H1.73463V19.022C1.73463 15.117 4.50396 11.9385 7.90627 11.9385ZM72.0816 78.0021H7.90627C4.50396 78.0021 1.73463 74.8236 1.73463 70.9186V25.5466H78.2471V70.9256C78.2532 74.8306 75.4839 78.0021 72.0816 78.0021Z" fill="#B68C5A"/>
<path d="M18.1131 37.0171H8.64868C8.16785 37.0171 7.77832 37.4642 7.77832 38.016V48.8718C7.77832 49.4237 8.16785 49.8707 8.64868 49.8707H18.1131C18.5939 49.8707 18.9834 49.4237 18.9834 48.8718V38.016C18.9834 37.4642 18.5939 37.0171 18.1131 37.0171ZM17.2427 47.8798H9.51904V39.008H17.2427V47.8798Z" fill="#B68C5A"/>
<path d="M34.2483 37.0171H24.7839C24.3031 37.0171 23.9136 37.4642 23.9136 38.016V48.8718C23.9136 49.4237 24.3031 49.8707 24.7839 49.8707H34.2483C34.7292 49.8707 35.1187 49.4237 35.1187 48.8718V38.016C35.1187 37.4642 34.7292 37.0171 34.2483 37.0171ZM33.378 47.8798H25.6543V39.008H33.378V47.8798Z" fill="#B68C5A"/>
<path d="M50.3836 37.0171H40.9192C40.4384 37.0171 40.0488 37.4642 40.0488 38.016V48.8718C40.0488 49.4237 40.4384 49.8707 40.9192 49.8707H50.3836C50.8644 49.8707 51.2539 49.4237 51.2539 48.8718V38.016C51.2479 37.4642 50.8644 37.0171 50.3836 37.0171ZM49.5132 47.8798H41.7895V39.008H49.5132V47.8798Z" fill="#B68C5A"/>
<path d="M18.1131 52.6582H8.64868C8.16785 52.6582 7.77832 53.1053 7.77832 53.6572V64.5199C7.77832 65.0718 8.16785 65.5188 8.64868 65.5188H18.1131C18.5939 65.5188 18.9834 65.0718 18.9834 64.5199V53.6572C18.9834 53.1053 18.5939 52.6582 18.1131 52.6582ZM17.2427 63.5209H9.51904V54.6561H17.2427V63.5209Z" fill="#B68C5A"/>
<path d="M34.2483 52.6582H24.7839C24.3031 52.6582 23.9136 53.1053 23.9136 53.6572V64.5199C23.9136 65.0718 24.3031 65.5188 24.7839 65.5188H34.2483C34.7292 65.5188 35.1187 65.0718 35.1187 64.5199V53.6572C35.1187 53.1053 34.7292 52.6582 34.2483 52.6582ZM33.378 63.5209H25.6543V54.6561H33.378V63.5209Z" fill="#B68C5A"/>
<path d="M50.3836 52.6582H40.9192C40.4384 52.6582 40.0488 53.1053 40.0488 53.6572V64.5199C40.0488 65.0718 40.4384 65.5188 40.9192 65.5188H50.3836C50.8644 65.5188 51.2539 65.0718 51.2539 64.5199V53.6572C51.2479 53.1053 50.8644 52.6582 50.3836 52.6582ZM49.5132 63.5209H41.7895V54.6561H49.5132V63.5209Z" fill="#B68C5A"/>
<path d="M75.4413 39.8113C75.064 39.469 74.5162 39.5458 74.2179 39.9789L72.039 43.1714C71.9842 43.1085 71.9294 43.0387 71.8747 42.9758C69.9757 40.7963 67.4498 39.5947 64.7657 39.5947C62.0816 39.5947 59.5557 40.7963 57.6568 42.9758C55.7578 45.1553 54.7109 48.0544 54.7109 51.1351C54.7109 54.2158 55.7578 57.1148 57.6568 59.2943C59.5557 61.4739 62.0816 62.6754 64.7657 62.6754C67.4498 62.6754 69.9757 61.4739 71.8747 59.2943C73.7736 57.1148 74.8205 54.2158 74.8205 51.1351C74.8205 48.8368 74.2423 46.6433 73.1589 44.7711L75.5935 41.2084C75.8856 40.7823 75.8187 40.1536 75.4413 39.8113ZM73.0798 51.1351C73.0798 56.3953 69.3488 60.6705 64.7718 60.6705C60.1948 60.6705 56.4638 56.3883 56.4638 51.1351C56.4638 45.8749 60.1948 41.5996 64.7718 41.5996C67.2246 41.5996 69.4279 42.8221 70.9556 44.7711L64.8083 53.7617L60.5174 49.4795C60.1522 49.1162 59.6044 49.1651 59.2879 49.5773C58.9714 49.9964 59.014 50.6251 59.3731 50.9884L64.3579 55.9552C64.5162 56.1159 64.717 56.1997 64.93 56.1997C64.9605 56.1997 64.9848 56.1997 65.0153 56.1927C65.2526 56.1648 65.4717 56.032 65.6178 55.8155L72.0207 46.4547C72.6902 47.8378 73.0798 49.4376 73.0798 51.1351Z" fill="#B68C5A"/>
</svg>
