<svg width="40" height="40" viewBox="0 0 40 40" fill="none" xmlns="http://www.w3.org/2000/svg">
<path d="M39.5455 12.6122H0.454524C0.250016 12.6122 0.0709582 12.4753 0.0164228 12.2772C-0.0381125 12.0792 0.0464173 11.8692 0.221839 11.7643L19.7673 0.0643504C19.9109 -0.0214501 20.0891 -0.0214501 20.2327 0.0643504L39.7782 11.7643C39.9536 11.8692 40.0381 12.0792 39.9836 12.2772C39.929 12.4753 39.75 12.6122 39.5455 12.6122ZM2.10422 11.6995H37.8949L20 0.988076L2.10422 11.6995Z" fill="#B68C5A"/>
<path d="M38.8373 39.9994H1.16247C0.911607 39.9994 0.708008 39.7949 0.708008 39.543V36.3529C0.708008 36.1009 0.911607 35.8965 1.16247 35.8965H38.8364C39.0873 35.8965 39.2909 36.1009 39.2909 36.3529V39.5439C39.2918 39.7958 39.0882 39.9994 38.8373 39.9994ZM1.61693 39.0866H38.382V36.8093H1.61693V39.0866Z" fill="#B68C5A"/>
<path d="M8.39518 15.0501H3.80602C3.55516 15.0501 3.35156 14.8456 3.35156 14.5937V12.1566C3.35156 11.9047 3.55516 11.7002 3.80602 11.7002C4.05689 11.7002 4.26049 11.9047 4.26049 12.1566V14.1373H7.94071V12.1566C7.94071 11.9047 8.14431 11.7002 8.39518 11.7002C8.64604 11.7002 8.84964 11.9047 8.84964 12.1566V14.5937C8.84964 14.8456 8.64695 15.0501 8.39518 15.0501Z" fill="#B68C5A"/>
<path d="M8.39518 36.8098C8.14431 36.8098 7.94071 36.6054 7.94071 36.3534V34.3727H4.26049V36.3534C4.26049 36.6054 4.05689 36.8098 3.80602 36.8098C3.55516 36.8098 3.35156 36.6054 3.35156 36.3534V33.9163C3.35156 33.6644 3.55516 33.46 3.80602 33.46H8.39518C8.64604 33.46 8.84964 33.6644 8.84964 33.9163V36.3534C8.84964 36.6054 8.64695 36.8098 8.39518 36.8098Z" fill="#B68C5A"/>
<path d="M4.79919 34.372C4.54833 34.372 4.34473 34.1676 4.34473 33.9156V14.5941C4.34473 14.3422 4.54833 14.1377 4.79919 14.1377C5.05005 14.1377 5.25365 14.3422 5.25365 14.5941V33.9166C5.25365 34.1676 5.05005 34.372 4.79919 34.372Z" fill="#B68C5A"/>
<path d="M7.4027 34.372C7.15184 34.372 6.94824 34.1676 6.94824 33.9156V14.5941C6.94824 14.3422 7.15184 14.1377 7.4027 14.1377C7.65357 14.1377 7.85717 14.3422 7.85717 14.5941V33.9166C7.85717 34.1676 7.65357 34.372 7.4027 34.372Z" fill="#B68C5A"/>
<path d="M36.195 15.0501H31.6058C31.355 15.0501 31.1514 14.8456 31.1514 14.5937V12.1566C31.1514 11.9047 31.355 11.7002 31.6058 11.7002C31.8567 11.7002 32.0603 11.9047 32.0603 12.1566V14.1373H35.7405V12.1566C35.7405 11.9047 35.9441 11.7002 36.195 11.7002C36.4458 11.7002 36.6494 11.9047 36.6494 12.1566V14.5937C36.6494 14.8456 36.4458 15.0501 36.195 15.0501Z" fill="#B68C5A"/>
<path d="M36.195 36.8098C35.9441 36.8098 35.7405 36.6054 35.7405 36.3534V34.3727H32.0603V36.3534C32.0603 36.6054 31.8567 36.8098 31.6058 36.8098C31.355 36.8098 31.1514 36.6054 31.1514 36.3534V33.9163C31.1514 33.6644 31.355 33.46 31.6058 33.46H36.195C36.4458 33.46 36.6494 33.6644 36.6494 33.9163V36.3534C36.6494 36.6054 36.4458 36.8098 36.195 36.8098Z" fill="#B68C5A"/>
<path d="M32.598 34.372C32.3472 34.372 32.1436 34.1676 32.1436 33.9156V14.5941C32.1436 14.3422 32.3472 14.1377 32.598 14.1377C32.8489 14.1377 33.0525 14.3422 33.0525 14.5941V33.9166C33.0525 34.1676 32.8489 34.372 32.598 34.372Z" fill="#B68C5A"/>
<path d="M35.2006 34.372C34.9497 34.372 34.7461 34.1676 34.7461 33.9156V14.5941C34.7461 14.3422 34.9497 14.1377 35.2006 14.1377C35.4514 14.1377 35.655 14.3422 35.655 14.5941V33.9166C35.655 34.1676 35.4523 34.372 35.2006 34.372Z" fill="#B68C5A"/>
<path d="M24.1486 10.042H15.8519C15.6011 10.042 15.3975 9.83751 15.3975 9.58559V6.306C15.3975 6.05407 15.6011 5.84961 15.8519 5.84961H24.1486C24.3994 5.84961 24.603 6.05407 24.603 6.306V9.58559C24.603 9.83751 24.3994 10.042 24.1486 10.042ZM16.3064 9.1292H23.6941V6.76238H16.3064V9.1292Z" fill="#B68C5A"/>
<path d="M25.7285 26.6876C23.5144 26.6876 21.7129 25.0884 21.7129 23.1214C21.7129 22.8695 21.9165 22.665 22.1674 22.665H29.2906C29.5414 22.665 29.745 22.8695 29.745 23.1214C29.745 25.0884 27.9436 26.6876 25.7285 26.6876ZM22.6682 23.5787C22.9218 24.8247 24.1979 25.7758 25.7294 25.7758C27.261 25.7758 28.5362 24.8256 28.7907 23.5787H22.6682Z" fill="#B68C5A"/>
<path d="M28.202 23.5787C28.0102 23.5787 27.832 23.4554 27.7693 23.2628L25.7279 16.9191L23.6874 23.2628C23.6101 23.5029 23.3547 23.6343 23.1156 23.5567C22.8766 23.4792 22.7457 23.2218 22.823 22.9826L25.2962 15.2943C25.3571 15.1063 25.5316 14.9785 25.7288 14.9785C25.926 14.9785 26.1005 15.1063 26.1614 15.2943L28.6346 22.9826C28.7119 23.2227 28.581 23.4801 28.342 23.5567C28.2947 23.5714 28.2474 23.5787 28.202 23.5787Z" fill="#B68C5A"/>
<path d="M27.4194 15.8903H21.3978C21.147 15.8903 20.9434 15.6859 20.9434 15.4339C20.9434 15.182 21.147 14.9775 21.3978 14.9775H27.4194C27.6703 14.9775 27.8739 15.182 27.8739 15.4339C27.8739 15.6859 27.6703 15.8903 27.4194 15.8903Z" fill="#B68C5A"/>
<path d="M19.9998 17.2938C18.9791 17.2938 18.1475 16.4595 18.1475 15.4335C18.1475 14.4085 18.9782 13.5742 19.9998 13.5742C21.0206 13.5742 21.8522 14.4085 21.8522 15.4335C21.8513 16.4595 21.0206 17.2938 19.9998 17.2938ZM19.9998 14.487C19.4799 14.487 19.0564 14.9114 19.0564 15.4335C19.0564 15.9556 19.479 16.381 19.9998 16.381C20.5207 16.381 20.9433 15.9566 20.9433 15.4335C20.9433 14.9105 20.5197 14.487 19.9998 14.487Z" fill="#B68C5A"/>
<path d="M14.2715 26.6876C12.0573 26.6876 10.2559 25.0884 10.2559 23.1214C10.2559 22.8695 10.4595 22.665 10.7103 22.665H17.8335C18.0844 22.665 18.288 22.8695 18.288 23.1214C18.2871 25.0884 16.4856 26.6876 14.2715 26.6876ZM11.2102 23.5787C11.4638 24.8247 12.7399 25.7758 14.2715 25.7758C15.803 25.7758 17.0782 24.8256 17.3327 23.5787H11.2102Z" fill="#B68C5A"/>
<path d="M11.7976 23.5787C11.7513 23.5787 11.704 23.5714 11.6576 23.5567C11.4186 23.4792 11.2877 23.2218 11.365 22.9826L13.8381 15.2943C13.899 15.1063 14.0736 14.9785 14.2708 14.9785C14.468 14.9785 14.6425 15.1063 14.7034 15.2943L17.1766 22.9826C17.2539 23.2227 17.123 23.4801 16.8839 23.5567C16.6449 23.6343 16.3886 23.5029 16.3122 23.2628L14.2708 16.9191L12.2303 23.2628C12.1685 23.4554 11.9894 23.5787 11.7976 23.5787Z" fill="#B68C5A"/>
<path d="M18.603 15.8903H12.5814C12.3306 15.8903 12.127 15.6859 12.127 15.4339C12.127 15.182 12.3306 14.9775 12.5814 14.9775H18.603C18.8539 14.9775 19.0575 15.182 19.0575 15.4339C19.0575 15.6859 18.8539 15.8903 18.603 15.8903Z" fill="#B68C5A"/>
<path d="M20.8052 34.7132H19.1964C18.9455 34.7132 18.7419 34.5087 18.7419 34.2568V33.3021C18.4001 33.1697 18.0802 32.9835 17.7939 32.7517L16.9695 33.2299C16.865 33.2902 16.7414 33.3066 16.625 33.2756C16.5087 33.2446 16.4096 33.1679 16.3487 33.0629L15.5443 31.6636C15.4189 31.4455 15.4934 31.1662 15.7106 31.0402L16.5341 30.5628C16.5059 30.3812 16.4914 30.1977 16.4914 30.0133C16.4914 29.829 16.5059 29.6446 16.5341 29.4639L15.7106 28.9865C15.4934 28.8605 15.4189 28.5812 15.5443 28.363L16.3487 26.9638C16.4087 26.8588 16.5078 26.7821 16.625 26.7511C16.7414 26.7201 16.8659 26.7365 16.9695 26.7967L17.7939 27.275C18.0793 27.0432 18.4001 26.857 18.741 26.7246V25.7699C18.741 25.5179 18.9446 25.3135 19.1954 25.3135H20.8042C21.0551 25.3135 21.2587 25.5179 21.2587 25.7699V26.7246C21.6005 26.857 21.9204 27.0423 22.2058 27.275L23.0302 26.7967C23.2474 26.6708 23.5256 26.7456 23.651 26.9638L24.4554 28.363C24.5154 28.468 24.5317 28.5922 24.5008 28.709C24.4699 28.8258 24.3936 28.9253 24.2891 28.9865L23.4656 29.4639C23.4937 29.6455 23.5083 29.829 23.5083 30.0133C23.5083 30.1977 23.4937 30.3821 23.4656 30.5628L24.2891 31.0402C24.3936 31.1005 24.4699 31.1999 24.5008 31.3177C24.5317 31.4345 24.5154 31.5596 24.4554 31.6636L23.651 33.0629C23.5256 33.2811 23.2474 33.3559 23.0302 33.2299L22.2058 32.7517C21.9204 32.9835 21.6005 33.1697 21.2587 33.3021V34.2568C21.2596 34.5087 21.056 34.7132 20.8052 34.7132ZM19.6508 33.8004H20.3507V32.9716C20.3507 32.7653 20.4879 32.5855 20.6861 32.5317C21.116 32.4139 21.5114 32.1848 21.8304 31.8672C21.9758 31.722 22.2003 31.6928 22.3776 31.796L23.0929 32.2104L23.4428 31.6016L22.7284 31.1872C22.5512 31.084 22.4639 30.875 22.5157 30.676C22.5721 30.4606 22.6003 30.237 22.6003 30.0115C22.6003 29.7861 22.5721 29.5624 22.5157 29.347C22.4639 29.148 22.5503 28.939 22.7284 28.8359L23.4428 28.4215L23.0929 27.8126L22.3776 28.227C22.2003 28.3302 21.9758 28.301 21.8304 28.1558C21.5114 27.8391 21.116 27.6091 20.6861 27.4913C20.4879 27.4375 20.3507 27.2568 20.3507 27.0514V26.2226H19.6508V27.0514C19.6508 27.2568 19.5136 27.4375 19.3154 27.4913C18.8855 27.6091 18.4901 27.8382 18.1711 28.1558C18.0257 28.301 17.8012 28.3293 17.6239 28.227L16.9086 27.8126L16.5587 28.4215L17.2731 28.8359C17.4503 28.939 17.5376 29.148 17.4858 29.347C17.4294 29.5624 17.4012 29.7861 17.4012 30.0115C17.4012 30.2361 17.4294 30.4597 17.4858 30.676C17.5376 30.875 17.4503 31.084 17.2731 31.1872L16.5587 31.6016L16.9086 32.2104L17.6239 31.796C17.8012 31.6928 18.0257 31.722 18.1711 31.8672C18.4901 32.1839 18.8855 32.4139 19.3154 32.5317C19.5136 32.5855 19.6508 32.7663 19.6508 32.9716V33.8004Z" fill="#B68C5A"/>
<path d="M20.0001 31.6182C19.1184 31.6182 18.4004 30.8971 18.4004 30.0118C18.4004 29.1264 19.1184 28.4053 20.0001 28.4053C20.8817 28.4053 21.5998 29.1255 21.5998 30.0118C21.5998 30.8971 20.8817 31.6182 20.0001 31.6182ZM20.0001 29.318C19.6193 29.318 19.3093 29.6293 19.3093 30.0118C19.3093 30.3942 19.6193 30.7055 20.0001 30.7055C20.3809 30.7055 20.6909 30.3942 20.6909 30.0118C20.6909 29.6293 20.3809 29.318 20.0001 29.318Z" fill="#B68C5A"/>
<path d="M20.0004 26.2243C19.7495 26.2243 19.5459 26.0198 19.5459 25.7679V16.8382C19.5459 16.5863 19.7495 16.3818 20.0004 16.3818C20.2512 16.3818 20.4548 16.5863 20.4548 16.8382V25.7679C20.4548 26.0198 20.2512 26.2243 20.0004 26.2243Z" fill="#B68C5A"/>
</svg>
