<svg width="40" height="40" viewBox="0 0 40 40" fill="none" xmlns="http://www.w3.org/2000/svg">
<path d="M21.5158 35.7047H21.0924C21.2426 35.4116 21.3281 35.0799 21.3281 34.7285C21.3281 33.5442 20.3646 32.5808 19.1804 32.5808H4.48317C3.29891 32.5808 2.3355 33.5442 2.3355 34.7285C2.3355 35.0799 2.42086 35.4116 2.5712 35.7047H2.14767C0.963408 35.7047 0 36.6681 0 37.8524C0 39.0366 0.963408 40 2.14767 40H21.5158C22.7001 40 23.6635 39.0366 23.6635 37.8524C23.6635 36.6681 22.7001 35.7047 21.5158 35.7047ZM21.5158 38.8286H2.14767C1.60935 38.8286 1.17146 38.3907 1.17146 37.8524C1.17146 37.3141 1.60935 36.8762 2.14767 36.8762H5.75436C6.51167 36.8762 6.51167 35.7047 5.75436 35.7047H4.48317C3.94485 35.7047 3.50696 35.2668 3.50696 34.7285C3.50696 34.1902 3.94485 33.7523 4.48317 33.7523H19.1804C19.7187 33.7523 20.1566 34.1902 20.1566 34.7285C20.1566 35.2668 19.7187 35.7047 19.1804 35.7047H8.87724C8.11993 35.7047 8.11993 36.8762 8.87724 36.8762H21.5158C22.0541 36.8762 22.492 37.3141 22.492 37.8524C22.492 38.3907 22.0541 38.8286 21.5158 38.8286Z" fill="#B68C5A"/>
<path d="M39.2519 25.1863L28.7496 14.6838C29.4021 13.5934 29.1995 12.1625 28.2826 11.287L29.5156 10.054C31.2776 11.9937 34.3291 9.23499 32.4286 7.33434L28.4545 3.36052C27.919 2.825 27.0906 3.65338 27.6262 4.18882L31.6001 8.16272C32.3579 8.92049 31.1828 10.0645 30.4405 9.3223L23.7036 2.5854C22.9458 1.82762 24.121 0.683656 24.8632 1.42581L25.4945 2.05707C26.03 2.59259 26.8583 1.76421 26.3228 1.22877L25.6916 0.597515C23.8064 -1.28767 21.0178 1.73281 22.9719 3.51046L14.0324 12.4498C12.2704 10.5127 9.21688 13.267 11.1195 15.1694L17.8564 21.9064C19.7392 23.789 22.5336 20.7716 20.576 18.9935L21.809 17.7605C22.6844 18.678 24.1169 18.8834 25.2067 18.2283L35.7083 28.7299C37.9946 31.0163 41.5384 27.4726 39.2519 25.1863ZM19.8444 21.078C19.5246 21.3979 19.0045 21.3978 18.6848 21.078L11.9479 14.3411C11.1994 13.5927 12.3598 12.434 13.1075 13.1815L19.8444 19.9185C20.1608 20.2348 20.1607 20.7618 19.8444 21.078ZM19.7478 18.1652L14.8608 13.2782L23.8002 4.33876L28.6872 9.2257L19.7478 18.1652ZM24.9076 16.9858C24.2733 17.6201 23.2527 17.5511 22.6397 16.9344L27.4565 12.1176C28.0712 12.7341 28.1492 13.7441 27.5078 14.3856L24.9076 16.9858ZM38.4235 27.9015C37.9088 28.4162 37.0514 28.4162 36.5366 27.9015L26.0926 17.4575L27.9795 15.5706L38.4235 26.0146C38.9383 26.5293 38.9383 27.3867 38.4235 27.9015Z" fill="#B68C5A"/>
<path d="M4.18102 27.8832L7.57801 30.1816C8.18678 30.5934 8.86006 29.6346 8.2345 29.2113L4.8375 26.9129C4.21022 26.4886 3.55374 27.4588 4.18102 27.8832Z" fill="#B68C5A"/>
<path d="M15.9171 30.2823C16.03 30.2823 16.1442 30.2497 16.2448 30.1816L19.6418 27.8832C20.2691 27.4588 19.6125 26.4886 18.9853 26.9129L15.5883 29.2113C15.1038 29.5391 15.374 30.2823 15.9171 30.2823Z" fill="#B68C5A"/>
<path d="M12.4971 27.1533V23.2482C12.4971 22.4908 11.3257 22.4908 11.3257 23.2482V27.1533C11.3257 27.9107 12.4971 27.9107 12.4971 27.1533Z" fill="#B68C5A"/>
</svg>
