<svg width="42" height="42" viewBox="0 0 42 42" fill="none" xmlns="http://www.w3.org/2000/svg">
<path d="M12.2338 17.039C8.7922 16.7143 7.81818 16.7143 4.37662 17.039V8.66235C7.81818 9.05196 8.7922 9.05196 12.2338 8.66235V17.039Z" stroke="#B68C5A" stroke-miterlimit="10" stroke-linecap="round" stroke-linejoin="round"/>
<path d="M2.68831 18.7274C3.66234 18.7274 4.37662 17.9482 4.37662 17.0391V8.72737C4.37662 7.75335 3.5974 7.03906 2.68831 7.03906C1.71429 7.03906 1 7.81828 1 8.72737V17.0391C1 17.9482 1.77922 18.7274 2.68831 18.7274Z" stroke="#B68C5A" stroke-miterlimit="10" stroke-linecap="round" stroke-linejoin="round"/>
<path d="M13.987 18.7274C14.961 18.7274 15.6753 17.9482 15.6753 17.0391V8.72737C15.6753 7.75335 14.8961 7.03906 13.987 7.03906C13.013 7.03906 12.2987 7.81828 12.2987 8.72737V17.0391C12.2338 17.9482 13.013 18.7274 13.987 18.7274Z" stroke="#B68C5A" stroke-miterlimit="10" stroke-linecap="round" stroke-linejoin="round"/>
<path d="M6.71429 17.0391V34.3118C6.71429 35.2209 7.42858 35.9352 8.33767 35.9352C9.24676 35.9352 9.96105 35.2209 9.96105 34.3118V17.0391" stroke="#B68C5A" stroke-miterlimit="10" stroke-linecap="round" stroke-linejoin="round"/>
<path d="M17.9481 35.026H29.7662C31.4545 35.026 32.7532 36.3897 32.7532 38.013C32.7532 39.7014 31.3896 41.0001 29.7662 41.0001H16.5844C14.7013 41.0001 13.2078 39.5066 13.2078 37.6234V31.6494" stroke="#B68C5A" stroke-miterlimit="10" stroke-linecap="round" stroke-linejoin="round"/>
<path d="M41.2598 40.9999V27.2986C41.2598 25.1557 39.8312 23.2077 37.7533 22.5583L31.4546 20.1557V17.2336" stroke="#B68C5A" stroke-miterlimit="10" stroke-linecap="round" stroke-linejoin="round"/>
<path d="M34.4415 8.07792V12.8831C34.4415 14.6364 33.3377 16.1948 31.6493 16.7792L29.5714 17.4935C28.1428 18.013 26.5195 18.013 25.0909 17.4935L23.0779 16.7792C21.3896 16.1948 20.2857 14.6364 20.2857 12.8831V8.07792C20.2857 4.18182 23.4675 1 27.3636 1C31.3247 1 34.4415 4.18182 34.4415 8.07792Z" stroke="#B68C5A" stroke-miterlimit="10" stroke-linecap="round" stroke-linejoin="round"/>
<path d="M30.6104 1.7793L20.5455 6.90917" stroke="#B68C5A" stroke-miterlimit="10" stroke-linecap="round" stroke-linejoin="round"/>
<path d="M26.9091 6.97405L33.0779 3.79224" stroke="#B68C5A" stroke-miterlimit="10" stroke-linecap="round" stroke-linejoin="round"/>
<path d="M20.2857 6.97412H34.5065V9.96113H20.2857V6.97412Z" stroke="#B68C5A" stroke-miterlimit="10" stroke-linecap="round" stroke-linejoin="round"/>
<path d="M16.4546 22.8182V41.0001H27.3636L20.2857 21.6494" stroke="#B68C5A" stroke-miterlimit="10" stroke-linecap="round" stroke-linejoin="round"/>
<path d="M35.8701 31.9739V40.9999" stroke="#B68C5A" stroke-miterlimit="10" stroke-linecap="round" stroke-linejoin="round"/>
<path d="M13.2078 31.6494V27.2988C13.2078 25.1559 14.6364 23.2079 16.7143 22.5585L23.013 20.1559V16.7793" stroke="#B68C5A" stroke-miterlimit="10" stroke-linecap="round" stroke-linejoin="round"/>
<path d="M30.2208 26.7793H35.2857" stroke="#B68C5A" stroke-miterlimit="10" stroke-linecap="round" stroke-linejoin="round"/>
</svg>
