<svg width="40" height="40" viewBox="0 0 40 40" fill="none" xmlns="http://www.w3.org/2000/svg">
<path d="M39.5455 12.6122H0.454524C0.250016 12.6122 0.0709582 12.4753 0.0164228 12.2772C-0.0381125 12.0792 0.0464173 11.8692 0.221839 11.7643L19.7673 0.0643504C19.9109 -0.0214501 20.0891 -0.0214501 20.2327 0.0643504L39.7782 11.7643C39.9536 11.8692 40.0381 12.0792 39.9836 12.2772C39.929 12.4753 39.75 12.6122 39.5455 12.6122ZM2.10422 11.6995H37.8949L20 0.988076L2.10422 11.6995Z" fill="#B68C5A"/>
<path d="M38.8378 39.9994H1.16296C0.912095 39.9994 0.708496 39.7949 0.708496 39.543V36.3529C0.708496 36.1009 0.912095 35.8965 1.16296 35.8965H38.8369C39.0878 35.8965 39.2914 36.1009 39.2914 36.3529V39.5439C39.2923 39.7958 39.0887 39.9994 38.8378 39.9994ZM1.61742 39.0866H38.3824V36.8093H1.61742V39.0866Z" fill="#B68C5A"/>
<path d="M8.39469 15.0501H3.80554C3.55467 15.0501 3.35107 14.8456 3.35107 14.5937V12.1566C3.35107 11.9047 3.55467 11.7002 3.80554 11.7002C4.0564 11.7002 4.26 11.9047 4.26 12.1566V14.1373H7.94023V12.1566C7.94023 11.9047 8.14382 11.7002 8.39469 11.7002C8.64555 11.7002 8.84915 11.9047 8.84915 12.1566V14.5937C8.84915 14.8456 8.64646 15.0501 8.39469 15.0501Z" fill="#B68C5A"/>
<path d="M8.39469 36.8098C8.14382 36.8098 7.94023 36.6054 7.94023 36.3534V34.3727H4.26V36.3534C4.26 36.6054 4.0564 36.8098 3.80554 36.8098C3.55467 36.8098 3.35107 36.6054 3.35107 36.3534V33.9163C3.35107 33.6644 3.55467 33.46 3.80554 33.46H8.39469C8.64555 33.46 8.84915 33.6644 8.84915 33.9163V36.3534C8.84915 36.6054 8.64646 36.8098 8.39469 36.8098Z" fill="#B68C5A"/>
<path d="M4.79968 34.372C4.54881 34.372 4.34521 34.1676 4.34521 33.9156V14.5941C4.34521 14.3422 4.54881 14.1377 4.79968 14.1377C5.05054 14.1377 5.25414 14.3422 5.25414 14.5941V33.9166C5.25414 34.1676 5.05054 34.372 4.79968 34.372Z" fill="#B68C5A"/>
<path d="M7.4027 34.372C7.15184 34.372 6.94824 34.1676 6.94824 33.9156V14.5941C6.94824 14.3422 7.15184 14.1377 7.4027 14.1377C7.65357 14.1377 7.85717 14.3422 7.85717 14.5941V33.9166C7.85717 34.1676 7.65357 34.372 7.4027 34.372Z" fill="#B68C5A"/>
<path d="M36.1945 15.0501H31.6053C31.3545 15.0501 31.1509 14.8456 31.1509 14.5937V12.1566C31.1509 11.9047 31.3545 11.7002 31.6053 11.7002C31.8562 11.7002 32.0598 11.9047 32.0598 12.1566V14.1373H35.74V12.1566C35.74 11.9047 35.9436 11.7002 36.1945 11.7002C36.4454 11.7002 36.649 11.9047 36.649 12.1566V14.5937C36.649 14.8456 36.4454 15.0501 36.1945 15.0501Z" fill="#B68C5A"/>
<path d="M36.1945 36.8098C35.9436 36.8098 35.74 36.6054 35.74 36.3534V34.3727H32.0598V36.3534C32.0598 36.6054 31.8562 36.8098 31.6053 36.8098C31.3545 36.8098 31.1509 36.6054 31.1509 36.3534V33.9163C31.1509 33.6644 31.3545 33.46 31.6053 33.46H36.1945C36.4454 33.46 36.649 33.6644 36.649 33.9163V36.3534C36.649 36.6054 36.4454 36.8098 36.1945 36.8098Z" fill="#B68C5A"/>
<path d="M32.5975 34.372C32.3467 34.372 32.1431 34.1676 32.1431 33.9156V14.5941C32.1431 14.3422 32.3467 14.1377 32.5975 14.1377C32.8484 14.1377 33.052 14.3422 33.052 14.5941V33.9166C33.052 34.1676 32.8484 34.372 32.5975 34.372Z" fill="#B68C5A"/>
<path d="M35.201 34.372C34.9502 34.372 34.7466 34.1676 34.7466 33.9156V14.5941C34.7466 14.3422 34.9502 14.1377 35.201 14.1377C35.4519 14.1377 35.6555 14.3422 35.6555 14.5941V33.9166C35.6555 34.1676 35.4528 34.372 35.201 34.372Z" fill="#B68C5A"/>
<path d="M24.1486 10.042H15.8519C15.6011 10.042 15.3975 9.83751 15.3975 9.58559V6.306C15.3975 6.05407 15.6011 5.84961 15.8519 5.84961H24.1486C24.3994 5.84961 24.603 6.05407 24.603 6.306V9.58559C24.603 9.83751 24.3994 10.042 24.1486 10.042ZM16.3064 9.1292H23.6941V6.76238H16.3064V9.1292Z" fill="#B68C5A"/>
<path d="M25.7285 26.6876C23.5144 26.6876 21.7129 25.0884 21.7129 23.1214C21.7129 22.8695 21.9165 22.665 22.1674 22.665H29.2906C29.5414 22.665 29.745 22.8695 29.745 23.1214C29.745 25.0884 27.9436 26.6876 25.7285 26.6876ZM22.6682 23.5787C22.9218 24.8247 24.1979 25.7758 25.7294 25.7758C27.261 25.7758 28.5362 24.8256 28.7907 23.5787H22.6682Z" fill="#B68C5A"/>
<path d="M28.202 23.5787C28.0102 23.5787 27.832 23.4554 27.7693 23.2628L25.7279 16.9191L23.6874 23.2628C23.6101 23.5029 23.3547 23.6343 23.1156 23.5567C22.8766 23.4792 22.7457 23.2218 22.823 22.9826L25.2962 15.2943C25.3571 15.1063 25.5316 14.9785 25.7288 14.9785C25.926 14.9785 26.1005 15.1063 26.1614 15.2943L28.6346 22.9826C28.7119 23.2227 28.581 23.4801 28.342 23.5567C28.2947 23.5714 28.2474 23.5787 28.202 23.5787Z" fill="#B68C5A"/>
<path d="M27.4194 15.8903H21.3978C21.147 15.8903 20.9434 15.6859 20.9434 15.4339C20.9434 15.182 21.147 14.9775 21.3978 14.9775H27.4194C27.6703 14.9775 27.8739 15.182 27.8739 15.4339C27.8739 15.6859 27.6703 15.8903 27.4194 15.8903Z" fill="#B68C5A"/>
<path d="M20.0003 17.2938C18.9796 17.2938 18.1479 16.4595 18.1479 15.4335C18.1479 14.4085 18.9787 13.5742 20.0003 13.5742C21.0211 13.5742 21.8527 14.4085 21.8527 15.4335C21.8518 16.4595 21.0211 17.2938 20.0003 17.2938ZM20.0003 14.487C19.4804 14.487 19.0569 14.9114 19.0569 15.4335C19.0569 15.9556 19.4795 16.381 20.0003 16.381C20.5211 16.381 20.9438 15.9566 20.9438 15.4335C20.9438 14.9105 20.5202 14.487 20.0003 14.487Z" fill="#B68C5A"/>
<path d="M14.272 26.6876C12.0578 26.6876 10.2563 25.0884 10.2563 23.1214C10.2563 22.8695 10.4599 22.665 10.7108 22.665H17.834C18.0849 22.665 18.2885 22.8695 18.2885 23.1214C18.2876 25.0884 16.4861 26.6876 14.272 26.6876ZM11.2107 23.5787C11.4643 24.8247 12.7404 25.7758 14.272 25.7758C15.8035 25.7758 17.0787 24.8256 17.3332 23.5787H11.2107Z" fill="#B68C5A"/>
<path d="M11.7976 23.5787C11.7513 23.5787 11.704 23.5714 11.6576 23.5567C11.4186 23.4792 11.2877 23.2218 11.365 22.9826L13.8381 15.2943C13.899 15.1063 14.0736 14.9785 14.2708 14.9785C14.468 14.9785 14.6425 15.1063 14.7034 15.2943L17.1766 22.9826C17.2539 23.2227 17.123 23.4801 16.8839 23.5567C16.6449 23.6343 16.3886 23.5029 16.3122 23.2628L14.2708 16.9191L12.2303 23.2628C12.1685 23.4554 11.9894 23.5787 11.7976 23.5787Z" fill="#B68C5A"/>
<path d="M18.603 15.8903H12.5814C12.3306 15.8903 12.127 15.6859 12.127 15.4339C12.127 15.182 12.3306 14.9775 12.5814 14.9775H18.603C18.8539 14.9775 19.0575 15.182 19.0575 15.4339C19.0575 15.6859 18.8539 15.8903 18.603 15.8903Z" fill="#B68C5A"/>
<path d="M20.8047 34.7132H19.1959C18.945 34.7132 18.7414 34.5087 18.7414 34.2568V33.3021C18.3997 33.1697 18.0797 32.9835 17.7934 32.7517L16.969 33.2299C16.8645 33.2902 16.7409 33.3066 16.6245 33.2756C16.5082 33.2446 16.4091 33.1679 16.3482 33.0629L15.5438 31.6636C15.4184 31.4455 15.4929 31.1662 15.7102 31.0402L16.5336 30.5628C16.5055 30.3812 16.4909 30.1977 16.4909 30.0133C16.4909 29.829 16.5055 29.6446 16.5336 29.4639L15.7102 28.9865C15.4929 28.8605 15.4184 28.5812 15.5438 28.363L16.3482 26.9638C16.4082 26.8588 16.5073 26.7821 16.6245 26.7511C16.7409 26.7201 16.8654 26.7365 16.969 26.7967L17.7934 27.275C18.0788 27.0432 18.3997 26.857 18.7405 26.7246V25.7699C18.7405 25.5179 18.9441 25.3135 19.195 25.3135H20.8038C21.0546 25.3135 21.2582 25.5179 21.2582 25.7699V26.7246C21.6 26.857 21.9199 27.0423 22.2053 27.275L23.0297 26.7967C23.2469 26.6708 23.5251 26.7456 23.6505 26.9638L24.4549 28.363C24.5149 28.468 24.5312 28.5922 24.5003 28.709C24.4694 28.8258 24.3931 28.9253 24.2886 28.9865L23.4651 29.4639C23.4933 29.6455 23.5078 29.829 23.5078 30.0133C23.5078 30.1977 23.4933 30.3821 23.4651 30.5628L24.2886 31.0402C24.3931 31.1005 24.4694 31.1999 24.5003 31.3177C24.5312 31.4345 24.5149 31.5596 24.4549 31.6636L23.6505 33.0629C23.5251 33.2811 23.2469 33.3559 23.0297 33.2299L22.2053 32.7517C21.9199 32.9835 21.6 33.1697 21.2582 33.3021V34.2568C21.2591 34.5087 21.0555 34.7132 20.8047 34.7132ZM19.6503 33.8004H20.3502V32.9716C20.3502 32.7653 20.4875 32.5855 20.6856 32.5317C21.1155 32.4139 21.5109 32.1848 21.8299 31.8672C21.9754 31.722 22.1999 31.6928 22.3771 31.796L23.0924 32.2104L23.4424 31.6016L22.7279 31.1872C22.5507 31.084 22.4634 30.875 22.5153 30.676C22.5716 30.4606 22.5998 30.237 22.5998 30.0115C22.5998 29.7861 22.5716 29.5624 22.5153 29.347C22.4634 29.148 22.5498 28.939 22.7279 28.8359L23.4424 28.4215L23.0924 27.8126L22.3771 28.227C22.1999 28.3302 21.9754 28.301 21.8299 28.1558C21.5109 27.8391 21.1155 27.6091 20.6856 27.4913C20.4875 27.4375 20.3502 27.2568 20.3502 27.0514V26.2226H19.6503V27.0514C19.6503 27.2568 19.5131 27.4375 19.3149 27.4913C18.885 27.6091 18.4896 27.8382 18.1706 28.1558C18.0252 28.301 17.8007 28.3293 17.6234 28.227L16.9081 27.8126L16.5582 28.4215L17.2726 28.8359C17.4498 28.939 17.5371 29.148 17.4853 29.347C17.4289 29.5624 17.4007 29.7861 17.4007 30.0115C17.4007 30.2361 17.4289 30.4597 17.4853 30.676C17.5371 30.875 17.4498 31.084 17.2726 31.1872L16.5582 31.6016L16.9081 32.2104L17.6234 31.796C17.8007 31.6928 18.0252 31.722 18.1706 31.8672C18.4896 32.1839 18.885 32.4139 19.3149 32.5317C19.5131 32.5855 19.6503 32.7663 19.6503 32.9716V33.8004Z" fill="#B68C5A"/>
<path d="M20.0006 31.6182C19.1189 31.6182 18.4009 30.8971 18.4009 30.0118C18.4009 29.1264 19.1189 28.4053 20.0006 28.4053C20.8822 28.4053 21.6003 29.1255 21.6003 30.0118C21.6003 30.8971 20.8822 31.6182 20.0006 31.6182ZM20.0006 29.318C19.6197 29.318 19.3098 29.6293 19.3098 30.0118C19.3098 30.3942 19.6197 30.7055 20.0006 30.7055C20.3814 30.7055 20.6914 30.3942 20.6914 30.0118C20.6914 29.6293 20.3814 29.318 20.0006 29.318Z" fill="#B68C5A"/>
<path d="M19.9999 26.2243C19.749 26.2243 19.5454 26.0198 19.5454 25.7679V16.8382C19.5454 16.5863 19.749 16.3818 19.9999 16.3818C20.2507 16.3818 20.4543 16.5863 20.4543 16.8382V25.7679C20.4543 26.0198 20.2507 26.2243 19.9999 26.2243Z" fill="#B68C5A"/>
</svg>
