<svg width="40" height="40" viewBox="0 0 40 40" fill="none" xmlns="http://www.w3.org/2000/svg">
<path d="M9.20091 13.6201C8.89622 13.3154 8.4009 13.3154 8.09629 13.6201C7.79082 13.9256 7.79082 14.4201 8.09629 14.7248C8.40098 15.0303 8.8963 15.0303 9.20091 14.7248C9.5063 14.4201 9.5063 13.9256 9.20091 13.6201Z" fill="#B68C5A"/>
<path d="M19.7813 34.978C20.1258 34.5115 20.312 33.9494 20.312 33.3583C20.312 31.8507 19.0854 30.624 17.5776 30.624H4.29675C3.56604 30.624 2.8794 30.9084 2.36322 31.4247C1.84681 31.941 1.56243 32.6276 1.56243 33.3583C1.56243 33.9637 1.76056 34.5236 2.09486 34.9771C0.850866 35.6312 0 36.9359 0 38.4363V39.2175C0 39.649 0.349847 39.9988 0.781256 39.9988H21.0931C21.5245 39.9988 21.8744 39.649 21.8744 39.2175V38.4363C21.8744 36.9366 21.0244 35.6324 19.7813 34.978ZM3.468 32.5294C3.68917 32.3082 3.98355 32.1864 4.29675 32.1864H17.5776C18.2238 32.1864 18.7494 32.7121 18.7494 33.3582C18.7494 33.6715 18.6276 33.9658 18.4063 34.187C18.1851 34.4083 17.8908 34.5301 17.5776 34.5301H4.29675C3.65058 34.5301 3.12495 34.0044 3.12495 33.3583C3.12495 33.0451 3.24674 32.7507 3.468 32.5294ZM1.56243 38.4363C1.56243 37.144 2.61385 36.0926 3.90612 36.0926H4.29675H17.5776H17.9683C19.2605 36.0926 20.312 37.144 20.312 38.4363H1.56243Z" fill="#B68C5A"/>
<path d="M39.2735 32.8224C39.0082 32.4112 38.6916 32.0476 38.3325 31.7417L34.6821 28.5578C34.6536 28.515 34.6207 28.4744 34.5829 28.4366C34.5195 28.3733 34.4476 28.3238 34.3712 28.2868L32.1636 26.3614L21.9456 17.4479C22.3638 17.0107 22.5942 16.4389 22.5942 15.8308C22.5942 15.2044 22.3503 14.6157 21.9071 14.1726C21.7138 13.9796 21.4942 13.8278 21.2594 13.7166L22.2047 12.7713C22.4689 12.8415 22.7404 12.8774 23.0121 12.8774C23.8122 12.8774 24.6124 12.5728 25.2214 11.9638C25.8119 11.3734 26.1371 10.5886 26.1371 9.75398C26.1371 8.91937 25.8119 8.13459 25.2215 7.5442L18.5927 0.915554C18.0023 0.325159 17.2175 0 16.3826 0C15.5482 0 14.7636 0.325159 14.1732 0.915554C13.3573 1.7315 13.0887 2.89002 13.3657 3.93237L3.93402 13.364C3.67339 13.2947 3.40221 13.2581 3.12518 13.2581C2.29017 13.2581 1.50571 13.5831 0.915788 14.1729C-0.302659 15.3914 -0.302659 17.374 0.915788 18.5925L7.54451 25.2213C8.15381 25.8305 8.95405 26.1351 9.75429 26.1351C10.5546 26.1351 11.3549 25.8305 11.9642 25.2213C12.7801 24.4053 13.0487 23.2468 12.7717 22.2045L13.715 21.261C13.8284 21.4977 13.9822 21.7162 14.1733 21.9072C14.616 22.3499 15.2045 22.5937 15.8307 22.5937C16.4382 22.5937 17.0097 22.3638 17.4476 21.946L28.331 34.4503C28.361 34.4971 28.396 34.5418 28.4369 34.5827C28.4509 34.5967 28.4658 34.6094 28.4805 34.6221L31.7236 38.3482C31.8042 38.4433 31.8904 38.5369 31.9799 38.6264C32.8706 39.5168 34.0471 40 35.2822 40C35.5 40 35.7197 39.985 35.9398 39.9545C37.4108 39.7509 38.6822 38.8709 39.4277 37.5398C40.2443 36.081 40.1835 34.2289 39.2735 32.8224ZM15.2782 2.02041C15.5734 1.72517 15.9657 1.56251 16.3827 1.56251C16.8002 1.56251 17.1928 1.72517 17.4879 2.02041L24.1168 8.64913C24.412 8.94437 24.5746 9.33679 24.5746 9.75406C24.5746 10.1713 24.412 10.5638 24.1167 10.859C23.5077 11.4681 22.5166 11.4681 21.9076 10.859L15.2786 4.22996C15.2784 4.2298 15.2783 4.22972 15.2782 4.22956C14.669 3.6205 14.669 2.62947 15.2782 2.02041ZM10.8593 24.1164C10.2501 24.7257 9.25859 24.7257 8.64936 24.1164L2.02064 17.4877C1.41134 16.8784 1.41134 15.8872 2.02064 15.2778C2.31533 14.983 2.70768 14.8207 3.12518 14.8207C3.54261 14.8207 3.93472 14.9829 4.22933 15.2775L10.8592 21.9074C11.4684 22.5163 11.4684 23.5074 10.8593 24.1164ZM14.1485 18.618L11.9641 20.8025L5.33465 14.1731L14.1732 5.33434L20.8026 11.9638L18.6141 14.1523C18.607 14.159 18.6001 14.1656 18.5926 14.173L14.1755 18.5901C14.1664 18.5991 14.1575 18.6085 14.1485 18.618ZM16.9381 20.2477C16.9365 20.2493 16.9351 20.2508 16.9335 20.2523L16.3833 20.8025C16.2358 20.95 16.0396 21.0313 15.8307 21.0313C15.6218 21.0313 15.4256 20.95 15.2781 20.8024C15.1304 20.6548 15.049 20.4584 15.049 20.2494C15.049 20.0448 15.1271 19.8524 15.2687 19.7073L19.7063 15.2697C20.0105 14.9739 20.5022 14.9775 20.8027 15.2778C20.9504 15.4254 21.0317 15.6218 21.0317 15.8308C21.0317 16.0397 20.9506 16.2355 20.8027 16.3831L20.2557 16.9301C20.252 16.9337 20.2482 16.9375 20.2445 16.9412L16.9381 20.2477ZM18.5559 20.8395L20.8392 18.5562L30.5066 26.9887L26.979 30.5165L18.5559 20.8395ZM28.0072 31.6979L31.6868 28.0182L32.8671 29.0476L29.0354 32.8794L28.0072 31.6979ZM38.0644 36.7765C37.5602 37.6768 36.7078 38.2709 35.7257 38.4069C34.7458 38.5425 33.7831 38.2198 33.0845 37.5215C33.0244 37.4615 32.9669 37.3989 32.9133 37.3354C32.9108 37.3325 32.9083 37.3295 32.9057 37.3266L30.0635 34.0608L34.0472 30.077L37.309 32.9221C37.3114 32.9243 37.3139 32.9264 37.3165 32.9286C37.5606 33.1362 37.7772 33.3855 37.9611 33.6703C38.5519 34.5832 38.5933 35.8317 38.0644 36.7765Z" fill="#B68C5A"/>
<path d="M14.7255 8.096C14.4204 7.79092 13.9258 7.79092 13.6207 8.096L10.306 11.4107C10.0009 11.7158 10.0009 12.2105 10.306 12.5155C10.4585 12.6681 10.6585 12.7443 10.8584 12.7443C11.0583 12.7443 11.2582 12.668 11.4108 12.5155L14.7255 9.20077C15.0306 8.89577 15.0306 8.40116 14.7255 8.096Z" fill="#B68C5A"/>
</svg>
