<svg width="40" height="40" viewBox="0 0 40 40" fill="none" xmlns="http://www.w3.org/2000/svg">
<path d="M39.2733 32.8224C39.0079 32.4112 38.6914 32.0476 38.3322 31.7417L34.6818 28.5578C34.6534 28.515 34.6204 28.4744 34.5827 28.4366C34.5192 28.3733 34.4474 28.3238 34.371 28.2868L32.1634 26.3614L21.9453 17.4479C22.3636 17.0107 22.5939 16.4389 22.5939 15.8308C22.5939 15.2044 22.3501 14.6157 21.9069 14.1726C21.7136 13.9796 21.4939 13.8278 21.2591 13.7166L22.2045 12.7713C22.4687 12.8415 22.7402 12.8774 23.0119 12.8774C23.812 12.8774 24.6121 12.5728 25.2212 11.9638C25.8117 11.3734 26.1368 10.5886 26.1368 9.75398C26.1368 8.91937 25.8117 8.13459 25.2213 7.5442L18.5925 0.915554C18.0021 0.325159 17.2172 0 16.3824 0C15.5479 0 14.7633 0.325159 14.173 0.915554C13.357 1.7315 13.0885 2.89002 13.3655 3.93237L3.93377 13.364C3.67314 13.2947 3.40197 13.2581 3.12494 13.2581C2.28993 13.2581 1.50547 13.5831 0.915544 14.1729C-0.302903 15.3914 -0.302903 17.374 0.915544 18.5925L7.54427 25.2213C8.15357 25.8305 8.95381 26.1351 9.75405 26.1351C10.5544 26.1351 11.3546 25.8305 11.9639 25.2213C12.7799 24.4053 13.0485 23.2468 12.7714 22.2045L13.7148 21.261C13.8281 21.4977 13.982 21.7162 14.1731 21.9072C14.6157 22.3499 15.2043 22.5937 15.8305 22.5937C16.4379 22.5937 17.0095 22.3638 17.4474 21.946L28.3308 34.4503C28.3608 34.4971 28.3958 34.5418 28.4367 34.5827C28.4507 34.5967 28.4655 34.6094 28.4803 34.6221L31.7234 38.3482C31.804 38.4433 31.8902 38.5369 31.9796 38.6264C32.8703 39.5168 34.0468 40 35.282 40C35.4997 40 35.7195 39.985 35.9396 39.9545C37.4106 39.7509 38.6819 38.8709 39.4274 37.5398C40.2441 36.081 40.1833 34.2289 39.2733 32.8224ZM15.2779 2.02041C15.5732 1.72517 15.9655 1.56251 16.3825 1.56251C16.8 1.56251 17.1925 1.72517 17.4877 2.02041L24.1165 8.64913C24.4117 8.94437 24.5743 9.33679 24.5743 9.75406C24.5743 10.1713 24.4117 10.5638 24.1164 10.859C23.5074 11.4681 22.5163 11.4681 21.9074 10.859L15.2783 4.22996C15.2782 4.2298 15.2781 4.22972 15.2779 4.22956C14.6688 3.6205 14.6688 2.62947 15.2779 2.02041ZM10.8591 24.1164C10.2498 24.7257 9.25834 24.7257 8.64912 24.1164L2.0204 17.4877C1.4111 16.8784 1.4111 15.8872 2.0204 15.2778C2.31509 14.983 2.70743 14.8207 3.12494 14.8207C3.54236 14.8207 3.93447 14.9829 4.22909 15.2775L10.859 21.9074C11.4682 22.5163 11.4682 23.5074 10.8591 24.1164ZM14.1483 18.618L11.9638 20.8025L5.33441 14.1731L14.173 5.33434L20.8023 11.9638L18.6139 14.1523C18.6068 14.159 18.5998 14.1656 18.5923 14.173L14.1753 18.5901C14.1661 18.5991 14.1573 18.6085 14.1483 18.618ZM16.9379 20.2477C16.9363 20.2493 16.9348 20.2508 16.9332 20.2523L16.3831 20.8025C16.2355 20.95 16.0393 21.0313 15.8304 21.0313C15.6216 21.0313 15.4253 20.95 15.2778 20.8024C15.1301 20.6548 15.0488 20.4584 15.0488 20.2494C15.0488 20.0448 15.1268 19.8524 15.2685 19.7073L19.7061 15.2697C20.0102 14.9739 20.5019 14.9775 20.8025 15.2778C20.9502 15.4254 21.0315 15.6218 21.0315 15.8308C21.0315 16.0397 20.9504 16.2355 20.8024 16.3831L20.2555 16.9301C20.2517 16.9337 20.248 16.9375 20.2443 16.9412L16.9379 20.2477ZM18.5557 20.8395L20.839 18.5562L30.5064 26.9887L26.9787 30.5165L18.5557 20.8395ZM28.0069 31.6979L31.6866 28.0182L32.8668 29.0476L29.0351 32.8794L28.0069 31.6979ZM38.0642 36.7765C37.56 37.6768 36.7075 38.2709 35.7254 38.4069C34.7456 38.5425 33.7828 38.2198 33.0842 37.5215C33.0242 37.4615 32.9667 37.3989 32.9131 37.3354C32.9106 37.3325 32.9081 37.3295 32.9055 37.3266L30.0633 34.0608L34.047 30.077L37.3087 32.9221C37.3111 32.9243 37.3136 32.9264 37.3162 32.9286C37.5604 33.1362 37.777 33.3855 37.9608 33.6703C38.5516 34.5832 38.593 35.8317 38.0642 36.7765Z" fill="#B68C5A"/>
</svg>
