<svg width="41" height="40" viewBox="0 0 41 40" fill="none" xmlns="http://www.w3.org/2000/svg">
<path d="M22.1246 33.6835H25.7663C26.0275 33.6835 26.2391 33.4718 26.2391 33.2107V29.569C26.2391 29.3079 26.0275 29.0962 25.7663 29.0962H22.1246C21.8635 29.0962 21.6518 29.3079 21.6518 29.569V33.2107C21.6518 33.4718 21.8635 33.6835 22.1246 33.6835ZM22.5974 30.0418H25.2935V32.738H22.5974V30.0418Z" fill="#B68C5A"/>
<path d="M40.0198 16.8146C40.091 16.674 40.0917 16.5017 40.0043 16.3568L34.3882 7.04295H37.3458C38.2472 7.04295 38.9806 6.30957 38.9806 5.40807C38.9806 4.50658 38.2472 3.77319 37.3458 3.77319H24.3676C24.0737 1.64477 22.2438 0 20.0358 0C17.8279 0 15.9979 1.64477 15.704 3.7732H13.8426C13.5815 3.7732 13.3698 3.9849 13.3698 4.24599C13.3698 4.50709 13.5815 4.71879 13.8426 4.71879H15.6766C15.7147 5.2047 15.8316 5.66869 16.0161 6.09737H2.72586C2.34578 6.09737 2.03661 5.78816 2.03661 5.40807C2.03661 5.02798 2.34577 4.71878 2.72586 4.71878H6.6651C6.92624 4.71878 7.13789 4.50708 7.13789 4.24599C7.13789 3.98489 6.92624 3.77319 6.6651 3.77319H2.72586C1.82441 3.77319 1.09103 4.50658 1.09103 5.40807C1.09103 6.30957 1.82441 7.04295 2.72586 7.04295H5.68345L0.0673158 16.3568C-0.0200186 16.5016 -0.0193661 16.674 0.0518744 16.8146C0.167529 20.3464 3.14223 21.2618 4.01607 21.4545V21.8787C4.01607 22.7186 4.6994 23.402 5.53935 23.402H7.59941C8.43936 23.402 9.12279 22.7186 9.12279 21.8787V21.4292C10.2343 21.1917 13.0906 20.2279 13.0906 16.6009C13.0906 16.4402 13.01 16.2987 12.8875 16.2132L7.3579 7.04295H16.5261C16.5412 7.04295 16.5555 7.03989 16.5703 7.03849C16.8597 7.414 17.208 7.74181 17.6022 8.00676C17.0738 8.29369 16.7143 8.85362 16.7143 9.49598C16.7143 10.2766 17.2459 10.9337 17.9656 11.1288V18.3561C17.9656 18.3566 17.9657 18.3571 17.9657 18.3576L7.26606 27.3375C7.08757 27.4874 7.04482 27.7449 7.16532 27.9443L8.29532 29.8136C8.36679 29.9318 8.48637 30.0128 8.62257 30.0355C8.7586 30.0582 8.89821 30.0199 9.00385 29.9312L10.7726 28.4468V39.5272C10.7726 39.7883 10.9842 40 11.2454 40H14.9206H18.9685H28.8263C29.0874 40 29.2991 39.7883 29.2991 39.5272V28.4468L31.0678 29.9312C31.1535 30.0032 31.2613 30.0418 31.3717 30.0418C31.3975 30.0418 31.4233 30.0398 31.4491 30.0355C31.5853 30.0128 31.7049 29.9318 31.7763 29.8136L32.9063 27.9443C33.0268 27.7449 32.9841 27.4874 32.8056 27.3376L22.0989 18.3518C22.1025 18.3286 22.1061 18.3054 22.1061 18.2812V11.1288C22.8258 10.9337 23.3574 10.2766 23.3574 9.49599C23.3574 8.85363 22.9979 8.2937 22.4694 8.00678C22.8621 7.74288 23.2091 7.41659 23.4978 7.04297H32.7137L27.1842 16.2132C27.0616 16.2987 26.981 16.4402 26.981 16.601C26.981 20.2279 29.8373 21.1917 30.9489 21.4292V21.8787C30.9489 22.7186 31.6323 23.402 32.4722 23.402H34.5323C35.3722 23.402 36.0556 22.7186 36.0556 21.8787V21.4546C36.9294 21.2618 39.9041 20.3465 40.0198 16.8146ZM6.52067 7.48578L11.7319 16.1282H1.30946L6.52067 7.48578ZM8.17719 21.8787C8.17719 22.1972 7.91799 22.4564 7.5994 22.4564H5.53935C5.22077 22.4564 4.96165 22.1972 4.96165 21.8787V21.5032H8.1772L8.17719 21.8787ZM8.6258 20.5576H4.48886H4.34803C4.02188 20.5076 1.283 20.0005 1.01484 17.0737H12.1245C11.8498 20.1499 8.90744 20.5285 8.6258 20.5576ZM20.0358 0.945586C21.9262 0.945586 23.4643 2.48364 23.4643 4.37412C23.4643 6.2646 21.9262 7.80261 20.0358 7.80261C18.1454 7.80261 16.6073 6.2646 16.6073 4.37412C16.6073 2.48364 18.1454 0.945586 20.0358 0.945586ZM15.3934 39.0544V30.0419H18.4957V39.0544H15.3934ZM28.3535 27.6532V39.0544H19.4413V29.5691C19.4413 29.308 19.2297 29.0963 18.9685 29.0963H14.9206C14.6595 29.0963 14.4478 29.308 14.4478 29.5691V39.0544H11.7182V27.6532L20.0358 20.6725L28.3535 27.6532ZM31.2526 28.852L20.3397 19.693C20.2519 19.6193 20.1438 19.5824 20.0358 19.5824C19.9278 19.5824 19.8197 19.6193 19.7319 19.693L8.81898 28.852L8.18404 27.8016L20.0358 17.8547L31.8876 27.8016L31.2526 28.852ZM20.3397 16.8753C20.1641 16.7279 19.9076 16.7279 19.7319 16.8753L18.9112 17.5642V11.1894H21.1605V17.5642L20.3397 16.8753ZM21.664 8.74819C22.0763 8.74819 22.4118 9.08363 22.4118 9.49598C22.4118 9.90834 22.0763 10.2438 21.664 10.2438H18.4076C17.9953 10.2438 17.6598 9.90834 17.6598 9.49598C17.6598 9.08363 17.9953 8.74819 18.4076 8.74819H21.664ZM24.395 4.71879H37.3458C37.7258 4.71879 38.035 5.02799 38.035 5.40808C38.035 5.78817 37.7258 6.09738 37.3458 6.09738H24.0555C24.24 5.66869 24.3569 5.20471 24.395 4.71879ZM38.7622 16.1282H28.3398L33.551 7.48578L38.7622 16.1282ZM35.11 21.8787C35.11 22.1972 34.8509 22.4564 34.5323 22.4564H32.4722C32.1536 22.4564 31.8944 22.1972 31.8944 21.8787V21.5032H35.11V21.8787ZM35.7238 20.5576H35.5828H31.4461C31.158 20.5277 28.2215 20.1466 27.9472 17.0737H39.0568C38.7883 20.0034 36.0443 20.5086 35.7238 20.5576Z" fill="#B68C5A"/>
<path d="M9.98074 4.71878H10.8129C11.0741 4.71878 11.2857 4.50708 11.2857 4.24599C11.2857 3.98489 11.0741 3.77319 10.8129 3.77319H9.98074C9.7196 3.77319 9.50795 3.98489 9.50795 4.24599C9.50795 4.50708 9.7196 4.71878 9.98074 4.71878Z" fill="#B68C5A"/>
</svg>
