<svg width="40" height="40" viewBox="0 0 40 40" fill="none" xmlns="http://www.w3.org/2000/svg">
<path d="M39.5705 23.884C39.4264 23.6493 39.176 23.5092 38.9006 23.5092H38.7611L33.1152 11.0706H34.437C35.3229 11.0706 36.0437 10.3498 36.0437 9.46389C36.0437 8.57795 35.3229 7.85717 34.437 7.85717H21.5823V5.74155C22.4233 5.17874 22.9784 4.22046 22.9784 3.13468C22.9784 1.40625 21.5721 0 19.8437 0C18.1153 0 16.709 1.40625 16.709 3.13468C16.709 4.22046 17.264 5.17874 18.1051 5.74155V7.85709H5.25037C4.36436 7.85709 3.64366 8.57787 3.64366 9.46381C3.64366 10.3497 4.36444 11.0705 5.25037 11.0705H6.57217L0.926241 23.5091H0.78671C0.51132 23.5091 0.26093 23.6493 0.116867 23.8839C-0.0271949 24.1186 -0.0387573 24.4054 0.0860081 24.6511L1.10647 26.6596C1.50155 27.4374 2.28897 27.9206 3.16139 27.9206H12.1897C13.0622 27.9206 13.8495 27.4374 14.2447 26.6596L15.265 24.6513C15.3899 24.4057 15.3784 24.119 15.2344 23.8842C15.0904 23.6494 14.8399 23.5092 14.5644 23.5092H14.425L8.77904 11.0706H18.105V32.9971H13.8654C12.8247 32.9971 11.9779 33.8438 11.9779 34.8846V35.9106H11.0391C9.99833 35.9106 9.15162 36.7574 9.15162 37.7981V39.412C9.15162 39.7367 9.41482 40 9.73958 40H29.9477C30.2725 40 30.5357 39.7368 30.5357 39.412V37.7981C30.5357 36.7574 29.689 35.9106 28.6482 35.9106H27.7094V34.8846C27.7094 33.8438 26.8627 32.9971 25.8219 32.9971H21.5823V16.0181C21.5823 15.6934 21.3191 15.4301 20.9943 15.4301C20.6696 15.4301 20.4064 15.6933 20.4064 16.0181V32.997H19.2808V10.4826C19.2808 10.1579 19.0176 9.89467 18.6928 9.89467H5.25037C5.0128 9.89467 4.81951 9.70139 4.81951 9.46381C4.81951 9.22623 5.0128 9.03295 5.25037 9.03295H18.6929C19.0177 9.03295 19.2809 8.76975 19.2809 8.44498V6.21929C19.3028 6.22327 19.325 6.22624 19.3471 6.22975C19.3584 6.23155 19.3696 6.23343 19.3807 6.23507C19.4185 6.24061 19.4564 6.24538 19.4945 6.2496C19.5085 6.25116 19.5226 6.25296 19.5368 6.25428C19.5725 6.25772 19.6085 6.26022 19.6444 6.26249C19.6602 6.2635 19.6759 6.26491 19.6918 6.26561C19.7365 6.26772 19.7814 6.26874 19.8262 6.26905C19.8321 6.26905 19.8378 6.26952 19.8436 6.26952C19.8495 6.26952 19.8553 6.26913 19.861 6.26905C19.9059 6.26882 19.9507 6.2678 19.9955 6.26561C20.0114 6.26483 20.0271 6.26343 20.0428 6.26249C20.0788 6.26022 20.1147 6.25772 20.1505 6.25428C20.1646 6.25288 20.1787 6.25116 20.1928 6.2496C20.2309 6.24538 20.2688 6.24069 20.3065 6.23514C20.3178 6.2335 20.3289 6.23163 20.3401 6.22983C20.3621 6.22632 20.3844 6.22335 20.4064 6.21936V8.44506C20.4064 8.76975 20.6696 9.03303 20.9943 9.03303H34.4369C34.6745 9.03303 34.8677 9.22631 34.8677 9.46389C34.8677 9.70147 34.6745 9.89475 34.4369 9.89475H20.9944C20.6696 9.89475 20.4064 10.1579 20.4064 10.4827V13.231C20.4064 13.5557 20.6696 13.819 20.9944 13.819C21.3192 13.819 21.5824 13.5558 21.5824 13.231V11.0706H30.9084L25.2624 23.5091H25.123C24.8475 23.5091 24.5971 23.6493 24.453 23.8841C24.309 24.1189 24.2975 24.4057 24.4223 24.6511L25.4428 26.6596C25.8378 27.4374 26.6253 27.9206 27.4977 27.9206H36.526C37.3984 27.9206 38.1858 27.4374 38.5809 26.6596L39.6015 24.651C39.7262 24.4055 39.7146 24.1187 39.5705 23.884ZM25.822 34.173C26.2143 34.173 26.5335 34.4922 26.5335 34.8845V35.9106H17.5373C17.2125 35.9106 16.9493 36.1738 16.9493 36.4985C16.9493 36.8232 17.2125 37.0865 17.5373 37.0865H28.6482C29.0406 37.0865 29.3598 37.4057 29.3598 37.7981V38.8241H10.3276V37.7981C10.3276 37.4057 10.6468 37.0865 11.0391 37.0865H14.8086C15.1333 37.0865 15.3965 36.8233 15.3965 36.4985C15.3965 36.1738 15.1333 35.9106 14.8086 35.9106H13.1538V34.8845C13.1538 34.4921 13.473 34.173 13.8654 34.173H25.822ZM13.1963 26.1271C13.0028 26.508 12.6171 26.7446 12.1897 26.7446H3.16147C2.73413 26.7446 2.34843 26.508 2.15491 26.1271L1.42226 24.685H13.929L13.1963 26.1271ZM13.1407 23.5091H2.21054L7.6756 11.469L13.1407 23.5091ZM20.7125 4.88968C20.6911 4.9003 20.6695 4.91038 20.6478 4.92022C20.6368 4.92522 20.6259 4.93046 20.6147 4.93523C20.5902 4.94577 20.5654 4.95554 20.5406 4.96507C20.5215 4.97233 20.5022 4.97929 20.4828 4.98601C20.4625 4.99312 20.442 5.00022 20.4214 5.00663C20.4026 5.01241 20.3835 5.01757 20.3646 5.0228C20.3502 5.02679 20.3358 5.03085 20.3213 5.03452C20.3017 5.03944 20.2818 5.0439 20.262 5.04827C20.2475 5.0514 20.2329 5.05452 20.2184 5.05733C20.1989 5.06108 20.1795 5.0646 20.1598 5.0678C20.1436 5.07046 20.1274 5.07272 20.1111 5.07491C20.093 5.07741 20.0749 5.07991 20.0566 5.08187C20.0364 5.08405 20.0159 5.08562 19.9955 5.08718C19.9808 5.08835 19.9662 5.08976 19.9515 5.09054C19.9157 5.09249 19.8799 5.09366 19.8438 5.09366C19.8077 5.09366 19.7718 5.09249 19.736 5.09054C19.7213 5.08976 19.7067 5.08835 19.6921 5.08718C19.6717 5.08562 19.6513 5.08405 19.631 5.08187C19.6127 5.07991 19.5946 5.07741 19.5764 5.07491C19.5602 5.07272 19.5439 5.07038 19.5278 5.0678C19.5082 5.0646 19.4886 5.06108 19.4692 5.05733C19.4546 5.05452 19.44 5.0514 19.4256 5.04827C19.4057 5.04397 19.3859 5.03952 19.3663 5.03452C19.3518 5.03085 19.3375 5.02679 19.323 5.0228C19.304 5.01757 19.285 5.01241 19.2662 5.00663C19.2456 5.00022 19.2252 4.99312 19.2047 4.98601C19.1853 4.97929 19.1661 4.97241 19.147 4.96507C19.1221 4.95554 19.0974 4.94577 19.0728 4.93523C19.0617 4.93046 19.0507 4.92522 19.0397 4.92022C19.0181 4.91038 18.9964 4.90038 18.975 4.88968C18.3297 4.5689 17.885 3.90288 17.885 3.13468C17.885 2.05461 18.7637 1.17586 19.8439 1.17586C20.924 1.17586 21.8027 2.05461 21.8027 3.13468C21.8025 3.90288 21.3579 4.5689 20.7125 4.88968ZM32.0118 11.469L37.4769 23.5091H26.5467L32.0118 11.469ZM37.5325 26.1271C37.339 26.508 36.9533 26.7446 36.5259 26.7446H27.4976C27.0703 26.7446 26.6846 26.508 26.491 26.1271L25.7584 24.685H38.2651L37.5325 26.1271Z" fill="#B68C5A"/>
</svg>
