<svg width="53" height="40" viewBox="0 0 53 40" fill="none" xmlns="http://www.w3.org/2000/svg">
<path d="M48.8179 16.0042C48.5564 15.7884 48.1713 15.8264 47.956 16.0891L45.9011 18.5997C45.6866 18.862 45.7241 19.2495 45.9857 19.4653C46.2474 19.6813 46.6334 19.6423 46.8476 19.3805L48.9024 16.8698C49.1169 16.6075 49.0795 16.22 48.8179 16.0042Z" fill="#B68C5A"/>
<path d="M48.9389 22.5278L52.0291 21.3579C52.3457 21.2382 52.5055 20.8835 52.3859 20.5656C52.2667 20.2481 51.9119 20.0884 51.5969 20.2073L48.5067 21.3768C48.1901 21.4965 48.0307 21.8512 48.1499 22.1691C48.2674 22.4825 48.6152 22.6476 48.9389 22.5278Z" fill="#B68C5A"/>
<path d="M49.3571 26.098C52.8556 26.6264 52.3179 26.5512 52.3883 26.5512C52.6861 26.5512 52.9472 26.3326 52.9931 26.0283C53.0437 25.6928 52.8137 25.3789 52.4792 25.3285L49.5405 24.8825C49.2084 24.8296 48.8938 25.0626 48.8432 25.3981C48.7925 25.7337 49.0226 26.0475 49.3571 26.098Z" fill="#B68C5A"/>
<path d="M1.38543 29.5291C2.05218 29.9443 2.84069 30.1979 3.37493 30.2013C6.15561 30.219 12.631 25.0762 20.3621 21.286C20.3653 21.2845 20.3671 21.2815 20.3702 21.2799C22.1095 22.2409 22.6306 22.1937 24.1687 20.8928C25.3488 19.8947 26.9579 19.466 28.4659 19.7199C28.7133 19.8694 28.9869 19.9965 29.2794 20.0851C28.9351 20.8571 28.7662 21.8742 28.9343 22.7099C26.7708 22.7744 15.1306 23.2024 14.8053 25.6528L14.27 29.6736C13.6348 30.3676 12.247 32.0885 12.3929 33.021C12.0406 33.7097 12.4087 36.6199 15.0216 37.3928C20.8889 40.7992 42.6756 40.1545 46.3917 39.395C48.539 38.9562 51.7136 38.5058 51.4776 35.6819C51.4118 34.8947 50.8477 33.7371 50.3204 33.0643C50.0353 32.3393 49.3394 31.4781 48.5888 30.6607C48.488 29.661 48.1031 25.995 48.1031 25.8298C48.1031 24.4564 44.4317 23.6687 40.4599 23.2171C41.4867 22.6282 42.4973 21.9741 43.2251 20.9814C45.0019 18.5577 43.5869 15.9162 41.614 16.0078C42.2926 15.2125 42.4707 14.0819 42.3251 13.0448C42.1795 12.0078 41.7467 11.0368 41.3187 10.0817C40.7288 8.7656 40.1388 7.4494 39.5489 6.13321C39.3718 5.7381 39.1083 5.44778 38.7881 5.15727C38.4916 4.88827 37.841 4.75931 37.4448 4.90629C37.4395 4.90524 37.4341 4.90414 37.4288 4.90309C39.1223 1.71261 36.8649 -0.049916 33.522 0.00107643C31.1889 0.0375096 27.8471 0.529958 25.1779 2.67191C22.8007 4.57915 22.8859 6.82777 24.2274 8.17171C24.5661 8.51097 24.9784 8.7674 25.4053 8.93786C24.4204 10.238 24.7198 11.4204 25.262 12.9593L25.5853 13.8783C25.5835 13.8797 25.5812 13.8799 25.5794 13.8813C23.6714 15.3845 22.01 15.0932 20.8988 15.3791C19.9934 15.6118 19.3121 16.2826 18.9826 17.1615C15.6141 18.2771 2.6362 23.3556 0.731636 25.6216C-0.429098 27.0028 -0.206931 28.844 1.38543 29.5291ZM48.1577 32.0466C50.2605 34.489 48.5946 35.956 47.2519 36.228C36.2402 38.4597 25.5686 38.4725 15.5345 36.2705C13.3546 35.7921 13.5685 33.511 13.5285 33.2172C13.6753 32.9411 13.4812 32.6608 14.4642 31.3554C23.138 35.7003 41.775 34.4597 47.7284 31.5305C47.863 31.6995 48.0061 31.8704 48.1577 32.0466ZM47.3289 30.3825C37.8644 33.0581 23.5324 34.3438 15.3049 30.4001C15.5345 30.1258 15.3982 30.1688 15.8882 26.7975C20.7708 29.106 42.4741 28.8371 46.9825 27.0028L47.3289 30.3825ZM46.7049 25.813C43.325 27.517 20.2093 27.9003 16.2397 25.6152C17.5263 25.0002 22.5621 24.0225 29.6344 23.9224C30.809 24.9806 34.678 25.7076 38.3661 24.2443C43.0969 24.6637 45.8919 25.3467 46.7049 25.813ZM41.7385 19.8199C40.036 22.5517 33.0189 25.1589 30.2795 22.8383C29.8579 21.6452 30.352 20.3011 30.8225 20.0423C33.6101 19.3048 39.5256 16.9684 39.6099 16.9262C39.6122 16.9261 39.7851 16.8748 39.9655 16.9121C41.6611 17.2637 42.6738 18.3408 41.7385 19.8199ZM38.2771 7.03227C39.0196 9.0939 39.767 11.2591 40.5237 13.3192C40.8998 14.3404 40.1717 15.4334 39.1379 15.8047C36.198 16.856 33.4602 18.1007 30.307 18.9111C29.6619 19.0766 29.012 18.6984 28.7342 18.4042C28.2172 17.8559 28.139 17.4449 26.4166 12.5493C26.1818 11.8819 25.9386 11.1917 25.9972 10.5339C26.0459 9.98872 26.6276 9.24429 27.0821 9.13449C29.6573 8.60315 33.6471 7.23636 36.3977 6.1775C37.165 5.88251 38.001 6.26625 38.2771 7.03227ZM25.0926 7.30092C24.2553 6.46239 24.1603 5.06284 25.9426 3.63278C28.3415 1.70783 31.3986 1.26423 33.5407 1.231C37.0087 1.19153 37.5315 2.99664 35.9187 4.98561C35.8521 5.01784 35.7946 5.05813 35.7451 5.10998C33.7229 5.88237 28.6793 7.69551 26.5195 7.92749C26.1411 7.95792 25.5443 7.75373 25.0926 7.30092ZM23.6633 16.1885C24.5034 15.9624 25.2913 15.5772 26.0059 15.0736C26.7376 17.1497 26.7629 17.2338 26.8951 17.587C26.0369 17.653 25.3315 17.9403 24.5883 18.3897C23.8689 18.1175 23.3321 17.1863 23.6633 16.1885ZM21.2026 16.5706C21.5349 16.4852 21.9078 16.4601 22.3609 16.4172C22.2362 17.412 22.6115 18.4743 23.4759 19.1521C22.5101 19.8826 21.6879 20.7581 20.8083 20.1078C19.5833 19.2049 19.7495 16.9438 21.2026 16.5706ZM1.66735 26.4151C3.13058 24.6752 14.8253 19.8715 18.7713 18.5336C18.8016 19.2288 19.0371 19.8386 19.4195 20.3832C9.83369 25.102 4.28047 28.3034 2.81397 28.5138C1.37024 28.7214 0.72186 27.5392 1.66735 26.4151Z" fill="#B68C5A"/>
</svg>
