<svg width="47" height="40" viewBox="0 0 47 40" fill="none" xmlns="http://www.w3.org/2000/svg">
<path d="M43.3699 6.14158H32.4726V3.48953C32.4726 2.56405 32.1049 1.67647 31.4505 1.02206C30.7961 0.367646 29.9085 0 28.983 0H17.8764C16.9509 0 16.0633 0.367646 15.4089 1.02206C14.7545 1.67647 14.3868 2.56405 14.3868 3.48953V6.14158H3.48953C2.56405 6.14158 1.67647 6.50922 1.02206 7.16363C0.367646 7.81805 0 8.70562 0 9.63111V36.5105C0 37.436 0.367646 38.3235 1.02206 38.9779C1.67647 39.6324 2.56405 40 3.48953 40H43.3699C44.2954 40 45.1829 39.6324 45.8374 38.9779C46.4918 38.3235 46.8594 37.436 46.8594 36.5105V9.63111C46.8594 8.70562 46.4918 7.81805 45.8374 7.16363C45.1829 6.50922 44.2954 6.14158 43.3699 6.14158ZM16.3809 3.48953C16.3809 3.0929 16.5384 2.71251 16.8189 2.43204C17.0993 2.15158 17.4797 1.99402 17.8764 1.99402H28.983C29.3797 1.99402 29.7601 2.15158 30.0405 2.43204C30.321 2.71251 30.4786 3.0929 30.4786 3.48953V6.14158H16.3809V3.48953ZM1.99402 9.63111C1.99402 9.23447 2.15158 8.85408 2.43204 8.57362C2.71251 8.29316 3.0929 8.13559 3.48953 8.13559H43.3699C43.7665 8.13559 44.1469 8.29316 44.4274 8.57362C44.7078 8.85408 44.8654 9.23447 44.8654 9.63111V15.9821C44.8628 17.7159 44.1728 19.3779 42.9469 20.6039C41.7209 21.8299 40.0588 22.5198 38.325 22.5224H27.5224V19.4417C27.5224 19.1773 27.4174 18.9237 27.2304 18.7367C27.0434 18.5497 26.7898 18.4447 26.5254 18.4447H20.334C20.0696 18.4447 19.816 18.5497 19.629 18.7367C19.442 18.9237 19.337 19.1773 19.337 19.4417V22.5224H8.5344C6.80059 22.5198 5.13855 21.8299 3.91256 20.6039C2.68657 19.3779 1.99665 17.7159 1.99402 15.9821V9.63111ZM25.5284 20.4387V26.6002H21.331V20.4387H25.5284ZM44.8654 36.5105C44.8654 36.9071 44.7078 37.2875 44.4274 37.568C44.1469 37.8484 43.7665 38.006 43.3699 38.006H3.48953C3.0929 38.006 2.71251 37.8484 2.43204 37.568C2.15158 37.2875 1.99402 36.9071 1.99402 36.5105V21.4556C2.79352 22.4137 3.79371 23.1844 4.92387 23.7133C6.05404 24.2422 7.28659 24.5164 8.5344 24.5164H19.337V27.5972C19.337 27.8616 19.442 28.1152 19.629 28.3022C19.816 28.4892 20.0696 28.5942 20.334 28.5942H26.5254C26.7898 28.5942 27.0434 28.4892 27.2304 28.3022C27.4174 28.1152 27.5224 27.8616 27.5224 27.5972V24.5164H38.325C39.5728 24.5164 40.8054 24.2422 41.9355 23.7133C43.0657 23.1844 44.0659 22.4137 44.8654 21.4556V36.5105Z" fill="#B68C5A"/>
</svg>
