<svg width="41" height="40" viewBox="0 0 41 40" fill="none" xmlns="http://www.w3.org/2000/svg">
<path d="M38.124 29.9774H37.9809V28.2545C37.9799 27.4528 37.661 26.6842 37.094 26.1174C36.5271 25.5505 35.7585 25.2317 34.9569 25.2308H34.1663L33.7157 20.6002C34.1808 20.1916 34.5528 19.688 34.8068 19.1234C35.0608 18.5588 35.1908 17.9463 35.188 17.3273C35.1866 16.1673 34.7252 15.0552 33.9049 14.235C33.0846 13.4147 31.9725 12.9534 30.8125 12.9521C30.7461 12.9521 30.6776 12.96 30.6105 12.9631V9.03821C30.6071 8.87999 30.5445 8.72881 30.4348 8.61467L21.9965 0.175649C21.8831 0.0647248 21.7313 0.00181067 21.5726 0H1.89721C1.39427 0.00054362 0.912071 0.200556 0.556402 0.55616C0.200733 0.911765 0.000634396 1.39392 0 1.89687V38.1031C0.000634396 38.6061 0.200733 39.0882 0.556402 39.4438C0.912071 39.7994 1.39427 39.9995 1.89721 40H28.7136C29.2165 39.9994 29.6986 39.7993 30.0542 39.4437C30.4098 39.0881 30.6099 38.606 30.6105 38.1031V35.0695H38.124C38.6893 35.0688 39.2311 34.8439 39.6308 34.4442C40.0305 34.0445 40.2554 33.5027 40.2561 32.9374V32.1095C40.2554 31.5443 40.0305 31.0024 39.6308 30.6027C39.2311 30.203 38.6893 29.9781 38.124 29.9774ZM36.7825 28.2545V29.9774H24.8476V28.2545C24.8474 27.7712 25.039 27.3076 25.3802 26.9654C25.7215 26.6232 26.1845 26.4303 26.6678 26.4292H34.9569C35.4408 26.4296 35.9049 26.6221 36.2472 26.9643C36.5894 27.3065 36.782 27.7705 36.7825 28.2545ZM33.9892 17.3273C33.9913 17.8188 33.8781 18.304 33.6589 18.744C33.4397 19.184 33.1205 19.5665 32.7268 19.861C32.6449 19.9228 32.5803 20.0046 32.539 20.0985C32.4978 20.1925 32.4813 20.2954 32.4913 20.3975L32.9614 25.2308H28.6633L29.1331 20.3975C29.143 20.2957 29.1267 20.193 29.0857 20.0993C29.0447 20.0055 28.9804 19.9238 28.8989 19.862C28.467 19.536 28.1255 19.1051 27.9069 18.6102C27.6883 18.1152 27.5997 17.5726 27.6496 17.0338C27.6995 16.495 27.8862 15.9779 28.1921 15.5316C28.4979 15.0852 28.9126 14.7243 29.397 14.4832C29.8814 14.2421 30.4194 14.1287 30.9599 14.1538C31.5004 14.1789 32.0255 14.3417 32.4855 14.6266C32.9454 14.9116 33.325 15.3094 33.5881 15.7822C33.8512 16.255 33.9892 16.7872 33.9889 17.3283L33.9892 17.3273ZM28.5647 8.43902H22.8724C22.6867 8.43884 22.5086 8.36502 22.3773 8.23376C22.246 8.10249 22.1721 7.9245 22.1718 7.73882V2.0465L28.5647 8.43902ZM29.4121 38.1031C29.4119 38.2883 29.3383 38.4659 29.2073 38.5968C29.0764 38.7278 28.8988 38.8014 28.7136 38.8016H1.89721C1.71199 38.8014 1.53439 38.7278 1.40339 38.5969C1.27238 38.4659 1.19866 38.2884 1.19838 38.1031V1.89756C1.19866 1.71233 1.27238 1.53477 1.40339 1.40383C1.53439 1.27289 1.71199 1.19925 1.89721 1.19907H20.9734V7.73882C20.9741 8.24222 21.1743 8.72482 21.5303 9.08074C21.8863 9.43667 22.369 9.63686 22.8724 9.6374H29.4121V13.1822C28.5488 13.4812 27.7993 14.0402 27.2667 14.7825C26.734 15.5247 26.4443 16.4137 26.4374 17.3273C26.4354 17.9461 26.5657 18.5583 26.8196 19.1226C27.0736 19.687 27.4452 20.1905 27.9097 20.5995L27.4594 25.2308H26.6678C25.8668 25.2324 25.0992 25.5517 24.5334 26.1185C23.9675 26.6854 23.6495 27.4535 23.6492 28.2545V29.9774H23.501C22.9364 29.9788 22.3954 30.204 21.9967 30.6037C21.598 31.0034 21.374 31.5449 21.374 32.1095V32.9374C21.374 33.502 21.598 34.0435 21.9967 34.4432C22.3954 34.8429 22.9364 35.0681 23.501 35.0695H29.4121V38.1031ZM39.0577 32.9374C39.0575 33.185 38.959 33.4223 38.7839 33.5973C38.6089 33.7724 38.3716 33.8708 38.124 33.8711H23.501C23.2541 33.8702 23.0177 33.7714 22.8436 33.5963C22.6695 33.4213 22.572 33.1843 22.5724 32.9374V32.1095C22.572 31.8626 22.6695 31.6256 22.8436 31.4506C23.0177 31.2755 23.2541 31.1767 23.501 31.1758H38.124C38.3716 31.1761 38.6089 31.2745 38.7839 31.4496C38.959 31.6246 39.0575 31.8619 39.0577 32.1095V32.9374Z" fill="#B68C5A"/>
<path d="M6.55476 13.8751H24.0556C24.2145 13.8751 24.3669 13.812 24.4793 13.6996C24.5917 13.5873 24.6548 13.4349 24.6548 13.2759C24.6548 13.117 24.5917 12.9646 24.4793 12.8523C24.3669 12.7399 24.2145 12.6768 24.0556 12.6768H6.55476C6.39584 12.6768 6.24344 12.7399 6.13107 12.8523C6.0187 12.9646 5.95557 13.117 5.95557 13.2759C5.95557 13.4349 6.0187 13.5873 6.13107 13.6996C6.24344 13.812 6.39584 13.8751 6.55476 13.8751Z" fill="#B68C5A"/>
<path d="M6.55476 18.1134H24.0556C24.2145 18.1134 24.3669 18.0503 24.4793 17.9379C24.5917 17.8256 24.6548 17.6731 24.6548 17.5142C24.6548 17.3553 24.5917 17.2029 24.4793 17.0905C24.3669 16.9782 24.2145 16.915 24.0556 16.915H6.55476C6.39584 16.915 6.24344 16.9782 6.13107 17.0905C6.0187 17.2029 5.95557 17.3553 5.95557 17.5142C5.95557 17.6731 6.0187 17.8256 6.13107 17.9379C6.24344 18.0503 6.39584 18.1134 6.55476 18.1134Z" fill="#B68C5A"/>
<path d="M6.55476 22.3517H24.0556C24.2145 22.3517 24.3669 22.2886 24.4793 22.1762C24.5917 22.0638 24.6548 21.9114 24.6548 21.7525C24.6548 21.5936 24.5917 21.4412 24.4793 21.3288C24.3669 21.2165 24.2145 21.1533 24.0556 21.1533H6.55476C6.39584 21.1533 6.24344 21.2165 6.13107 21.3288C6.0187 21.4412 5.95557 21.5936 5.95557 21.7525C5.95557 21.9114 6.0187 22.0638 6.13107 22.1762C6.24344 22.2886 6.39584 22.3517 6.55476 22.3517Z" fill="#B68C5A"/>
<path d="M21.5698 25.9898C21.5698 25.9111 21.5543 25.8332 21.5243 25.7605C21.4942 25.6877 21.45 25.6217 21.3944 25.566C21.3387 25.5104 21.2727 25.4662 21.1999 25.4361C21.1272 25.406 21.0493 25.3906 20.9706 25.3906H6.55573C6.39682 25.3906 6.24441 25.4538 6.13204 25.5661C6.01967 25.6785 5.95654 25.8309 5.95654 25.9898C5.95654 26.1487 6.01967 26.3011 6.13204 26.4135C6.24441 26.5259 6.39682 26.589 6.55573 26.589H20.9706C21.1295 26.589 21.2819 26.5259 21.3943 26.4135C21.5066 26.3011 21.5698 26.1487 21.5698 25.9898Z" fill="#B68C5A"/>
<path d="M18.6245 29.6289H6.55476C6.39584 29.6289 6.24344 29.692 6.13107 29.8044C6.0187 29.9168 5.95557 30.0692 5.95557 30.2281C5.95557 30.387 6.0187 30.5394 6.13107 30.6518C6.24344 30.7642 6.39584 30.8273 6.55476 30.8273H18.6245C18.7835 30.8273 18.9359 30.7642 19.0482 30.6518C19.1606 30.5394 19.2237 30.387 19.2237 30.2281C19.2237 30.0692 19.1606 29.9168 19.0482 29.8044C18.9359 29.692 18.7835 29.6289 18.6245 29.6289Z" fill="#B68C5A"/>
</svg>
