<svg width="50" height="40" viewBox="0 0 50 40" fill="none" xmlns="http://www.w3.org/2000/svg">
<path d="M39.1533 34.0853C40.5806 34.3151 41.6571 35.5609 41.6571 37.0245V39.2743C41.6571 39.6734 41.3305 40 40.9314 40H3.84639C3.44723 40 3.12065 39.6734 3.12065 39.2743V12.8213H0.725733C0.32658 12.8213 0 12.4947 0 12.0956V4.02782C0 1.81433 1.81433 0 4.02782 0H29.2712C31.4847 0 33.2991 1.81433 33.2991 4.02782V6.39855C34.436 6.60417 35.4158 7.28152 36.0206 8.22498H49.12C49.5192 8.22498 49.8458 8.55156 49.8458 8.95071V11.9625C49.8458 12.3617 49.5192 12.6882 49.12 12.6882H35.9722C35.7303 13.0632 35.4279 13.3777 35.0771 13.6559V29.5373H36.1657C37.7986 29.5373 39.1412 30.8799 39.1412 32.5128V34.0853H39.1533ZM23.4775 38.5485V37.0245C23.4775 36.7705 23.5138 36.5165 23.5742 36.2867H7.32991C6.93075 36.2867 6.60417 35.9601 6.60417 35.5609V5.35833H4.56002V38.5485H23.4775ZM24.4451 34.8231C24.8685 34.436 25.4007 34.1699 25.9813 34.0732V32.5128C25.9813 30.8799 27.3239 29.5373 28.9568 29.5373H30.0575V13.6559C29.7067 13.3898 29.4043 13.0632 29.1624 12.6882H16.0266C15.6275 12.6882 15.3009 12.3617 15.3009 11.9625V8.95071C15.3009 8.55156 15.6275 8.22498 16.0266 8.22498H29.1261C29.7309 7.28152 30.7227 6.60417 31.8476 6.39855V4.02782C31.8476 2.55216 30.6018 1.3668 29.114 1.46356C29.0777 1.46356 29.0293 1.46356 28.993 1.46356H7.11219C7.71696 2.1893 8.04354 3.09646 8.04354 4.03992V34.8352H24.4451V34.8231ZM38.6816 35.4884C34.6054 35.4884 30.5292 35.4884 26.4651 35.4884C25.6305 35.4884 24.941 36.1778 24.941 37.0124V38.5364H40.2177V37.0124C40.2056 36.1778 39.5162 35.4884 38.6816 35.4884ZM31.5089 29.5373H33.6256V13.2809C33.6256 12.5794 34.3151 12.7366 34.8715 11.7085C35.827 9.96674 34.5812 7.78954 32.5612 7.78954C30.5292 7.78954 29.2954 9.97883 30.251 11.7085C30.8195 12.7487 31.5089 12.5794 31.5089 13.2809V29.5373ZM36.1778 30.9888H28.9689C28.1343 30.9888 27.4448 31.6783 27.4448 32.5128V34.0369H37.7139V32.5128C37.7018 31.6783 37.0124 30.9888 36.1778 30.9888ZM41.4757 20.381C41.27 20.7197 40.8225 20.8406 40.4838 20.635C40.1451 20.4294 40.0242 19.9819 40.2298 19.6432L43.8827 13.5228C44.1609 13.0511 44.8503 13.0511 45.1285 13.5349L48.7814 19.6432C48.987 19.9819 48.8781 20.4294 48.5274 20.635C48.1887 20.8406 47.7412 20.7318 47.5355 20.381L44.4995 15.3009L41.4757 20.381ZM39.9153 21.3003H49.12C49.5192 21.3003 49.8458 21.6269 49.8458 22.026V25.57C49.8458 27.9165 47.9226 29.8397 45.576 29.8397H43.4714C41.1249 29.8397 39.2017 27.9165 39.2017 25.57V22.026C39.1896 21.6269 39.5162 21.3003 39.9153 21.3003ZM48.3822 22.7517H40.6411V25.57C40.6411 27.1182 41.9111 28.3883 43.4593 28.3883H45.564C47.1122 28.3883 48.3822 27.1182 48.3822 25.57V22.7517ZM17.5869 20.381C17.3813 20.7197 16.9338 20.8406 16.5951 20.635C16.2564 20.4294 16.1355 19.9819 16.3411 19.6432L19.9939 13.5228C20.2721 13.0511 20.9616 13.0511 21.2398 13.5349L24.8926 19.6432C25.0983 19.9819 24.9894 20.4294 24.6386 20.635C24.3 20.8406 23.8524 20.7318 23.6468 20.381L20.6108 15.3009L17.5869 20.381ZM16.0266 21.3003H25.2313C25.6305 21.3003 25.9571 21.6269 25.9571 22.026V25.57C25.9571 27.9165 24.0339 29.8397 21.6873 29.8397H19.5827C17.2362 29.8397 15.313 27.9165 15.313 25.57V22.026C15.3009 21.6269 15.6275 21.3003 16.0266 21.3003ZM24.4935 22.7517H16.7523V25.57C16.7523 27.1182 18.0224 28.3883 19.5706 28.3883H21.6752C23.2235 28.3883 24.4935 27.1182 24.4935 25.57V22.7517ZM28.5576 11.2489C28.4487 10.7288 28.4487 10.1966 28.5455 9.68854H16.7523V11.2489H28.5576ZM36.5891 9.67644C36.6858 10.1966 36.6858 10.7288 36.577 11.2368H48.3822V9.67644H36.5891ZM3.10856 11.3819V4.6326C3.10856 4.23344 3.43514 3.90686 3.83429 3.90686H6.59208C6.5316 2.56426 5.40671 1.46356 4.02782 1.46356C2.61264 1.46356 1.45147 2.62474 1.45147 4.03992V11.3819H3.10856Z" fill="#B68C5A"/>
</svg>
