<svg width="40" height="40" viewBox="0 0 40 40" fill="none" xmlns="http://www.w3.org/2000/svg">
<path d="M40 27.2631V27.1983C40 26.9701 39.8448 26.771 39.6232 26.7154C37.4025 26.1602 35.8506 24.1759 35.8506 21.8913V19.205C35.8506 16.2432 33.4415 13.834 30.4797 13.834C27.5178 13.834 25.1087 16.2432 25.1087 19.205V21.8913C25.1087 23.2033 24.5958 24.4365 23.6846 25.3635C22.8988 23.9361 21.3801 22.966 19.6382 22.966C17.0938 22.966 15.0232 25.0365 15.0232 27.5809V28.6739C15.0232 28.9295 15.0448 29.1801 15.0855 29.4249C14.8539 29.3187 14.6108 29.2315 14.3593 29.166L11.4373 28.4042V27.678C13.2971 26.712 14.571 24.7693 14.571 22.5328V19.629C14.571 16.4332 11.971 13.8332 8.7751 13.8332C5.57925 13.8332 2.97925 16.4332 2.97925 19.629V22.5328C2.97925 24.7693 4.25311 26.712 6.11286 27.678V28.4042L3.19087 29.166C1.28216 29.6639 0 31.3228 0 33.2946V39.5021C0 39.7768 0.223237 40 0.497925 40H12.3112H26.966H38.7568C39.0315 40 39.2548 39.7768 39.2548 39.5021V33.2946C39.2548 32.1286 38.8058 31.0714 38.0448 30.2996C39.2083 29.7734 40 28.6058 40 27.2631ZM28.8133 27.5925C29.3386 27.7643 29.8979 27.8589 30.4797 27.8589C31.0614 27.8589 31.6207 27.7651 32.1461 27.5925V28.7361C32.1461 29.6548 31.3983 30.4025 30.4797 30.4025C29.561 30.4025 28.8133 29.6548 28.8133 28.7361V27.5925ZM30.4797 26.8622C28.0672 26.8622 26.1046 24.8996 26.1046 22.4871V21.356C26.3776 21.4174 26.6573 21.4498 26.9411 21.4498H27.1693C28.5568 21.4498 29.8075 20.7071 30.4797 19.5212C31.1519 20.7071 32.4025 21.4498 33.79 21.4498H34.0183C34.3029 21.4498 34.5826 21.4174 34.8548 21.356V22.4871C34.8548 24.8996 32.8921 26.8622 30.4797 26.8622ZM30.4797 14.8299C32.8921 14.8299 34.8548 16.7925 34.8548 19.205V20.3261C34.5851 20.4108 34.3046 20.4548 34.0183 20.4548H33.79C32.6556 20.4548 31.6066 19.7444 31.1801 18.6863C31.0639 18.3992 30.7892 18.2141 30.4797 18.2141C30.1701 18.2141 29.8954 18.3992 29.7793 18.6863C29.3527 19.7436 28.3037 20.4548 27.1693 20.4548H26.9411C26.6539 20.4548 26.3743 20.4116 26.1046 20.3261V19.205C26.1046 16.7925 28.0672 14.8299 30.4797 14.8299ZM25.5029 24.5021C25.9577 25.6216 26.7793 26.5535 27.8174 27.1486V28.4042L24.8954 29.166C24.6531 29.229 24.4191 29.312 24.1942 29.4133C24.2332 29.1726 24.2539 28.9253 24.2539 28.6739V27.5809C24.2539 27.156 24.195 26.7452 24.0871 26.3552C24.6846 25.8274 25.1627 25.1975 25.5029 24.5021ZM17.9585 32.9718C18.4797 33.1759 19.0456 33.2896 19.6382 33.2896C20.2307 33.2896 20.7975 33.1759 21.3187 32.9718V33.8125C21.3187 34.7386 20.5651 35.4921 19.639 35.4921C18.7129 35.4921 17.9593 34.7386 17.9593 33.8125V32.9718H17.9585ZM19.6382 32.2938C17.6423 32.2938 16.0191 30.6705 16.0191 28.6747V28.5469C16.6075 28.01 17.9004 27.5062 19.6382 27.5062C21.3759 27.5062 22.6689 28.0108 23.2573 28.5469V28.6747C23.2581 30.6697 21.634 32.2938 19.6382 32.2938ZM19.6382 23.9618C21.5477 23.9618 23.1154 25.4481 23.2473 27.3237C22.3311 26.8091 21.044 26.5087 19.6382 26.5087C18.2324 26.5087 16.9452 26.8083 16.029 27.3237C16.1618 25.4481 17.7295 23.9618 19.6382 23.9618ZM8.7751 14.8299C11.4216 14.8299 13.5751 16.9834 13.5751 19.6299V20.6871C13.2681 20.7154 12.9577 20.7311 12.6481 20.7311C10.7228 20.7311 8.88714 20.1793 7.47884 19.1784C7.26141 19.0241 6.961 19.0681 6.79751 19.278C6.15436 20.1029 5.11618 20.6216 3.97593 20.7037V19.6299C3.9751 16.9826 6.1278 14.8299 8.7751 14.8299ZM3.9751 22.5336V21.7012C5.25477 21.6266 6.44481 21.0988 7.27635 20.2415C8.79336 21.2017 10.6822 21.727 12.6473 21.727C12.9568 21.727 13.2664 21.712 13.5743 21.6863V22.5336C13.5743 25.1801 11.4207 27.3336 8.77427 27.3336C6.1278 27.3336 3.9751 25.1801 3.9751 22.5336ZM8.7751 28.3286C9.35436 28.3286 9.91369 28.2423 10.4415 28.083V28.7353C10.4415 29.6539 9.69378 30.4017 8.7751 30.4017C7.85643 30.4017 7.10871 29.6539 7.10871 28.7353V28.083C7.63652 28.2423 8.19585 28.3286 8.7751 28.3286ZM0.995851 33.2946C0.995851 31.7834 1.97842 30.5112 3.44149 30.1303L6.2 29.4116C6.49959 30.5535 7.54025 31.3983 8.7751 31.3983C10.01 31.3983 11.0506 30.5535 11.3502 29.4116L14.1087 30.1303C14.7303 30.2921 15.2788 30.6207 15.7012 31.0797C16.0266 31.6108 16.4573 32.0705 16.9627 32.4315V33.2681L15.2075 33.6705C13.2091 34.1286 11.8133 35.8805 11.8133 37.9311V39.0042H4.7029V35.9444C4.7029 35.6697 4.47967 35.4465 4.20498 35.4465C3.93029 35.4465 3.70705 35.6697 3.70705 35.9444V39.0042H0.995851V33.2946ZM26.4681 39.0042H12.8091V37.9303C12.8091 36.3469 13.8871 34.9942 15.4299 34.6407L17.0041 34.2797C17.2257 35.5328 18.322 36.488 19.6382 36.488C20.9544 36.488 22.0506 35.5328 22.2722 34.2797L23.8465 34.6407C25.3892 34.9942 26.4672 36.3469 26.4672 37.9303V39.0042H26.4681ZM38.2589 39.0042H35.5477V35.9444C35.5477 35.6697 35.3245 35.4465 35.0498 35.4465C34.7751 35.4465 34.5519 35.6697 34.5519 35.9444V39.0042H27.4639V37.9303C27.4639 35.8797 26.0681 34.1278 24.0697 33.6697L22.3145 33.2672V32.4307C22.8398 32.0556 23.2838 31.5726 23.6141 31.0149C24.0274 30.59 24.5552 30.2838 25.1461 30.1295L27.9046 29.4108C28.2042 30.5527 29.2448 31.3975 30.4797 31.3975C31.7145 31.3975 32.7552 30.5527 33.0548 29.4108L35.8133 30.1295C37.2763 30.5104 38.2589 31.7826 38.2589 33.2938V39.0042ZM37.0697 29.5643C36.7593 29.3942 36.4232 29.2598 36.0647 29.166L33.1427 28.4042V27.1486C34.1809 26.5535 35.0025 25.6216 35.4573 24.5029C36.1535 25.9328 37.4091 27.0573 38.9851 27.5676C38.8539 28.5759 38.0822 29.3884 37.0697 29.5643ZM13.5311 9.45062C15.3046 9.45062 16.7693 8.01079 16.8008 6.239C16.805 6.12033 16.7668 6.00166 16.6888 5.90622L14.5842 3.33942H18.2963C18.4656 3.9195 18.9237 4.37676 19.5029 4.54606V13.3394H17.927C17.6523 13.3394 17.429 13.5627 17.429 13.8373C17.429 14.112 17.6523 14.3353 17.927 14.3353H22.0739C22.3485 14.3353 22.5718 14.112 22.5718 13.8373C22.5718 13.5627 22.3485 13.3394 22.0739 13.3394H20.4979V4.54606C21.078 4.37676 21.5353 3.91867 21.7046 3.33942H25.4166L23.3112 5.90622C23.2332 6.00166 23.195 6.12033 23.1992 6.239C23.2307 8.01079 24.6946 9.45062 26.4689 9.45062C28.2432 9.45062 29.7071 8.01079 29.7386 6.239C29.7427 6.12033 29.7046 6.00166 29.6266 5.90622L26.8539 2.52614C26.7593 2.41079 26.6183 2.34357 26.4689 2.34357H21.7046C21.5353 1.76349 21.0772 1.30622 20.4979 1.13693V0.497925C20.4979 0.223237 20.2747 0 20 0C19.7253 0 19.5021 0.223237 19.5021 0.497925V1.13693C18.922 1.30622 18.4647 1.76432 18.2954 2.34357H13.5311C13.3817 2.34357 13.2407 2.41079 13.1461 2.52614L10.3734 5.90622C10.2954 6.00166 10.2573 6.12033 10.2614 6.239C10.2929 8.01079 11.7577 9.45062 13.5311 9.45062ZM26.4689 8.45477C25.4066 8.45477 24.5046 7.71203 24.2606 6.7195H28.678C28.4332 7.71286 27.5311 8.45477 26.4689 8.45477ZM28.1892 5.72365H24.7494L26.4697 3.62656L28.1892 5.72365ZM20 2.05975C20.4307 2.05975 20.7817 2.40996 20.7817 2.84149C20.7817 3.27303 20.4315 3.62324 20 3.62324C19.5685 3.62324 19.2183 3.27303 19.2183 2.84149C19.2183 2.40996 19.5693 2.05975 20 2.05975ZM13.5311 8.45477C12.4689 8.45477 11.5668 7.71203 11.3228 6.7195H15.7402C15.4954 7.71286 14.5934 8.45477 13.5311 8.45477ZM13.5311 3.62656L15.2515 5.72365H11.8116L13.5311 3.62656Z" fill="#B68C5A"/>
</svg>
