<svg width="40" height="40" viewBox="0 0 40 40" fill="none" xmlns="http://www.w3.org/2000/svg">
<path fill-rule="evenodd" clip-rule="evenodd" d="M23.0538 16.3298C22.1167 16.3298 21.3435 15.5332 21.3435 14.6195V13.284H20.0081C19.071 13.284 18.2978 12.4875 18.2978 11.5737C18.2978 10.6366 19.071 9.84002 20.0081 9.84002H21.3435V8.52801C21.3435 7.59087 22.1167 6.79429 23.0538 6.79429C23.991 6.79429 24.7641 7.59087 24.7641 8.52801V9.84002H26.0995C27.0367 9.84002 27.8098 10.6366 27.8098 11.5737C27.8098 12.4875 27.0367 13.284 26.0995 13.284H24.7641V14.6195C24.7641 15.5332 23.991 16.3298 23.0538 16.3298ZM7.75492 39.9927C7.52064 39.9927 7.28635 39.8755 7.14578 39.6412L0.187473 28.1612C4.35635e-05 27.8332 0.117187 27.4115 0.445188 27.2006L5.3652 24.2486C5.6932 24.0378 6.11492 24.1549 6.32578 24.4829L7.16921 25.8652L12.1595 22.9366C14.3618 21.4841 19.6098 23.4755 23.8504 24.7875C25.0921 25.1858 26.1933 26.6384 26.3104 27.9504L35.1196 21.9292C35.2367 21.8589 35.3539 21.8121 35.471 21.8121C41.6327 21.3903 39.7584 26.8961 39.1024 27.2944L26.2167 35.8692C25.2561 36.6892 24.2487 36.8767 23.5458 36.8767C23.0538 36.8767 22.7258 36.783 22.6321 36.7595L13.2607 34.2761L12.5344 34.7447L13.2607 35.963C13.4715 36.291 13.3544 36.7127 13.0264 36.9235L8.10635 39.8755C7.98921 39.9458 7.87207 39.9927 7.75492 39.9927ZM7.8955 27.0835L11.8081 33.5264C12.3469 33.1749 12.8624 32.7064 13.3075 32.8235L23.007 35.4007C23.0538 35.4241 24.2253 35.7287 25.303 34.7681L38.1887 26.2401C38.3996 25.6778 38.7276 24.5532 38.2824 23.8738C37.8373 23.2178 36.7127 23.1241 35.7756 23.1709L25.303 30.3401C25.0218 30.5509 24.6938 30.8086 24.3424 30.7618L16.6109 29.5904C15.6972 29.4498 15.9081 28.0675 16.8218 28.2081L24.2721 29.3326C24.4127 29.3092 24.9515 28.8406 24.9047 28.1144C24.8578 27.3178 24.2253 26.4978 23.4053 26.1229C22.9835 26.0058 22.4447 25.8418 21.8355 25.6309C20.055 25.0452 14.3149 23.1241 13.0029 24.0612L7.8955 27.0835ZM1.75719 28.0441L7.98921 38.3292L11.6909 36.0801L6.48978 27.4818C6.13835 27.1304 6.30235 27.3881 6.16178 26.9195L5.48235 25.7949L1.75719 28.0441ZM8.59835 36.947C7.91892 36.947 7.28635 36.3144 7.28635 35.6115C7.28635 34.0418 9.8635 33.9012 9.8635 35.6115C9.8635 36.3378 9.27779 36.947 8.59835 36.947ZM8.59835 35.5412C8.2235 35.5412 8.66864 36.0567 8.66864 35.5412C8.66864 35.5412 8.64521 35.5412 8.59835 35.5412ZM23.0538 23.1241C22.9133 23.1241 22.7727 23.0772 22.6555 23.0069C17.3841 19.3286 15.3458 14.924 14.5492 11.8549C13.6824 8.52801 14.0572 6.09143 14.0807 5.99772C14.1275 5.71658 14.3149 5.50572 14.5961 5.43543C21.1092 3.608 22.3744 0.49199 22.3978 0.468561C22.679 -0.234298 23.5224 -0.0937263 23.7098 0.468561C23.7098 0.49199 25.0687 3.608 31.5116 5.43543C31.7693 5.50572 31.9801 5.71658 32.027 5.97429C32.027 6.09143 32.4487 8.52801 31.5819 11.8549C30.8087 14.924 28.747 19.3286 23.4521 23.0069C23.335 23.0772 23.1944 23.1241 23.0538 23.1241ZM15.4161 6.65372C15.3692 7.4503 15.3224 9.30116 15.9315 11.5737C16.9624 15.5097 19.3755 18.86 23.0538 21.5543C26.779 18.8835 29.1921 15.5097 30.223 11.5737C30.8087 9.30116 30.7618 7.4503 30.6916 6.65372C26.1464 5.29486 24.0144 3.28 23.0773 2.06171C22.1401 3.28 20.0081 5.29486 15.4161 6.65372ZM20.0081 11.2457C19.6098 11.2457 19.6098 11.8783 20.0081 11.8783C23.1241 11.8783 22.7493 11.5035 22.7493 14.6195C22.7493 15.0177 23.3584 15.0177 23.3584 14.6195C23.3584 11.5035 22.9835 11.8783 26.0995 11.8783C26.4978 11.8783 26.4978 11.2457 26.0995 11.2457C22.9835 11.2457 23.3584 11.6206 23.3584 8.52801C23.3584 8.1063 22.7493 8.1063 22.7493 8.52801C22.7493 11.6206 23.1241 11.2457 20.0081 11.2457Z" fill="#B68C5A"/>
</svg>
