<svg width="46" height="35" viewBox="0 0 46 35" fill="none" xmlns="http://www.w3.org/2000/svg">
<path d="M34.56 34.241C36.48 34.241 38.16 33.881 39.6 33.161C41.04 32.361 42.2 31.321 43.08 30.041C43.88 28.761 44.52 27.241 45 25.481C45.48 23.721 45.72 21.881 45.72 19.961C45.72 16.041 44.72 12.361 42.72 8.92097C40.64 5.48097 37.44 2.76097 33.12 0.76097L32.04 2.92097C34.28 3.96097 36.28 5.48097 38.04 7.48098C39.72 9.40098 40.72 11.441 41.04 13.601C41.52 15.281 41.56 16.921 41.16 18.521C39.4 16.601 37.04 15.641 34.08 15.641C31.36 15.641 29.12 16.481 27.36 18.161C25.6 19.761 24.72 22.001 24.72 24.881C24.72 27.681 25.64 29.961 27.48 31.721C29.32 33.401 31.68 34.241 34.56 34.241ZM9.84 34.241C11.76 34.241 13.44 33.881 14.88 33.161C16.32 32.361 17.48 31.321 18.36 30.041C19.16 28.761 19.8 27.241 20.28 25.481C20.76 23.721 21 21.881 21 19.961C21 16.041 20 12.361 18 8.92097C15.92 5.48097 12.72 2.76097 8.4 0.76097L7.32 2.92097C9.56 3.96097 11.56 5.48097 13.32 7.48098C15 9.40098 16 11.441 16.32 13.601C16.8 15.281 16.84 16.921 16.44 18.521C14.68 16.601 12.32 15.641 9.36 15.641C6.64 15.641 4.4 16.481 2.64 18.161C0.879998 19.761 -1.43051e-06 22.001 -1.43051e-06 24.881C-1.43051e-06 27.681 0.919999 29.961 2.76 31.721C4.6 33.401 6.96 34.241 9.84 34.241Z" fill="#314E52"/>
</svg>
