<svg width="40" height="41" viewBox="0 0 40 41" fill="none" xmlns="http://www.w3.org/2000/svg">
<path d="M33.5516 20.0459C33.5507 19.3025 33.2935 18.5821 32.8233 18.0062C32.3532 17.4303 31.6989 17.0341 30.9707 16.8843V11.0128C30.9699 10.5346 30.7921 10.0736 30.4716 9.71872C30.1511 9.36382 29.7105 9.14013 29.2349 9.09076C28.7592 9.04139 28.2821 9.16984 27.8956 9.45135C27.509 9.73286 27.2403 10.1475 27.1413 10.6153C26.4871 10.9986 25.8182 11.3574 25.1347 11.6916C25.7377 10.2644 25.9334 8.69798 25.6999 7.16631C25.4664 5.63463 24.813 4.19765 23.8121 3.01495C22.8112 1.83225 21.5021 0.950129 20.0301 0.46655C18.5582 -0.0170282 16.981 -0.0831344 15.4737 0.275574C13.9664 0.634282 12.5881 1.40376 11.4917 2.49856C10.3954 3.59336 9.62399 4.97062 9.26317 6.47738C8.90234 7.98415 8.96623 9.56144 9.44774 11.0341C9.92925 12.5067 10.8095 13.8171 11.9908 14.8196L10.9488 14.8841H7.74268C6.83771 14.8853 5.94895 15.1244 5.16552 15.5773C4.38208 16.0303 3.73151 16.6813 3.27902 17.465H2.58089C1.8964 17.465 1.23994 17.737 0.755926 18.221C0.271915 18.705 0 19.3614 0 20.0459C0 20.7304 0.271915 21.3869 0.755926 21.8709C1.23994 22.3549 1.8964 22.6268 2.58089 22.6268H3.27902C3.62237 23.2185 4.07959 23.7362 4.62426 24.1501C5.16892 24.5639 5.79022 24.8657 6.45223 25.038V38.1122C6.45223 38.6256 6.65617 39.1179 7.01918 39.4809C7.38219 39.8439 7.87453 40.0479 8.3879 40.0479H10.9688C11.4822 40.0479 11.9745 39.8439 12.3375 39.4809C12.7005 39.1179 12.9045 38.6256 12.9045 38.1122V29.0791H13.5497C14.0631 29.0791 14.5554 28.8751 14.9184 28.5121C15.2814 28.1491 15.4854 27.6568 15.4854 27.1434V25.5445C19.5991 26.0475 23.5665 27.3869 27.1433 29.4804C27.2442 29.9466 27.5137 30.359 27.9001 30.6387C28.2865 30.9184 28.7625 31.0455 29.2369 30.9958C29.7113 30.9461 30.1506 30.7229 30.4706 30.3692C30.7906 30.0154 30.9687 29.556 30.9707 29.0791V23.2075C31.6989 23.0578 32.3532 22.6615 32.8233 22.0856C33.2935 21.5097 33.5507 20.7894 33.5516 20.0459ZM32.2612 20.0459C32.2595 20.4448 32.1346 20.8335 31.9037 21.1587C31.6727 21.484 31.3468 21.7299 30.9707 21.8629V18.229C31.3468 18.3619 31.6727 18.6079 31.9037 18.9331C32.1346 19.2584 32.2595 19.647 32.2612 20.0459ZM10.3236 8.43191C10.3239 7.18612 10.6521 5.96236 11.2752 4.88361C11.8983 3.80486 12.7944 2.90912 13.8734 2.28643C14.9524 1.66374 16.1763 1.33602 17.4221 1.33621C18.6679 1.3364 19.8917 1.6645 20.9705 2.28753C22.0493 2.91056 22.9451 3.80656 23.5679 4.88551C24.1907 5.96445 24.5186 7.18832 24.5185 8.4341C24.5184 9.67989 24.1904 10.9037 23.5675 11.9826C22.9446 13.0615 22.0486 13.9573 20.9698 14.5802C20.8717 14.6369 20.7902 14.7183 20.7336 14.8164C20.677 14.9145 20.6472 15.0257 20.6471 15.139V17.5496L17.7791 15.6378C17.673 15.5673 17.5484 15.5296 17.421 15.5294C15.5393 15.5271 13.7354 14.7787 12.4048 13.4481C11.0743 12.1176 10.3258 10.3136 10.3236 8.43191ZM13.8187 15.9978C14.8821 16.51 16.0423 16.7902 17.2223 16.8198L20.9343 19.2942C21.0316 19.3592 21.1447 19.3964 21.2615 19.402C21.3784 19.4076 21.4946 19.3813 21.5976 19.326C21.7007 19.2706 21.7868 19.1883 21.8466 19.0878C21.9065 18.9873 21.938 18.8725 21.9376 18.7555V15.501C22.7174 14.9951 23.4073 14.3627 23.9791 13.6298C25.0459 13.1867 26.0876 12.6852 27.0994 12.1277V27.9822C23.0142 25.7245 18.4804 24.3979 13.8226 24.0973L11.614 23.9566V16.1352L13.8187 15.9978ZM2.58089 21.3364C2.23865 21.3364 1.91042 21.2004 1.66841 20.9584C1.4264 20.7164 1.29045 20.3882 1.29045 20.0459C1.29045 19.7037 1.4264 19.3755 1.66841 19.1334C1.91042 18.8914 2.23865 18.7555 2.58089 18.7555H2.75059C2.52433 19.6009 2.52433 20.491 2.75059 21.3364H2.58089ZM3.87134 20.0459C3.87236 19.0195 4.28057 18.0354 5.00636 17.3096C5.73216 16.5838 6.71625 16.1756 7.74268 16.1746H10.3236V23.9173H7.74268C6.71625 23.9162 5.73216 23.508 5.00636 22.7822C4.28057 22.0565 3.87236 21.0724 3.87134 20.0459ZM7.74268 30.3695H9.03313V36.1765H7.74268V30.3695ZM10.9688 38.7574H8.3879C8.21678 38.7574 8.05266 38.6894 7.93166 38.5684C7.81066 38.4474 7.74268 38.2833 7.74268 38.1122V37.467H9.67835C9.84947 37.467 10.0136 37.399 10.1346 37.278C10.2556 37.157 10.3236 36.9929 10.3236 36.8217V29.7243C10.3236 29.5532 10.2556 29.389 10.1346 29.268C10.0136 29.147 9.84947 29.0791 9.67835 29.0791H7.74268V25.2077H10.9494L11.614 25.249V38.1122C11.614 38.2833 11.546 38.4474 11.425 38.5684C11.304 38.6894 11.1399 38.7574 10.9688 38.7574ZM14.1949 27.1434C14.1949 27.3145 14.1269 27.4786 14.0059 27.5996C13.8849 27.7206 13.7208 27.7886 13.5497 27.7886H12.9045V25.3297L13.7433 25.3826C13.8949 25.3916 14.0446 25.4123 14.1949 25.4245V27.1434ZM29.6803 29.0791C29.6803 29.2502 29.6123 29.4143 29.4913 29.5353C29.3703 29.6563 29.2062 29.7243 29.035 29.7243C28.8639 29.7243 28.6998 29.6563 28.5788 29.5353C28.4578 29.4143 28.3898 29.2502 28.3898 29.0791V11.0128C28.3898 10.8417 28.4578 10.6776 28.5788 10.5566C28.6998 10.4356 28.8639 10.3676 29.035 10.3676C29.2062 10.3676 29.3703 10.4356 29.4913 10.5566C29.6123 10.6776 29.6803 10.8417 29.6803 11.0128V29.0791Z" fill="white"/>
<path d="M39.3586 18.1104H34.842C34.6709 18.1104 34.5068 18.1783 34.3858 18.2993C34.2648 18.4203 34.1968 18.5845 34.1968 18.7556V21.3365C34.1968 21.5076 34.2648 21.6717 34.3858 21.7927C34.5068 21.9137 34.6709 21.9817 34.842 21.9817H39.3586C39.5297 21.9817 39.6938 21.9137 39.8148 21.7927C39.9358 21.6717 40.0038 21.5076 40.0038 21.3365V18.7556C40.0038 18.5845 39.9358 18.4203 39.8148 18.2993C39.6938 18.1783 39.5297 18.1104 39.3586 18.1104ZM38.7133 20.6912H35.4872V19.4008H38.7133V20.6912Z" fill="white"/>
<path d="M34.3858 17.2761C34.5068 17.3971 34.6709 17.4651 34.842 17.4651C35.0131 17.4651 35.1772 17.3971 35.2982 17.2761L39.8147 12.7596C39.9357 12.6386 40.0036 12.4745 40.0036 12.3034C40.0036 12.1323 39.9357 11.9682 39.8147 11.8472L37.8791 9.91157C37.7581 9.79061 37.594 9.72266 37.4229 9.72266C37.2518 9.72266 37.0877 9.79061 36.9667 9.91157L32.4501 14.4281C32.3292 14.5491 32.2612 14.7132 32.2612 14.8843C32.2612 15.0554 32.3292 15.2195 32.4501 15.3405L34.3858 17.2761ZM37.4229 11.2801L38.4462 12.3034L34.842 15.9076L33.8187 14.8843L37.4229 11.2801Z" fill="white"/>
<path d="M35.2982 22.8159C35.1772 22.6949 35.0131 22.627 34.842 22.627C34.6709 22.627 34.5068 22.6949 34.3858 22.8159L32.4501 24.7515C32.3292 24.8725 32.2612 25.0366 32.2612 25.2077C32.2612 25.3788 32.3292 25.5429 32.4501 25.6639L36.9667 30.1804C37.0877 30.3014 37.2518 30.3694 37.4229 30.3694C37.594 30.3694 37.7581 30.3014 37.8791 30.1804L39.8147 28.2448C39.9357 28.1238 40.0036 27.9597 40.0036 27.7886C40.0036 27.6175 39.9357 27.4534 39.8147 27.3324L35.2982 22.8159ZM37.4229 28.8119L33.8187 25.2077L34.842 24.1844L38.4462 27.7886L37.4229 28.8119Z" fill="white"/>
<path d="M7.09766 18.1104H9.67855V19.4008H7.09766V18.1104Z" fill="white"/>
<path d="M7.09766 20.6909H9.67855V21.9814H7.09766V20.6909Z" fill="white"/>
<path d="M13.5497 9.07731H12.9045V10.3678H15.4854V9.07731H14.8402V6.49642L16.7758 6.49578V12.9487H15.4854V14.2391H19.3567V12.9487H18.0663V6.49578H20.002V9.07731H19.3567V10.3678H21.9376V9.07731H21.2924V6.49578H22.5822V5.20533H18.0663V3.91553H16.7758V5.20533L12.2593 5.20597V6.49642H13.5497V9.07731Z" fill="white"/>
</svg>
