<svg width="35" height="40" viewBox="0 0 35 40" fill="none" xmlns="http://www.w3.org/2000/svg">
<path d="M33.7392 13.1118H33.3758L30.0205 6.13811C30.6174 5.84374 31.0292 5.22906 31.0292 4.51977C31.0292 3.5254 30.2202 2.71635 29.2257 2.71635C28.5857 2.71635 28.023 3.05175 27.7028 3.5558C26.6257 3.61683 25.5511 3.2935 24.4184 2.95143C22.8419 2.47524 21.0796 1.94381 19.1444 2.51445V1.52C19.1444 0.681827 18.4625 0 17.6244 0C16.7863 0 16.1044 0.681906 16.1044 1.52V2.51445C14.1692 1.94373 12.4068 2.47524 10.8304 2.95143C9.69769 3.2935 8.62261 3.61683 7.54602 3.5558C7.22586 3.05183 6.66308 2.71635 6.02308 2.71635C5.02871 2.71635 4.21966 3.52532 4.21966 4.51977C4.21966 5.22906 4.63141 5.84374 5.22824 6.13811L1.87299 13.1118H1.50966C1.20283 13.1118 0.954102 13.3605 0.954102 13.6673C0.954102 16.4623 3.22792 18.7362 6.02292 18.7362C8.81793 18.7362 11.0918 16.4623 11.0918 13.6673C11.0918 13.3605 10.8431 13.1118 10.5363 13.1118H10.1729L6.81761 6.13819C6.99753 6.04946 7.1607 5.93184 7.30078 5.79104C7.78689 5.86454 8.24666 5.89533 8.6834 5.89533C9.75198 5.89533 10.6851 5.71509 11.5417 5.54969C12.8908 5.28914 14.0651 5.06295 15.4744 5.54795C15.6583 5.93073 15.9413 6.25723 16.2901 6.49374L15.8416 13.6076C14.7264 14.2507 13.9736 15.4546 13.9736 16.8318C13.9736 18.0508 14.5629 19.1347 15.4717 19.8136C14.4971 20.1294 13.5936 20.6516 12.8237 21.359C11.5009 22.5746 10.6838 24.2258 10.5232 26.0087C10.5092 26.1641 10.5613 26.3181 10.6665 26.4334C10.7717 26.5486 10.9206 26.6141 11.0766 26.6141H24.3106C24.4666 26.6141 24.6154 26.5485 24.7207 26.4334C24.8259 26.3182 24.8779 26.1641 24.8639 26.0087C24.7034 24.2258 23.8863 22.5746 22.5634 21.359C21.7935 20.6516 20.89 20.1295 19.9155 19.8136C20.8242 19.1347 21.4137 18.0508 21.4137 16.8318C21.4137 15.3963 20.5959 14.149 19.4022 13.529L18.9587 6.49366C19.3074 6.25716 19.5904 5.93073 19.7742 5.54795C21.1836 5.06303 22.3579 5.28914 23.707 5.54969C24.5637 5.71517 25.4965 5.89533 26.5653 5.89533C27.0019 5.89533 27.4619 5.86446 27.948 5.79104C28.088 5.93184 28.2511 6.04946 28.4311 6.13819L25.0758 13.1119H24.7124C24.4056 13.1119 24.1568 13.3606 24.1568 13.6674C24.1568 16.4624 26.4307 18.7363 29.2257 18.7363C32.0208 18.7363 34.2946 16.4624 34.2946 13.6674C34.2946 13.3606 34.0459 13.1119 33.7391 13.1119L33.7392 13.1118ZM29.2258 3.82755C29.6076 3.82755 29.9181 4.1381 29.9181 4.51985C29.9181 4.9016 29.6076 5.21215 29.2258 5.21215C28.8441 5.21215 28.5335 4.9016 28.5335 4.51985C28.5335 4.1381 28.8441 3.82755 29.2258 3.82755ZM17.6244 5.79208C16.9229 5.79208 16.3521 5.22136 16.3521 4.51977C16.3521 3.81818 16.9229 3.24755 17.6244 3.24755C18.3259 3.24755 18.8966 3.81826 18.8966 4.51977C18.8966 5.22128 18.3259 5.79208 17.6244 5.79208ZM17.6244 1.11111C17.8498 1.11111 18.0333 1.29461 18.0333 1.52V2.17231C17.9003 2.14921 17.7638 2.13651 17.6244 2.13651C17.4849 2.13651 17.3484 2.14921 17.2155 2.17231V1.52C17.2155 1.29453 17.399 1.11111 17.6244 1.11111ZM6.02308 3.82755C6.40483 3.82755 6.71538 4.1381 6.71538 4.51985C6.71538 4.9016 6.40483 5.21215 6.02308 5.21215C5.64133 5.21215 5.33078 4.9016 5.33078 4.51985C5.33078 4.1381 5.64133 3.82755 6.02308 3.82755ZM6.02308 17.6252C4.02927 17.6252 2.37506 16.1433 2.10418 14.223H9.94206C9.67118 16.1433 8.01697 17.6252 6.02308 17.6252ZM3.10609 13.1119L6.02308 7.04914L8.94007 13.1119H3.10609ZM11.331 4.45874C10.2529 4.66699 9.14269 4.88064 7.81293 4.73731C7.81539 4.71676 7.81761 4.69604 7.81935 4.67525C8.97174 4.67334 10.0771 4.33969 11.1516 4.01509C12.601 3.57739 13.984 3.16048 15.4723 3.49652C15.3506 3.75144 15.2734 4.03136 15.2495 4.3262C13.8083 3.98064 12.5521 4.22287 11.3309 4.45874H11.331ZM23.673 25.503H11.7145C12.2559 22.6535 14.7276 20.5733 17.6937 20.5733C20.6599 20.5733 23.1316 22.6535 23.673 25.503ZM20.3026 16.8319C20.3026 18.2704 19.1323 19.4408 17.6937 19.4408C16.2552 19.4408 15.0848 18.2704 15.0848 16.8319C15.0848 15.3933 16.2552 14.223 17.6937 14.223C19.1323 14.223 20.3026 15.3934 20.3026 16.8319ZM18.2653 13.1558C18.0789 13.1269 17.888 13.1119 17.6937 13.1119C17.4503 13.1119 17.2125 13.1361 16.982 13.1809L17.3785 6.89057C17.4594 6.8989 17.5414 6.90319 17.6244 6.90319C17.7074 6.90319 17.7895 6.89882 17.8703 6.89049L18.2652 13.1557L18.2653 13.1558ZM23.9177 4.45874C22.6966 4.22287 21.4405 3.98064 19.9992 4.3262C19.9754 4.03136 19.8982 3.75152 19.7764 3.49652C21.2647 3.16048 22.6479 3.57739 24.0972 4.01509C25.1719 4.33961 26.2772 4.67326 27.4295 4.67517C27.4313 4.69596 27.4334 4.7166 27.4359 4.73723C26.1061 4.88057 24.9957 4.66691 23.9176 4.45866L23.9177 4.45874ZM29.2258 7.04906L32.1428 13.1118H26.3088L29.2258 7.04906ZM29.2258 17.6251C27.2319 17.6251 25.5777 16.1432 25.3068 14.2229H33.1448C32.8739 16.1432 31.2197 17.6251 29.2258 17.6251ZM29.3395 27.1749H24.2545C23.9476 27.1749 23.6989 27.4236 23.6989 27.7305C23.6989 31.0794 20.9743 33.804 17.6252 33.804C14.2762 33.804 11.5516 31.0794 11.5516 27.7305C11.5516 27.4236 11.3029 27.1749 10.996 27.1749H5.90935C5.60252 27.1749 5.35379 27.4236 5.35379 27.7305V29.6799C5.35379 29.9453 5.54149 30.1736 5.80189 30.225L7.86586 30.632L8.67245 32.5763L7.50007 34.3245C7.35229 34.5449 7.38094 34.839 7.56856 35.0268L10.3271 37.7852C10.5147 37.9728 10.809 38.0016 11.0294 37.8537L12.7776 36.6814L14.7219 37.4879L15.1288 39.5519C15.1802 39.8123 15.4085 40 15.6739 40H19.5749C19.8403 40 20.0687 39.8123 20.12 39.5519L20.5269 37.4879L22.4712 36.6813L24.2195 37.8536C24.4398 38.0014 24.7341 37.9728 24.9218 37.7852L27.6803 35.0267C27.868 34.839 27.8967 34.5449 27.7488 34.3244L26.5765 32.5762L27.383 30.6319L29.447 30.2249C29.7073 30.1736 29.8951 29.9452 29.8951 29.6798V27.7304C29.8951 27.4235 29.6464 27.1748 29.3396 27.1748L29.3395 27.1749ZM28.7839 29.2233L26.8762 29.5994C26.694 29.6354 26.5417 29.7601 26.4706 29.9317L25.4361 32.4256C25.3649 32.5974 25.3842 32.7935 25.4878 32.9479L26.5717 34.5641L24.4591 36.6767L22.8428 35.5928C22.6884 35.4892 22.4925 35.4699 22.3205 35.5411L19.8266 36.5756C19.6549 36.6467 19.5303 36.799 19.4943 36.9813L19.1182 38.889H16.1306L15.7545 36.9813C15.7186 36.799 15.594 36.6467 15.4222 36.5756L12.9282 35.5411C12.7567 35.47 12.5604 35.4893 12.4059 35.5928L10.7898 36.6767L8.67713 34.5641L9.76102 32.9479C9.86468 32.7935 9.88404 32.5974 9.81277 32.4256L8.77817 29.9316C8.70697 29.7601 8.55475 29.6355 8.37253 29.5994L6.46491 29.2233V28.286H10.4616C10.7461 31.9891 13.8503 34.9151 17.6252 34.9151C21.4 34.9151 24.5042 31.9891 24.7888 28.286H28.7839V29.2233Z" fill="white"/>
</svg>
