<svg width="41" height="41" viewBox="0 0 41 41" fill="none" xmlns="http://www.w3.org/2000/svg">
<path d="M14.1097 12.4109L25.4138 12.4109C25.5986 12.4109 25.7746 12.3323 25.8981 12.195C26.0217 12.0576 26.0809 11.8741 26.0612 11.6904C25.8028 9.27575 24.2184 7.3059 22.0753 6.46916C22.8171 5.82239 23.2873 4.87162 23.2873 3.8125C23.2873 1.86854 21.7058 0.287109 19.7619 0.287109C17.818 0.287109 16.2365 1.86862 16.2365 3.8125C16.2365 4.87162 16.7066 5.82239 17.4484 6.46916C15.3052 7.3059 13.7208 9.27575 13.4624 11.6905C13.4427 11.8742 13.5019 12.0577 13.6255 12.1951C13.749 12.3325 13.9249 12.4109 14.1097 12.4109ZM19.7618 1.58935C20.9877 1.58935 21.9849 2.58661 21.9849 3.81242C21.9849 5.03823 20.9876 6.03549 19.7618 6.03549C18.536 6.03549 17.5387 5.03823 17.5387 3.81242C17.5387 2.58661 18.536 1.58935 19.7618 1.58935ZM19.7617 7.33781C22.0927 7.33781 24.0743 8.91476 24.6364 11.1085L14.8871 11.1086C15.4491 8.91485 17.4307 7.33781 19.7617 7.33781ZM30.3485 16.0018V14.4585C30.3485 14.0989 30.0569 13.8074 29.6973 13.8074H13.6121C12.7641 11.4437 10.5016 9.74809 7.84992 9.74809C5.19823 9.74809 2.93577 11.4437 2.08779 13.8074H0.651162C0.291558 13.8074 0 14.0989 0 14.4585V33.6694C0 34.029 0.291558 34.3206 0.651162 34.3206H17.6201C19.7614 37.8916 23.6702 40.2871 28.1283 40.2871C34.8795 40.2871 40.3721 34.7946 40.3721 28.0433C40.3721 22.0499 36.0434 17.0492 30.3485 16.0018ZM7.84984 11.0503C10.5064 11.0503 12.6676 13.2116 12.6676 15.8681C12.6676 17.1034 12.3123 17.7106 11.8625 18.4794C11.3533 19.3494 10.7302 20.4145 10.514 22.5499H9.44543V17.8304H10.0651C11.1249 17.8304 11.9872 16.9682 11.9872 15.9084C11.9872 14.8486 11.1249 13.9864 10.0651 13.9864C9.00533 13.9864 8.14311 14.8486 8.14311 15.9084V16.5281H7.55657V15.9084C7.55657 14.8486 6.69435 13.9864 5.63459 13.9864C4.57482 13.9864 3.71252 14.8486 3.71252 15.9084C3.71252 16.9682 4.57482 17.8304 5.63459 17.8304H6.25425V22.5499H5.18577C4.96959 20.4145 4.34643 19.3495 3.8373 18.4794C3.38751 17.7106 3.03214 17.1034 3.03214 15.8681C3.03214 13.2116 5.19343 11.0503 7.84984 11.0503ZM7.03565 27.4071H8.66412V27.6448C8.66412 27.7736 8.55529 27.8824 8.42653 27.8824H7.27316C7.14439 27.8824 7.03565 27.7736 7.03565 27.6448V27.4071ZM9.57558 25.8673C9.57558 25.9961 9.46684 26.1048 9.33807 26.1048H6.36186C6.23309 26.1048 6.12426 25.9961 6.12426 25.8673V25.6297H9.5755L9.57558 25.8673ZM10.4643 24.0899C10.4643 24.2186 10.3555 24.3274 10.2268 24.3274H5.4731C5.34433 24.3274 5.23551 24.2186 5.23551 24.0899V23.8522H10.4642V24.0899H10.4643ZM6.25433 16.5281H5.63467C5.29297 16.5281 5.01493 16.2501 5.01493 15.9084C5.01493 15.5667 5.29297 15.2887 5.63467 15.2887C5.97637 15.2887 6.25433 15.5667 6.25433 15.9084V16.5281ZM8.14319 22.5499H7.55666V17.8304H8.14319V22.5499ZM9.44551 16.5281V15.9084C9.44551 15.5667 9.72348 15.2887 10.0652 15.2887C10.4069 15.2887 10.6849 15.5667 10.6849 15.9084C10.6849 16.2501 10.4069 16.5281 10.0652 16.5281H9.44551ZM1.30232 33.0182V15.1096H1.77849C1.74756 15.3583 1.72981 15.6112 1.72981 15.8681C1.72981 17.4564 2.22974 18.3108 2.71323 19.137C3.24743 20.05 3.79978 20.9944 3.93318 23.2223V24.0898C3.93318 24.7059 4.29783 25.2372 4.82194 25.4832V25.8672C4.82194 26.4923 5.19701 27.0305 5.73332 27.2715V27.6447C5.73332 28.4938 6.42404 29.1846 7.27316 29.1846H8.42653C9.27564 29.1846 9.96644 28.4938 9.96644 27.6447V27.2716C10.5028 27.0306 10.8778 26.4924 10.8778 25.8673V25.4833C11.4018 25.2374 11.7665 24.706 11.7665 24.0899V23.2236C11.8998 20.9947 12.4523 20.0503 12.9865 19.1371C13.47 18.3109 13.97 17.4565 13.97 15.8682C13.97 15.6112 13.9521 15.3584 13.9213 15.1097H29.0461V15.8339C28.743 15.8113 28.437 15.7995 28.1283 15.7995C26.2292 15.7995 24.4298 16.2341 22.8241 17.009H15.1906C14.831 17.009 14.5395 17.3006 14.5395 17.6602C14.5395 18.0198 14.831 18.3114 15.1906 18.3114H20.7079C19.9783 18.869 19.3129 19.5064 18.7251 20.2109H14.3349C13.9753 20.2109 13.6838 20.5024 13.6838 20.862C13.6838 21.2216 13.9753 21.5132 14.3349 21.5132H17.7758C17.396 22.1133 17.0671 22.7485 16.7948 23.4126H13.9272C13.5676 23.4126 13.2761 23.7042 13.2761 24.0638C13.2761 24.4234 13.5676 24.715 13.9272 24.715H16.3445C16.1706 25.3299 16.0443 25.9646 15.9685 26.6145H12.4783C12.1187 26.6145 11.8271 26.9061 11.8271 27.2657C11.8271 27.6253 12.1187 27.9168 12.4783 27.9168H15.8862C15.8858 27.959 15.8846 28.001 15.8846 28.0432C15.8846 28.6453 15.9291 29.2372 16.0135 29.8163H3.437C3.07739 29.8163 2.78583 30.1078 2.78583 30.4674C2.78583 30.827 3.07739 31.1186 3.437 31.1186H16.2759C16.4462 31.7747 16.6701 32.4093 16.9419 33.0182H1.30232ZM28.1283 38.9846C22.0952 38.9846 17.1869 34.0763 17.1869 28.0431C17.1869 22.01 22.0952 17.1017 28.1283 17.1017C34.1614 17.1017 39.0697 22.01 39.0697 28.0432C39.0697 34.0764 34.1614 38.9846 28.1283 38.9846ZM38.2357 27.6102L35.5105 23.0124C35.3605 22.7595 35.0598 22.6379 34.7764 22.717C33.4522 23.0837 32.9968 22.9113 32.4203 22.6928C31.8315 22.4696 31.1739 22.2205 29.8521 22.4021C29.55 21.7521 28.8912 21.3001 28.1284 21.3001C27.3657 21.3001 26.7068 21.7521 26.4046 22.402C25.0828 22.2203 24.4253 22.4696 23.8364 22.6928C23.2599 22.9113 22.8046 23.0837 21.4804 22.717C21.1966 22.638 20.8962 22.7595 20.7463 23.0124L18.0209 27.6102C17.942 27.7433 17.9131 27.9001 17.9394 28.0526C18.2218 29.695 19.6378 30.887 21.3063 30.887C22.9749 30.887 24.3908 29.6949 24.6733 28.0526C24.6995 27.9001 24.6706 27.7433 24.5917 27.6102L22.5861 24.2267C23.368 24.2624 23.8529 24.0792 24.2978 23.9106C24.788 23.7248 25.2545 23.5484 26.2959 23.7021C26.4589 24.2965 26.9037 24.7755 27.4774 24.9854L27.4787 30.9201C25.7291 31.1418 24.1667 32.2426 23.3867 33.8511C23.2889 34.0529 23.3018 34.2908 23.4208 34.4809C23.5399 34.6709 23.7484 34.7863 23.9726 34.7863H32.2879C32.5121 34.7863 32.7206 34.6709 32.8397 34.4809C32.9587 34.2908 32.9716 34.0529 32.8738 33.8511C32.0938 32.2424 30.531 31.1415 28.781 30.9201L28.7797 24.9851C29.353 24.7752 29.7974 24.2963 29.9605 23.7021C31.0017 23.5483 31.4684 23.7249 31.9586 23.9106C32.4035 24.0793 32.8883 24.2627 33.6702 24.2267L31.6647 27.6102C31.5858 27.7433 31.5569 27.9001 31.5832 28.0526C31.8656 29.695 33.2816 30.887 34.9501 30.887C36.6187 30.887 38.0347 29.6949 38.3171 28.0526C38.3434 27.9001 38.3145 27.7433 38.2357 27.6102ZM21.3064 29.5847C20.5566 29.5847 19.8907 29.195 19.5145 28.5934H23.0983C22.722 29.195 22.0561 29.5847 21.3064 29.5847ZM22.8888 27.291H19.724L21.3064 24.6215L22.8888 27.291ZM28.1283 22.6024C28.458 22.6024 28.7261 22.8706 28.7261 23.2002C28.7261 23.5299 28.458 23.798 28.1283 23.798C27.7987 23.798 27.5305 23.5299 27.5305 23.2002C27.5305 22.8706 27.7987 22.6024 28.1283 22.6024ZM31.0747 33.484H25.1861C25.9253 32.6618 26.9816 32.1805 28.1304 32.1805C29.2793 32.1805 30.3355 32.6619 31.0747 33.484ZM34.9503 24.6215L36.5326 27.291H33.368L34.9503 24.6215ZM34.9503 29.5847C34.2006 29.5847 33.5347 29.195 33.1585 28.5934H36.7422C36.366 29.195 35.7001 29.5847 34.9503 29.5847Z" fill="white"/>
</svg>
