<svg width="40" height="40" viewBox="0 0 40 40" fill="none" xmlns="http://www.w3.org/2000/svg">
<path d="M7.5 17.8125V18.24C7.08332 18.3868 6.73203 18.6763 6.50835 19.0572C6.28467 19.4382 6.20302 19.886 6.27788 20.3214C6.35274 20.7567 6.57927 21.1516 6.91735 21.4359C7.25543 21.7203 7.68323 21.8758 8.125 21.875C8.29076 21.875 8.44973 21.9408 8.56694 22.0581C8.68415 22.1753 8.75 22.3342 8.75 22.5C8.75 22.6658 8.68415 22.8247 8.56694 22.9419C8.44973 23.0592 8.29076 23.125 8.125 23.125H6.875C6.70924 23.125 6.55027 23.1908 6.43306 23.3081C6.31585 23.4253 6.25 23.5842 6.25 23.75C6.25 23.9158 6.31585 24.0747 6.43306 24.1919C6.55027 24.3092 6.70924 24.375 6.875 24.375H7.5V24.6875C7.5 24.8533 7.56585 25.0122 7.68306 25.1294C7.80027 25.2467 7.95924 25.3125 8.125 25.3125C8.29076 25.3125 8.44973 25.2467 8.56694 25.1294C8.68415 25.0122 8.75 24.8533 8.75 24.6875V24.26C9.16668 24.1132 9.51797 23.8237 9.74165 23.4428C9.96533 23.0618 10.047 22.614 9.97212 22.1786C9.89726 21.7433 9.67073 21.3484 9.33265 21.0641C8.99457 20.7797 8.56677 20.6242 8.125 20.625C7.95924 20.625 7.80027 20.5592 7.68306 20.4419C7.56585 20.3247 7.5 20.1658 7.5 20C7.5 19.8342 7.56585 19.6753 7.68306 19.5581C7.80027 19.4408 7.95924 19.375 8.125 19.375H9.375C9.54076 19.375 9.69973 19.3092 9.81694 19.1919C9.93415 19.0747 10 18.9158 10 18.75C10 18.5842 9.93415 18.4253 9.81694 18.3081C9.69973 18.1908 9.54076 18.125 9.375 18.125H8.75V17.8125C8.75 17.6467 8.68415 17.4878 8.56694 17.3706C8.44973 17.2533 8.29076 17.1875 8.125 17.1875C7.95924 17.1875 7.80027 17.2533 7.68306 17.3706C7.56585 17.4878 7.5 17.6467 7.5 17.8125Z" fill="white"/>
<path d="M20 9.375C20.3452 9.375 20.625 9.09518 20.625 8.75C20.625 8.40482 20.3452 8.125 20 8.125C19.6548 8.125 19.375 8.40482 19.375 8.75C19.375 9.09518 19.6548 9.375 20 9.375Z" fill="white"/>
<path d="M30.3125 23.956C30.456 24.0389 30.6266 24.0614 30.7867 24.0185C30.9468 23.9756 31.0834 23.8708 31.1662 23.7273L33.6662 19.3973C33.7478 19.2538 33.7693 19.0839 33.7261 18.9246C33.6828 18.7653 33.5783 18.6296 33.4354 18.5471C33.2925 18.4646 33.1227 18.442 32.9632 18.4841C32.8036 18.5263 32.6672 18.6299 32.5837 18.7723L30.0837 23.1023C30.0009 23.2458 29.9784 23.4164 30.0213 23.5765C30.0642 23.7366 30.1689 23.8732 30.3125 23.956Z" fill="white"/>
<path d="M29.3974 20.5413C29.5045 20.6031 29.6275 20.6317 29.7508 20.6237C29.8742 20.6156 29.9924 20.5711 30.0904 20.4959C30.1885 20.4206 30.2621 20.318 30.3018 20.2009C30.3415 20.0839 30.3457 19.9576 30.3137 19.8382C30.2817 19.7188 30.215 19.6116 30.1221 19.5301C30.0291 19.4486 29.9141 19.3965 29.7915 19.3803C29.669 19.3642 29.5444 19.3848 29.4335 19.4395C29.3227 19.4941 29.2305 19.5805 29.1687 19.6875C29.0858 19.8311 29.0634 20.0016 29.1063 20.1618C29.1492 20.3219 29.2539 20.4584 29.3974 20.5413Z" fill="white"/>
<path d="M33.4998 22.1875C33.4379 22.2945 33.4093 22.4175 33.4174 22.5409C33.4254 22.6642 33.4699 22.7824 33.5452 22.8805C33.6204 22.9785 33.7231 23.0521 33.8401 23.0918C33.9572 23.1316 34.0834 23.1357 34.2028 23.1037C34.3222 23.0717 34.4294 23.005 34.5109 22.9121C34.5924 22.8192 34.6445 22.7041 34.6607 22.5816C34.6768 22.459 34.6562 22.3344 34.6016 22.2236C34.5469 22.1127 34.4606 22.0205 34.3535 21.9587C34.21 21.8759 34.0394 21.8534 33.8793 21.8963C33.7192 21.9392 33.5826 22.0439 33.4998 22.1875Z" fill="white"/>
<path d="M39.9463 26.6213L38.0288 22.3056C38.246 21.0905 38.0942 19.8381 37.5929 18.71C37.0916 17.5819 36.2638 16.63 35.2163 15.9769L32.8369 10.625H35C35.4973 10.625 35.9742 10.4275 36.3258 10.0758C36.6775 9.72419 36.875 9.24728 36.875 8.75C36.875 8.25272 36.6775 7.77581 36.3258 7.42417C35.9742 7.07254 35.4973 6.875 35 6.875H22.4837C22.3099 6.64493 22.1051 6.44007 21.875 6.26625V3.75C22.538 3.75 23.1739 3.48661 23.6428 3.01777C24.1116 2.54893 24.375 1.91304 24.375 1.25V0.625C24.375 0.45924 24.3092 0.300269 24.1919 0.183058C24.0747 0.065848 23.9158 0 23.75 0L16.25 0C16.0842 0 15.9253 0.065848 15.8081 0.183058C15.6908 0.300269 15.625 0.45924 15.625 0.625V1.25C15.625 1.91304 15.8884 2.54893 16.3572 3.01777C16.8261 3.48661 17.462 3.75 18.125 3.75V6.26625C17.8949 6.44007 17.6901 6.64493 17.5162 6.875H5C4.50272 6.875 4.02581 7.07254 3.67417 7.42417C3.32254 7.77581 3.125 8.25272 3.125 8.75C3.125 9.24728 3.32254 9.72419 3.67417 10.0758C4.02581 10.4275 4.50272 10.625 5 10.625H7.16313L4.785 15.9769C3.73748 16.63 2.90967 17.5819 2.40836 18.71C1.90705 19.8381 1.75523 21.0905 1.9725 22.3056L0.05375 26.6213C0.018286 26.7011 -2.49499e-05 26.7876 2.55148e-08 26.875V27.5C0.000992437 28.3285 0.330551 29.1228 0.916387 29.7086C1.50222 30.2944 2.2965 30.624 3.125 30.625H13.125C13.9535 30.624 14.7478 30.2944 15.3336 29.7086C15.9194 29.1228 16.249 28.3285 16.25 27.5V26.875C16.25 26.7876 16.2317 26.7011 16.1962 26.6213L14.2788 22.3056C14.496 21.0905 14.3442 19.8381 13.8429 18.71C13.3416 17.5819 12.5138 16.63 11.4663 15.9769L9.08687 10.625H17.5162C17.6901 10.8551 17.8949 11.0599 18.125 11.2338V32.5H16.875C16.212 32.5 15.5761 32.7634 15.1072 33.2322C14.6384 33.7011 14.375 34.337 14.375 35V35.625C13.712 35.625 13.0761 35.8884 12.6072 36.3572C12.1384 36.8261 11.875 37.462 11.875 38.125V39.375C11.875 39.5408 11.9408 39.6997 12.0581 39.8169C12.1753 39.9342 12.3342 40 12.5 40H27.5C27.6658 40 27.8247 39.9342 27.9419 39.8169C28.0592 39.6997 28.125 39.5408 28.125 39.375V38.125C28.125 37.462 27.8616 36.8261 27.3928 36.3572C26.9239 35.8884 26.288 35.625 25.625 35.625V35C25.625 34.337 25.3616 33.7011 24.8928 33.2322C24.4239 32.7634 23.788 32.5 23.125 32.5H21.875V11.2338C22.1051 11.0599 22.3099 10.8551 22.4837 10.625H30.9131L28.5381 15.9769C27.4906 16.63 26.6628 17.5819 26.1615 18.71C25.6602 19.8381 25.5084 21.0905 25.7256 22.3056L23.8081 26.6213C23.7712 26.7008 23.7514 26.7873 23.75 26.875V27.5C23.751 28.3285 24.0806 29.1228 24.6664 29.7086C25.2522 30.2944 26.0465 30.624 26.875 30.625H36.875C37.7035 30.624 38.4978 30.2944 39.0836 29.7086C39.6694 29.1228 39.999 28.3285 40 27.5V26.875C40 26.7876 39.9817 26.7011 39.9463 26.6213ZM2.555 24.0706C2.99217 24.9281 3.6204 25.6737 4.39125 26.25H1.58687L2.555 24.0706ZM13.125 29.375H3.125C2.62772 29.375 2.15081 29.1775 1.79917 28.8258C1.44754 28.4742 1.25 27.9973 1.25 27.5H15C15 27.9973 14.8025 28.4742 14.4508 28.8258C14.0992 29.1775 13.6223 29.375 13.125 29.375ZM14.6631 26.25H11.8588C12.6296 25.6737 13.2578 24.9281 13.695 24.0706L14.6631 26.25ZM13.125 21.25C13.125 22.2389 12.8318 23.2056 12.2823 24.0279C11.7329 24.8501 10.952 25.491 10.0384 25.8694C9.12479 26.2478 8.11945 26.3469 7.14955 26.1539C6.17964 25.961 5.28873 25.4848 4.58947 24.7855C3.8902 24.0863 3.414 23.1954 3.22107 22.2255C3.02815 21.2555 3.12716 20.2502 3.5056 19.3366C3.88404 18.423 4.5249 17.6421 5.34715 17.0927C6.16939 16.5432 7.13609 16.25 8.125 16.25C9.45063 16.2515 10.7215 16.7788 11.6589 17.7161C12.5962 18.6535 13.1235 19.9244 13.125 21.25ZM9.76313 15.225C8.69165 14.925 7.55835 14.925 6.48687 15.225L8.125 11.5387L9.76313 15.225ZM16.9375 9.375H5C4.83424 9.375 4.67527 9.30915 4.55806 9.19194C4.44085 9.07473 4.375 8.91576 4.375 8.75C4.375 8.58424 4.44085 8.42527 4.55806 8.30806C4.67527 8.19085 4.83424 8.125 5 8.125H16.9375C16.8533 8.53741 16.8533 8.96259 16.9375 9.375ZM16.875 1.25H23.125C23.125 1.58152 22.9933 1.89946 22.7589 2.13388C22.5245 2.3683 22.2065 2.5 21.875 2.5H18.125C17.7935 2.5 17.4755 2.3683 17.2411 2.13388C17.0067 1.89946 16.875 1.58152 16.875 1.25ZM20.625 3.75V5.6875C20.2126 5.60332 19.7874 5.60332 19.375 5.6875V3.75H20.625ZM25.625 36.875C25.9565 36.875 26.2745 37.0067 26.5089 37.2411C26.7433 37.4755 26.875 37.7935 26.875 38.125V38.75H13.125V38.125C13.125 37.7935 13.2567 37.4755 13.4911 37.2411C13.7255 37.0067 14.0435 36.875 14.375 36.875H25.625ZM23.125 33.75C23.4565 33.75 23.7745 33.8817 24.0089 34.1161C24.2433 34.3505 24.375 34.6685 24.375 35V35.625H15.625V35C15.625 34.6685 15.7567 34.3505 15.9911 34.1161C16.2255 33.8817 16.5435 33.75 16.875 33.75H23.125ZM19.375 32.5V11.8125C19.7874 11.8967 20.2126 11.8967 20.625 11.8125V32.5H19.375ZM20 10.625C19.6292 10.625 19.2666 10.515 18.9583 10.309C18.65 10.103 18.4096 9.81014 18.2677 9.46753C18.1258 9.12492 18.0887 8.74792 18.161 8.38421C18.2334 8.02049 18.412 7.6864 18.6742 7.42417C18.9364 7.16195 19.2705 6.98337 19.6342 6.91103C19.9979 6.83868 20.3749 6.87581 20.7175 7.01773C21.0601 7.15964 21.353 7.39996 21.559 7.70831C21.765 8.01665 21.875 8.37916 21.875 8.75C21.875 9.24728 21.6775 9.72419 21.3258 10.0758C20.9742 10.4275 20.4973 10.625 20 10.625ZM38.4131 26.25H35.6087C36.3796 25.6737 37.0078 24.9281 37.445 24.0706L38.4131 26.25ZM23.0625 9.375C23.1467 8.96259 23.1467 8.53741 23.0625 8.125H35C35.1658 8.125 35.3247 8.19085 35.4419 8.30806C35.5592 8.42527 35.625 8.58424 35.625 8.75C35.625 8.91576 35.5592 9.07473 35.4419 9.19194C35.3247 9.30915 35.1658 9.375 35 9.375H23.0625ZM31.875 11.5387L33.5131 15.2262C32.4416 14.9262 31.3084 14.9262 30.2369 15.2262L31.875 11.5387ZM31.875 16.25C32.8639 16.25 33.8306 16.5432 34.6529 17.0927C35.4751 17.6421 36.116 18.423 36.4944 19.3366C36.8728 20.2502 36.9719 21.2555 36.7789 22.2255C36.586 23.1954 36.1098 24.0863 35.4105 24.7855C34.7113 25.4848 33.8204 25.961 32.8505 26.1539C31.8805 26.3469 30.8752 26.2478 29.9616 25.8694C29.048 25.491 28.2671 24.8501 27.7177 24.0279C27.1682 23.2056 26.875 22.2389 26.875 21.25C26.8765 19.9244 27.4038 18.6535 28.3411 17.7161C29.2785 16.7788 30.5494 16.2515 31.875 16.25ZM26.305 24.0706C26.7422 24.9281 27.3704 25.6737 28.1413 26.25H25.3369L26.305 24.0706ZM36.875 29.375H26.875C26.3777 29.375 25.9008 29.1775 25.5492 28.8258C25.1975 28.4742 25 27.9973 25 27.5H38.75C38.75 27.9973 38.5525 28.4742 38.2008 28.8258C37.8492 29.1775 37.3723 29.375 36.875 29.375Z" fill="white"/>
</svg>
