<svg width="105" height="100" viewBox="0 0 105 100" fill="none" xmlns="http://www.w3.org/2000/svg">
<path fill-rule="evenodd" clip-rule="evenodd" d="M2.16364 61.0903V72.6312H9.30684V70.8657H4.50962V61.0903H2.16364Z" fill="white"/>
<path fill-rule="evenodd" clip-rule="evenodd" d="M13.4407 67.1468V65.4502C13.4407 63.6304 14.4317 62.6983 15.7688 62.6983C17.1059 62.6983 18.0972 63.6304 18.0972 65.4502V67.1468H13.4407ZM20.4371 72.6311V65.4996C20.4371 62.5898 18.3963 60.8931 15.7631 60.8931C13.1299 60.8931 11.089 62.5898 11.089 65.4996V72.6311H13.4346V68.9075H18.0854V72.6311H20.4371Z" fill="white"/>
<path fill-rule="evenodd" clip-rule="evenodd" d="M30.7071 61.0903H29.2646L26.6136 68.8088L23.9337 61.0903H21.5469L25.9099 72.7002H27.3352L29.9858 64.9669L32.6425 72.7002H34.0618L38.4252 61.0903H36.038L33.3638 68.8088L30.7071 61.0903Z" fill="white"/>
<path fill-rule="evenodd" clip-rule="evenodd" d="M52.6642 66.851C52.6642 69.6572 51.1395 71.043 49.6205 71.043C48.0957 71.043 46.5766 69.6572 46.5766 66.851C46.5766 64.0644 48.1016 62.6833 49.6205 62.6833C51.1453 62.6833 52.6642 64.0644 52.6642 66.851ZM44.1898 66.851C44.1898 70.2984 46.5358 72.8235 49.6205 72.8235C52.7053 72.8235 55.051 70.2984 55.051 66.851C55.051 63.4085 52.7053 60.8979 49.6205 60.8979C46.5299 60.8979 44.1898 63.4085 44.1898 66.851Z" fill="white"/>
<path fill-rule="evenodd" clip-rule="evenodd" d="M64.9511 62.8561V61.0903H57.562V72.6312H59.9076V67.1815H64.5173V65.4157H59.9076V62.8561H64.9511Z" fill="white"/>
<path fill-rule="evenodd" clip-rule="evenodd" d="M74.499 62.8561V61.0903H67.1096V72.6312H69.4552V67.1815H74.0709V65.4157H69.4552V62.8561H74.499Z" fill="white"/>
<path fill-rule="evenodd" clip-rule="evenodd" d="M82.4855 62.5455V61.0903H76.3335V62.5455H78.2217V71.1812H76.3335V72.6312H82.4855V71.1812H80.5677V62.5455H82.4855Z" fill="white"/>
<path fill-rule="evenodd" clip-rule="evenodd" d="M89.8514 62.6984C91.0009 62.6984 91.822 63.1962 92.5081 63.9804L93.7867 62.9055C92.9422 61.6084 91.4996 60.8979 89.6463 60.8979C86.2742 60.8979 84.0455 63.5809 84.0455 66.8705C84.0455 70.1601 86.2683 72.8235 89.6463 72.8235C91.4996 72.8235 92.8953 72.1134 93.7867 70.8163L92.5081 69.7606C91.8278 70.5202 91.0068 71.0234 89.8514 71.0234C88.0217 71.0234 86.4323 69.519 86.4323 66.8705C86.4323 64.2221 88.0217 62.6984 89.8514 62.6984Z" fill="white"/>
<path fill-rule="evenodd" clip-rule="evenodd" d="M103.206 62.8561V61.0903H95.9457V72.6312H103.411V70.8657H98.2917V67.1815H102.631V65.4157H98.2917V62.8561H103.206Z" fill="white"/>
<path fill-rule="evenodd" clip-rule="evenodd" d="M105 76.6064H0V78.8951H105V76.6064Z" fill="white"/>
<path fill-rule="evenodd" clip-rule="evenodd" d="M105 54.8774H0V57.1658H105V54.8774Z" fill="white"/>
<path fill-rule="evenodd" clip-rule="evenodd" d="M62.3755 31.2976C62.3755 30.5183 63.126 29.887 64.0468 29.887C64.9734 29.887 65.7241 30.5183 65.7241 31.2976C65.7241 32.0768 64.9734 32.7031 64.0468 32.7031C63.126 32.7031 62.3755 32.0719 62.3755 31.2976ZM40.9463 32.7031C40.0197 32.7031 39.2689 32.0719 39.2689 31.2976C39.2689 30.5183 40.0197 29.887 40.9463 29.887C41.8729 29.887 42.6236 30.5183 42.6236 31.2976C42.6236 32.0719 41.8729 32.7031 40.9463 32.7031ZM68.7151 31.2976C68.7151 29.1325 66.6274 27.3765 64.0529 27.3765H40.952C38.3774 27.3765 36.2897 29.1275 36.2897 31.2976C36.2897 33.4627 38.3774 35.2184 40.952 35.2184C43.5266 35.2184 45.6143 33.4627 45.6143 31.2976H59.3963C59.3963 33.4627 61.484 35.2184 64.0586 35.2184C66.6273 35.2184 68.7151 33.4578 68.7151 31.2976Z" fill="white"/>
<path fill-rule="evenodd" clip-rule="evenodd" d="M43.6498 35.4159V53.1807H51.8249V32.2744H46.5996C46.0777 33.9266 45.3447 34.9473 43.6498 35.4159Z" fill="white"/>
<path fill-rule="evenodd" clip-rule="evenodd" d="M58.4764 32.2793H53.1744V53.1859H61.3439V35.4211C59.391 34.8638 59.0042 33.8871 58.4764 32.2793Z" fill="white"/>
<path fill-rule="evenodd" clip-rule="evenodd" d="M43.6498 80.8838V94.0818L52.3705 100L61.3492 94.0818V80.8838H53.1737V90.0424L52.4993 90.3681L51.8249 90.0424V80.8838H43.6498Z" fill="white"/>
<path fill-rule="evenodd" clip-rule="evenodd" d="M71.4781 22.9879C71.7538 23.0865 72.0059 23.18 72.3637 23.2934C73.0264 23.5055 73.6304 23.6486 74.2579 23.7768C75.4954 24.0284 76.7094 24.1714 77.8764 24.2504C80.2047 24.4131 82.351 24.339 84.1749 24.2058C85.641 24.0924 86.8962 23.9298 87.8814 23.7621C88.4444 24.5759 89.4824 25.1233 90.6788 25.1233C92.4616 25.1233 93.9103 23.9099 93.9103 22.4057C93.9103 20.9064 92.4675 19.6884 90.6788 19.6884C88.896 19.6884 87.4533 20.9065 87.4533 22.4009C86.5443 22.4551 85.4067 22.4847 84.1047 22.4551C82.3688 22.4107 80.3453 22.2727 78.2634 21.9126C77.2253 21.7351 76.1757 21.5031 75.1729 21.1875C74.6802 21.0346 74.1639 20.8521 73.7475 20.6598C73.5598 20.5809 73.2843 20.4477 73.0262 20.3244L72.2638 19.9448C70.1174 18.8993 67.842 18.0017 65.6017 17.3359C63.3673 16.6602 61.1738 16.2162 59.2385 15.9795C58.5582 15.8956 57.9075 15.8363 57.3034 15.7919L56.793 9.85878C58.2415 8.82307 59.1508 7.33381 59.1508 5.67668C59.1508 2.53996 55.9074 0 51.9077 0C47.908 0 44.6711 2.54489 44.6711 5.67668C44.6711 7.33381 45.5858 8.82307 47.0285 9.85878L46.5242 15.7724C45.8321 15.8168 45.0873 15.8808 44.2956 15.9795C42.3603 16.2162 40.1668 16.6602 37.9324 17.3359C35.6921 18.0017 33.4108 18.8993 31.2702 19.9448L30.5139 20.3244C30.2558 20.4477 29.9799 20.5809 29.7923 20.6598C29.37 20.8472 28.8599 21.0296 28.3673 21.1875C27.3644 21.5031 26.3148 21.7351 25.2768 21.9126C23.1948 22.2727 21.1713 22.4107 19.4354 22.4551C18.2449 22.4847 17.1892 22.46 16.3213 22.4156V22.4057C16.3213 20.9064 14.8729 19.6884 13.0901 19.6884C11.3072 19.6884 9.85852 20.9064 9.85852 22.4057C9.85852 23.905 11.3014 25.1233 13.0901 25.1233C14.2689 25.1233 15.2951 24.5906 15.8581 23.8015C16.8081 23.9544 17.9988 24.1022 19.3653 24.2058C21.1891 24.339 23.3354 24.4131 25.6637 24.2504C26.8308 24.1714 28.0448 24.0284 29.2822 23.7768C29.9097 23.6486 30.5079 23.5055 31.1764 23.2934C31.5342 23.18 31.7864 23.0864 32.062 22.9927L32.8889 22.692C34.9884 21.9522 37.1525 21.3751 39.1934 21.0102C41.2343 20.6403 43.1521 20.4725 44.7649 20.4478C45.2516 20.438 45.7032 20.4478 46.1254 20.4626L45.6035 26.6128H58.224L57.6961 20.4527C58.0362 20.4428 58.3942 20.438 58.7696 20.4478C60.3882 20.4676 62.3001 20.6353 64.341 21.0102C66.3819 21.3751 68.5398 21.9522 70.6452 22.692L71.4781 22.9879Z" fill="white"/>
<path fill-rule="evenodd" clip-rule="evenodd" d="M33.5104 43.6283H23.1593V31.4168L33.5104 43.6283ZM22.608 31.4216V43.6331H12.2569L22.608 31.4216ZM11.5593 43.653H10.3451V45.8968H11.9637L13.465 50.0004C13.7817 50.8635 14.6496 51.4453 15.6173 51.4453H30.2319C31.2055 51.4453 32.0676 50.8635 32.3843 50.0004L33.8855 45.8968H35.4809V43.653H34.2023L23.1535 30.6227V29.2515C23.9394 29.1381 24.5374 28.5711 24.5374 27.8806C24.5374 27.1902 23.9394 26.618 23.1535 26.5095V24.3442H22.6023V26.5095C21.8164 26.618 21.2181 27.1902 21.2181 27.8806C21.2181 28.5711 21.8164 29.1432 22.6023 29.2566V30.6275L11.5593 43.653Z" fill="white"/>
<path fill-rule="evenodd" clip-rule="evenodd" d="M81.1009 31.4216V43.6331H70.7498L81.1009 31.4216ZM91.9972 43.6283H81.6464V31.4168L91.9972 43.6283ZM71.9579 50.0004C72.2746 50.8635 73.1426 51.4453 74.1102 51.4453H88.7191C89.6927 51.4453 90.5548 50.8635 90.8715 50.0004L92.3784 45.8968H93.9738V43.653H92.6952L81.6464 30.6227V29.2515C82.4323 29.1381 83.0303 28.5711 83.0303 27.8806C83.0303 27.1902 82.4323 26.618 81.6464 26.5095V24.3442H81.0952V26.5095C80.3093 26.618 79.711 27.1902 79.711 27.8806C79.711 28.5711 80.3093 29.1432 81.0952 29.2566V30.6275L70.0461 43.6578H68.8323V45.902H70.4509L71.9579 50.0004Z" fill="white"/>
</svg>
