<svg width="105" height="100" viewBox="0 0 105 100" fill="none" xmlns="http://www.w3.org/2000/svg">
<path fill-rule="evenodd" clip-rule="evenodd" d="M1.45917 77.9116V92.2221H8.49152V90.0365H3.76739V77.9116H1.45917Z" fill="white"/>
<path fill-rule="evenodd" clip-rule="evenodd" d="M12.5638 85.4202V83.3192C12.5638 81.0641 13.5348 79.9067 14.8531 79.9067C16.1714 79.9067 17.1424 81.0641 17.1424 83.3192V85.4202H12.5638ZM19.4507 92.2205V83.3787C19.4507 79.7774 17.4428 77.6714 14.8531 77.6714C12.2634 77.6714 10.2556 79.7774 10.2556 83.3787V92.2205H12.5684V87.6058H17.1473V92.2205H19.4507Z" fill="white"/>
<path fill-rule="evenodd" clip-rule="evenodd" d="M28.8527 82.7197L31.4658 92.3115H32.8638L37.1612 77.9116H34.8109L32.1743 87.4835L29.5611 77.9116H28.1442L25.5311 87.4835L22.8944 77.9116H20.5441L24.8415 92.3115H26.2395L28.8527 82.7197Z" fill="white"/>
<path fill-rule="evenodd" clip-rule="evenodd" d="M45.1837 85.0574C45.1837 81.6052 46.6802 79.8864 48.1815 79.8864C49.6828 79.8864 51.1841 81.6052 51.1841 85.0574C51.1841 88.5344 49.6874 90.2484 48.1815 90.2484C46.6802 90.2484 45.1837 88.5344 45.1837 85.0574ZM53.5298 85.0574C53.5298 80.7905 51.2216 77.6763 48.1815 77.6763C45.1414 77.6763 42.8331 80.7856 42.8331 85.0574C42.8331 89.3292 45.1414 92.4585 48.1815 92.4585C51.2216 92.4585 53.5298 89.3242 53.5298 85.0574Z" fill="white"/>
<path fill-rule="evenodd" clip-rule="evenodd" d="M63.2789 80.1021V77.9116H56.0023V92.2221H58.3151V85.4668H62.8519V83.276H58.3151V80.1021H63.2789Z" fill="white"/>
<path fill-rule="evenodd" clip-rule="evenodd" d="M72.6805 80.1021V77.9116H65.4042V92.2221H67.7124V85.4668H72.2535V83.276H67.7124V80.1021H72.6805Z" fill="white"/>
<path fill-rule="evenodd" clip-rule="evenodd" d="M74.4821 90.4191V92.2221H80.5385V90.4191H78.6573V79.7146H80.5385V77.9116H74.4821V79.7146H76.3444V90.4191H74.4821Z" fill="white"/>
<path fill-rule="evenodd" clip-rule="evenodd" d="M87.7915 79.9064C88.9269 79.9064 89.7385 80.5274 90.4047 81.496L91.6575 80.1647C90.8271 78.5554 89.41 77.6763 87.5851 77.6763C84.2635 77.6763 82.0726 81.0043 82.0726 85.0774C82.0726 89.1505 84.2635 92.4585 87.5851 92.4585C89.41 92.4585 90.7848 91.5794 91.6575 89.97L90.4047 88.6637C89.7338 89.6074 88.9222 90.2283 87.7915 90.2283C85.99 90.2283 84.4278 88.3607 84.4278 85.0774C84.4278 81.7941 85.99 79.9064 87.7915 79.9064Z" fill="white"/>
<path fill-rule="evenodd" clip-rule="evenodd" d="M100.942 80.1021V77.9116H93.792V92.2221H101.148V90.0365H96.1002V85.4668H100.374V83.276H96.1002V80.1021H100.942Z" fill="white"/>
<path fill-rule="evenodd" clip-rule="evenodd" d="M66.713 62.7841C66.5301 62.2129 66.0281 61.8255 65.4557 61.8255H64.6628V59.6699H36.9784V61.8255H36.5844C36.0167 61.8255 35.5053 62.2129 35.327 62.7841L33.8538 71.4471H0.00494385V73.7518H105V71.4471H68.1909L66.713 62.7841Z" fill="white"/>
<path fill-rule="evenodd" clip-rule="evenodd" d="M36.6451 41.0579C36.8375 41.2665 37.1565 41.2665 37.3535 41.0579L37.9351 40.4418C38.1275 40.2332 38.1275 39.9004 37.9351 39.6918L31.1418 32.4992C30.9448 32.2906 30.6305 32.2906 30.4334 32.4992L29.8519 33.1153C29.6548 33.3239 29.6548 33.6567 29.8519 33.8653L30.2739 34.3122L29.345 35.6683L29.331 35.6535C29.1246 35.4349 28.7869 35.4349 28.5805 35.6535L28.4491 35.7926C28.2379 36.0112 28.2379 36.3687 28.4491 36.5873L28.5006 36.647L27.8391 37.3473C27.3653 37.849 27.3653 38.6635 27.8391 39.1652L31.5407 43.0843C32.0146 43.586 32.7838 43.586 33.2577 43.0843L33.9194 42.384L34.0694 42.5431C34.2806 42.7667 34.6137 42.7667 34.8248 42.5431L34.956 42.404C35.1014 42.245 35.1389 42.0215 35.0779 41.8228L36.4106 40.8044L36.6451 41.0579Z" fill="white"/>
<path fill-rule="evenodd" clip-rule="evenodd" d="M39.873 23.2617C39.6759 23.0531 39.3569 23.0531 39.1646 23.2617L38.5827 23.8726C38.3857 24.0812 38.3857 24.414 38.5827 24.6226L45.376 31.8103C45.573 32.0189 45.8873 32.0189 46.0844 31.8103L46.6662 31.1994C46.8586 30.9908 46.8586 30.658 46.6662 30.4494L46.4317 30.2008L47.3933 28.7901C47.5762 28.8596 47.7922 28.8199 47.9376 28.6609L48.069 28.5221C48.2802 28.3035 48.2802 27.9457 48.069 27.7272L47.9236 27.5683L48.585 26.868C49.0589 26.3663 49.0589 25.5515 48.585 25.0498L44.8835 21.1307C44.4096 20.629 43.6401 20.629 43.1662 21.1307L42.5048 21.831L42.4487 21.7716C42.2422 21.553 41.9044 21.553 41.6933 21.7716L41.5619 21.9104C41.3507 22.129 41.3507 22.4867 41.5619 22.7102L41.5759 22.7251L40.2951 23.7037L39.873 23.2617Z" fill="white"/>
<path fill-rule="evenodd" clip-rule="evenodd" d="M57.4706 54.4949C57.9632 55.0164 58.7608 55.0164 59.2534 54.4949C59.746 53.9733 59.746 53.1292 59.2534 52.6076L59.0564 52.3987H59.0469L59.4318 51.9964C59.4177 51.9716 59.399 51.9518 59.3802 51.927L53.4174 45.6136L57.6771 41.1033L55.1249 38.4062L50.8652 42.9163L46.6522 38.456L44.1046 41.1579L48.3176 45.6185L42.4017 51.8821C42.3829 51.902 42.3689 51.9268 42.3502 51.9467L42.7253 52.3493L44.888 54.6392C44.9068 54.6193 44.9303 54.6042 44.949 54.5843L50.8652 48.3258L56.8281 54.6392C56.8468 54.659 56.8703 54.6739 56.889 54.6937L57.269 54.2914V54.3014L57.4706 54.4949Z" fill="white"/>
<path fill-rule="evenodd" clip-rule="evenodd" d="M40.9194 39.6778L41.9419 40.7556C42.3266 41.1629 42.9414 41.1629 43.3261 40.7556L46.3519 37.5519C46.7366 37.1446 46.7366 36.4887 46.3519 36.0863L45.334 35.0086C44.954 34.6062 44.3301 34.6062 43.9501 35.0086L43.6778 35.2966L42.5189 34.0696C43.2883 33.5183 44.1095 33.0366 44.9915 32.6541L37.9119 25.1587C36.7297 28.2334 34.6327 30.6822 31.907 32.2121L38.3343 39.0123C38.7612 38.1579 39.2773 37.368 39.8496 36.6378L41.135 37.9988L40.9334 38.2125C40.5394 38.6149 40.5394 39.2705 40.9194 39.6778Z" fill="white"/>
<path fill-rule="evenodd" clip-rule="evenodd" d="M63.157 39.3353L70.2363 31.8396C67.3323 30.5879 65.0195 28.3675 63.5745 25.4766L57.1472 32.2768C57.9588 32.7338 58.7001 33.2702 59.3944 33.8812L58.109 35.2421L57.2128 34.2935L54.8109 36.8365L59.2209 41.5058L61.6276 38.9576L60.6609 37.9343L61.8198 36.7074C62.3405 37.527 62.7958 38.3965 63.157 39.3353Z" fill="white"/>
<path fill-rule="evenodd" clip-rule="evenodd" d="M61.5895 23.756L60.309 22.7777L60.6981 22.3602L59.8116 21.4216L59.3801 21.8785L58.0288 20.4429C57.935 20.3436 57.7896 20.3436 57.6958 20.4429L52.61 25.8273C52.5162 25.9267 52.5162 26.0809 52.61 26.1802L53.9613 27.6106L53.4359 28.1669L54.3178 29.1059L54.5243 28.8873L55.4532 30.2434L54.8621 30.8691L56.1476 32.2352L63.6492 24.2975L62.359 22.9317L61.5895 23.756Z" fill="white"/>
<path fill-rule="evenodd" clip-rule="evenodd" d="M67.4309 42.9966L67.9563 42.4402L69.3073 43.8755C69.4012 43.9698 69.5465 43.9698 69.6403 43.8755L74.7307 38.4862C74.8198 38.3869 74.8198 38.233 74.7307 38.1336L73.3749 36.6981L73.8064 36.2409L72.9244 35.3071L72.5304 35.7194L71.6015 34.3633L72.3755 33.5387L71.0901 32.1777L63.5884 40.1155L64.8738 41.4764L65.4603 40.8555L66.7411 41.8342L66.5346 42.0528L67.4309 42.9966Z" fill="white"/>
<path fill-rule="evenodd" clip-rule="evenodd" d="M42.3078 54.2106L42.7487 54.6775C43.1194 55.0699 43.7199 55.0699 44.0905 54.6775L44.5129 54.2303L42.7301 52.3428L42.3126 52.79C41.9373 53.1774 41.9371 53.8133 42.3078 54.2106Z" fill="white"/>
<path fill-rule="evenodd" clip-rule="evenodd" d="M9.95514 47.0089V45.8862H6.27704V53.2428H10.0585V52.1201H7.46394V49.7705H9.66421V48.643H7.46394V47.0089H9.95514Z" fill="white"/>
<path fill-rule="evenodd" clip-rule="evenodd" d="M12.9858 52.2939C12.4229 52.2939 11.8834 52.1051 11.2265 51.6581L10.8606 52.5273C11.4236 53.0588 12.2024 53.3668 12.9858 53.3668C14.215 53.3668 15.2566 52.6367 15.2566 51.1912C15.2566 49.9146 14.3183 49.413 13.2158 48.9113C12.559 48.6034 12.0899 48.3251 12.0899 47.7638C12.0899 47.2025 12.5074 46.8349 13.1642 46.8349C13.6522 46.8349 14.1729 47.0683 14.7171 47.4955L15.069 46.6363C14.5389 46.075 13.8492 45.7671 13.1173 45.7671C11.9397 45.7671 10.9499 46.5618 10.9499 47.7987C10.9499 48.9461 11.6677 49.5521 12.5873 49.9843C13.4411 50.3816 14.1072 50.6995 14.1072 51.3055C14.1119 51.9959 13.6239 52.2939 12.9858 52.2939Z" fill="white"/>
<path fill-rule="evenodd" clip-rule="evenodd" d="M18.6767 53.2428V47.0089H20.5251V45.8862H15.6366V47.0089H17.4898V53.2428H18.6767Z" fill="white"/>
<path fill-rule="evenodd" clip-rule="evenodd" d="M20.5676 52.5818C20.5676 53.009 20.9005 53.3664 21.3087 53.3664C21.7168 53.3664 22.05 53.0139 22.05 52.5818C22.05 52.1496 21.7168 51.7969 21.3087 51.7969C20.9005 51.7969 20.5676 52.1546 20.5676 52.5818Z" fill="white"/>
<path fill-rule="evenodd" clip-rule="evenodd" d="M81.2844 52.3V53.2289H84.4045V52.3H83.4381V45.748H82.9126L80.8718 47.6356L81.1298 48.1225L82.2463 47.6108V52.3H81.2844Z" fill="white"/>
<path fill-rule="evenodd" clip-rule="evenodd" d="M87.6649 49.4786C86.9987 49.4786 86.4451 48.9568 86.4451 48.1571C86.4451 47.3524 86.9987 46.831 87.6649 46.831C88.3311 46.831 88.8847 47.3524 88.8847 48.1571C88.8847 48.9568 88.3358 49.4786 87.6649 49.4786ZM87.313 53.2289L89.3443 50.0498C89.668 49.5431 90.0433 48.8774 90.0433 48.1522C90.0433 46.816 88.969 45.748 87.6695 45.748C86.3559 45.748 85.2908 46.816 85.2908 48.1522C85.2908 49.5878 86.4263 50.6906 87.7915 50.4373L85.9758 53.2289H87.313Z" fill="white"/>
<path fill-rule="evenodd" clip-rule="evenodd" d="M93.3883 49.7418C94.078 49.7418 94.6082 50.2386 94.6082 51.0184C94.6082 51.7884 94.078 52.29 93.3883 52.29C92.7081 52.29 92.1685 51.7933 92.1685 51.0184C92.1685 50.2386 92.7128 49.7418 93.3883 49.7418ZM93.3883 46.7516C93.8997 46.7516 94.3078 47.1389 94.3078 47.715C94.3078 48.2763 93.8997 48.6737 93.3883 48.6737C92.8863 48.6737 92.4829 48.2763 92.4829 47.715C92.4829 47.1389 92.8863 46.7516 93.3883 46.7516ZM91.0099 51.0333C91.0099 52.3447 92.0747 53.3481 93.3883 53.3481C94.7113 53.3481 95.767 52.3447 95.767 51.0333C95.767 50.2286 95.3728 49.5183 94.7347 49.1457C95.1616 48.803 95.4105 48.2764 95.4105 47.7002C95.4105 46.5975 94.5237 45.748 93.3883 45.748C92.2624 45.748 91.3756 46.5975 91.3756 47.7002C91.3756 48.2764 91.6292 48.8179 92.0514 49.1457C91.418 49.5232 91.0099 50.2286 91.0099 51.0333Z" fill="white"/>
<path fill-rule="evenodd" clip-rule="evenodd" d="M98.1645 53.2284L100.881 46.2196V45.8667H96.3207V46.9945H99.4219L96.973 53.2284H98.1645Z" fill="white"/>
<path fill-rule="evenodd" clip-rule="evenodd" d="M24.2833 10.9226C23.5139 11.1561 22.7492 11.3993 21.9845 11.6527C21.3277 9.42735 20.6661 7.19733 20.0093 4.96704C19.6528 5.08625 19.3009 5.20546 18.9444 5.32964C19.7232 7.86292 20.4973 10.3912 21.2761 12.9245C22.3364 12.5619 23.4013 12.2141 24.4663 11.8913C24.4287 11.5585 24.3631 11.2306 24.2833 10.9226Z" fill="white"/>
<path fill-rule="evenodd" clip-rule="evenodd" d="M29.0638 10.6331C29.0403 10.3003 28.9935 9.98224 28.9232 9.66931C28.0693 9.87793 27.2199 10.1016 26.3661 10.3351C26.1503 9.46085 25.9345 8.58169 25.7187 7.70746C26.3426 7.53361 26.9667 7.36951 27.5954 7.21055C27.525 6.89762 27.4546 6.58971 27.3889 6.27677C26.7556 6.43573 26.1223 6.59971 25.4936 6.77853C25.3059 6.01358 25.1183 5.24863 24.9306 4.48864C25.7704 4.25519 26.6054 4.03653 27.4499 3.83288C27.4265 3.51001 27.3796 3.16742 27.3139 2.86938C26.08 3.17239 24.8509 3.50021 23.6218 3.85289C24.2833 6.42094 24.9401 8.99379 25.6016 11.5569C26.7557 11.2191 27.9096 10.9162 29.0638 10.6331Z" fill="white"/>
<path fill-rule="evenodd" clip-rule="evenodd" d="M31.4146 2.82911C31.8931 2.73474 32.5216 2.77968 32.911 2.94857C32.9345 2.62073 32.9531 2.23332 32.9156 1.92535C32.4371 1.74653 31.7615 1.75623 31.2032 1.87047C29.4392 2.22315 28.4774 3.63879 29.092 6.51482C29.6972 9.37594 30.9219 10.3001 32.6015 9.95738C33.2067 9.8332 33.868 9.47056 34.2199 9.11788C34.0228 7.91085 33.8258 6.70379 33.6335 5.49676C32.9626 5.62094 32.2965 5.74513 31.6256 5.88421C31.6819 6.19715 31.7711 6.52971 31.879 6.81284C32.1746 6.75323 32.4702 6.69388 32.7704 6.63427C32.8877 7.31975 33.0049 8.01008 33.1269 8.69556C32.9439 8.84954 32.6998 8.93409 32.4511 8.98873C31.3909 9.20232 30.6686 8.58122 30.2182 6.30623C29.735 3.9021 30.2605 3.06754 31.4146 2.82911Z" fill="white"/>
<path fill-rule="evenodd" clip-rule="evenodd" d="M36.4012 5.82074C36.4856 4.80245 36.5747 3.78422 36.6732 2.76594C36.6873 2.58712 36.678 2.33869 36.6686 2.13503C36.6921 2.13006 36.7153 2.12999 36.7388 2.12503C36.7763 2.32372 36.8468 2.56207 36.9031 2.73592C37.255 3.6946 37.5927 4.64832 37.9305 5.607C37.4192 5.67157 36.9125 5.74623 36.4012 5.82074ZM35.9367 1.16639C35.5473 3.92816 35.3267 6.67497 35.1719 9.2927C35.4064 9.3225 35.8991 9.30273 36.1477 9.26299C36.204 8.42353 36.265 7.58901 36.3307 6.75452C36.9641 6.65517 37.6021 6.5658 38.2355 6.48135C38.5076 7.27114 38.775 8.06088 39.0424 8.85067C39.3802 8.80597 39.8165 8.69656 40.0558 8.59722C39.2535 6.1136 38.3528 3.53078 37.2925 0.972656C36.8375 1.03226 36.3871 1.09684 35.9367 1.16639Z" fill="white"/>
<path fill-rule="evenodd" clip-rule="evenodd" d="M44.4518 7.28991C43.659 7.33959 42.8708 7.39925 42.0826 7.46879C41.8996 5.14412 41.7119 2.81962 41.5242 0.48999C41.1583 0.519794 40.7877 0.554545 40.4218 0.594283C40.6658 3.24678 40.9003 5.89419 41.1443 8.54173C42.2421 8.43245 43.34 8.33799 44.4378 8.27341C44.466 7.94558 44.4706 7.61278 44.4518 7.28991Z" fill="white"/>
<path fill-rule="evenodd" clip-rule="evenodd" d="M48.735 7.28226C48.2518 7.29219 47.8156 7.18293 47.3511 6.91966C47.2901 7.20776 47.2197 7.5503 47.1962 7.89801C47.6607 8.15631 48.2705 8.23586 48.7491 8.2309C49.9313 8.21599 50.8602 7.38655 50.8743 5.95102C50.9025 3.50714 48.1581 3.63132 48.13 2.16102C48.1159 1.45071 48.435 0.958858 49.2278 0.948924C49.6172 0.943956 50.1285 1.02836 50.5038 1.15751C50.5788 0.84954 50.6306 0.43727 50.6447 0.174007C50.2553 0.0547935 49.664 -0.00467979 49.2559 0.000287434C48.0126 0.0102219 46.9898 0.779878 47.0367 2.27501C47.1118 4.56987 49.8234 4.33166 49.8234 6.03045C49.8234 6.8103 49.3965 7.27233 48.735 7.28226Z" fill="white"/>
<path fill-rule="evenodd" clip-rule="evenodd" d="M56.0162 1.28061C56.0819 0.967678 56.1242 0.624786 56.1476 0.316818C54.8903 0.232375 53.633 0.177753 52.371 0.147949C52.31 2.80542 52.2536 5.47279 52.1926 8.13026C53.3749 8.16006 54.5526 8.20995 55.7301 8.28942C55.7958 7.96159 55.8379 7.64353 55.8567 7.32563C54.9888 7.27099 54.1208 7.2264 53.2435 7.19163C53.2717 6.28759 53.3047 5.38345 53.3329 4.47942C53.9709 4.50425 54.6087 4.53408 55.2468 4.56885C55.2655 4.25095 55.2798 3.92812 55.2986 3.61021C54.6559 3.57048 54.0082 3.54065 53.3655 3.52078C53.389 2.73099 53.4171 1.94125 53.4405 1.15146C54.3038 1.18126 55.1623 1.22101 56.0162 1.28061Z" fill="white"/>
<path fill-rule="evenodd" clip-rule="evenodd" d="M60.4688 2.979C60.3656 4.01715 59.8918 4.44933 59.1365 4.37482C58.8925 4.34998 58.6485 4.32526 58.4046 4.30539C58.4843 3.32188 58.5688 2.3381 58.6485 1.35459C58.855 1.34962 59.0659 1.35976 59.3286 1.3846C60.1824 1.46408 60.572 1.97562 60.4688 2.979ZM59.371 0.495387C58.9534 0.455649 58.2545 0.445785 57.6211 0.505391C57.4335 3.13305 57.2458 5.76059 57.0582 8.38826C57.396 8.41309 57.7289 8.44304 58.0667 8.47284C58.1558 7.38005 58.2449 6.28721 58.3387 5.18945C58.6202 5.21429 58.9018 5.24393 59.1786 5.27374C59.4694 5.70588 59.6666 6.23256 59.9434 7.41476C60.0466 7.86181 60.1449 8.30884 60.2435 8.76086C60.525 8.79563 61.0271 8.80561 61.2992 8.746C61.1679 8.14994 61.0271 7.54879 60.8863 6.95272C60.6658 5.99405 60.4545 5.50726 60.112 5.02543C60.8204 4.82675 61.4538 4.26558 61.5899 3.05358C61.7728 1.4293 60.8816 0.644403 59.371 0.495387Z" fill="white"/>
<path fill-rule="evenodd" clip-rule="evenodd" d="M64.3953 7.21092C64.2499 5.17436 64.0811 3.13771 63.8888 1.09618C63.5228 1.04154 63.0302 1.00677 62.7675 1.0316C63.0161 3.78841 63.3209 6.52547 63.6399 9.16307C64.0106 9.22268 64.3812 9.28222 64.7518 9.3468C65.8121 6.93272 66.8817 4.42444 67.9045 1.87625C67.6934 1.7769 67.229 1.65269 66.8865 1.59308C66.1171 3.47069 65.3664 5.36328 64.6439 7.25579C64.5688 7.44952 64.5031 7.65299 64.4609 7.87154C64.4374 7.86658 64.4142 7.86651 64.3907 7.86154C64.4142 7.63305 64.4141 7.41458 64.3953 7.21092Z" fill="white"/>
<path fill-rule="evenodd" clip-rule="evenodd" d="M70.2738 2.29958C69.9125 2.2201 69.5513 2.1458 69.1854 2.07129C68.7069 4.68405 68.2285 7.29683 67.7499 9.90959C68.083 9.97913 68.4208 10.0485 68.7539 10.123C69.2605 7.51523 69.7671 4.90241 70.2738 2.29958Z" fill="white"/>
<path fill-rule="evenodd" clip-rule="evenodd" d="M75.8894 3.98324C75.6173 3.64547 74.9698 3.32255 74.4396 3.18347C72.7882 2.74635 71.4887 3.63043 70.8975 6.51142C70.3017 9.40732 70.9868 10.7436 72.5772 11.1658C73.0651 11.2949 73.7218 11.3048 74.2191 11.0763C74.2661 10.7882 74.2944 10.4009 74.285 10.0631C73.8112 10.2817 73.2855 10.3362 72.8163 10.212C71.7373 9.92388 71.5498 8.89064 72.0048 6.79944C72.5068 4.51452 73.1917 3.86394 74.2426 4.14211C74.7165 4.26629 75.1481 4.52955 75.4624 4.89216C75.6313 4.59413 75.7862 4.28624 75.8894 3.98324Z" fill="white"/>
<path fill-rule="evenodd" clip-rule="evenodd" d="M80.6184 6.18238C80.7591 5.89428 80.8812 5.57623 80.9703 5.28316C79.7552 4.86591 78.5401 4.47866 77.3157 4.11108C76.6307 6.67417 75.9457 9.23228 75.2654 11.7954C76.4102 12.1381 77.5548 12.5054 78.6901 12.8929C78.8309 12.5948 78.9435 12.297 79.042 11.9939C78.2023 11.7059 77.3624 11.4276 76.5179 11.1693C76.7572 10.3 77.0011 9.43085 77.2404 8.56655C77.8596 8.76027 78.4792 8.95882 79.0985 9.16744C79.1876 8.86444 79.2813 8.55649 79.3705 8.24852C78.7465 8.0399 78.1226 7.8365 77.4986 7.64278C77.7051 6.88776 77.9161 6.12762 78.1272 5.3726C78.9576 5.63089 79.788 5.90421 80.6184 6.18238Z" fill="white"/>
<path fill-rule="evenodd" clip-rule="evenodd" d="M0 100H104.995V97.6953H0V100Z" fill="white"/>
</svg>
