<svg width="105" height="100" viewBox="0 0 105 100" fill="none" xmlns="http://www.w3.org/2000/svg">
<path fill-rule="evenodd" clip-rule="evenodd" d="M16.1592 76.3528C17.539 76.1342 18.012 74.2899 18.0218 74.2955C18.0072 74.3011 16.3981 72.9108 15.0524 73.0286C13.6921 73.1575 12.3609 74.9289 12.3657 74.9401C12.3462 74.9569 14.7549 76.5939 16.1592 76.3528Z" fill="white"/>
<path fill-rule="evenodd" clip-rule="evenodd" d="M19.4153 71.8086C19.386 70.3007 18.2209 68.092 18.2404 68.0864C18.2501 68.092 16.6899 69.6338 16.6021 71.1585C16.5046 72.6945 18.0162 74.3144 18.0211 74.3032C18.0308 74.3088 19.425 73.3277 19.4153 71.8086Z" fill="white"/>
<path fill-rule="evenodd" clip-rule="evenodd" d="M8.17241 69.4298C8.1529 69.4467 10.269 71.4029 11.6635 71.3917C13.0335 71.3917 13.7648 69.6764 13.7746 69.682C13.7599 69.6876 12.3996 68.0842 11.0686 67.9946C9.72286 67.9049 8.16753 69.4186 8.17241 69.4298Z" fill="white"/>
<path fill-rule="evenodd" clip-rule="evenodd" d="M15.4906 67.4747C15.6856 66.0061 14.8714 63.6797 14.8909 63.6797C14.8909 63.6797 13.1552 64.941 12.848 66.4097C12.5311 67.8895 13.7647 69.7001 13.7696 69.6833C13.7794 69.6945 15.2761 68.9546 15.4906 67.4747Z" fill="white"/>
<path fill-rule="evenodd" clip-rule="evenodd" d="M10.2926 64.5369C10.278 64.5369 9.17123 62.7656 7.87916 62.4628C6.57246 62.1601 4.83658 63.3936 4.83658 63.4048C4.81708 63.416 6.62127 65.6637 7.99135 65.8655C9.33218 66.0785 10.2878 64.5201 10.2926 64.5369Z" fill="white"/>
<path fill-rule="evenodd" clip-rule="evenodd" d="M12.2874 62.6603C12.6823 61.2645 12.2045 58.8652 12.224 58.8652C12.224 58.8652 10.3469 59.8182 9.84475 61.2028C9.33279 62.593 10.2835 64.5494 10.2932 64.5438C10.303 64.5494 11.8729 64.0673 12.2874 62.6603Z" fill="white"/>
<path fill-rule="evenodd" clip-rule="evenodd" d="M5.48528 56.544C4.23221 56.0395 2.35997 56.9643 2.35997 56.9755C2.34534 56.9867 3.82273 59.4757 5.13918 59.8906C6.43125 60.3166 7.582 58.9487 7.58687 58.9599C7.57712 58.9655 6.72372 57.0542 5.48528 56.544Z" fill="white"/>
<path fill-rule="evenodd" clip-rule="evenodd" d="M9.80547 57.4522C10.3857 56.1516 10.2294 53.73 10.2489 53.73C10.2489 53.73 8.2696 54.3636 7.59675 55.6361C6.90927 56.9142 7.58194 58.9769 7.59169 58.9713C7.59169 58.9713 9.20576 58.7527 9.80547 57.4522Z" fill="white"/>
<path fill-rule="evenodd" clip-rule="evenodd" d="M3.12105 53.5824C4.33999 54.2102 5.65642 53.0554 5.6613 53.0722C5.65154 53.0666 5.05194 51.0543 3.89152 50.3535C2.72134 49.6528 0.746568 50.2639 0.746568 50.2639C0.731941 50.2751 1.87774 52.9601 3.12105 53.5824Z" fill="white"/>
<path fill-rule="evenodd" clip-rule="evenodd" d="M8.04544 51.9476C8.78656 50.7704 8.94252 48.3657 8.96203 48.3657C8.96203 48.3769 6.92878 48.6627 6.09503 49.8007C5.25152 50.9442 5.65139 53.0799 5.66114 53.0743C5.66114 53.0855 7.28483 53.1304 8.04544 51.9476Z" fill="white"/>
<path fill-rule="evenodd" clip-rule="evenodd" d="M3.09649 44.0048C2.02383 43.1191 0.000349069 43.3938 0.000349069 43.3938C-0.0191539 43.3994 0.780449 46.2415 1.93112 47.0544C3.0623 47.8728 4.50559 46.9534 4.50559 46.9702C4.49096 46.9702 4.15453 44.8849 3.09649 44.0048Z" fill="white"/>
<path fill-rule="evenodd" clip-rule="evenodd" d="M7.00239 46.2575C7.8849 45.2204 8.33824 42.8718 8.35287 42.8775C8.35774 42.8887 6.30515 42.8324 5.33975 43.819C4.3646 44.8112 4.49138 46.9806 4.50114 46.975C4.50114 46.975 6.10526 47.2945 7.00239 46.2575Z" fill="white"/>
<path fill-rule="evenodd" clip-rule="evenodd" d="M0.102733 36.4808C0.0832298 36.4864 0.522102 39.4238 1.56064 40.4216C2.57479 41.4194 4.12052 40.7525 4.12052 40.7637C4.10589 40.7581 4.03276 38.6447 3.09174 37.5965C2.14585 36.5426 0.102733 36.4808 0.102733 36.4808Z" fill="white"/>
<path fill-rule="evenodd" clip-rule="evenodd" d="M5.33941 37.7806C4.25212 38.599 4.11072 40.7681 4.12047 40.7569C4.12047 40.7737 5.66121 41.3398 6.68512 40.4654C7.68952 39.5853 8.42558 37.3377 8.44508 37.3433C8.44508 37.3601 6.41695 36.9677 5.33941 37.7806Z" fill="white"/>
<path fill-rule="evenodd" clip-rule="evenodd" d="M3.89148 31.2383C3.08211 30.033 1.06823 29.6353 1.06823 29.6353C1.04873 29.6353 1.11702 32.6286 2.01903 33.7889C2.90154 34.9437 4.51535 34.54 4.51047 34.5512C4.50072 34.5456 4.6911 32.4379 3.89148 31.2383Z" fill="white"/>
<path fill-rule="evenodd" clip-rule="evenodd" d="M6.09006 31.8004C4.91013 32.4338 4.5004 34.5582 4.51015 34.5526C4.51015 34.5638 5.96331 35.3881 7.07985 34.6874C8.18177 33.9811 9.19598 31.8732 9.21061 31.8788C9.21549 31.89 7.26024 31.167 6.09006 31.8004Z" fill="white"/>
<path fill-rule="evenodd" clip-rule="evenodd" d="M5.48545 25.0496C4.83697 23.7155 2.90615 22.9812 2.8964 22.9868C2.87202 22.9868 2.56019 25.9802 3.30618 27.2807C4.03267 28.5757 5.68048 28.4358 5.67561 28.4526C5.67561 28.4526 6.11929 26.3726 5.48545 25.0496Z" fill="white"/>
<path fill-rule="evenodd" clip-rule="evenodd" d="M8.20636 29.014C9.38629 28.4927 10.6588 26.5589 10.6734 26.5701C10.6734 26.5813 8.83027 25.5327 7.59184 25.97C6.33877 26.4072 5.66589 28.4536 5.67564 28.4536C5.67564 28.4704 7.01181 29.5242 8.20636 29.014Z" fill="white"/>
<path fill-rule="evenodd" clip-rule="evenodd" d="M7.87404 19.1361C7.41084 17.6955 5.58258 16.6529 5.58258 16.6529C5.5582 16.6472 4.84625 19.5904 5.42158 21.0087C5.97254 22.4213 7.6206 22.5556 7.61573 22.5668C7.60598 22.5556 8.32748 20.5656 7.87404 19.1361Z" fill="white"/>
<path fill-rule="evenodd" clip-rule="evenodd" d="M9.84435 20.3975C8.5474 20.633 7.60612 22.5612 7.62074 22.5612C7.61587 22.5781 8.80079 23.8506 10.0539 23.5367C11.2923 23.2116 12.8137 21.4848 12.8283 21.5016C12.8186 21.5072 11.1315 20.1621 9.84435 20.3975Z" fill="white"/>
<path fill-rule="evenodd" clip-rule="evenodd" d="M11.0633 13.6051C10.8049 12.0916 9.13742 10.735 9.13254 10.7462C9.11304 10.735 7.98665 13.5717 8.36208 15.0852C8.71313 16.5875 10.3368 16.991 10.3271 17.0023C10.3173 16.9854 11.312 15.113 11.0633 13.6051Z" fill="white"/>
<path fill-rule="evenodd" clip-rule="evenodd" d="M12.8435 15.1915C11.5124 15.2139 10.313 16.9965 10.3276 17.0021C10.3228 17.0134 11.3271 18.4821 12.6143 18.37C13.8869 18.2467 15.6469 16.7667 15.6566 16.7835C15.6566 16.7835 14.1599 15.1635 12.8435 15.1915Z" fill="white"/>
<path fill-rule="evenodd" clip-rule="evenodd" d="M13.4431 9.85835C12.2924 11.2373 12.6045 13.4629 12.6143 13.4461C12.624 13.4292 14.5158 13.4011 15.5494 12.1678C16.5197 10.9121 18.1139 7.15076 18.1724 7.14515C18.1724 7.10031 14.5645 8.4233 13.4431 9.85835Z" fill="white"/>
<path fill-rule="evenodd" clip-rule="evenodd" d="M89.948 73.0344C88.6023 72.9167 86.9884 74.307 86.9786 74.3014C86.9884 74.2902 87.4614 76.1401 88.8413 76.3587C90.2455 76.5997 92.6541 74.9628 92.6394 74.946C92.6394 74.9348 91.3083 73.1577 89.948 73.0344Z" fill="white"/>
<path fill-rule="evenodd" clip-rule="evenodd" d="M88.3977 71.1528C88.3099 69.6281 86.7497 68.0867 86.7594 68.0811C86.7789 68.0867 85.6138 70.2953 85.5845 71.8032C85.5699 73.3224 86.9641 74.3034 86.9787 74.2978C86.9836 74.3146 88.4952 72.6888 88.3977 71.1528Z" fill="white"/>
<path fill-rule="evenodd" clip-rule="evenodd" d="M93.3368 71.3938C94.7312 71.4106 96.8424 69.4488 96.8278 69.4319C96.8327 69.4207 95.2774 67.9071 93.9316 67.9912C92.6054 68.0865 91.2403 69.6839 91.2256 69.6783C91.2354 69.6727 91.9667 71.3938 93.3368 71.3938Z" fill="white"/>
<path fill-rule="evenodd" clip-rule="evenodd" d="M92.152 66.4038C91.8497 64.9408 90.104 63.6853 90.1138 63.6797C90.1333 63.6853 89.3192 66.0117 89.5093 67.4747C89.7239 68.9546 91.2206 69.6887 91.2303 69.6775C91.2352 69.6943 92.464 67.8837 92.152 66.4038Z" fill="white"/>
<path fill-rule="evenodd" clip-rule="evenodd" d="M97.1204 62.4628C95.8235 62.7656 94.7168 64.5369 94.7022 64.5369C94.7071 64.5201 95.6674 66.0785 97.0082 65.8655C98.3734 65.6637 100.178 63.416 100.163 63.4048C100.163 63.3936 98.4271 62.1601 97.1204 62.4628Z" fill="white"/>
<path fill-rule="evenodd" clip-rule="evenodd" d="M95.1507 61.1969C94.6485 59.8123 92.7617 58.8706 92.7715 58.8594C92.7861 58.8594 92.3083 61.2586 92.7081 62.6544C93.1274 64.0615 94.6925 64.5437 94.7023 64.5325C94.712 64.5493 95.6627 62.5871 95.1507 61.1969Z" fill="white"/>
<path fill-rule="evenodd" clip-rule="evenodd" d="M99.5096 56.544C98.276 57.0486 97.418 58.9599 97.4083 58.9599C97.4131 58.9487 98.5639 60.3166 99.856 59.8906C101.172 59.4701 102.654 56.9867 102.635 56.9755C102.635 56.9643 100.763 56.0395 99.5096 56.544Z" fill="white"/>
<path fill-rule="evenodd" clip-rule="evenodd" d="M97.4034 55.6303C96.7256 54.3579 94.7463 53.7358 94.7512 53.7246C94.7658 53.7246 94.6097 56.1519 95.1899 57.4468C95.7896 58.7529 97.3987 58.9713 97.4084 58.9601C97.4182 58.9713 98.0957 56.9084 97.4034 55.6303Z" fill="white"/>
<path fill-rule="evenodd" clip-rule="evenodd" d="M101.104 50.354C99.9482 51.0547 99.3486 53.0671 99.334 53.0727C99.334 53.0559 100.65 54.2106 101.874 53.5828C103.118 52.9606 104.263 50.2756 104.244 50.2644C104.244 50.2644 102.279 49.6589 101.104 50.354Z" fill="white"/>
<path fill-rule="evenodd" clip-rule="evenodd" d="M98.9046 49.8007C98.0758 48.6627 96.0376 48.3769 96.0376 48.3657C96.0571 48.3657 96.2131 50.7704 96.9542 51.9476C97.7148 53.1304 99.3336 53.0855 99.3385 53.0743C99.3483 53.0799 99.7481 50.9442 98.9046 49.8007Z" fill="white"/>
<path fill-rule="evenodd" clip-rule="evenodd" d="M103.069 47.0544C104.22 46.2415 105.019 43.405 105 43.3938C105 43.3938 102.971 43.1191 101.899 44.0048C100.841 44.8849 100.504 46.9701 100.494 46.9757C100.494 46.9588 101.938 47.8784 103.069 47.0544Z" fill="white"/>
<path fill-rule="evenodd" clip-rule="evenodd" d="M100.495 46.9699C100.504 46.9755 100.631 44.8062 99.656 43.814C98.6906 42.8274 96.6378 42.8833 96.6378 42.8721C96.6524 42.8665 97.1059 45.2154 97.9933 46.2525C98.8953 47.2951 100.49 46.9811 100.495 46.9699Z" fill="white"/>
<path fill-rule="evenodd" clip-rule="evenodd" d="M103.439 40.4222C104.478 39.43 104.917 36.487 104.897 36.4814C104.897 36.4702 102.854 36.5433 101.903 37.5971C100.967 38.6454 100.889 40.7588 100.879 40.7644C100.874 40.7475 102.42 41.4144 103.439 40.4222Z" fill="white"/>
<path fill-rule="evenodd" clip-rule="evenodd" d="M98.3149 40.4709C99.3339 41.3454 100.88 40.7792 100.88 40.7624C100.894 40.768 100.748 38.6042 99.6606 37.7857C98.5831 36.9729 96.5597 37.3652 96.5597 37.3539C96.5694 37.3371 97.3105 39.5908 98.3149 40.4709Z" fill="white"/>
<path fill-rule="evenodd" clip-rule="evenodd" d="M102.976 33.7889C103.883 32.6342 103.952 29.6409 103.927 29.6353C103.927 29.6353 101.918 30.033 101.109 31.2383C100.309 32.4379 100.5 34.5456 100.485 34.5512C100.485 34.54 102.094 34.9493 102.976 33.7889Z" fill="white"/>
<path fill-rule="evenodd" clip-rule="evenodd" d="M97.9153 34.6874C99.0367 35.3881 100.49 34.5638 100.485 34.5526C100.499 34.5582 100.09 32.4338 98.9051 31.8004C97.7398 31.167 95.7845 31.89 95.7845 31.8788C95.7943 31.8732 96.8134 33.9811 97.9153 34.6874Z" fill="white"/>
<path fill-rule="evenodd" clip-rule="evenodd" d="M101.689 27.2807C102.44 25.9802 102.123 22.9868 102.099 22.9868C102.099 22.9868 100.158 23.7155 99.5096 25.0496C98.8757 26.3726 99.3292 28.4414 99.3194 28.4526C99.3145 28.4358 100.963 28.5757 101.689 27.2807Z" fill="white"/>
<path fill-rule="evenodd" clip-rule="evenodd" d="M96.7887 29.0145C97.9832 29.5302 99.324 28.4708 99.3191 28.454C99.3337 28.454 98.656 26.4076 97.4029 25.9704C96.1645 25.5332 94.3217 26.5705 94.3217 26.5705C94.3363 26.5593 95.6088 28.4875 96.7887 29.0145Z" fill="white"/>
<path fill-rule="evenodd" clip-rule="evenodd" d="M99.5779 21.0087C100.148 19.5904 99.4366 16.6472 99.4122 16.6529C99.4122 16.6529 97.5836 17.7013 97.1204 19.1419C96.667 20.5714 97.3888 22.5612 97.379 22.5668C97.3742 22.55 99.027 22.4213 99.5779 21.0087Z" fill="white"/>
<path fill-rule="evenodd" clip-rule="evenodd" d="M97.384 22.5612C97.3986 22.5612 96.4574 20.633 95.1556 20.3975C93.8684 20.1621 92.1767 21.5016 92.1767 21.5016C92.1914 21.4848 93.7124 23.2116 94.9509 23.5367C96.1991 23.8506 97.384 22.5781 97.384 22.5612Z" fill="white"/>
<path fill-rule="evenodd" clip-rule="evenodd" d="M96.6374 15.0795C97.0129 13.5603 95.8914 10.7295 95.867 10.7408C95.8572 10.7352 94.1946 12.0862 93.9362 13.5997C93.6875 15.1076 94.6774 16.9856 94.6677 16.9968C94.6628 16.9856 96.2815 16.5818 96.6374 15.0795Z" fill="white"/>
<path fill-rule="evenodd" clip-rule="evenodd" d="M94.6678 17.0021C94.6824 16.9965 93.483 15.2195 92.1519 15.1915C90.8355 15.1635 89.3434 16.7893 89.3385 16.778C89.3531 16.7612 91.1085 18.2465 92.3811 18.3642C93.6732 18.4819 94.6678 17.0021 94.6678 17.0021Z" fill="white"/>
<path fill-rule="evenodd" clip-rule="evenodd" d="M91.5525 9.85885C90.4311 8.4238 86.8229 7.09507 86.8229 7.15113C86.8814 7.15673 88.4808 10.9181 89.4462 12.1738C90.4798 13.407 92.3716 13.4408 92.3813 13.452C92.3911 13.4633 92.7081 11.2435 91.5525 9.85885Z" fill="white"/>
<path fill-rule="evenodd" clip-rule="evenodd" d="M1.10251 99.8366H6.02706V97.8915H2.96514V86.2148H1.10251V99.8366Z" fill="white"/>
<path fill-rule="evenodd" clip-rule="evenodd" d="M9.51293 88.6311L10.4102 95.5205H8.61598L9.51293 88.6311ZM8.37702 97.3646H10.6637L10.9854 99.8366H12.8626L10.9661 86.2148H8.24042L6.34863 99.8366H8.05532L8.37702 97.3646Z" fill="white"/>
<path fill-rule="evenodd" clip-rule="evenodd" d="M17.1824 99.8366L17.86 92.5773L18.5329 99.8366H21.005L22.3263 86.2148H20.7026L19.7373 97.0338L18.8058 86.2148H17.0116L16.1144 96.9554L15.1151 86.2148H13.306L14.6225 99.8366H17.1824Z" fill="white"/>
<path fill-rule="evenodd" clip-rule="evenodd" d="M26.8612 95.3241L29.2161 86.2148H27.4365L26.0176 92.4203L24.5939 86.2148H22.6485L24.9986 95.3241V99.8366H26.8612V95.3241Z" fill="white"/>
<path fill-rule="evenodd" clip-rule="evenodd" d="M35.0377 88.1603V86.2148H29.9572V99.8366H35.0377V97.8915H31.8196V93.9004H34.3795V91.955H31.8196V88.1603H35.0377Z" fill="white"/>
<path fill-rule="evenodd" clip-rule="evenodd" d="M39.8936 90.9071C39.8936 91.9946 39.4694 92.3475 38.777 92.3475H38.0506V88.1658H38.9478C39.6061 88.1658 39.8936 88.5919 39.8936 89.5673V90.9071ZM40.079 99.8367H41.9755C41.7902 99.3266 41.7708 98.8446 41.7708 98.1831V96.081C41.7708 94.6572 41.4637 93.6313 40.5373 93.1772C41.3661 92.7288 41.7562 91.8152 41.7562 90.4137V89.3432C41.7562 87.241 40.9274 86.2095 38.9966 86.2095H36.1832V99.8312H38.0458V94.2817H38.6892C39.5327 94.2817 39.9082 94.7527 39.9082 96.0139V98.1551C39.913 99.2706 39.9766 99.4892 40.079 99.8367Z" fill="white"/>
<path fill-rule="evenodd" clip-rule="evenodd" d="M49.4256 96.86C49.3914 97.7176 49.0209 98.0486 48.4602 98.0486C47.8702 98.0486 47.4948 97.6786 47.4948 96.7033V95.4363C47.4948 94.1694 47.8654 93.704 48.7137 93.704H49.4256V96.86ZM51.7757 93.704V91.7589H51.2831V90.2398H49.4208V91.7589H48.6063C47.9139 91.7589 47.4897 91.4113 47.4897 90.3182V89.483C47.4897 88.5076 47.8458 88.1603 48.4358 88.1603H50.5371V86.2148H48.4016C46.539 86.2148 45.6274 87.4033 45.6274 89.5839V89.8361C45.6274 91.2936 46.032 92.2129 46.9145 92.6389C45.9979 93.1042 45.6274 94.1189 45.6274 95.4979V96.8771C45.6274 98.8783 46.3247 99.9936 47.6948 99.9936C48.5237 99.9936 49.099 99.562 49.4208 98.766C49.4549 99.3714 49.5036 99.5619 49.5913 99.8366H51.4879C51.3026 99.3265 51.2882 98.8445 51.2882 98.183V93.704H51.7757Z" fill="white"/>
<path fill-rule="evenodd" clip-rule="evenodd" d="M60.1721 88.1603V86.2148H55.2475V99.8366H57.1102V94.2142H59.5138V92.2636H57.1102V88.1603H60.1721Z" fill="white"/>
<path fill-rule="evenodd" clip-rule="evenodd" d="M64.7746 90.9071C64.7746 91.9946 64.3504 92.3475 63.658 92.3475H62.9316V88.1658H63.8285C64.4868 88.1658 64.7746 88.5919 64.7746 89.5673V90.9071ZM64.9597 99.8367H66.8565C66.6713 99.3266 66.6518 98.8446 66.6518 98.1831V96.081C66.6518 94.6572 66.3444 93.6313 65.418 93.1772C66.2469 92.7288 66.6369 91.8152 66.6369 90.4137V89.3432C66.6369 87.241 65.8081 86.2095 63.8773 86.2095H61.0642V99.8312H62.9265V94.2817H63.5702C64.4137 94.2817 64.7892 94.7527 64.7892 96.0139V98.1551C64.7892 99.2706 64.8573 99.4892 64.9597 99.8367Z" fill="white"/>
<path fill-rule="evenodd" clip-rule="evenodd" d="M69.7333 99.8366V86.2148H67.8757V99.8366H69.7333Z" fill="white"/>
<path fill-rule="evenodd" clip-rule="evenodd" d="M76.1693 88.1603V86.2148H71.0888V99.8366H76.1693V97.8915H72.9515V93.9004H75.5063V91.955H72.9515V88.1603H76.1693Z" fill="white"/>
<path fill-rule="evenodd" clip-rule="evenodd" d="M83.2047 86.2148H81.5471V94.3657L79.6357 86.2148H77.3002V99.8366H78.9774V89.9709L81.2936 99.8366H83.2047V86.2148Z" fill="white"/>
<path fill-rule="evenodd" clip-rule="evenodd" d="M86.4034 97.8915V88.1603H87.4566C88.0465 88.1603 88.4026 88.5076 88.4026 89.483V96.5688C88.4026 97.5386 88.0465 97.8915 87.4566 97.8915H86.4034ZM90.265 96.4733V89.5839C90.265 87.4033 89.3533 86.2148 87.4908 86.2148H84.5458V99.8366H87.4908C89.3533 99.8366 90.265 98.6483 90.265 96.4733Z" fill="white"/>
<path fill-rule="evenodd" clip-rule="evenodd" d="M93.0734 86.2148H91.2793V88.278H91.9911L91.4986 90.2231H92.2643L93.0734 88.0648V86.2148Z" fill="white"/>
<path fill-rule="evenodd" clip-rule="evenodd" d="M95.9697 89.3494C95.9697 88.374 96.306 88.0041 96.9009 88.0041C97.4957 88.0041 97.832 88.374 97.832 89.3494V89.9156H99.5923V89.4897C99.5923 87.309 98.661 86.0645 96.8521 86.0645C95.0431 86.0645 94.1118 87.309 94.1118 89.4897C94.1118 93.38 97.7493 93.9067 97.7493 96.7096C97.7493 97.685 97.3787 98.0326 96.7839 98.0326C96.1891 98.0326 95.8185 97.685 95.8185 96.7096V95.7399H94.0583V96.5751C94.0583 98.7557 95.0043 100 96.8327 100C98.6611 100 99.6069 98.7557 99.6069 96.5751C99.6069 92.6792 95.9697 92.1522 95.9697 89.3494Z" fill="white"/>
<path fill-rule="evenodd" clip-rule="evenodd" d="M40.0592 40.1624C39.6252 40.1624 39.2792 39.7586 39.2792 39.2653C39.2792 38.772 39.6301 38.3685 40.0592 38.3685C40.4883 38.3685 40.8442 38.7664 40.8442 39.2653C40.8442 39.7642 40.4931 40.1624 40.0592 40.1624ZM29.2691 40.1624C28.8352 40.1624 28.4891 39.7586 28.4891 39.2653C28.4891 38.772 28.84 38.3685 29.2691 38.3685C29.703 38.3685 30.0494 38.7664 30.0494 39.2653C30.0494 39.7642 29.703 40.1624 29.2691 40.1624ZM40.0592 36.7598H29.2691C28.0648 36.7598 27.0946 37.8808 27.0946 39.2598C27.0946 40.6444 28.0648 41.7599 29.2691 41.7599C30.4734 41.7599 31.4439 40.6388 31.4439 39.2598H37.8799C37.8799 40.6444 38.855 41.7599 40.0544 41.7599C41.2587 41.7599 42.2337 40.6388 42.2337 39.2598C42.2386 37.8808 41.2635 36.7598 40.0592 36.7598Z" fill="white"/>
<path fill-rule="evenodd" clip-rule="evenodd" d="M36.3878 66.88V43.0501H37.2996V66.88H36.3878ZM31.912 43.0501H32.8235V66.88H31.912V43.0501ZM34.1499 43.0501H35.0617V66.88H34.1499V43.0501ZM37.4555 39.8887H31.912C31.6682 40.9425 31.3267 41.5928 30.5368 41.8899V66.8742H29.2741V69.3353H27.6162V74.3131H41.7218V69.3353H40.0642V66.8742H38.8012V41.8899C37.8846 41.5367 37.6993 40.9145 37.4555 39.8887Z" fill="white"/>
<path fill-rule="evenodd" clip-rule="evenodd" d="M57.4951 40.1624C57.0612 40.1624 56.7104 39.7586 56.7104 39.2653C56.7104 38.772 57.0612 38.3685 57.4951 38.3685C57.929 38.3685 58.2802 38.7664 58.2802 39.2653C58.2802 39.7642 57.929 40.1624 57.4951 40.1624ZM46.7101 40.1624C46.2761 40.1624 45.9301 39.7586 45.9301 39.2653C45.9301 38.772 46.281 38.3685 46.7101 38.3685C47.1391 38.3685 47.4901 38.7664 47.4901 39.2653C47.4901 39.7642 47.1391 40.1624 46.7101 40.1624ZM57.4951 36.7598H46.7053C45.501 36.7598 44.5258 37.8808 44.5258 39.2598C44.5258 40.6444 45.501 41.7599 46.7053 41.7599C47.9048 41.7599 48.8798 40.6388 48.8798 39.2598H55.3158C55.3158 40.6444 56.2909 41.7599 57.4903 41.7599C58.6947 41.7599 59.6699 40.6388 59.6699 39.2598C59.6748 37.8808 58.6994 36.7598 57.4951 36.7598Z" fill="white"/>
<path fill-rule="evenodd" clip-rule="evenodd" d="M53.8237 66.88V43.0501H54.7355V66.88H53.8237ZM49.3479 43.0501H50.2597V66.88H49.3479V43.0501ZM51.5858 43.0501H52.4976V66.88H51.5858V43.0501ZM54.8915 39.8887H49.3479C49.1041 40.9425 48.7627 41.5928 47.968 41.8899V66.8742H46.7053V69.3353H45.0474V74.3131H59.1577V69.3353H57.5002V66.8742H56.2372V41.8899C55.3205 41.5367 55.1401 40.9145 54.8915 39.8887Z" fill="white"/>
<path fill-rule="evenodd" clip-rule="evenodd" d="M74.1605 40.1624C73.7265 40.1624 73.3802 39.7586 73.3802 39.2653C73.3802 38.772 73.7314 38.3685 74.1605 38.3685C74.5895 38.3685 74.9405 38.7664 74.9405 39.2653C74.9405 39.7642 74.5895 40.1624 74.1605 40.1624ZM63.3704 40.1624C62.9365 40.1624 62.5853 39.7586 62.5853 39.2653C62.5853 38.772 62.9365 38.3685 63.3704 38.3685C63.7995 38.3685 64.1507 38.7664 64.1507 39.2653C64.1507 39.7642 63.8043 40.1624 63.3704 40.1624ZM74.1605 36.7598H63.3755C62.1711 36.7598 61.1959 37.8808 61.1959 39.2598C61.1959 40.6444 62.1711 41.7599 63.3755 41.7599C64.5749 41.7599 65.55 40.6388 65.55 39.2598H71.986C71.986 40.6444 72.961 41.7599 74.1605 41.7599C75.3648 41.7599 76.34 40.6388 76.34 39.2598C76.3352 37.8808 75.3648 36.7598 74.1605 36.7598Z" fill="white"/>
<path fill-rule="evenodd" clip-rule="evenodd" d="M70.4887 66.88V43.0501H71.4005V66.88H70.4887ZM66.0126 43.0501H66.9244V66.88H66.0126V43.0501ZM68.2508 43.0501H69.1623V66.88H68.2508V43.0501ZM71.5514 39.8887H66.0078C65.7641 40.9425 65.4228 41.5928 64.633 41.8899V66.8742H63.37V69.3353H61.7124V74.3131H75.8177V69.3353H74.1601V66.8742H72.8971V41.8899C71.9805 41.5367 71.8 40.9145 71.5514 39.8887Z" fill="white"/>
<path fill-rule="evenodd" clip-rule="evenodd" d="M24.3937 33.0663H30.5372V36.2445H38.7968V33.0663H47.968V36.2445H56.2324V33.0663H64.6334V36.2445H72.8976V33.0663H80.6013V30.4482H24.3937V33.0663Z" fill="white"/>
<path fill-rule="evenodd" clip-rule="evenodd" d="M52.4976 0L19.5474 28.6733H25.2956L52.4976 5.00043L79.7044 28.6733H85.4526L52.4976 0Z" fill="white"/>
<path fill-rule="evenodd" clip-rule="evenodd" d="M30.1524 27.5351H75.1456L52.498 7.83105L30.1524 27.5351Z" fill="white"/>
<path fill-rule="evenodd" clip-rule="evenodd" d="M82.2639 75.5757H23.5065V80.4807H82.2639V75.5757Z" fill="white"/>
</svg>
