<svg width="105" height="100" viewBox="0 0 105 100" fill="none" xmlns="http://www.w3.org/2000/svg">
<path fill-rule="evenodd" clip-rule="evenodd" d="M67.7464 10.6844C66.4981 10.6844 65.4838 9.4191 65.4838 7.86164C65.4838 6.29846 66.4981 5.03292 67.7464 5.03292C68.9994 5.03292 70.0137 6.29846 70.0137 7.86164C70.0137 9.42483 69.004 10.6844 67.7464 10.6844ZM36.5237 10.6844C35.2707 10.6844 34.2563 9.4191 34.2563 7.86164C34.2563 6.29846 35.2707 5.03292 36.5237 5.03292C37.772 5.03292 38.7862 6.29846 38.7862 7.86164C38.7862 9.42483 37.7766 10.6844 36.5237 10.6844ZM67.7464 0H36.5237C33.0448 0 30.222 3.52138 30.222 7.86164C30.222 12.2019 33.0448 15.7233 36.5237 15.7233C40.0025 15.7233 42.8206 12.2019 42.8206 7.86164H61.4495C61.4495 12.2019 64.2675 15.7233 67.7464 15.7233C71.2299 15.7233 74.0478 12.2019 74.0478 7.86164C74.0478 3.52138 71.2299 0 67.7464 0Z" fill="white"/>
<path fill-rule="evenodd" clip-rule="evenodd" d="M57.1219 49.9864V19.7592H59.761V49.9864H57.1219ZM44.17 19.7592H46.8091V49.9864H44.17V19.7592ZM50.646 19.7592H53.285V49.9864H50.646V19.7592ZM60.2153 9.83032H44.17C43.4541 13.1342 42.4721 15.1784 40.1819 16.1231V49.9864H36.5285V57.7107H31.7232V73.3484H72.552V57.7107H67.7468V49.9864H64.0934V16.1231C61.4498 15.0123 60.9267 13.054 60.2153 9.83032Z" fill="white"/>
<path fill-rule="evenodd" clip-rule="evenodd" d="M6.17284 31.8929H9.54163V33.1067H7.26057V34.8702H9.27551V36.0843H7.26057V38.6208H9.63799V39.8346H6.1776V31.8929H6.17284ZM11.9557 36.3076C11.1159 35.8438 10.4596 35.191 10.4596 33.9542C10.4596 32.62 11.3638 31.7668 12.4423 31.7668C13.1078 31.7668 13.7411 32.0989 14.2276 32.7058L13.9018 33.6337C13.4061 33.1699 12.9288 32.918 12.479 32.918C11.8778 32.918 11.4969 33.313 11.4969 33.9199C11.4969 34.5269 11.9283 34.8247 12.525 35.1568C13.5347 35.7065 14.3928 36.2389 14.3928 37.6189C14.3928 39.1763 13.4382 39.9664 12.3137 39.9664C11.5978 39.9664 10.8817 39.6345 10.3677 39.0619L10.7027 38.1228C11.304 38.6095 11.7997 38.8099 12.3137 38.8099C12.892 38.8099 13.3418 38.4892 13.3418 37.7391C13.3464 37.0863 12.736 36.7371 11.9557 36.3076ZM14.7416 31.8929H19.2166V33.1067H17.5274V39.829H16.4397V33.1067H14.7416V31.8929ZM19.9278 38.2773C20.2996 38.2773 20.6071 38.6551 20.6071 39.1189C20.6071 39.5827 20.2996 39.9664 19.9278 39.9664C19.5561 39.9664 19.2533 39.5827 19.2533 39.1189C19.2533 38.6551 19.5561 38.2773 19.9278 38.2773ZM24.7194 43.1215V28.0566H0L1.14739 35.8438L0 43.1156H24.7194V43.1215Z" fill="white"/>
<path fill-rule="evenodd" clip-rule="evenodd" d="M94.1871 34.1275C94.6507 34.1275 95.0272 33.6979 95.0272 33.0909C95.0272 32.4725 94.6552 32.0547 94.1871 32.0547C93.7327 32.0547 93.3565 32.4725 93.3565 33.0909C93.3565 33.6979 93.7282 34.1275 94.1871 34.1275Z" fill="white"/>
<path fill-rule="evenodd" clip-rule="evenodd" d="M88.9506 32.1387C88.3402 32.1387 87.8354 32.6942 87.8354 33.5646C87.8354 34.4349 88.3402 34.9905 88.9506 34.9905C89.561 34.9905 90.0658 34.4292 90.0658 33.5646C90.0658 32.6942 89.561 32.1387 88.9506 32.1387Z" fill="white"/>
<path fill-rule="evenodd" clip-rule="evenodd" d="M101.044 31.4857L98.5563 39.0437H97.4686L99.7082 32.3217H96.8674V31.1076H101.044V31.4857ZM94.1869 39.1698C92.9844 39.1698 92.0114 38.0874 92.0114 36.6731C92.0114 35.8028 92.3832 35.0413 92.9661 34.6405C92.576 34.2855 92.3465 33.7016 92.3465 33.0832C92.3465 31.8922 93.1588 30.9758 94.1869 30.9758C95.2287 30.9758 96.0366 31.8922 96.0366 33.0832C96.0366 33.7016 95.807 34.2741 95.4169 34.6405C95.9998 35.0471 96.3623 35.8085 96.3623 36.6731C96.3623 38.0874 95.3985 39.1698 94.1869 39.1698ZM90.4831 35.6138L88.6244 39.0381H87.4036L89.0603 36.0262C87.8119 36.2953 86.7703 35.1102 86.7703 33.5585C86.7703 32.1213 87.7433 30.9646 88.9457 30.9646C90.139 30.9646 91.1212 32.1156 91.1212 33.5585C91.1258 34.3487 90.7814 35.0641 90.4831 35.6138ZM85.9624 39.0381H83.1124V38.0361H83.9889V32.9801L82.9701 33.5299L82.7314 33.0028L84.5993 30.9702H85.0766V38.0361H85.9624V39.0381ZM80.2806 27.2598V42.3246H105L103.853 35.0529L105 27.2657H80.2806V27.2598Z" fill="white"/>
<path fill-rule="evenodd" clip-rule="evenodd" d="M94.1871 35.2842C93.5675 35.2842 93.0719 35.8226 93.0719 36.6643C93.0719 37.5003 93.5675 38.0325 94.1871 38.0325C94.8158 38.0325 95.3025 37.4946 95.3025 36.6643C95.3025 35.8169 94.8158 35.2842 94.1871 35.2842Z" fill="white"/>
<path fill-rule="evenodd" clip-rule="evenodd" d="M15.9073 61.6043L14.9389 59.6919L5.95248 66.7578L8.89884 72.5868L10.2759 71.5104L8.29769 67.5937L15.9073 61.6043Z" fill="white"/>
<path fill-rule="evenodd" clip-rule="evenodd" d="M17.5873 75.7358L18.8081 74.3959L16.5915 71.2467L18.363 69.3056L20.8735 72.8728L22.0943 71.5389L18.386 66.2651L10.4046 75.0085L14.2185 80.4311L15.4396 79.0912L12.8235 75.3751L15.3707 72.5866L17.5873 75.7358Z" fill="white"/>
<path fill-rule="evenodd" clip-rule="evenodd" d="M23.0672 81.0041L22.1678 82.4244L23.3289 83.5693L22.1678 85.4076C21.5206 85.5336 20.91 85.3102 20.373 84.7834C19.1981 83.6268 19.134 81.2561 20.6624 78.8398C22.1723 76.452 24.0906 76.1144 25.3528 77.3569C26.055 78.044 26.4312 79.1489 26.3853 80.2426L27.7714 80.0364C27.9825 78.3243 27.363 76.6982 26.2385 75.593C24.0768 73.463 21.0845 74.4422 19.2074 77.4083C17.3348 80.3743 17.1651 84.1018 19.2304 86.1345C19.9922 86.8846 20.9102 87.2569 21.7868 87.1882L21.6719 88.2646L22.2089 88.7917L25.5685 83.4722L23.0672 81.0041Z" fill="white"/>
<path fill-rule="evenodd" clip-rule="evenodd" d="M33.0589 86.7488L32.3703 88.4952L29.1438 86.514L29.8324 84.7676C30.5713 82.8952 31.636 82.3513 32.5631 82.9181C33.4901 83.485 33.7932 84.8764 33.0589 86.7488ZM33.2883 81.0687C31.4571 79.9464 29.355 80.8279 28.1754 83.8226L25.284 91.1691L26.9135 92.1711L28.4234 88.3348L31.6543 90.316L30.1444 94.1523L31.7737 95.1487L34.6651 87.8022C35.8446 84.8018 35.1195 82.1909 33.2883 81.0687Z" fill="white"/>
<path fill-rule="evenodd" clip-rule="evenodd" d="M39.741 84.4469L37.9969 83.8286L35.1055 96.5802L40.4203 98.4524L40.8654 96.5058L37.2946 95.2459L39.741 84.4469Z" fill="white"/>
<path fill-rule="evenodd" clip-rule="evenodd" d="M50.1916 91.9974C49.2048 91.3962 48.5026 90.8693 48.5302 89.8558C48.5577 88.8423 49.214 88.2125 50.2146 88.2583C50.9627 88.2927 51.7475 88.745 52.5553 89.558L53.1382 88.0294C52.358 86.9816 51.3208 86.3802 50.2101 86.3344C48.411 86.2542 46.8596 87.6169 46.7954 89.8443C46.7357 91.9113 47.8051 93.0509 49.182 93.8812C50.4671 94.6542 51.4676 95.2727 51.4401 96.3663C51.4034 97.6146 50.6415 98.1183 49.6731 98.0725C48.8148 98.0324 47.9934 97.6603 47.0158 96.8015L46.4144 98.3476C47.2451 99.3382 48.4246 99.9449 49.6179 99.9964C51.495 100.077 53.1245 98.8398 53.1979 96.2402C53.253 93.9384 51.8484 92.9823 50.1916 91.9974Z" fill="white"/>
<path fill-rule="evenodd" clip-rule="evenodd" d="M57.5717 97.3927L57.1263 93.1958L60.4539 92.646L60.2426 90.6361L56.9153 91.1918L56.6033 88.2771L60.3757 87.6529L60.16 85.6431L54.5883 86.565L55.9881 99.7004L61.7158 98.7498L61.5001 96.7402L57.5717 97.3927Z" fill="white"/>
<path fill-rule="evenodd" clip-rule="evenodd" d="M66.223 90.641L64.8919 91.1907L63.6529 86.4954L64.9838 85.9456C66.0853 85.4933 67.1362 85.9169 67.5584 87.5029C67.976 89.0833 67.3291 90.1829 66.223 90.641ZM69.3254 86.7701C68.7196 84.4682 66.916 83.0997 64.6487 84.0273L61.4405 85.3442L64.7633 97.9242L66.4844 97.2141L65.3785 93.0227L66.7371 92.4618L70.4591 95.5708L72.4693 94.7408L68.3708 91.3452C69.4723 90.1828 69.7706 88.4478 69.3254 86.7701Z" fill="white"/>
<path fill-rule="evenodd" clip-rule="evenodd" d="M74.2915 78.4348L75.7877 88.2892L69.858 81.5211L68.1736 82.6951L76.7193 92.0109L77.8345 91.2323L75.9619 77.2725L74.2915 78.4348Z" fill="white"/>
<path fill-rule="evenodd" clip-rule="evenodd" d="M84.4711 83.3399L79.4868 75.6272L80.6389 74.4648L79.7988 73.165L76.0905 76.8926L76.9304 78.1924L78.0733 77.0415L83.0575 84.7599L81.9146 85.9107L82.7547 87.2108L86.463 83.4832L85.6232 82.1831L84.4711 83.3399Z" fill="white"/>
<path fill-rule="evenodd" clip-rule="evenodd" d="M90.6166 73.3609C90.7818 74.4316 90.6944 75.4105 90.0978 76.235C89.1478 77.5463 87.2983 77.5179 85.49 75.4794C83.6863 73.441 83.4705 71.1332 84.4205 69.822C85.0172 68.9974 85.7882 68.7972 86.6694 68.906L86.6007 67.1652C85.2789 66.7701 84.0441 67.2511 83.0849 68.5796C81.3317 70.9959 82.0064 74.649 84.2507 77.1856C86.4905 79.7165 89.4645 80.1802 91.2177 77.7696C92.177 76.4412 92.4202 74.901 91.9934 73.2634L90.6166 73.3609Z" fill="white"/>
<path fill-rule="evenodd" clip-rule="evenodd" d="M94.4718 68.7047L91.5941 66.4655L93.3703 62.9099L91.9888 61.839L90.2128 65.395L88.2115 63.8433L90.2265 59.812L88.8449 58.7412L85.8756 64.6905L94.8939 71.699L97.9462 65.5722L96.5646 64.5018L94.4718 68.7047Z" fill="white"/>
</svg>
