<svg width="105" height="100" viewBox="0 0 105 100" fill="none" xmlns="http://www.w3.org/2000/svg">
<path fill-rule="evenodd" clip-rule="evenodd" d="M9.45444 85.0601L2.95834 86.5247L7.36879 92.4763L6.90567 99.9998L22.3393 95.709C21.7155 95.6258 10.8432 91.3004 10.8432 91.3004C10.3802 89.2187 9.9174 87.1418 9.45444 85.0601Z" fill="white"/>
<path fill-rule="evenodd" clip-rule="evenodd" d="M23.4163 93.9316C23.4398 93.9363 23.4492 93.9362 23.4398 93.9268L23.4163 93.9316Z" fill="white"/>
<path fill-rule="evenodd" clip-rule="evenodd" d="M12.0811 90.5651C12.0811 90.5651 22.9582 94.8852 23.582 94.9734L23.6111 94.9638C23.5867 94.9295 23.538 94.7481 23.4698 94.4639L21.8229 88.6499C18.5627 89.2034 15.317 89.8352 12.0811 90.5651Z" fill="white"/>
<path fill-rule="evenodd" clip-rule="evenodd" d="M94.1616 91.3004C94.1616 91.3004 83.2842 95.6209 82.6604 95.709L98.0943 99.9998L97.6312 92.4763L102.042 86.5247L95.5455 85.0601C95.0875 87.1418 94.6245 89.2187 94.1616 91.3004Z" fill="white"/>
<path fill-rule="evenodd" clip-rule="evenodd" d="M81.5349 94.4639C81.4667 94.7481 81.418 94.9295 81.3936 94.9638L81.4228 94.9686C82.0417 94.8853 92.9189 90.5651 92.9189 90.5651C89.6879 89.8352 86.4372 89.2034 83.1818 88.6499L81.5349 94.4639Z" fill="white"/>
<path fill-rule="evenodd" clip-rule="evenodd" d="M25.4874 75.6205C24.5128 75.7576 23.9038 76.6247 24.1231 78.104C24.1913 78.5645 24.2547 79.0249 24.3229 79.4805C25.4341 79.3188 26.54 79.1621 27.6462 79.0201C27.5878 78.5596 27.5295 78.0941 27.4711 77.6385C27.2859 76.1543 26.467 75.4833 25.4874 75.6205Z" fill="white"/>
<path fill-rule="evenodd" clip-rule="evenodd" d="M50.2533 73.7497C49.1324 73.7643 48.0408 74.925 48.0992 77.2174C48.1577 79.5245 49.2591 80.6364 50.3312 80.6217C51.4082 80.6071 52.4852 79.4707 52.49 77.1636C52.49 74.8761 51.3741 73.735 50.2533 73.7497Z" fill="white"/>
<path fill-rule="evenodd" clip-rule="evenodd" d="M17.1104 65.4524C15.5655 65.5797 14.0499 67.3384 14.0548 67.3482C14.0353 67.3677 16.7741 68.9839 18.3676 68.7488C19.9368 68.5333 20.4729 66.7015 20.4875 66.7113C20.4729 66.7211 18.6406 65.3348 17.1104 65.4524Z" fill="white"/>
<path fill-rule="evenodd" clip-rule="evenodd" d="M22.0712 64.2334C22.037 62.7345 20.7165 60.545 20.7359 60.5352C20.7457 60.5401 18.9717 62.0684 18.8743 63.5819C18.7622 65.1053 20.4824 66.7218 20.4873 66.7071C20.5019 66.7218 22.0858 65.747 22.0712 64.2334Z" fill="white"/>
<path fill-rule="evenodd" clip-rule="evenodd" d="M9.28888 61.8735C9.26938 61.8931 11.6717 63.8379 13.2555 63.8183C14.8101 63.8183 15.6435 62.1137 15.6532 62.1235C15.6386 62.1284 14.089 60.5363 12.5783 60.4433C11.0529 60.36 9.28888 61.8735 9.28888 61.8735Z" fill="white"/>
<path fill-rule="evenodd" clip-rule="evenodd" d="M17.6124 59.9323C17.8317 58.4726 16.9059 56.1607 16.9254 56.1558C16.9351 56.1607 14.9565 57.4099 14.6056 58.8647C14.2499 60.3342 15.6435 62.1319 15.6532 62.1172C15.6678 62.1368 17.3688 61.4018 17.6124 59.9323Z" fill="white"/>
<path fill-rule="evenodd" clip-rule="evenodd" d="M8.95755 54.9522C7.47121 54.6534 5.50249 55.8779 5.50249 55.8877C5.48299 55.9024 7.53457 58.1311 9.08426 58.3369C10.6096 58.5475 11.6962 57.0044 11.7059 57.0142C11.6913 57.0142 10.4293 55.251 8.95755 54.9522Z" fill="white"/>
<path fill-rule="evenodd" clip-rule="evenodd" d="M11.1943 53.6914C10.6144 55.0776 11.6963 57.0174 11.7011 57.0076C11.7109 57.0174 13.4946 56.5374 13.9673 55.1414C14.4205 53.7552 13.8747 51.3696 13.8942 51.3696C13.9039 51.3794 11.7645 52.3199 11.1943 53.6914Z" fill="white"/>
<path fill-rule="evenodd" clip-rule="evenodd" d="M6.24284 49.0719C4.81985 48.5673 2.69022 49.4883 2.69022 49.498C2.67072 49.5078 4.35692 51.9815 5.84814 52.393C7.31986 52.8142 8.62582 51.4573 8.63069 51.472C8.62095 51.472 7.64634 49.5764 6.24284 49.0719Z" fill="white"/>
<path fill-rule="evenodd" clip-rule="evenodd" d="M8.63555 48.1613C7.85096 49.4348 8.62105 51.4823 8.63079 51.4774C8.63567 51.4921 10.4682 51.2717 11.1504 49.9736C11.8083 48.6805 11.6327 46.2754 11.6522 46.2754C11.6522 46.2754 9.40553 46.8975 8.63555 48.1613Z" fill="white"/>
<path fill-rule="evenodd" clip-rule="evenodd" d="M4.42999 42.9258C3.09959 42.2254 0.858035 42.8278 0.858035 42.8376C0.838542 42.8474 2.1396 45.517 3.55284 46.1293C4.94172 46.7563 6.43772 45.6101 6.43772 45.6248C6.42797 45.6199 5.74578 43.6214 4.42999 42.9258Z" fill="white"/>
<path fill-rule="evenodd" clip-rule="evenodd" d="M9.14757 44.5078C9.99552 43.3322 10.1709 40.9419 10.1904 40.9468C10.1904 40.9468 7.87545 41.2406 6.93491 42.3721C5.97488 43.5085 6.42832 45.6344 6.44294 45.6246C6.44294 45.6344 8.285 45.6785 9.14757 44.5078Z" fill="white"/>
<path fill-rule="evenodd" clip-rule="evenodd" d="M2.19809 39.6442C3.48464 40.4573 5.12212 39.5462 5.12699 39.5609C5.11237 39.556 4.72748 37.489 3.52379 36.6122C2.30547 35.7354 0.00518168 36 0.000308414 36.0098C-0.0191846 36.0147 0.887187 38.836 2.19809 39.6442Z" fill="white"/>
<path fill-rule="evenodd" clip-rule="evenodd" d="M7.96822 38.849C8.97212 37.8155 9.48382 35.4839 9.50331 35.4888C9.50331 35.4986 7.17388 35.4496 6.0774 36.4244C4.96629 37.409 5.11246 39.5641 5.12708 39.5592C5.12708 39.569 6.93997 39.8826 7.96822 38.849Z" fill="white"/>
<path fill-rule="evenodd" clip-rule="evenodd" d="M1.78407 33.0508C2.93904 34.0403 4.69334 33.3741 4.69334 33.3888C4.68359 33.3839 4.5958 31.2825 3.52856 30.2441C2.4467 29.1958 0.131791 29.1272 0.131791 29.137C0.102552 29.1419 0.59987 32.0613 1.78407 33.0508Z" fill="white"/>
<path fill-rule="evenodd" clip-rule="evenodd" d="M7.60267 33.1001C8.74301 32.2233 9.58595 29.9945 9.60057 29.9994C9.60057 30.0092 7.30058 29.6174 6.07739 30.4306C4.83959 31.2437 4.6786 33.3939 4.68835 33.3939C4.69322 33.4037 6.44283 33.972 7.60267 33.1001Z" fill="white"/>
<path fill-rule="evenodd" clip-rule="evenodd" d="M5.1367 27.2227C5.12208 27.2178 5.33641 25.1213 4.42998 23.931C3.50893 22.7359 1.22815 22.3292 1.22328 22.339C1.19891 22.339 1.27711 25.3124 2.30536 26.4635C3.30438 27.6146 5.1367 27.2129 5.1367 27.2227Z" fill="white"/>
<path fill-rule="evenodd" clip-rule="evenodd" d="M8.06066 27.3533C9.31309 26.6528 10.4632 24.5564 10.4827 24.5662C10.4827 24.5759 8.26038 23.8558 6.93485 24.4827C5.5947 25.1146 5.12696 27.2259 5.14158 27.221C5.13671 27.2357 6.78874 28.0537 8.06066 27.3533Z" fill="white"/>
<path fill-rule="evenodd" clip-rule="evenodd" d="M6.46211 21.1628C6.44749 21.1579 6.96414 19.1006 6.2429 17.7829C5.50703 16.4604 3.3043 15.7257 3.29943 15.7354C3.27506 15.7354 2.91448 18.7087 3.7673 20.0019C4.59088 21.2852 6.46698 21.1481 6.46211 21.1628Z" fill="white"/>
<path fill-rule="evenodd" clip-rule="evenodd" d="M9.33255 21.7154C10.6727 21.2011 12.1201 19.2809 12.1347 19.2858C12.1347 19.2956 10.0393 18.2572 8.63089 18.6931C7.2079 19.1291 6.438 21.1619 6.45749 21.1619C6.45749 21.1766 7.97291 22.2248 9.33255 21.7154Z" fill="white"/>
<path fill-rule="evenodd" clip-rule="evenodd" d="M8.66002 15.3133C8.65027 15.3036 9.46897 13.3246 8.9524 11.909C8.42609 10.4787 6.35497 9.43046 6.3501 9.44025C6.32573 9.43536 5.51207 12.3548 6.16509 13.7704C6.79374 15.1664 8.66976 15.3036 8.66002 15.3133Z" fill="white"/>
<path fill-rule="evenodd" clip-rule="evenodd" d="M11.4281 16.2785C12.8365 15.9552 14.5666 14.2457 14.5813 14.2555C14.5813 14.2653 12.6563 12.9281 11.1943 13.1632C9.71772 13.3935 8.65056 15.3136 8.66518 15.3136C8.65543 15.3283 10.0051 16.592 11.4281 16.2785Z" fill="white"/>
<path fill-rule="evenodd" clip-rule="evenodd" d="M11.7447 9.77974C11.7349 9.76995 12.8607 7.90865 12.5781 6.40977C12.2808 4.90109 10.3948 3.55884 10.3851 3.56373C10.3607 3.55884 9.08393 6.37049 9.5079 7.87427C9.91238 9.37315 11.7544 9.76995 11.7447 9.77974Z" fill="white"/>
<path fill-rule="evenodd" clip-rule="evenodd" d="M14.3424 11.1456C15.7897 11.0182 17.7828 9.54875 17.7974 9.56345C17.7926 9.57324 16.0967 7.95685 14.6006 7.98624C13.0898 8.01073 11.7255 9.779 11.7401 9.779C11.7401 9.7937 12.8804 11.2534 14.3424 11.1456Z" fill="white"/>
<path fill-rule="evenodd" clip-rule="evenodd" d="M17.6756 4.99274C18.777 3.74367 20.5898 0.00623607 20.6581 0.00623607C20.6581 -0.0476453 16.5547 1.2699 15.2827 2.69531C13.9718 4.06684 14.3325 6.27611 14.3422 6.26141C14.352 6.24672 16.5012 6.21731 17.6756 4.99274Z" fill="white"/>
<path fill-rule="evenodd" clip-rule="evenodd" d="M86.6322 68.7488C88.2257 68.9839 90.9645 67.3677 90.945 67.3482C90.9499 67.3384 89.4343 65.5797 87.8894 65.4524C86.3592 65.3348 84.5269 66.7211 84.5123 66.7113C84.5269 66.7015 85.063 68.5333 86.6322 68.7488Z" fill="white"/>
<path fill-rule="evenodd" clip-rule="evenodd" d="M84.5172 66.712C84.527 66.7266 86.2422 65.1102 86.135 63.5868C86.0376 62.0733 84.2636 60.54 84.2733 60.54C84.2977 60.5449 82.9722 62.7394 82.9381 64.2383C82.9186 65.747 84.5026 66.7217 84.5172 66.712Z" fill="white"/>
<path fill-rule="evenodd" clip-rule="evenodd" d="M95.7112 61.8733C95.7161 61.8635 93.9472 60.3599 92.4218 60.4481C90.9111 60.5411 89.3612 62.1329 89.3466 62.128C89.3563 62.1182 90.1848 63.8228 91.7443 63.8228C93.3281 63.8375 95.7307 61.8928 95.7112 61.8733Z" fill="white"/>
<path fill-rule="evenodd" clip-rule="evenodd" d="M90.3943 58.8693C90.0483 57.4145 88.0746 56.1606 88.0746 56.1606C88.099 56.1655 87.1682 58.4775 87.3875 59.9372C87.6312 61.4018 89.332 62.1413 89.3417 62.1266C89.3563 62.1364 90.755 60.3388 90.3943 58.8693Z" fill="white"/>
<path fill-rule="evenodd" clip-rule="evenodd" d="M99.4976 55.8864C99.5025 55.8766 97.5289 54.6571 96.0426 54.951C94.5708 55.2498 93.3136 57.013 93.299 57.013C93.3039 56.9983 94.3904 58.5462 95.9206 58.3356C97.4703 58.1299 99.522 55.9011 99.4976 55.8864Z" fill="white"/>
<path fill-rule="evenodd" clip-rule="evenodd" d="M93.8058 53.6914C93.2405 52.3199 91.1008 51.3794 91.1008 51.3696C91.1203 51.3745 90.5747 53.7552 91.028 55.1414C91.5007 56.5374 93.2841 57.0174 93.2939 57.0076C93.3085 57.0223 94.3905 55.0776 93.8058 53.6914Z" fill="white"/>
<path fill-rule="evenodd" clip-rule="evenodd" d="M99.1517 52.3972C100.648 51.9858 102.329 49.5121 102.31 49.5023C102.31 49.4925 100.18 48.5718 98.7618 49.0763C97.3583 49.5808 96.3838 51.4764 96.3692 51.4764C96.374 51.4617 97.6849 52.8185 99.1517 52.3972Z" fill="white"/>
<path fill-rule="evenodd" clip-rule="evenodd" d="M93.8543 49.9691C94.5366 51.2672 96.3643 51.4876 96.3692 51.473C96.3838 51.4828 97.1489 49.4304 96.3692 48.1568C95.5992 46.893 93.3477 46.2759 93.3525 46.2661C93.3671 46.271 93.1915 48.676 93.8543 49.9691Z" fill="white"/>
<path fill-rule="evenodd" clip-rule="evenodd" d="M101.452 46.1296C102.865 45.5124 104.166 42.8428 104.147 42.8379C104.147 42.8281 101.905 42.2306 100.575 42.9261C99.2589 43.6217 98.5816 45.6202 98.5669 45.6251C98.5669 45.6104 100.058 46.7566 101.452 46.1296Z" fill="white"/>
<path fill-rule="evenodd" clip-rule="evenodd" d="M98.0747 42.3721C97.1293 41.2406 94.8143 40.9566 94.8192 40.9468C94.8387 40.9419 95.0142 43.3322 95.8573 44.5078C96.7198 45.6834 98.5621 45.6344 98.567 45.6246C98.5767 45.6295 99.0298 43.5085 98.0747 42.3721Z" fill="white"/>
<path fill-rule="evenodd" clip-rule="evenodd" d="M101.481 36.6122C100.277 37.489 99.8924 39.556 99.8778 39.5609C99.8778 39.5462 101.52 40.4573 102.802 39.6442C104.113 38.8311 105.019 36.0147 105 36.0098C105 36 102.694 35.7354 101.481 36.6122Z" fill="white"/>
<path fill-rule="evenodd" clip-rule="evenodd" d="M98.9227 36.4244C97.8311 35.4447 95.4968 35.4986 95.4968 35.4888C95.5163 35.4839 96.0328 37.8155 97.0319 38.849C98.0552 39.8826 99.8681 39.5739 99.873 39.5592C99.8925 39.5641 100.034 37.409 98.9227 36.4244Z" fill="white"/>
<path fill-rule="evenodd" clip-rule="evenodd" d="M100.311 33.3935C100.311 33.3788 102.066 34.045 103.221 33.0555C104.4 32.0661 104.902 29.1468 104.878 29.1419C104.878 29.1321 102.558 29.2006 101.481 30.2488C100.414 31.2873 100.326 33.3886 100.311 33.3935Z" fill="white"/>
<path fill-rule="evenodd" clip-rule="evenodd" d="M98.9227 30.4306C97.6995 29.6174 95.3992 30.0092 95.3992 29.9994C95.4187 29.9945 96.2571 32.2282 97.3974 33.1001C98.5572 33.972 100.307 33.4037 100.311 33.3939C100.326 33.3939 100.165 31.2486 98.9227 30.4306Z" fill="white"/>
<path fill-rule="evenodd" clip-rule="evenodd" d="M100.575 23.9358C99.6683 25.1261 99.8778 27.2227 99.8681 27.2276C99.8632 27.2129 101.695 27.6194 102.699 26.4683C103.728 25.3221 103.806 22.3439 103.781 22.3439C103.777 22.3341 101.491 22.7406 100.575 23.9358Z" fill="white"/>
<path fill-rule="evenodd" clip-rule="evenodd" d="M98.0747 24.4827C96.7492 23.8558 94.5221 24.5759 94.5221 24.5662C94.5415 24.5564 95.6917 26.6528 96.9441 27.3533C98.216 28.0537 99.868 27.2357 99.868 27.221C99.8826 27.2259 99.4148 25.1146 98.0747 24.4827Z" fill="white"/>
<path fill-rule="evenodd" clip-rule="evenodd" d="M98.5425 21.1627C98.5376 21.148 100.409 21.2901 101.233 20.0018C102.085 18.7087 101.725 15.7354 101.7 15.7354C101.7 15.7354 99.4928 16.4603 98.7569 17.7829C98.0406 19.1005 98.5522 21.1529 98.5425 21.1627Z" fill="white"/>
<path fill-rule="evenodd" clip-rule="evenodd" d="M96.3692 18.6931C94.9608 18.2572 92.865 19.2956 92.865 19.2858C92.8796 19.276 94.3272 21.1962 95.6723 21.7154C97.0319 22.2248 98.5522 21.1717 98.5473 21.1619C98.5571 21.1619 97.7873 19.134 96.3692 18.6931Z" fill="white"/>
<path fill-rule="evenodd" clip-rule="evenodd" d="M98.835 13.7657C99.488 12.3501 98.674 9.43072 98.6497 9.43561C98.6448 9.42582 96.5738 10.474 96.0426 11.9044C95.5309 13.3249 96.3495 15.3038 96.3398 15.3087C96.3349 15.2989 98.2112 15.1666 98.835 13.7657Z" fill="white"/>
<path fill-rule="evenodd" clip-rule="evenodd" d="M93.8058 13.1632C92.3438 12.9281 90.4236 14.2653 90.4236 14.2555C90.4382 14.2457 92.1682 15.9552 93.5717 16.2785C94.9947 16.592 96.3446 15.3233 96.3397 15.3086C96.3543 15.3135 95.2873 13.3935 93.8058 13.1632Z" fill="white"/>
<path fill-rule="evenodd" clip-rule="evenodd" d="M95.4968 7.87892C95.9257 6.37024 94.644 3.55859 94.6197 3.56838C94.6197 3.56838 92.7191 4.90559 92.4219 6.41427C92.1392 7.91315 93.2648 9.7746 93.255 9.7844C93.2501 9.7697 95.0923 9.3729 95.4968 7.87892Z" fill="white"/>
<path fill-rule="evenodd" clip-rule="evenodd" d="M90.3992 7.98624C88.908 7.95685 87.2072 9.57324 87.2023 9.56345C87.217 9.54875 89.2151 11.0182 90.6625 11.1456C92.1244 11.2534 93.2649 9.79373 93.26 9.78394C93.2746 9.77904 91.9099 8.01073 90.3992 7.98624Z" fill="white"/>
<path fill-rule="evenodd" clip-rule="evenodd" d="M90.6625 6.25677C90.6722 6.27147 91.028 4.06235 89.722 2.69082C88.4452 1.26542 84.3466 -0.0522841 84.3466 0.00159722C84.4148 0.00649553 86.2277 3.74393 87.3291 4.9881C88.5035 6.21757 90.6478 6.24698 90.6625 6.25677Z" fill="white"/>
<path fill-rule="evenodd" clip-rule="evenodd" d="M50.3507 82.0886C48.1918 82.1131 46.4767 80.0999 46.3793 77.2686C46.2769 74.4423 47.9484 72.3165 50.2388 72.292C52.5293 72.2626 54.2447 74.3492 54.2106 77.1804C54.1765 80.0068 52.5095 82.0641 50.3507 82.0886ZM39.4201 82.4315C39.0887 82.456 38.7574 82.4806 38.426 82.5051C37.6463 80.438 36.8519 78.3758 36.0283 76.3185C35.5654 78.4836 35.1219 80.6535 34.6979 82.8235C34.3665 82.8578 34.0352 82.887 33.7038 82.9212C32.3686 79.8598 30.9846 76.8082 29.5519 73.7713C30.1367 73.7027 30.7214 73.6392 31.3062 73.5755C32.1882 75.6083 33.0459 77.6459 33.8841 79.6885C34.3129 77.5185 34.7613 75.3535 35.2291 73.1934C35.5849 73.164 35.9358 73.1346 36.2916 73.1052C37.1152 75.1576 37.919 77.2197 38.6988 79.2819C39.1812 77.1266 39.6881 74.9715 40.2193 72.8212C40.8041 72.782 41.3938 72.7523 41.9786 72.718C41.0722 75.946 40.2193 79.1889 39.4201 82.4315ZM28.2262 83.4944C28.0946 82.4853 27.9678 81.4716 27.8362 80.4625C26.7349 80.6046 25.6335 80.7564 24.537 80.9229C24.6881 81.932 24.8343 82.9362 24.9805 83.9452C24.4347 84.0285 23.8891 84.1116 23.3482 84.1948C23.046 82.2649 22.7487 80.3349 22.4514 78.405C22.0761 76.044 23.3578 74.4276 25.2925 74.1582C27.2321 73.8888 28.8987 75.0988 29.1765 77.4695C29.4104 79.4093 29.6395 81.3489 29.8734 83.2887C29.3179 83.3524 28.772 83.4209 28.2262 83.4944ZM17.1299 85.2726C16.5402 82.1671 15.9554 79.0566 15.3658 75.9511C15.9359 75.8433 16.5062 75.7355 17.0763 75.6327C17.5539 78.268 18.0266 80.9081 18.4993 83.5434C19.6153 83.3377 20.7359 83.1467 21.8568 82.9655C21.9348 83.4406 22.0129 83.9206 22.0909 84.3958C20.4388 84.6603 18.7819 84.9591 17.1299 85.2726ZM56.1014 72.4636C57.9191 72.4979 59.7366 72.5516 61.5544 72.6349C61.5349 73.1199 61.5106 73.6 61.4863 74.0849C60.2533 74.0261 59.0253 73.9819 57.7923 73.9525C57.7729 74.6529 57.7581 75.3583 57.7337 76.0587C58.8497 76.0881 59.961 76.1275 61.077 76.1765C61.0526 76.6614 61.038 77.1413 61.0136 77.6262C59.9074 77.5772 58.801 77.5381 57.6948 77.5087C57.6558 79.0027 57.6169 80.4967 57.5779 81.9858C57.0321 81.9711 56.4765 81.9564 55.9307 81.9466C55.9891 78.7872 56.0429 75.623 56.1014 72.4636ZM63.1481 72.7132C64.9658 72.8112 66.7787 72.9337 68.5915 73.0807C68.5525 73.5607 68.5136 74.0407 68.4746 74.5256C67.2466 74.4276 66.0184 74.3394 64.7855 74.261C64.7416 74.9615 64.7026 75.662 64.6588 76.3625C65.7747 76.431 66.8859 76.5095 67.9922 76.6025C67.9581 77.0826 67.919 77.5625 67.88 78.0475C66.7787 77.9593 65.6725 77.881 64.5662 77.8125C64.4737 79.3015 64.381 80.7954 64.2884 82.2844C63.7378 82.2501 63.1919 82.2208 62.6412 82.1915C62.8118 79.0321 62.9775 75.8727 63.1481 72.7132ZM69.22 81.4569C69.6683 81.4961 70.112 81.5351 70.5555 81.5792C70.7797 79.2231 70.9989 76.867 71.2182 74.5109C70.7552 74.4669 70.2972 74.4228 69.8342 74.3836C69.8683 73.9868 69.9072 73.5902 69.9413 73.1934C71.452 73.3256 72.9628 73.4774 74.4686 73.6439C74.4248 74.0407 74.381 74.4375 74.3372 74.8293C73.8742 74.7755 73.4061 74.7265 72.9383 74.6775C72.6946 77.0287 72.4559 79.3848 72.2122 81.7409C72.6606 81.785 73.1088 81.8388 73.562 81.8829C73.5182 82.2797 73.4744 82.6764 73.4306 83.0731C71.993 82.9115 70.5553 82.7694 69.1177 82.642C69.1469 82.2501 69.1859 81.8537 69.22 81.4569ZM75.068 78.4983C75.3701 75.814 77.256 73.8057 79.7414 74.1486C81.101 74.3396 82.0759 75.0741 82.5242 76.2252C82.1685 76.4702 81.8176 76.7104 81.4716 76.9553C81.072 76.2451 80.5311 75.7502 79.6929 75.6327C78.3576 75.4465 77.0466 76.5438 76.7786 78.704C76.5154 80.8641 77.4755 82.2306 78.7571 82.4118C79.5661 82.5245 80.2045 82.2012 80.7747 81.6575C81.0329 81.9857 81.291 82.3188 81.5444 82.6519C80.7598 83.6119 79.7026 84.0381 78.4112 83.8618C76.0672 83.5336 74.7658 81.1875 75.068 78.4983ZM84.332 74.9959C86.101 75.2849 87.8701 75.5934 89.6342 75.9313C89.5465 76.4065 89.4588 76.8817 89.3662 77.3568C88.182 77.1315 86.9929 76.9161 85.8038 76.7152C85.6868 77.4059 85.5698 78.0966 85.4528 78.7922C86.4908 78.9734 87.529 79.1595 88.567 79.3554C88.4793 79.8306 88.3916 80.3058 88.299 80.7809C87.2707 80.5899 86.2423 80.4036 85.2092 80.2272C85.0386 81.2216 84.8729 82.2159 84.7024 83.2151C85.9012 83.4209 87.0952 83.6364 88.2892 83.8666C88.2015 84.3417 88.1089 84.8169 88.0212 85.2921C86.2912 84.959 84.561 84.6553 82.8261 84.3712C83.3281 81.2412 83.8301 78.121 84.332 74.9959ZM21.4428 18.3616C21.4428 18.3616 21.4719 18.3764 21.5353 18.4009C21.5986 18.4303 21.6911 18.4646 21.808 18.5038C22.0419 18.5821 22.3733 18.6801 22.7973 18.783C23.6404 18.9789 24.844 19.1895 26.3012 19.3217C27.7583 19.4491 29.4737 19.5226 31.3353 19.3658C32.2661 19.2875 33.2359 19.1552 34.23 18.9152C34.732 18.7927 35.2095 18.6556 35.7407 18.4547C36.0282 18.347 36.228 18.2589 36.4522 18.1658L37.1152 17.8816C38.7965 17.1763 40.5214 16.6227 42.1491 16.275C43.7767 15.9174 45.3118 15.7607 46.6032 15.7362C47.8654 15.7117 48.8937 15.8194 49.5857 15.937V69.0347C35.7846 69.2405 22.003 70.8666 8.45533 73.9133C9.14733 77.0384 9.8444 80.1686 10.5413 83.2938C11.0042 85.3755 11.4671 87.4573 11.93 89.5341C15.161 88.8092 18.4114 88.1724 21.6667 87.6189C21.7983 87.5944 21.9299 87.5749 22.0614 87.5553C45.7016 83.6072 69.912 84.2685 93.3573 89.5341C94.5171 84.3272 95.677 79.1202 96.832 73.9133C82.9919 70.8029 68.9081 69.1767 54.8147 69.0249V15.937C55.5067 15.8194 56.5301 15.7117 57.7971 15.7362C59.0885 15.7558 60.6187 15.9174 62.2513 16.275C63.8789 16.6227 65.609 17.1763 67.2854 17.8816L67.9481 18.1658C68.1674 18.2589 68.3721 18.347 68.6596 18.4547C69.1908 18.6556 69.6732 18.7927 70.1703 18.9152C71.1645 19.1552 72.1293 19.2924 73.065 19.3658C74.9266 19.5226 76.6421 19.454 78.0992 19.3217C79.5563 19.1895 80.76 18.9838 81.603 18.783C82.0221 18.685 82.3584 18.5821 82.5923 18.5038C82.7093 18.4646 82.7971 18.4303 82.8654 18.4009C82.9287 18.3764 82.9579 18.3616 82.9579 18.3616C83.2405 18.2489 83.3722 17.9257 83.2601 17.6465C83.1529 17.3869 82.8751 17.2498 82.6119 17.3184L82.5632 17.333C82.5632 17.333 82.5386 17.3379 82.4948 17.3526C82.4509 17.3673 82.3778 17.382 82.2803 17.4016C82.0854 17.4408 81.7833 17.4946 81.3886 17.5387C80.5942 17.6269 79.4345 17.6906 78.0456 17.6465C76.6616 17.6073 75.0388 17.4751 73.377 17.1323C72.5437 16.9608 71.7054 16.7355 70.9062 16.4367C70.5163 16.2898 70.1021 16.1133 69.7658 15.937C69.6147 15.8635 69.3955 15.7361 69.1908 15.6186L68.5865 15.2562C66.8711 14.257 65.0487 13.3998 63.2602 12.763C61.4717 12.1213 59.7222 11.6951 58.1725 11.4698C56.8713 11.2738 55.7211 11.215 54.8147 11.2248V10.0247H55.5604C56.3157 10.0247 56.9298 9.40765 56.9298 8.64841V8.41327C56.9298 7.64914 56.3157 7.03682 55.5604 7.03682H54.8147V5.36155C54.8147 4.02431 53.7379 2.94678 52.4075 2.94678H51.9979C50.6675 2.94678 49.5907 4.02921 49.5907 5.36155V7.03682H48.8498C48.0944 7.03682 47.4756 7.65404 47.4756 8.41327V8.64841C47.4756 9.40765 48.0896 10.0247 48.8498 10.0247H49.5907V11.2248C48.6843 11.2199 47.5341 11.2738 46.2329 11.4698C44.6881 11.6951 42.9336 12.1213 41.15 12.763C39.3615 13.3998 37.5391 14.257 35.8237 15.2562L35.2145 15.6186C35.0099 15.7361 34.7904 15.8635 34.6393 15.937C34.303 16.1182 33.8939 16.2946 33.4992 16.4367C32.7 16.7355 31.8617 16.9608 31.0284 17.1323C29.3617 17.4751 27.7486 17.6073 26.3597 17.6465C24.9709 17.6906 23.8112 17.622 23.0168 17.5387C22.6172 17.4946 22.3148 17.4408 22.1248 17.4016C22.0273 17.382 21.9542 17.3624 21.9103 17.3526C21.8616 17.3379 21.8375 17.333 21.8375 17.333L21.7934 17.3184C21.5303 17.2498 21.2525 17.3869 21.1453 17.6465C21.0235 17.9257 21.1601 18.2441 21.4428 18.3616Z" fill="white"/>
<path fill-rule="evenodd" clip-rule="evenodd" d="M37.5828 37.8604H29.3374V26.2366L37.5828 37.8604ZM28.8743 26.2366V37.8604H20.6287L28.8743 26.2366ZM20.049 37.8849H19.0888V40.0303H20.3851L21.5888 43.9489C21.8422 44.7767 22.5344 45.3302 23.3092 45.3302H34.9805C35.7553 45.3302 36.4475 44.7767 36.7009 43.9489L37.9046 40.0303H39.1812V37.8849H38.1675L29.3374 25.4382V24.1304C29.9612 24.0226 30.4338 23.474 30.4338 22.8176C30.4338 22.1612 29.9612 21.6176 29.3374 21.505V19.4377H28.8794V21.505C28.2556 21.6127 27.7827 22.1563 27.7827 22.8176C27.7827 23.474 28.2605 24.0177 28.8794 24.1304V25.4382L20.049 37.8849Z" fill="white"/>
<path fill-rule="evenodd" clip-rule="evenodd" d="M84.3222 37.8604H76.0769V26.2366L84.3222 37.8604ZM75.6138 26.2366V37.8604H67.3681L75.6138 26.2366ZM66.7834 37.8849H65.8235V40.0303H67.1198L68.3185 43.9489C68.5719 44.7767 69.264 45.3302 70.0389 45.3302H81.7104C82.4853 45.3302 83.1771 44.7767 83.4305 43.9489L84.6295 40.0303H85.9061V37.8849H84.8924L76.062 25.4382V24.1304C76.6858 24.0226 77.1587 23.474 77.1587 22.8176C77.1587 22.1612 76.6809 21.6176 76.062 21.505V19.4377H75.604V21.505C74.9802 21.6127 74.5076 22.1563 74.5076 22.8176C74.5076 23.474 74.9802 24.0177 75.604 24.1304V25.4382L66.7834 37.8849Z" fill="white"/>
</svg>
