<svg width="77" height="89" viewBox="0 0 77 89" fill="none" xmlns="http://www.w3.org/2000/svg">
<path d="M18.9338 15.279C18.9812 14.2461 19.0364 13.1735 19.0999 12.0539C23.06 10.681 31.9522 7.41337 38.4952 3.64202C45.0382 7.41337 53.9304 10.6807 57.8905 12.0539C57.954 13.1735 58.0092 14.2461 58.0566 15.279H61.1804C61.1001 13.5256 60.9983 11.6919 60.8785 9.77082C60.8785 9.77082 46.6507 5.17031 38.4952 0C30.3396 5.17008 16.1119 9.77082 16.1119 9.77082C15.992 11.6917 15.8903 13.5256 15.81 15.279H18.9338Z" fill="#B68C5A"/>
<path d="M23.204 35.5649C21.1771 36.547 18.6051 37.1346 15.8061 37.1346C13.007 37.1346 10.4353 36.547 8.40813 35.5649C8.10689 35.4189 7.80082 35.7648 7.98953 36.0414C8.86264 37.3203 10.1408 38.3646 11.6691 39.0456C11.4514 39.1719 11.3308 39.3104 11.3308 39.4559C11.3308 40.0455 13.3062 40.5234 15.743 40.5234C18.1799 40.5234 20.1553 40.0455 20.1553 39.4559C20.1553 39.3231 20.0545 39.1963 19.8715 39.0789C21.4318 38.3989 22.7355 37.3403 23.6224 36.0414C23.8114 35.7648 23.5053 35.4189 23.204 35.5649Z" fill="#B68C5A"/>
<path d="M68.5921 35.5649C66.5651 36.547 63.9932 37.1346 61.1941 37.1346C58.3951 37.1346 55.8234 36.547 53.7962 35.5649C53.495 35.4189 53.1889 35.7648 53.3776 36.0414C54.2507 37.3203 55.5288 38.3646 57.0571 39.0456C56.8394 39.1719 56.7188 39.3104 56.7188 39.4559C56.7188 40.0455 58.6943 40.5234 61.1311 40.5234C63.5679 40.5234 65.5434 40.0455 65.5434 39.4559C65.5434 39.3231 65.4426 39.1963 65.2596 39.0789C66.8199 38.3989 68.1236 37.3403 69.0105 36.0414C69.1992 35.7648 68.8931 35.4189 68.5921 35.5649Z" fill="#B68C5A"/>
<path d="M16.1117 19.3118V19.0932C16.1117 18.9091 15.9623 18.7598 15.7782 18.7598C15.5941 18.7598 15.4448 18.9091 15.4448 19.0932V19.3602L10.3499 35.2545C10.2936 35.4298 10.3902 35.6174 10.5656 35.6736C10.5994 35.6844 10.6337 35.6894 10.6673 35.6894C10.8084 35.6894 10.9395 35.5992 10.9846 35.4577L15.4448 21.5436V36.245C15.4448 36.4291 15.5941 36.5782 15.7782 36.5782C15.9623 36.5782 16.1117 36.4291 16.1117 36.245V21.4953L20.572 35.4094C20.6174 35.5509 20.7483 35.6411 20.8894 35.6411C20.923 35.6411 20.9573 35.636 20.9911 35.6252C21.1665 35.5691 21.2631 35.3813 21.2067 35.2059L16.1117 19.3118Z" fill="#99A4A3"/>
<path d="M66.6498 35.2545L61.5547 19.3602V19.0932C61.5547 18.9091 61.4056 18.7598 61.2213 18.7598C61.0372 18.7598 60.8881 18.9091 60.8881 19.0932V19.3118L55.793 35.2059C55.7366 35.3813 55.8333 35.5688 56.0086 35.6252C56.0425 35.636 56.0767 35.6411 56.1103 35.6411C56.2514 35.6411 56.3826 35.5509 56.4277 35.4094L60.8881 21.4953V36.245C60.8881 36.4291 61.0372 36.5782 61.2213 36.5782C61.4054 36.5782 61.5547 36.4291 61.5547 36.245V21.5436L66.0151 35.4577C66.0604 35.5992 66.1914 35.6894 66.3324 35.6894C66.366 35.6894 66.4003 35.6844 66.4342 35.6736C66.6095 35.6174 66.7062 35.4298 66.6498 35.2545Z" fill="#99A4A3"/>
<path d="M49.305 44.5254C48.2071 43.6691 46.8546 43.204 45.4623 43.204H42.2776C41.754 43.204 41.3299 42.7778 41.3331 42.2536C41.3338 42.1332 41.2314 42.0375 41.1111 42.0375H40.4998L40.1818 39.953L39.5031 39.8761C39.5036 39.1588 39.5043 38.3858 39.5048 37.575L49.6277 36.5742H27.3719L37.4948 37.575C37.4953 38.3858 37.496 39.159 37.4964 39.8763L36.8178 39.9532L36.5 42.0375H35.889C35.7686 42.0375 35.666 42.1332 35.6667 42.2536C35.6699 42.778 35.246 43.204 34.7222 43.204H31.5375C30.1452 43.204 28.7927 43.6691 27.6948 44.5254L27.2976 44.8352C27.073 45.0103 27.1968 45.3704 27.4817 45.3704H38.3886H38.6109H49.5179C49.8028 45.3704 49.9266 45.0103 49.702 44.8352L49.305 44.5254Z" fill="#B68C5A"/>
<path d="M61.2525 17.0249C60.5145 17.0111 59.8872 17.4936 59.6817 18.161C52.4927 18.9798 48.7773 17.7882 45.1776 16.6332C43.4429 16.0767 41.7843 15.5468 39.8344 15.2793C40.2459 13.7863 40.8887 13.3778 40.8887 11.858C40.8887 9.80251 39.1597 8.65669 39.1666 7.30262C39.1733 5.94854 39.1666 6.46241 39.1666 6.46241C39.1666 6.35586 39.1319 6.22262 39.078 6.08017C38.8759 5.54489 38.1241 5.54489 37.9221 6.08017C37.8682 6.22262 37.8335 6.35586 37.8335 6.46241C37.8335 6.46241 37.8266 5.94854 37.8335 7.30262C37.8401 8.65669 36.1112 9.80251 36.1112 11.858C36.1112 13.3778 36.7539 13.7863 37.1654 15.2793C35.2155 15.5468 33.557 16.0767 31.8223 16.6332C28.2228 17.7882 24.5074 18.9798 17.3182 18.161C17.1127 17.4936 16.4853 17.0108 15.7471 17.0249C14.9009 17.041 14.1912 17.7438 14.1679 18.59C14.1428 19.5006 14.8735 20.2467 15.7784 20.2467C16.5228 20.2467 17.1479 19.7409 17.3324 19.0546C18.9564 19.3262 20.4157 19.5927 21.7419 19.5927C26.4432 19.5927 29.4708 18.7881 32.2296 17.9028C32.9329 17.6771 33.6233 17.5374 34.3245 17.4437C35.9911 17.2212 37.4742 18.5115 37.4772 20.1928C37.4775 20.2372 37.4775 20.2837 37.4775 20.3288L25.4944 21.1727H51.5052L39.5222 20.3288C39.5224 20.2837 39.5224 20.2372 39.5224 20.1928C39.5256 18.5115 41.0086 17.2212 42.6752 17.4437C43.3761 17.5374 44.0665 17.6771 44.7698 17.9028C47.529 18.7881 50.5557 19.5927 55.2575 19.5927C56.5835 19.5927 58.0429 19.3262 59.667 19.0546C59.8515 19.7409 60.4765 20.2467 61.221 20.2467C62.1259 20.2467 62.8568 19.5006 62.8315 18.5898C62.8084 17.7436 62.0987 17.0408 61.2525 17.0249Z" fill="#B68C5A"/>
<path d="M30.1858 28.028C29.9911 28.028 29.8151 27.9947 29.6578 27.928C29.5031 27.8613 29.3804 27.7653 29.2898 27.64C29.1991 27.5147 29.1524 27.3667 29.1498 27.196H29.7498C29.7578 27.3107 29.7978 27.4013 29.8698 27.468C29.9444 27.5347 30.0458 27.568 30.1738 27.568C30.3044 27.568 30.4071 27.5373 30.4818 27.476C30.5564 27.412 30.5938 27.3293 30.5938 27.228C30.5938 27.1453 30.5684 27.0773 30.5178 27.024C30.4671 26.9707 30.4031 26.9293 30.3258 26.9C30.2511 26.868 30.1471 26.8333 30.0138 26.796C29.8324 26.7427 29.6844 26.6907 29.5698 26.64C29.4578 26.5867 29.3604 26.508 29.2778 26.404C29.1978 26.2973 29.1578 26.156 29.1578 25.98C29.1578 25.8147 29.1991 25.6707 29.2818 25.548C29.3644 25.4253 29.4804 25.332 29.6298 25.268C29.7791 25.2013 29.9498 25.168 30.1418 25.168C30.4298 25.168 30.6631 25.2387 30.8418 25.38C31.0231 25.5187 31.1231 25.7133 31.1418 25.964H30.5258C30.5204 25.868 30.4791 25.7893 30.4018 25.728C30.3271 25.664 30.2271 25.632 30.1018 25.632C29.9924 25.632 29.9044 25.66 29.8378 25.716C29.7738 25.772 29.7418 25.8533 29.7418 25.96C29.7418 26.0347 29.7658 26.0973 29.8138 26.148C29.8644 26.196 29.9258 26.236 29.9978 26.268C30.0724 26.2973 30.1764 26.332 30.3098 26.372C30.4911 26.4253 30.6391 26.4787 30.7538 26.532C30.8684 26.5853 30.9671 26.6653 31.0498 26.772C31.1324 26.8787 31.1738 27.0187 31.1738 27.192C31.1738 27.3413 31.1351 27.48 31.0578 27.608C30.9804 27.736 30.8671 27.8387 30.7178 27.916C30.5684 27.9907 30.3911 28.028 30.1858 28.028ZM34.5393 25.208V28H33.9793V25.208H34.5393ZM39.8005 28H39.2405L37.9725 26.084V28H37.4125V25.204H37.9725L39.2405 27.124V25.204H39.8005V28ZM42.5379 26.6C42.5379 26.3253 42.5993 26.08 42.7219 25.864C42.8473 25.6453 43.0166 25.476 43.2299 25.356C43.4459 25.2333 43.6873 25.172 43.9539 25.172C44.2659 25.172 44.5393 25.252 44.7739 25.412C45.0086 25.572 45.1726 25.7933 45.2659 26.076H44.6219C44.5579 25.9427 44.4673 25.8427 44.3499 25.776C44.2353 25.7093 44.1019 25.676 43.9499 25.676C43.7873 25.676 43.6419 25.7147 43.5139 25.792C43.3886 25.8667 43.2899 25.9733 43.2179 26.112C43.1486 26.2507 43.1139 26.4133 43.1139 26.6C43.1139 26.784 43.1486 26.9467 43.2179 27.088C43.2899 27.2267 43.3886 27.3347 43.5139 27.412C43.6419 27.4867 43.7873 27.524 43.9499 27.524C44.1019 27.524 44.2353 27.4907 44.3499 27.424C44.4673 27.3547 44.5579 27.2533 44.6219 27.12H45.2659C45.1726 27.4053 45.0086 27.628 44.7739 27.788C44.5419 27.9453 44.2686 28.024 43.9539 28.024C43.6873 28.024 43.4459 27.964 43.2299 27.844C43.0166 27.7213 42.8473 27.552 42.7219 27.336C42.5993 27.12 42.5379 26.8747 42.5379 26.6ZM48.6243 25.66V26.36H49.5643V26.804H48.6243V27.544H49.6843V28H48.0643V25.204H49.6843V25.66H48.6243Z" fill="white"/>
<path d="M34.3133 33H33.9693V31.004C33.9693 30.9267 33.9693 30.8613 33.9693 30.808C33.972 30.7547 33.9747 30.7053 33.9773 30.66C33.98 30.612 33.9827 30.5627 33.9853 30.512C33.9427 30.5547 33.904 30.5907 33.8693 30.62C33.8347 30.6493 33.7907 30.6867 33.7373 30.732L33.4333 30.98L33.2493 30.744L34.0213 30.144H34.3133V33ZM37.9024 31.364C37.9024 31.5267 37.8904 31.6893 37.8664 31.852C37.8451 32.012 37.8064 32.164 37.7504 32.308C37.6944 32.4493 37.6171 32.576 37.5184 32.688C37.4197 32.7973 37.2944 32.884 37.1424 32.948C36.9904 33.0093 36.8064 33.04 36.5904 33.04C36.5371 33.04 36.4744 33.036 36.4024 33.028C36.3331 33.0227 36.2757 33.0133 36.2304 33V32.7C36.2784 32.716 36.3344 32.7293 36.3984 32.74C36.4624 32.748 36.5237 32.752 36.5824 32.752C36.7691 32.752 36.9224 32.7213 37.0424 32.66C37.1651 32.5987 37.2624 32.516 37.3344 32.412C37.4064 32.3053 37.4584 32.1827 37.4904 32.044C37.5224 31.9027 37.5411 31.7547 37.5464 31.6H37.5224C37.4824 31.6613 37.4317 31.7173 37.3704 31.768C37.3091 31.8187 37.2344 31.8587 37.1464 31.888C37.0611 31.9173 36.9597 31.932 36.8424 31.932C36.6797 31.932 36.5357 31.8987 36.4104 31.832C36.2877 31.7627 36.1917 31.664 36.1224 31.536C36.0557 31.408 36.0224 31.252 36.0224 31.068C36.0224 30.868 36.0597 30.696 36.1344 30.552C36.2117 30.408 36.3184 30.2973 36.4544 30.22C36.5904 30.1427 36.7504 30.104 36.9344 30.104C37.0704 30.104 37.1971 30.1307 37.3144 30.184C37.4317 30.2347 37.5344 30.312 37.6224 30.416C37.7104 30.52 37.7784 30.6507 37.8264 30.808C37.8771 30.9653 37.9024 31.1507 37.9024 31.364ZM36.9344 30.4C36.7691 30.4 36.6331 30.4547 36.5264 30.564C36.4224 30.6733 36.3704 30.84 36.3704 31.064C36.3704 31.248 36.4144 31.3933 36.5024 31.5C36.5931 31.604 36.7317 31.656 36.9184 31.656C37.0464 31.656 37.1571 31.6307 37.2504 31.58C37.3437 31.5267 37.4157 31.46 37.4664 31.38C37.5197 31.3 37.5464 31.2173 37.5464 31.132C37.5464 31.0467 37.5331 30.9613 37.5064 30.876C37.4824 30.788 37.4451 30.708 37.3944 30.636C37.3437 30.564 37.2797 30.5067 37.2024 30.464C37.1251 30.4213 37.0357 30.4 36.9344 30.4ZM39.2955 33L40.4675 30.464H38.9275V30.144H40.8435V30.416L39.6835 33H39.2955ZM42.7805 31.248C42.9752 31.248 43.1445 31.2813 43.2885 31.348C43.4325 31.4147 43.5432 31.5107 43.6205 31.636C43.7005 31.7587 43.7405 31.9093 43.7405 32.088C43.7405 32.2853 43.6979 32.456 43.6125 32.6C43.5272 32.7413 43.4045 32.8507 43.2445 32.928C43.0872 33.0027 42.8965 33.04 42.6725 33.04C42.5259 33.04 42.3872 33.0267 42.2565 33C42.1285 32.9733 42.0205 32.9347 41.9325 32.884V32.552C42.0285 32.6107 42.1445 32.6573 42.2805 32.692C42.4192 32.724 42.5512 32.74 42.6765 32.74C42.8179 32.74 42.9405 32.7187 43.0445 32.676C43.1512 32.6307 43.2339 32.5627 43.2925 32.472C43.3512 32.3787 43.3805 32.2627 43.3805 32.124C43.3805 31.9373 43.3232 31.7947 43.2085 31.696C43.0939 31.5947 42.9125 31.544 42.6645 31.544C42.5899 31.544 42.5045 31.5507 42.4085 31.564C42.3125 31.5773 42.2352 31.5907 42.1765 31.604L42.0005 31.492L42.1085 30.144H43.5405V30.464H42.4085L42.3405 31.292C42.3859 31.284 42.4472 31.2747 42.5245 31.264C42.6019 31.2533 42.6872 31.248 42.7805 31.248Z" fill="white"/>
<path d="M55.434 41.0647C54.6543 42.6224 53.6926 43.9592 52.5158 45.1361C49.0148 48.6371 44.9673 50.1336 41.3962 51.4541C40.3882 51.8269 39.4173 52.1859 38.4951 52.5746C37.5732 52.1859 36.6021 51.8269 35.5941 51.4541C32.023 50.1336 27.9755 48.6371 24.4745 45.1361C23.2834 43.945 22.3127 42.5899 21.528 41.0078C20.8185 41.5426 19.7168 41.8268 18.5308 41.9663C19.4897 44.0191 20.7174 45.7899 22.2692 47.3417C27.8036 52.876 34.3303 53.9319 38.4951 56C42.66 53.9319 49.1867 52.876 54.7211 47.3417C56.2694 45.7933 57.4953 44.0269 58.4533 41.9797C57.2707 41.8499 56.1677 41.5769 55.434 41.0647Z" fill="#B68C5A"/>
<path d="M76.2165 62.2979C76.1502 62.9607 76.1005 63.6069 76.0673 64.2366C76.0508 64.8663 76.0425 65.3468 76.0425 65.6782C76.0425 66.0593 76.0508 66.4239 76.0673 66.7719C76.0839 67.1198 76.1005 67.4181 76.117 67.6667H75.5454C75.3962 66.457 75.1891 65.5125 74.924 64.8331C74.6754 64.1372 74.2943 63.6401 73.7806 63.3418C73.2669 63.0269 72.5296 62.8695 71.5685 62.8695H70.2511C69.7209 62.8695 69.3149 62.9192 69.0332 63.0187C68.7681 63.1015 68.5858 63.2838 68.4864 63.5655C68.387 63.8306 68.3372 64.2532 68.3372 64.8331V77.2112C68.3372 77.8243 68.4035 78.2883 68.5361 78.6031C68.6687 78.9014 68.9172 79.1002 69.2818 79.1997C69.6463 79.2991 70.1848 79.3571 70.8974 79.3737V79.8956C70.45 79.8625 69.87 79.8459 69.1575 79.8459C68.445 79.8293 67.7076 79.8211 66.9453 79.8211C66.2825 79.8211 65.6446 79.8293 65.0315 79.8459C64.4349 79.8459 63.9295 79.8625 63.5153 79.8956V79.3985C64.0787 79.3654 64.5012 79.2991 64.7829 79.1997C65.0646 79.1002 65.2469 78.9014 65.3297 78.6031C65.4291 78.3049 65.4789 77.8575 65.4789 77.2609V64.9325C65.4789 64.3194 65.4291 63.872 65.3297 63.5903C65.2469 63.2921 65.0563 63.0932 64.758 62.9938C64.4763 62.8778 64.0621 62.8115 63.5153 62.795V62.2979C64.1615 62.3144 64.8326 62.331 65.5286 62.3476C66.2411 62.3476 66.937 62.3558 67.6164 62.3724C68.3124 62.3724 68.9586 62.3724 69.5552 62.3724C70.1517 62.3724 70.6405 62.3724 71.0217 62.3724C71.7839 62.3724 72.6456 62.3724 73.6066 62.3724C74.5843 62.3558 75.4542 62.331 76.2165 62.2979ZM72.4136 70.9973C72.4136 70.9973 72.4136 71.0802 72.4136 71.2459C72.4136 71.4116 72.4136 71.4944 72.4136 71.4944H67.5916C67.5916 71.4944 67.5916 71.4116 67.5916 71.2459C67.5916 71.0802 67.5916 70.9973 67.5916 70.9973H72.4136ZM72.9355 67.7164C72.8693 68.6609 72.8361 69.3817 72.8361 69.8788C72.8527 70.3759 72.861 70.8316 72.861 71.2459C72.861 71.6601 72.8693 72.1158 72.8858 72.6129C72.9024 73.11 72.9438 73.8309 73.0101 74.7754H72.4384C72.3721 74.2285 72.2727 73.7066 72.1402 73.2095C72.0076 72.6958 71.7673 72.2815 71.4193 71.9667C71.0714 71.6518 70.5494 71.4944 69.8534 71.4944V70.9973C70.3837 70.9973 70.798 70.8896 71.0962 70.6742C71.4111 70.4588 71.6513 70.1771 71.817 69.8291C71.9827 69.4811 72.0987 69.1249 72.165 68.7603C72.2479 68.3792 72.3141 68.0312 72.3639 67.7164H72.9355Z" fill="white"/>
<path d="M55.4851 62.1982L61.5499 77.8076C61.7819 78.4207 62.047 78.8349 62.3453 79.0503C62.6601 79.2658 62.9501 79.3818 63.2152 79.3983V79.8954C62.8175 79.8623 62.3453 79.8457 61.7985 79.8457C61.2682 79.8292 60.7297 79.8209 60.1828 79.8209C59.4869 79.8209 58.8406 79.8292 58.2441 79.8457C57.6476 79.8457 57.167 79.8623 56.8025 79.8954V79.3983C57.6476 79.3652 58.1778 79.2243 58.3932 78.9758C58.6252 78.7106 58.5755 78.1555 58.2441 77.3105L53.7701 65.2306L54.1678 64.7832L50.0418 75.5706C49.7435 76.3162 49.5612 76.9376 49.4949 77.4347C49.4452 77.9318 49.4867 78.3212 49.6192 78.6029C49.7683 78.8846 50.0169 79.0835 50.3649 79.1995C50.7129 79.3155 51.1437 79.3818 51.6574 79.3983V79.8954C51.1603 79.8623 50.6549 79.8457 50.1412 79.8457C49.6441 79.8292 49.1718 79.8209 48.7244 79.8209C48.3267 79.8209 47.9705 79.8292 47.6556 79.8457C47.3574 79.8457 47.0839 79.8623 46.8354 79.8954V79.3983C47.1834 79.3155 47.5313 79.1083 47.8793 78.7769C48.2273 78.4455 48.5587 77.8821 48.8736 77.0868L54.64 62.1982C54.7726 62.1982 54.9135 62.1982 55.0626 62.1982C55.2117 62.1982 55.3526 62.1982 55.4851 62.1982ZM58.095 72.737V73.2341H50.688L50.9366 72.737H58.095Z" fill="white"/>
<path d="M40.0778 62C40.9561 62 41.6272 62.0994 42.0911 62.2983C42.5551 62.4971 42.9611 62.7125 43.3091 62.9445C43.5079 63.0605 43.6653 63.1516 43.7813 63.2179C43.9139 63.2676 44.0381 63.2925 44.1541 63.2925C44.3198 63.2925 44.4358 63.2014 44.5021 63.0191C44.585 62.8368 44.6513 62.5634 44.701 62.1988H45.2726C45.2561 62.4971 45.2312 62.8534 45.1981 63.2676C45.1815 63.6653 45.1649 64.1956 45.1484 64.8584C45.1484 65.5212 45.1484 66.3912 45.1484 67.4682H44.5767C44.527 66.6563 44.3447 65.8692 44.0299 65.107C43.7316 64.3447 43.2842 63.7233 42.6877 63.2428C42.1077 62.7622 41.362 62.522 40.4507 62.522C39.6056 62.522 38.9013 62.7788 38.3379 63.2925C37.7911 63.7896 37.5177 64.4524 37.5177 65.2809C37.5177 66.01 37.7 66.6231 38.0645 67.1203C38.4291 67.6008 38.9262 68.0565 39.5559 68.4873C40.2021 68.9016 40.9312 69.3655 41.7431 69.8792C42.5717 70.4095 43.3173 70.9397 43.9802 71.47C44.643 71.9837 45.1649 72.5553 45.5461 73.185C45.9272 73.8147 46.1177 74.5769 46.1177 75.4717C46.1177 76.5488 45.8609 77.4436 45.3472 78.1561C44.8501 78.8521 44.179 79.3741 43.3339 79.722C42.4888 80.07 41.5609 80.244 40.5501 80.244C39.6221 80.244 38.8848 80.1446 38.3379 79.9457C37.7911 79.7469 37.3271 79.5398 36.946 79.3244C36.5815 79.0924 36.2998 78.9764 36.1009 78.9764C35.9352 78.9764 35.8109 79.0675 35.7281 79.2498C35.6618 79.4321 35.6038 79.7055 35.5541 80.07H34.9824C35.0156 79.7055 35.0321 79.2829 35.0321 78.8024C35.0487 78.3053 35.057 77.659 35.057 76.8637C35.0736 76.0683 35.0818 75.0658 35.0818 73.8561H35.6535C35.7198 74.8835 35.9021 75.8446 36.2003 76.7394C36.5152 77.6342 36.9874 78.355 37.6171 78.9018C38.2634 79.4321 39.1167 79.6972 40.1772 79.6972C40.7406 79.6972 41.2626 79.5895 41.7431 79.3741C42.2237 79.1587 42.6131 78.819 42.9114 78.355C43.2096 77.891 43.3588 77.2945 43.3588 76.5654C43.3588 75.886 43.1931 75.2895 42.8616 74.7758C42.5468 74.2621 42.0994 73.7898 41.5194 73.359C40.9561 72.9116 40.2932 72.4559 39.531 71.992C38.7522 71.4948 38.0231 70.9977 37.3437 70.5006C36.6643 70.0035 36.1175 69.4235 35.7032 68.7607C35.3055 68.0979 35.1067 67.3108 35.1067 66.3994C35.1067 65.3886 35.3387 64.5601 35.8027 63.9139C36.2832 63.2676 36.8963 62.7871 37.642 62.4723C38.4042 62.1574 39.2162 62 40.0778 62Z" fill="white"/>
<path d="M32.6724 62.2979V62.795C32.109 62.8281 31.6865 62.9275 31.4048 63.0932C31.1231 63.2589 30.9325 63.5323 30.8331 63.9135C30.7502 64.278 30.7088 64.8 30.7088 65.4794V79.995C30.5762 79.995 30.4437 79.995 30.3111 79.995C30.1785 79.995 30.0377 79.995 29.8886 79.995L19.3498 64.684V76.6147C19.3498 77.3106 19.3995 77.8575 19.4989 78.2552C19.5983 78.6363 19.8138 78.9097 20.1452 79.0754C20.4766 79.2411 20.982 79.3488 21.6614 79.3985V79.8956C21.3465 79.8625 20.9405 79.8459 20.4434 79.8459C19.9629 79.8293 19.5072 79.8211 19.0764 79.8211C18.6621 79.8211 18.2479 79.8293 17.8336 79.8459C17.4193 79.8459 17.0796 79.8625 16.8145 79.8956V79.3985C17.3613 79.3488 17.7756 79.2494 18.0573 79.1002C18.339 78.9345 18.5296 78.6611 18.629 78.28C18.7284 77.8989 18.7781 77.3769 18.7781 76.7141V64.9325C18.7781 64.3194 18.7284 63.872 18.629 63.5903C18.5296 63.2921 18.339 63.0932 18.0573 62.9938C17.7756 62.8778 17.3613 62.8115 16.8145 62.795V62.2979C17.0796 62.3144 17.4193 62.331 17.8336 62.3476C18.2479 62.3641 18.6621 62.3724 19.0764 62.3724C19.4409 62.3724 19.7972 62.3641 20.1452 62.3476C20.4931 62.331 20.7997 62.3144 21.0648 62.2979L30.1371 75.2725V65.5788C30.1371 64.8663 30.0791 64.3194 29.9631 63.9383C29.8637 63.5572 29.6483 63.2838 29.3169 63.1181C28.9855 62.9358 28.4884 62.8281 27.8255 62.795V62.2979C28.1238 62.3144 28.5215 62.331 29.0186 62.3476C29.5157 62.3641 29.9797 62.3724 30.4105 62.3724C30.8248 62.3724 31.239 62.3641 31.6533 62.3476C32.0676 62.331 32.4073 62.3144 32.6724 62.2979Z" fill="white"/>
<path d="M14.1503 62.2979C14.084 62.9275 14.0343 63.5406 14.0012 64.1372C13.9846 64.7171 13.9763 65.1645 13.9763 65.4794C13.9763 65.7942 13.9846 66.0925 14.0012 66.3742C14.0177 66.6559 14.0343 66.8879 14.0509 67.0701H13.4792C13.3632 66.0096 13.1809 65.1728 12.9324 64.5597C12.7004 63.9466 12.3441 63.5158 11.8636 63.2672C11.3996 63.0021 10.7451 62.8695 9.9 62.8695H8.18497C7.65471 62.8695 7.24874 62.9192 6.96704 63.0187C6.70191 63.1015 6.51964 63.2838 6.42022 63.5655C6.3208 63.8306 6.27108 64.2532 6.27108 64.8331V77.3603C6.27108 77.9237 6.3208 78.3463 6.42022 78.628C6.51964 78.9097 6.70191 79.1002 6.96704 79.1997C7.24874 79.2825 7.65471 79.3239 8.18497 79.3239H9.80058C10.7451 79.3239 11.4908 79.1748 12.0376 78.8765C12.601 78.5783 13.0235 78.0894 13.3052 77.4101C13.6035 76.7307 13.8272 75.8027 13.9763 74.6262H14.548C14.4983 75.1068 14.4734 75.7364 14.4734 76.5153C14.4734 76.8467 14.4817 77.3272 14.4983 77.9569C14.5314 78.5866 14.5811 79.2328 14.6474 79.8956C13.8023 79.8625 12.8495 79.8459 11.789 79.8459C10.7285 79.8293 9.78401 79.8211 8.95549 79.8211C8.57437 79.8211 8.08554 79.8211 7.48901 79.8211C6.89247 79.8211 6.24623 79.8293 5.55027 79.8459C4.87089 79.8459 4.17493 79.8542 3.4624 79.8708C2.76644 79.8708 2.09534 79.879 1.4491 79.8956V79.3985C2.01249 79.3654 2.43504 79.2991 2.71673 79.1997C2.99843 79.1002 3.1807 78.9014 3.26356 78.6031C3.36298 78.3049 3.41269 77.8575 3.41269 77.2609V64.9325C3.41269 64.3194 3.36298 63.872 3.26356 63.5903C3.1807 63.2921 2.99014 63.0932 2.69188 62.9938C2.41018 62.8778 1.99592 62.8115 1.4491 62.795V62.2979C2.09534 62.3144 2.76644 62.331 3.4624 62.3476C4.17493 62.3476 4.87089 62.3558 5.55027 62.3724C6.24623 62.3724 6.89247 62.3724 7.48901 62.3724C8.08554 62.3724 8.57437 62.3724 8.95549 62.3724C9.71773 62.3724 10.5794 62.3724 11.5405 62.3724C12.5181 62.3558 13.3881 62.331 14.1503 62.2979ZM10.0243 70.7985C10.0243 70.7985 10.0243 70.8813 10.0243 71.047C10.0243 71.2127 10.0243 71.2956 10.0243 71.2956H5.52542C5.52542 71.2956 5.52542 71.2127 5.52542 71.047C5.52542 70.8813 5.52542 70.7985 5.52542 70.7985H10.0243ZM10.7451 67.5175C10.6788 68.462 10.6457 69.1829 10.6457 69.68C10.6622 70.1771 10.6705 70.6328 10.6705 71.047C10.6705 71.4613 10.6788 71.917 10.6954 72.4141C10.712 72.9112 10.7534 73.632 10.8197 74.5765H10.248C10.1651 74.0297 10.0574 73.5077 9.92486 73.0106C9.79229 72.4969 9.55202 72.0827 9.20405 71.7678C8.87264 71.453 8.35067 71.2956 7.63814 71.2956V70.7985C8.1684 70.7985 8.58266 70.6908 8.88092 70.4753C9.19576 70.2599 9.43603 69.9782 9.60174 69.6303C9.76744 69.2823 9.88343 68.926 9.94971 68.5615C10.0326 68.1803 10.1071 67.8324 10.1734 67.5175H10.7451Z" fill="white"/>
<path d="M73.4291 84.0742L72.0068 88.8727H71.1162L70.1081 85.2411L69.038 88.8727L68.1542 88.8796L66.7941 84.0742H67.6295L68.6237 87.9821L69.7008 84.0742H70.5845L71.5857 87.9614L72.5868 84.0742H73.4291Z" fill="#99A4A3"/>
<path d="M62.3597 87.8924H60.3506L60.0053 88.8728H59.1837L60.9029 84.0674H61.8143L63.5334 88.8728H62.7049L62.3597 87.8924ZM62.1388 87.2503L61.3586 85.0202L60.5715 87.2503H62.1388Z" fill="#99A4A3"/>
<path d="M54.2862 88.2375H55.9087V88.8727H53.4991V84.0742H54.2862V88.2375Z" fill="#99A4A3"/>
<path d="M43.0723 84.7095V86.118H44.7294V86.7601H43.0723V88.2307H44.9365V88.8728H42.2852V84.0674H44.9365V84.7095H43.0723Z" fill="#99A4A3"/>
<path d="M33.783 86.4628C33.783 85.9933 33.8911 85.5721 34.1075 85.1993C34.3284 84.8264 34.6253 84.5364 34.9981 84.3293C35.3756 84.1176 35.7875 84.0117 36.234 84.0117C36.7449 84.0117 37.1983 84.1383 37.5942 84.3915C37.9946 84.64 38.2846 84.9944 38.4641 85.4547H37.5182C37.3939 85.2016 37.2213 85.0128 37.0004 84.8886C36.7794 84.7643 36.524 84.7022 36.234 84.7022C35.9164 84.7022 35.6333 84.7735 35.3848 84.9162C35.1362 85.0589 34.9406 85.2637 34.7979 85.5307C34.6598 85.7976 34.5908 86.1083 34.5908 86.4628C34.5908 86.8172 34.6598 87.1279 34.7979 87.3948C34.9406 87.6618 35.1362 87.8689 35.3848 88.0162C35.6333 88.1589 35.9164 88.2303 36.234 88.2303C36.524 88.2303 36.7794 88.1681 37.0004 88.0439C37.2213 87.9196 37.3939 87.7309 37.5182 87.4777H38.4641C38.2846 87.938 37.9946 88.2924 37.5942 88.541C37.1983 88.7895 36.7449 88.9138 36.234 88.9138C35.7829 88.9138 35.371 88.8102 34.9981 88.6031C34.6253 88.3914 34.3284 88.0991 34.1075 87.7263C33.8911 87.3534 33.783 86.9323 33.783 86.4628Z" fill="#99A4A3"/>
<path d="M30.1121 84.0742V88.8727H29.325V84.0742H30.1121Z" fill="#99A4A3"/>
<path d="M25.6281 84.0742V84.7163H24.3508V88.8727H23.5637V84.7163H22.2795V84.0742H25.6281Z" fill="#99A4A3"/>
<path d="M17.0424 88.9207C16.7202 88.9207 16.4302 88.8655 16.1725 88.755C15.9147 88.6399 15.7122 88.4788 15.5649 88.2717C15.4176 88.0646 15.3439 87.8229 15.3439 87.5467H16.1863C16.2047 87.7539 16.2852 87.9242 16.4279 88.0577C16.5752 88.1911 16.78 88.2579 17.0424 88.2579C17.314 88.2579 17.5257 88.1934 17.6776 88.0646C17.8295 87.9311 17.9054 87.7608 17.9054 87.5536C17.9054 87.3925 17.8571 87.2614 17.7605 87.1601C17.6684 87.0588 17.551 86.9806 17.4083 86.9253C17.2702 86.8701 17.0769 86.8103 16.8284 86.7458C16.5154 86.663 16.2599 86.5801 16.062 86.4973C15.8687 86.4098 15.703 86.2763 15.5649 86.0968C15.4268 85.9173 15.3577 85.678 15.3577 85.3788C15.3577 85.1026 15.4268 84.861 15.5649 84.6538C15.703 84.4467 15.8963 84.2879 16.1448 84.1774C16.3934 84.067 16.6811 84.0117 17.0079 84.0117C17.4728 84.0117 17.8525 84.1291 18.1471 84.3638C18.4463 84.594 18.612 84.9116 18.6442 85.3166H17.7743C17.7605 85.1417 17.6776 84.9921 17.5257 84.8679C17.3738 84.7436 17.1736 84.6814 16.925 84.6814C16.6995 84.6814 16.5154 84.739 16.3727 84.854C16.23 84.9691 16.1586 85.1348 16.1586 85.3512C16.1586 85.4985 16.2024 85.6204 16.2898 85.7171C16.3819 85.8091 16.497 85.8828 16.635 85.938C16.7731 85.9933 16.9618 86.0531 17.2012 86.1175C17.5188 86.205 17.7766 86.2925 17.9745 86.3799C18.177 86.4674 18.3473 86.6031 18.4854 86.7873C18.6281 86.9668 18.6994 87.2084 18.6994 87.5122C18.6994 87.7562 18.6327 87.9863 18.4992 88.2027C18.3703 88.419 18.1793 88.5939 17.9262 88.7274C17.6776 88.8563 17.383 88.9207 17.0424 88.9207Z" fill="#99A4A3"/>
<path d="M8.57475 84.0742V87.1328C8.57475 87.4965 8.66911 87.7703 8.85783 87.9545C9.05115 88.1386 9.31812 88.2306 9.65873 88.2306C10.004 88.2306 10.2709 88.1386 10.4596 87.9545C10.653 87.7703 10.7496 87.4965 10.7496 87.1328V84.0742H11.5367V87.119C11.5367 87.5103 11.4516 87.8417 11.2813 88.1133C11.1109 88.3848 10.8831 88.5874 10.5977 88.7208C10.3123 88.8543 9.99705 88.9211 9.65183 88.9211C9.30661 88.9211 8.99132 88.8543 8.70594 88.7208C8.42516 88.5874 8.20192 88.3848 8.03622 88.1133C7.87051 87.8417 7.78766 87.5103 7.78766 87.119V84.0742H8.57475Z" fill="#99A4A3"/>
<path d="M3.61429 84.0742V87.5333C3.61429 87.9614 3.4831 88.2997 3.22074 88.5482C2.96298 88.7968 2.62236 88.9211 2.1989 88.9211C1.77543 88.9211 1.43252 88.7968 1.17015 88.5482C0.912389 88.2997 0.783508 87.9614 0.783508 87.5333H1.57751C1.58211 87.745 1.63504 87.913 1.73631 88.0373C1.84217 88.1616 1.99637 88.2237 2.1989 88.2237C2.40142 88.2237 2.55562 88.1616 2.66149 88.0373C2.76735 87.9084 2.82029 87.7404 2.82029 87.5333V84.0742H3.61429Z" fill="#99A4A3"/>
</svg>
