<svg width="181" height="57" viewBox="0 0 181 57" fill="none" xmlns="http://www.w3.org/2000/svg">
<path d="M11.0022 15.779C11.0496 14.7461 11.1048 13.6735 11.1683 12.5539C15.1284 11.181 24.0206 7.91337 30.5636 4.14202C37.1066 7.91337 45.9988 11.1807 49.9589 12.5539C50.0224 13.6735 50.0776 14.7461 50.125 15.779H53.2488C53.1685 14.0256 53.0668 12.1919 52.9469 10.2708C52.9469 10.2708 38.7191 5.67031 30.5636 0.5C22.4081 5.67008 8.18035 10.2708 8.18035 10.2708C8.06045 12.1917 7.95873 14.0256 7.87842 15.779H11.0022Z" fill="#B68C5A"/>
<path d="M15.2726 36.0649C13.2456 37.047 10.6737 37.6346 7.87463 37.6346C5.07557 37.6346 2.50388 37.047 0.476674 36.0649C0.175435 35.9189 -0.130637 36.2648 0.058069 36.5414C0.931178 37.8203 2.20931 38.8646 3.7376 39.5456C3.5199 39.6719 3.39931 39.8104 3.39931 39.9559C3.39931 40.5455 5.37474 41.0234 7.81157 41.0234C10.2484 41.0234 12.2238 40.5455 12.2238 39.9559C12.2238 39.8231 12.123 39.6963 11.9401 39.5789C13.5004 38.8989 14.804 37.8403 15.691 36.5414C15.8799 36.2648 15.5738 35.9189 15.2726 36.0649Z" fill="#B68C5A"/>
<path d="M60.6608 36.0649C58.6338 37.047 56.0619 37.6346 53.2628 37.6346C50.4638 37.6346 47.8921 37.047 45.8649 36.0649C45.5636 35.9189 45.2575 36.2648 45.4463 36.5414C46.3194 37.8203 47.5975 38.8646 49.1258 39.5456C48.9081 39.6719 48.7875 39.8104 48.7875 39.9559C48.7875 40.5455 50.7629 41.0234 53.1998 41.0234C55.6366 41.0234 57.612 40.5455 57.612 39.9559C57.612 39.8231 57.5112 39.6963 57.3283 39.5789C58.8885 38.8989 60.1922 37.8403 61.0791 36.5414C61.2678 36.2648 60.9618 35.9189 60.6608 36.0649Z" fill="#B68C5A"/>
<path d="M8.18016 19.8127V19.5941C8.18016 19.41 8.03081 19.2606 7.84671 19.2606C7.6626 19.2606 7.51325 19.41 7.51325 19.5941V19.861L2.41842 35.7553C2.36204 35.9307 2.4587 36.1183 2.63405 36.1744C2.66788 36.1852 2.70217 36.1903 2.73577 36.1903C2.87684 36.1903 3.00801 36.1001 3.05312 35.9585L7.51325 22.0445V36.7458C7.51325 36.9299 7.6626 37.079 7.84671 37.079C8.03081 37.079 8.18016 36.9299 8.18016 36.7458V21.9962L12.6405 35.9102C12.6859 36.0518 12.8168 36.142 12.9579 36.142C12.9915 36.142 13.0258 36.1369 13.0596 36.1261C13.2349 36.0699 13.3316 35.8821 13.2752 35.7068L8.18016 19.8127Z" fill="white"/>
<path d="M58.7183 35.755L53.6233 19.8607V19.5937C53.6233 19.4096 53.4742 19.2603 53.2898 19.2603C53.1057 19.2603 52.9566 19.4096 52.9566 19.5937V19.8123L47.8615 35.7064C47.8052 35.8818 47.9018 36.0693 48.0772 36.1257C48.111 36.1365 48.1453 36.1416 48.1789 36.1416C48.32 36.1416 48.4511 36.0514 48.4962 35.9099L52.9566 21.9958V36.7454C52.9566 36.9296 53.1057 37.0787 53.2898 37.0787C53.4739 37.0787 53.6233 36.9296 53.6233 36.7454V22.0441L58.0836 35.9582C58.129 36.0997 58.2599 36.1899 58.401 36.1899C58.4346 36.1899 58.4689 36.1849 58.5027 36.174C58.6781 36.1179 58.7747 35.9303 58.7183 35.755Z" fill="white"/>
<path d="M41.3736 45.0247C40.2756 44.1684 38.9232 43.7033 37.5309 43.7033H34.3461C33.8226 43.7033 33.3985 43.2771 33.4017 42.7529C33.4024 42.6325 33.3 42.5368 33.1796 42.5368H32.5684L32.2503 40.4523L31.5717 40.3754C31.5721 39.6581 31.5728 38.8851 31.5733 38.0744L41.6962 37.0735H19.4404L29.5634 38.0744C29.5638 38.8851 29.5645 39.6584 29.565 40.3757L28.8863 40.4525L28.5685 42.5368H27.9575C27.8372 42.5368 27.7345 42.6325 27.7352 42.7529C27.7384 43.2774 27.3145 43.7033 26.7908 43.7033H23.606C22.2137 43.7033 20.8613 44.1684 19.7633 45.0247L19.3661 45.3345C19.1415 45.5096 19.2653 45.8698 19.5502 45.8698H30.4572H30.6795H41.5864C41.8713 45.8698 41.9951 45.5096 41.7705 45.3345L41.3736 45.0247Z" fill="#B68C5A"/>
<path d="M53.3211 17.5246C52.5831 17.5108 51.9557 17.9933 51.7502 18.6607C44.5612 19.4795 40.8458 18.2879 37.2461 17.1329C35.5114 16.5764 33.8529 16.0465 31.903 15.779C32.3145 14.286 32.9572 13.8775 32.9572 12.3577C32.9572 10.3022 31.2282 9.15639 31.2351 7.80231C31.2418 6.44823 31.2351 6.96211 31.2351 6.96211C31.2351 6.85556 31.2004 6.72232 31.1465 6.57987C30.9445 6.04459 30.1927 6.04459 29.9906 6.57987C29.9368 6.72232 29.902 6.85556 29.902 6.96211C29.902 6.96211 29.8951 6.44823 29.902 7.80231C29.9087 9.15639 28.1797 10.3022 28.1797 12.3577C28.1797 13.8775 28.8225 14.286 29.2339 15.779C27.2841 16.0465 25.6255 16.5764 23.8908 17.1329C20.2914 18.2879 16.5759 19.4795 9.3867 18.6607C9.1812 17.9933 8.55387 17.5105 7.81561 17.5246C6.96943 17.5407 6.25971 18.2435 6.23647 19.0897C6.21138 20.0003 6.94204 20.7464 7.84691 20.7464C8.59138 20.7464 9.21641 20.2406 9.40097 19.5543C11.025 19.8259 12.4842 20.0923 13.8105 20.0923C18.5118 20.0923 21.5394 19.2878 24.2981 18.4025C25.0014 18.1768 25.6918 18.0371 26.393 17.9434C28.0596 17.7209 29.5428 19.0112 29.5458 20.6925C29.546 20.7369 29.546 20.7834 29.546 20.8285L17.563 21.6724H43.5737L31.5907 20.8285C31.5909 20.7834 31.5909 20.7369 31.5909 20.6925C31.5941 19.0112 33.0771 17.7209 34.7437 17.9434C35.4447 18.0371 36.1351 18.1768 36.8383 18.4025C39.5976 19.2878 42.6242 20.0923 47.326 20.0923C48.652 20.0923 50.1115 19.8259 51.7355 19.5543C51.9201 20.2406 52.5451 20.7464 53.2896 20.7464C54.1944 20.7464 54.9253 20.0003 54.9 19.0894C54.877 18.2433 54.1673 17.5405 53.3211 17.5246Z" fill="#B68C5A"/>
<path d="M22.2543 28.528C22.0596 28.528 21.8836 28.4947 21.7263 28.428C21.5716 28.3613 21.449 28.2653 21.3583 28.14C21.2676 28.0147 21.221 27.8667 21.2183 27.696H21.8183C21.8263 27.8107 21.8663 27.9013 21.9383 27.968C22.013 28.0347 22.1143 28.068 22.2423 28.068C22.373 28.068 22.4756 28.0373 22.5503 27.976C22.625 27.912 22.6623 27.8293 22.6623 27.728C22.6623 27.6453 22.637 27.5773 22.5863 27.524C22.5356 27.4707 22.4716 27.4293 22.3943 27.4C22.3196 27.368 22.2156 27.3333 22.0823 27.296C21.901 27.2427 21.753 27.1907 21.6383 27.14C21.5263 27.0867 21.429 27.008 21.3463 26.904C21.2663 26.7973 21.2263 26.656 21.2263 26.48C21.2263 26.3147 21.2676 26.1707 21.3503 26.048C21.433 25.9253 21.549 25.832 21.6983 25.768C21.8476 25.7013 22.0183 25.668 22.2103 25.668C22.4983 25.668 22.7316 25.7387 22.9103 25.88C23.0916 26.0187 23.1916 26.2133 23.2103 26.464H22.5943C22.589 26.368 22.5476 26.2893 22.4703 26.228C22.3956 26.164 22.2956 26.132 22.1703 26.132C22.061 26.132 21.973 26.16 21.9063 26.216C21.8423 26.272 21.8103 26.3533 21.8103 26.46C21.8103 26.5347 21.8343 26.5973 21.8823 26.648C21.933 26.696 21.9943 26.736 22.0663 26.768C22.141 26.7973 22.245 26.832 22.3783 26.872C22.5596 26.9253 22.7076 26.9787 22.8223 27.032C22.937 27.0853 23.0356 27.1653 23.1183 27.272C23.201 27.3787 23.2423 27.5187 23.2423 27.692C23.2423 27.8413 23.2036 27.98 23.1263 28.108C23.049 28.236 22.9356 28.3387 22.7863 28.416C22.637 28.4907 22.4596 28.528 22.2543 28.528ZM26.6078 25.708V28.5H26.0478V25.708H26.6078ZM31.8691 28.5H31.3091L30.0411 26.584V28.5H29.4811V25.704H30.0411L31.3091 27.624V25.704H31.8691V28.5ZM34.6065 27.1C34.6065 26.8253 34.6678 26.58 34.7905 26.364C34.9158 26.1453 35.0852 25.976 35.2985 25.856C35.5145 25.7333 35.7558 25.672 36.0225 25.672C36.3345 25.672 36.6078 25.752 36.8425 25.912C37.0772 26.072 37.2412 26.2933 37.3345 26.576H36.6905C36.6265 26.4427 36.5358 26.3427 36.4185 26.276C36.3038 26.2093 36.1705 26.176 36.0185 26.176C35.8558 26.176 35.7105 26.2147 35.5825 26.292C35.4572 26.3667 35.3585 26.4733 35.2865 26.612C35.2172 26.7507 35.1825 26.9133 35.1825 27.1C35.1825 27.284 35.2172 27.4467 35.2865 27.588C35.3585 27.7267 35.4572 27.8347 35.5825 27.912C35.7105 27.9867 35.8558 28.024 36.0185 28.024C36.1705 28.024 36.3038 27.9907 36.4185 27.924C36.5358 27.8547 36.6265 27.7533 36.6905 27.62H37.3345C37.2412 27.9053 37.0772 28.128 36.8425 28.288C36.6105 28.4453 36.3372 28.524 36.0225 28.524C35.7558 28.524 35.5145 28.464 35.2985 28.344C35.0852 28.2213 34.9158 28.052 34.7905 27.836C34.6678 27.62 34.6065 27.3747 34.6065 27.1ZM40.6928 26.16V26.86H41.6328V27.304H40.6928V28.044H41.7528V28.5H40.1328V25.704H41.7528V26.16H40.6928Z" fill="white"/>
<path d="M26.3819 33.5H26.0379V31.504C26.0379 31.4267 26.0379 31.3613 26.0379 31.308C26.0405 31.2547 26.0432 31.2053 26.0459 31.16C26.0485 31.112 26.0512 31.0627 26.0539 31.012C26.0112 31.0547 25.9725 31.0907 25.9379 31.12C25.9032 31.1493 25.8592 31.1867 25.8059 31.232L25.5019 31.48L25.3179 31.244L26.0899 30.644H26.3819V33.5ZM29.9709 31.864C29.9709 32.0267 29.9589 32.1893 29.9349 32.352C29.9136 32.512 29.8749 32.664 29.8189 32.808C29.7629 32.9493 29.6856 33.076 29.5869 33.188C29.4883 33.2973 29.3629 33.384 29.2109 33.448C29.0589 33.5093 28.8749 33.54 28.6589 33.54C28.6056 33.54 28.5429 33.536 28.4709 33.528C28.4016 33.5227 28.3443 33.5133 28.2989 33.5V33.2C28.3469 33.216 28.4029 33.2293 28.4669 33.24C28.5309 33.248 28.5923 33.252 28.6509 33.252C28.8376 33.252 28.9909 33.2213 29.1109 33.16C29.2336 33.0987 29.3309 33.016 29.4029 32.912C29.4749 32.8053 29.5269 32.6827 29.5589 32.544C29.5909 32.4027 29.6096 32.2547 29.6149 32.1H29.5909C29.5509 32.1613 29.5003 32.2173 29.4389 32.268C29.3776 32.3187 29.3029 32.3587 29.2149 32.388C29.1296 32.4173 29.0283 32.432 28.9109 32.432C28.7483 32.432 28.6043 32.3987 28.4789 32.332C28.3563 32.2627 28.2603 32.164 28.1909 32.036C28.1243 31.908 28.0909 31.752 28.0909 31.568C28.0909 31.368 28.1283 31.196 28.2029 31.052C28.2803 30.908 28.3869 30.7973 28.5229 30.72C28.6589 30.6427 28.8189 30.604 29.0029 30.604C29.1389 30.604 29.2656 30.6307 29.3829 30.684C29.5003 30.7347 29.6029 30.812 29.6909 30.916C29.7789 31.02 29.8469 31.1507 29.8949 31.308C29.9456 31.4653 29.9709 31.6507 29.9709 31.864ZM29.0029 30.9C28.8376 30.9 28.7016 30.9547 28.5949 31.064C28.4909 31.1733 28.4389 31.34 28.4389 31.564C28.4389 31.748 28.4829 31.8933 28.5709 32C28.6616 32.104 28.8003 32.156 28.9869 32.156C29.1149 32.156 29.2256 32.1307 29.3189 32.08C29.4123 32.0267 29.4843 31.96 29.5349 31.88C29.5883 31.8 29.6149 31.7173 29.6149 31.632C29.6149 31.5467 29.6016 31.4613 29.5749 31.376C29.5509 31.288 29.5136 31.208 29.4629 31.136C29.4123 31.064 29.3483 31.0067 29.2709 30.964C29.1936 30.9213 29.1043 30.9 29.0029 30.9ZM31.364 33.5L32.536 30.964H30.996V30.644H32.912V30.916L31.752 33.5H31.364ZM34.8491 31.748C35.0437 31.748 35.2131 31.7813 35.3571 31.848C35.5011 31.9147 35.6117 32.0107 35.6891 32.136C35.7691 32.2587 35.8091 32.4093 35.8091 32.588C35.8091 32.7853 35.7664 32.956 35.6811 33.1C35.5957 33.2413 35.4731 33.3507 35.3131 33.428C35.1557 33.5027 34.9651 33.54 34.7411 33.54C34.5944 33.54 34.4557 33.5267 34.3251 33.5C34.1971 33.4733 34.0891 33.4347 34.0011 33.384V33.052C34.0971 33.1107 34.2131 33.1573 34.3491 33.192C34.4877 33.224 34.6197 33.24 34.7451 33.24C34.8864 33.24 35.0091 33.2187 35.1131 33.176C35.2197 33.1307 35.3024 33.0627 35.3611 32.972C35.4197 32.8787 35.4491 32.7627 35.4491 32.624C35.4491 32.4373 35.3917 32.2947 35.2771 32.196C35.1624 32.0947 34.9811 32.044 34.7331 32.044C34.6584 32.044 34.5731 32.0507 34.4771 32.064C34.3811 32.0773 34.3037 32.0907 34.2451 32.104L34.0691 31.992L34.1771 30.644H35.6091V30.964H34.4771L34.4091 31.792C34.4544 31.784 34.5157 31.7747 34.5931 31.764C34.6704 31.7533 34.7557 31.748 34.8491 31.748Z" fill="white"/>
<path d="M47.5026 41.5647C46.7229 43.1224 45.7612 44.4592 44.5844 45.6361C41.0834 49.1371 37.0359 50.6336 33.4648 51.9541C32.4568 52.3269 31.4859 52.6859 30.5637 53.0746C29.6418 52.6859 28.6707 52.3269 27.6627 51.9541C24.0916 50.6336 20.0441 49.1371 16.5431 45.6361C15.352 44.445 14.3813 43.0899 13.5966 41.5078C12.8871 42.0426 11.7854 42.3268 10.5994 42.4663C11.5583 44.5191 12.7861 46.2899 14.3378 47.8417C19.8722 53.376 26.3989 54.4319 30.5637 56.5C34.7286 54.4319 41.2553 53.376 46.7897 47.8417C48.338 46.2933 49.5639 44.5269 50.5219 42.4797C49.3393 42.3499 48.2363 42.0769 47.5026 41.5647Z" fill="#B68C5A"/>
<path d="M86.8 9.012C86.704 9.924 86.632 10.812 86.584 11.676C86.56 12.516 86.548 13.164 86.548 13.62C86.548 14.076 86.56 14.508 86.584 14.916C86.608 15.324 86.632 15.66 86.656 15.924H85.828C85.66 14.388 85.396 13.176 85.036 12.288C84.7 11.4 84.184 10.776 83.488 10.416C82.816 10.032 81.868 9.84 80.644 9.84H78.16C77.392 9.84 76.804 9.912 76.396 10.056C76.012 10.176 75.748 10.44 75.604 10.848C75.46 11.232 75.388 11.844 75.388 12.684V30.828C75.388 31.644 75.46 32.256 75.604 32.664C75.748 33.072 76.012 33.348 76.396 33.492C76.804 33.612 77.392 33.672 78.16 33.672H80.5C81.868 33.672 82.948 33.456 83.74 33.024C84.556 32.592 85.168 31.884 85.576 30.9C86.008 29.916 86.332 28.572 86.548 26.868H87.376C87.304 27.564 87.268 28.476 87.268 29.604C87.268 30.084 87.28 30.78 87.304 31.692C87.352 32.604 87.424 33.54 87.52 34.5C86.296 34.452 84.916 34.428 83.38 34.428C81.844 34.404 80.476 34.392 79.276 34.392C78.724 34.392 78.016 34.392 77.152 34.392C76.288 34.392 75.352 34.404 74.344 34.428C73.36 34.428 72.352 34.44 71.32 34.464C70.312 34.464 69.34 34.476 68.404 34.5V33.78C69.22 33.732 69.832 33.636 70.24 33.492C70.648 33.348 70.912 33.06 71.032 32.628C71.176 32.196 71.248 31.548 71.248 30.684V12.828C71.248 11.94 71.176 11.292 71.032 10.884C70.912 10.452 70.636 10.164 70.204 10.02C69.796 9.852 69.196 9.756 68.404 9.732V9.012C69.34 9.036 70.312 9.06 71.32 9.084C72.352 9.084 73.36 9.096 74.344 9.12C75.352 9.12 76.288 9.12 77.152 9.12C78.016 9.12 78.724 9.12 79.276 9.12C80.38 9.12 81.628 9.12 83.02 9.12C84.436 9.096 85.696 9.06 86.8 9.012ZM80.824 21.324C80.824 21.324 80.824 21.444 80.824 21.684C80.824 21.924 80.824 22.044 80.824 22.044H74.308C74.308 22.044 74.308 21.924 74.308 21.684C74.308 21.444 74.308 21.324 74.308 21.324H80.824ZM81.868 16.572C81.772 17.94 81.724 18.984 81.724 19.704C81.748 20.424 81.76 21.084 81.76 21.684C81.76 22.284 81.772 22.944 81.796 23.664C81.82 24.384 81.88 25.428 81.976 26.796H81.148C81.028 26.004 80.872 25.248 80.68 24.528C80.488 23.784 80.14 23.184 79.636 22.728C79.156 22.272 78.4 22.044 77.368 22.044V21.324C78.136 21.324 78.736 21.168 79.168 20.856C79.624 20.544 79.972 20.136 80.212 19.632C80.452 19.128 80.62 18.612 80.716 18.084C80.836 17.532 80.944 17.028 81.04 16.572H81.868ZM113.627 9.012V9.732C112.811 9.78 112.199 9.924 111.791 10.164C111.383 10.404 111.107 10.8 110.963 11.352C110.843 11.88 110.783 12.636 110.783 13.62V34.644C110.591 34.644 110.399 34.644 110.207 34.644C110.015 34.644 109.811 34.644 109.595 34.644L94.3308 12.468V29.748C94.3308 30.756 94.4028 31.548 94.5468 32.124C94.6908 32.676 95.0028 33.072 95.4828 33.312C95.9628 33.552 96.6948 33.708 97.6788 33.78V34.5C97.2228 34.452 96.6348 34.428 95.9148 34.428C95.2188 34.404 94.5588 34.392 93.9348 34.392C93.3348 34.392 92.7348 34.404 92.1348 34.428C91.5348 34.428 91.0428 34.452 90.6588 34.5V33.78C91.4508 33.708 92.0508 33.564 92.4588 33.348C92.8668 33.108 93.1428 32.712 93.2868 32.16C93.4308 31.608 93.5028 30.852 93.5028 29.892V12.828C93.5028 11.94 93.4308 11.292 93.2868 10.884C93.1428 10.452 92.8668 10.164 92.4588 10.02C92.0508 9.852 91.4508 9.756 90.6588 9.732V9.012C91.0428 9.036 91.5348 9.06 92.1348 9.084C92.7348 9.108 93.3348 9.12 93.9348 9.12C94.4628 9.12 94.9788 9.108 95.4828 9.084C95.9868 9.06 96.4308 9.036 96.8148 9.012L109.955 27.804V13.764C109.955 12.732 109.871 11.94 109.703 11.388C109.559 10.836 109.247 10.44 108.767 10.2C108.287 9.936 107.567 9.78 106.607 9.732V9.012C107.039 9.036 107.615 9.06 108.335 9.084C109.055 9.108 109.727 9.12 110.351 9.12C110.951 9.12 111.551 9.108 112.151 9.084C112.751 9.06 113.243 9.036 113.627 9.012ZM124.353 8.58C125.625 8.58 126.597 8.724 127.269 9.012C127.941 9.3 128.529 9.612 129.033 9.948C129.321 10.116 129.549 10.248 129.717 10.344C129.909 10.416 130.089 10.452 130.257 10.452C130.497 10.452 130.665 10.32 130.761 10.056C130.881 9.792 130.977 9.396 131.049 8.868H131.877C131.853 9.3 131.817 9.816 131.769 10.416C131.745 10.992 131.721 11.76 131.697 12.72C131.697 13.68 131.697 14.94 131.697 16.5H130.869C130.797 15.324 130.533 14.184 130.077 13.08C129.645 11.976 128.997 11.076 128.133 10.38C127.293 9.684 126.213 9.336 124.893 9.336C123.669 9.336 122.649 9.708 121.833 10.452C121.041 11.172 120.645 12.132 120.645 13.332C120.645 14.388 120.909 15.276 121.437 15.996C121.965 16.692 122.685 17.352 123.597 17.976C124.533 18.576 125.589 19.248 126.765 19.992C127.965 20.76 129.045 21.528 130.005 22.296C130.965 23.04 131.721 23.868 132.273 24.78C132.825 25.692 133.101 26.796 133.101 28.092C133.101 29.652 132.729 30.948 131.985 31.98C131.265 32.988 130.293 33.744 129.069 34.248C127.845 34.752 126.501 35.004 125.037 35.004C123.693 35.004 122.625 34.86 121.833 34.572C121.041 34.284 120.369 33.984 119.817 33.672C119.289 33.336 118.881 33.168 118.593 33.168C118.353 33.168 118.173 33.3 118.053 33.564C117.957 33.828 117.873 34.224 117.801 34.752H116.973C117.021 34.224 117.045 33.612 117.045 32.916C117.069 32.196 117.081 31.26 117.081 30.108C117.105 28.956 117.117 27.504 117.117 25.752H117.945C118.041 27.24 118.305 28.632 118.737 29.928C119.193 31.224 119.877 32.268 120.789 33.06C121.725 33.828 122.961 34.212 124.497 34.212C125.313 34.212 126.069 34.056 126.765 33.744C127.461 33.432 128.025 32.94 128.457 32.268C128.889 31.596 129.105 30.732 129.105 29.676C129.105 28.692 128.865 27.828 128.385 27.084C127.929 26.34 127.281 25.656 126.441 25.032C125.625 24.384 124.665 23.724 123.561 23.052C122.433 22.332 121.377 21.612 120.393 20.892C119.409 20.172 118.617 19.332 118.017 18.372C117.441 17.412 117.153 16.272 117.153 14.952C117.153 13.488 117.489 12.288 118.161 11.352C118.857 10.416 119.745 9.72 120.825 9.264C121.929 8.808 123.105 8.58 124.353 8.58ZM146.668 8.868L155.452 31.476C155.788 32.364 156.172 32.964 156.604 33.276C157.06 33.588 157.48 33.756 157.864 33.78V34.5C157.288 34.452 156.604 34.428 155.812 34.428C155.044 34.404 154.264 34.392 153.472 34.392C152.464 34.392 151.528 34.404 150.664 34.428C149.8 34.428 149.104 34.452 148.576 34.5V33.78C149.8 33.732 150.568 33.528 150.88 33.168C151.216 32.784 151.144 31.98 150.664 30.756L144.184 13.26L144.76 12.612L138.784 28.236C138.352 29.316 138.088 30.216 137.992 30.936C137.92 31.656 137.98 32.22 138.172 32.628C138.388 33.036 138.748 33.324 139.252 33.492C139.756 33.66 140.38 33.756 141.124 33.78V34.5C140.404 34.452 139.672 34.428 138.928 34.428C138.208 34.404 137.524 34.392 136.876 34.392C136.3 34.392 135.784 34.404 135.328 34.428C134.896 34.428 134.5 34.452 134.14 34.5V33.78C134.644 33.66 135.148 33.36 135.652 32.88C136.156 32.4 136.636 31.584 137.092 30.432L145.444 8.868C145.636 8.868 145.84 8.868 146.056 8.868C146.272 8.868 146.476 8.868 146.668 8.868ZM150.448 24.132V24.852H139.72L140.08 24.132H150.448ZM176.695 9.012C176.599 9.972 176.527 10.908 176.479 11.82C176.455 12.732 176.443 13.428 176.443 13.908C176.443 14.46 176.455 14.988 176.479 15.492C176.503 15.996 176.527 16.428 176.551 16.788H175.723C175.507 15.036 175.207 13.668 174.823 12.684C174.463 11.676 173.911 10.956 173.167 10.524C172.423 10.068 171.355 9.84 169.963 9.84H168.055C167.287 9.84 166.699 9.912 166.291 10.056C165.907 10.176 165.643 10.44 165.499 10.848C165.355 11.232 165.283 11.844 165.283 12.684V30.612C165.283 31.5 165.379 32.172 165.571 32.628C165.763 33.06 166.123 33.348 166.651 33.492C167.179 33.636 167.959 33.72 168.991 33.744V34.5C168.343 34.452 167.503 34.428 166.471 34.428C165.439 34.404 164.371 34.392 163.267 34.392C162.307 34.392 161.383 34.404 160.495 34.428C159.631 34.428 158.899 34.452 158.299 34.5V33.78C159.115 33.732 159.727 33.636 160.135 33.492C160.543 33.348 160.807 33.06 160.927 32.628C161.071 32.196 161.143 31.548 161.143 30.684V12.828C161.143 11.94 161.071 11.292 160.927 10.884C160.807 10.452 160.531 10.164 160.099 10.02C159.691 9.852 159.091 9.756 158.299 9.732V9.012C159.235 9.036 160.207 9.06 161.215 9.084C162.247 9.084 163.255 9.096 164.239 9.12C165.247 9.12 166.183 9.12 167.047 9.12C167.911 9.12 168.619 9.12 169.171 9.12C170.275 9.12 171.523 9.12 172.915 9.12C174.331 9.096 175.591 9.06 176.695 9.012ZM171.187 21.612C171.187 21.612 171.187 21.732 171.187 21.972C171.187 22.212 171.187 22.332 171.187 22.332H164.203C164.203 22.332 164.203 22.212 164.203 21.972C164.203 21.732 164.203 21.612 164.203 21.612H171.187ZM171.943 16.86C171.847 18.228 171.799 19.272 171.799 19.992C171.823 20.712 171.835 21.372 171.835 21.972C171.835 22.572 171.847 23.232 171.871 23.952C171.895 24.672 171.955 25.716 172.051 27.084H171.223C171.127 26.292 170.983 25.536 170.791 24.816C170.599 24.072 170.251 23.472 169.747 23.016C169.243 22.56 168.487 22.332 167.479 22.332V21.612C168.247 21.612 168.847 21.456 169.279 21.144C169.735 20.832 170.083 20.424 170.323 19.92C170.563 19.416 170.731 18.9 170.827 18.372C170.947 17.82 171.043 17.316 171.115 16.86H171.943Z" fill="white"/>
<path d="M71.54 40.55V45.56C71.54 46.18 71.35 46.67 70.97 47.03C70.5967 47.39 70.1033 47.57 69.49 47.57C68.8767 47.57 68.38 47.39 68 47.03C67.6267 46.67 67.44 46.18 67.44 45.56H68.59C68.5967 45.8667 68.6733 46.11 68.82 46.29C68.9733 46.47 69.1967 46.56 69.49 46.56C69.7833 46.56 70.0067 46.47 70.16 46.29C70.3133 46.1033 70.39 45.86 70.39 45.56V40.55H71.54ZM78.7245 40.55V44.98C78.7245 45.5067 78.8612 45.9033 79.1345 46.17C79.4145 46.4367 79.8012 46.57 80.2945 46.57C80.7945 46.57 81.1812 46.4367 81.4545 46.17C81.7345 45.9033 81.8745 45.5067 81.8745 44.98V40.55H83.0145V44.96C83.0145 45.5267 82.8912 46.0067 82.6445 46.4C82.3979 46.7933 82.0679 47.0867 81.6545 47.28C81.2412 47.4733 80.7845 47.57 80.2845 47.57C79.7845 47.57 79.3279 47.4733 78.9145 47.28C78.5079 47.0867 78.1845 46.7933 77.9445 46.4C77.7045 46.0067 77.5845 45.5267 77.5845 44.96V40.55H78.7245ZM90.9888 47.57C90.5222 47.57 90.1022 47.49 89.7288 47.33C89.3555 47.1633 89.0622 46.93 88.8488 46.63C88.6355 46.33 88.5288 45.98 88.5288 45.58H89.7488C89.7755 45.88 89.8922 46.1267 90.0988 46.32C90.3122 46.5133 90.6088 46.61 90.9888 46.61C91.3822 46.61 91.6888 46.5167 91.9088 46.33C92.1288 46.1367 92.2388 45.89 92.2388 45.59C92.2388 45.3567 92.1688 45.1667 92.0288 45.02C91.8955 44.8733 91.7255 44.76 91.5188 44.68C91.3188 44.6 91.0388 44.5133 90.6788 44.42C90.2255 44.3 89.8555 44.18 89.5688 44.06C89.2888 43.9333 89.0488 43.74 88.8488 43.48C88.6488 43.22 88.5488 42.8733 88.5488 42.44C88.5488 42.04 88.6488 41.69 88.8488 41.39C89.0488 41.09 89.3288 40.86 89.6888 40.7C90.0488 40.54 90.4655 40.46 90.9388 40.46C91.6122 40.46 92.1622 40.63 92.5888 40.97C93.0222 41.3033 93.2622 41.7633 93.3088 42.35H92.0488C92.0288 42.0967 91.9088 41.88 91.6888 41.7C91.4688 41.52 91.1788 41.43 90.8188 41.43C90.4922 41.43 90.2255 41.5133 90.0188 41.68C89.8122 41.8467 89.7088 42.0867 89.7088 42.4C89.7088 42.6133 89.7722 42.79 89.8988 42.93C90.0322 43.0633 90.1988 43.17 90.3988 43.25C90.5988 43.33 90.8722 43.4167 91.2188 43.51C91.6788 43.6367 92.0522 43.7633 92.3388 43.89C92.6322 44.0167 92.8788 44.2133 93.0788 44.48C93.2855 44.74 93.3888 45.09 93.3888 45.53C93.3888 45.8833 93.2922 46.2167 93.0988 46.53C92.9122 46.8433 92.6355 47.0967 92.2688 47.29C91.9088 47.4767 91.4822 47.57 90.9888 47.57ZM103.424 40.55V41.48H101.574V47.5H100.434V41.48H98.574V40.55H103.424ZM109.919 40.55V47.5H108.779V40.55H109.919ZM115.235 44.01C115.235 43.33 115.392 42.72 115.705 42.18C116.025 41.64 116.455 41.22 116.995 40.92C117.542 40.6133 118.139 40.46 118.785 40.46C119.525 40.46 120.182 40.6433 120.755 41.01C121.335 41.37 121.755 41.8833 122.015 42.55H120.645C120.465 42.1833 120.215 41.91 119.895 41.73C119.575 41.55 119.205 41.46 118.785 41.46C118.325 41.46 117.915 41.5633 117.555 41.77C117.195 41.9767 116.912 42.2733 116.705 42.66C116.505 43.0467 116.405 43.4967 116.405 44.01C116.405 44.5233 116.505 44.9733 116.705 45.36C116.912 45.7467 117.195 46.0467 117.555 46.26C117.915 46.4667 118.325 46.57 118.785 46.57C119.205 46.57 119.575 46.48 119.895 46.3C120.215 46.12 120.465 45.8467 120.645 45.48H122.015C121.755 46.1467 121.335 46.66 120.755 47.02C120.182 47.38 119.525 47.56 118.785 47.56C118.132 47.56 117.535 47.41 116.995 47.11C116.455 46.8033 116.025 46.38 115.705 45.84C115.392 45.3 115.235 44.69 115.235 44.01ZM128.69 41.47V43.51H131.09V44.44H128.69V46.57H131.39V47.5H127.55V40.54H131.39V41.47H128.69ZM144.931 46.58H147.281V47.5H143.791V40.55H144.931V46.58ZM156.625 46.08H153.715L153.215 47.5H152.025L154.515 40.54H155.835L158.325 47.5H157.125L156.625 46.08ZM156.305 45.15L155.175 41.92L154.035 45.15H156.305ZM172.657 40.55L170.597 47.5H169.307L167.847 42.24L166.297 47.5L165.017 47.51L163.047 40.55H164.257L165.697 46.21L167.257 40.55H168.537L169.987 46.18L171.437 40.55H172.657Z" fill="white"/>
</svg>
