<svg width="181" height="56" viewBox="0 0 181 56" fill="none" xmlns="http://www.w3.org/2000/svg">
<path d="M11.0023 15.279C11.0497 14.2461 11.1049 13.1735 11.1684 12.0539C15.1285 10.681 24.0207 7.41337 30.5637 3.64202C37.1067 7.41337 45.9989 10.6807 49.959 12.0539C50.0225 13.1735 50.0777 14.2461 50.1251 15.279H53.2489C53.1686 13.5256 53.0669 11.6919 52.947 9.77082C52.947 9.77082 38.7192 5.17031 30.5637 0C22.4082 5.17008 8.18044 9.77082 8.18044 9.77082C8.06054 11.6917 7.95882 13.5256 7.87851 15.279H11.0023Z" fill="#314E52"/>
<path d="M15.2726 35.5649C13.2456 36.547 10.6737 37.1346 7.87463 37.1346C5.07557 37.1346 2.50388 36.547 0.476674 35.5649C0.175435 35.4189 -0.130637 35.7648 0.058069 36.0414C0.931178 37.3203 2.20931 38.3646 3.7376 39.0456C3.5199 39.1719 3.39931 39.3104 3.39931 39.4559C3.39931 40.0455 5.37474 40.5234 7.81157 40.5234C10.2484 40.5234 12.2238 40.0455 12.2238 39.4559C12.2238 39.3231 12.123 39.1963 11.9401 39.0789C13.5004 38.3989 14.804 37.3403 15.691 36.0414C15.8799 35.7648 15.5738 35.4189 15.2726 35.5649Z" fill="#314E52"/>
<path d="M60.6606 35.5649C58.6337 36.547 56.0618 37.1346 53.2627 37.1346C50.4636 37.1346 47.8919 36.547 45.8647 35.5649C45.5635 35.4189 45.2574 35.7648 45.4461 36.0414C46.3192 37.3203 47.5974 38.3646 49.1257 39.0456C48.908 39.1719 48.7874 39.3104 48.7874 39.4559C48.7874 40.0455 50.7628 40.5234 53.1996 40.5234C55.6365 40.5234 57.6119 40.0455 57.6119 39.4559C57.6119 39.3231 57.5111 39.1963 57.3281 39.0789C58.8884 38.3989 60.1921 37.3403 61.079 36.0414C61.2677 35.7648 60.9617 35.4189 60.6606 35.5649Z" fill="#314E52"/>
<path d="M8.18019 19.3127V19.0941C8.18019 18.91 8.03084 18.7606 7.84674 18.7606C7.66263 18.7606 7.51328 18.91 7.51328 19.0941V19.361L2.41845 35.2553C2.36207 35.4307 2.45873 35.6183 2.63408 35.6744C2.66791 35.6852 2.7022 35.6903 2.7358 35.6903C2.87687 35.6903 3.00804 35.6001 3.05315 35.4585L7.51328 21.5445V36.2458C7.51328 36.4299 7.66263 36.579 7.84674 36.579C8.03084 36.579 8.18019 36.4299 8.18019 36.2458V21.4962L12.6406 35.4102C12.6859 35.5518 12.8168 35.642 12.9579 35.642C12.9915 35.642 13.0258 35.6369 13.0596 35.6261C13.235 35.5699 13.3316 35.3821 13.2753 35.2068L8.18019 19.3127Z" fill="#868686"/>
<path d="M58.7183 35.255L53.6233 19.3607V19.0937C53.6233 18.9096 53.4742 18.7603 53.2898 18.7603C53.1057 18.7603 52.9566 18.9096 52.9566 19.0937V19.3123L47.8615 35.2064C47.8052 35.3818 47.9018 35.5693 48.0772 35.6257C48.111 35.6365 48.1453 35.6416 48.1789 35.6416C48.32 35.6416 48.4511 35.5514 48.4962 35.4099L52.9566 21.4958V36.2454C52.9566 36.4296 53.1057 36.5787 53.2898 36.5787C53.4739 36.5787 53.6233 36.4296 53.6233 36.2454V21.5441L58.0836 35.4582C58.129 35.5997 58.2599 35.6899 58.401 35.6899C58.4346 35.6899 58.4689 35.6849 58.5027 35.674C58.6781 35.6179 58.7747 35.4303 58.7183 35.255Z" fill="#868686"/>
<path d="M41.3736 44.5247C40.2757 43.6684 38.9232 43.2033 37.5309 43.2033H34.3462C33.8226 43.2033 33.3985 42.7771 33.4017 42.2529C33.4024 42.1325 33.3 42.0368 33.1797 42.0368H32.5684L32.2504 39.9523L31.5717 39.8754C31.5722 39.1581 31.5729 38.3851 31.5734 37.5744L41.6963 36.5735H19.4405L29.5634 37.5744C29.5639 38.3851 29.5646 39.1584 29.565 39.8757L28.8864 39.9525L28.5686 42.0368H27.9576C27.8372 42.0368 27.7346 42.1325 27.7353 42.2529C27.7385 42.7774 27.3146 43.2033 26.7908 43.2033H23.6061C22.2138 43.2033 20.8613 43.6684 19.7634 44.5247L19.3662 44.8345C19.1416 45.0096 19.2654 45.3698 19.5503 45.3698H30.4572H30.6795H41.5865C41.8714 45.3698 41.9952 45.0096 41.7706 44.8345L41.3736 44.5247Z" fill="#314E52"/>
<path d="M53.3211 17.0246C52.5831 17.0108 51.9558 17.4933 51.7503 18.1607C44.5613 18.9795 40.8458 17.7879 37.2461 16.6329C35.5114 16.0764 33.8529 15.5465 31.903 15.279C32.3145 13.786 32.9572 13.3775 32.9572 11.8577C32.9572 9.8022 31.2283 8.65639 31.2352 7.30231C31.2419 5.94823 31.2352 6.46211 31.2352 6.46211C31.2352 6.35556 31.2004 6.22232 31.1466 6.07987C30.9445 5.54459 30.1927 5.54459 29.9906 6.07987C29.9368 6.22232 29.902 6.35556 29.902 6.46211C29.902 6.46211 29.8951 5.94823 29.902 7.30231C29.9087 8.65639 28.1798 9.8022 28.1798 11.8577C28.1798 13.3775 28.8225 13.786 29.234 15.279C27.2841 15.5465 25.6256 16.0764 23.8908 16.6329C20.2914 17.7879 16.576 18.9795 9.38673 18.1607C9.18123 17.4933 8.5539 17.0105 7.81564 17.0246C6.96946 17.0407 6.25974 17.7435 6.2365 18.5897C6.21141 19.5003 6.94207 20.2464 7.84694 20.2464C8.59141 20.2464 9.21644 19.7406 9.401 19.0543C11.025 19.3259 12.4843 19.5923 13.8105 19.5923C18.5118 19.5923 21.5394 18.7878 24.2982 17.9025C25.0014 17.6768 25.6918 17.5371 26.393 17.4434C28.0596 17.2209 29.5428 18.5112 29.5458 20.1925C29.546 20.2369 29.546 20.2834 29.546 20.3285L17.563 21.1724H43.5738L31.5907 20.3285C31.591 20.2834 31.591 20.2369 31.591 20.1925C31.5942 18.5112 33.0771 17.2209 34.7437 17.4434C35.4447 17.5371 36.1351 17.6768 36.8384 17.9025C39.5976 18.7878 42.6243 19.5923 47.326 19.5923C48.652 19.5923 50.1115 19.3259 51.7355 19.0543C51.9201 19.7406 52.5451 20.2464 53.2896 20.2464C54.1945 20.2464 54.9253 19.5003 54.9 18.5894C54.877 17.7433 54.1673 17.0405 53.3211 17.0246Z" fill="#314E52"/>
<path d="M22.2543 28.028C22.0596 28.028 21.8836 27.9947 21.7263 27.928C21.5716 27.8613 21.449 27.7653 21.3583 27.64C21.2676 27.5147 21.221 27.3667 21.2183 27.196H21.8183C21.8263 27.3107 21.8663 27.4013 21.9383 27.468C22.013 27.5347 22.1143 27.568 22.2423 27.568C22.373 27.568 22.4756 27.5373 22.5503 27.476C22.625 27.412 22.6623 27.3293 22.6623 27.228C22.6623 27.1453 22.637 27.0773 22.5863 27.024C22.5356 26.9707 22.4716 26.9293 22.3943 26.9C22.3196 26.868 22.2156 26.8333 22.0823 26.796C21.901 26.7427 21.753 26.6907 21.6383 26.64C21.5263 26.5867 21.429 26.508 21.3463 26.404C21.2663 26.2973 21.2263 26.156 21.2263 25.98C21.2263 25.8147 21.2676 25.6707 21.3503 25.548C21.433 25.4253 21.549 25.332 21.6983 25.268C21.8476 25.2013 22.0183 25.168 22.2103 25.168C22.4983 25.168 22.7316 25.2387 22.9103 25.38C23.0916 25.5187 23.1916 25.7133 23.2103 25.964H22.5943C22.589 25.868 22.5476 25.7893 22.4703 25.728C22.3956 25.664 22.2956 25.632 22.1703 25.632C22.061 25.632 21.973 25.66 21.9063 25.716C21.8423 25.772 21.8103 25.8533 21.8103 25.96C21.8103 26.0347 21.8343 26.0973 21.8823 26.148C21.933 26.196 21.9943 26.236 22.0663 26.268C22.141 26.2973 22.245 26.332 22.3783 26.372C22.5596 26.4253 22.7076 26.4787 22.8223 26.532C22.937 26.5853 23.0356 26.6653 23.1183 26.772C23.201 26.8787 23.2423 27.0187 23.2423 27.192C23.2423 27.3413 23.2036 27.48 23.1263 27.608C23.049 27.736 22.9356 27.8387 22.7863 27.916C22.637 27.9907 22.4596 28.028 22.2543 28.028ZM26.6078 25.208V28H26.0478V25.208H26.6078ZM31.8691 28H31.3091L30.0411 26.084V28H29.4811V25.204H30.0411L31.3091 27.124V25.204H31.8691V28ZM34.6065 26.6C34.6065 26.3253 34.6678 26.08 34.7905 25.864C34.9158 25.6453 35.0852 25.476 35.2985 25.356C35.5145 25.2333 35.7558 25.172 36.0225 25.172C36.3345 25.172 36.6078 25.252 36.8425 25.412C37.0772 25.572 37.2412 25.7933 37.3345 26.076H36.6905C36.6265 25.9427 36.5358 25.8427 36.4185 25.776C36.3038 25.7093 36.1705 25.676 36.0185 25.676C35.8558 25.676 35.7105 25.7147 35.5825 25.792C35.4572 25.8667 35.3585 25.9733 35.2865 26.112C35.2172 26.2507 35.1825 26.4133 35.1825 26.6C35.1825 26.784 35.2172 26.9467 35.2865 27.088C35.3585 27.2267 35.4572 27.3347 35.5825 27.412C35.7105 27.4867 35.8558 27.524 36.0185 27.524C36.1705 27.524 36.3038 27.4907 36.4185 27.424C36.5358 27.3547 36.6265 27.2533 36.6905 27.12H37.3345C37.2412 27.4053 37.0772 27.628 36.8425 27.788C36.6105 27.9453 36.3372 28.024 36.0225 28.024C35.7558 28.024 35.5145 27.964 35.2985 27.844C35.0852 27.7213 34.9158 27.552 34.7905 27.336C34.6678 27.12 34.6065 26.8747 34.6065 26.6ZM40.6928 25.66V26.36H41.6328V26.804H40.6928V27.544H41.7528V28H40.1328V25.204H41.7528V25.66H40.6928Z" fill="#314E52"/>
<path d="M26.3819 33H26.0379V31.004C26.0379 30.9267 26.0379 30.8613 26.0379 30.808C26.0405 30.7547 26.0432 30.7053 26.0459 30.66C26.0485 30.612 26.0512 30.5627 26.0539 30.512C26.0112 30.5547 25.9725 30.5907 25.9379 30.62C25.9032 30.6493 25.8592 30.6867 25.8059 30.732L25.5019 30.98L25.3179 30.744L26.0899 30.144H26.3819V33ZM29.9709 31.364C29.9709 31.5267 29.9589 31.6893 29.9349 31.852C29.9136 32.012 29.8749 32.164 29.8189 32.308C29.7629 32.4493 29.6856 32.576 29.5869 32.688C29.4883 32.7973 29.3629 32.884 29.2109 32.948C29.0589 33.0093 28.8749 33.04 28.6589 33.04C28.6056 33.04 28.5429 33.036 28.4709 33.028C28.4016 33.0227 28.3443 33.0133 28.2989 33V32.7C28.3469 32.716 28.4029 32.7293 28.4669 32.74C28.5309 32.748 28.5923 32.752 28.6509 32.752C28.8376 32.752 28.9909 32.7213 29.1109 32.66C29.2336 32.5987 29.3309 32.516 29.4029 32.412C29.4749 32.3053 29.5269 32.1827 29.5589 32.044C29.5909 31.9027 29.6096 31.7547 29.6149 31.6H29.5909C29.5509 31.6613 29.5003 31.7173 29.4389 31.768C29.3776 31.8187 29.3029 31.8587 29.2149 31.888C29.1296 31.9173 29.0283 31.932 28.9109 31.932C28.7483 31.932 28.6043 31.8987 28.4789 31.832C28.3563 31.7627 28.2603 31.664 28.1909 31.536C28.1243 31.408 28.0909 31.252 28.0909 31.068C28.0909 30.868 28.1283 30.696 28.2029 30.552C28.2803 30.408 28.3869 30.2973 28.5229 30.22C28.6589 30.1427 28.8189 30.104 29.0029 30.104C29.1389 30.104 29.2656 30.1307 29.3829 30.184C29.5003 30.2347 29.6029 30.312 29.6909 30.416C29.7789 30.52 29.8469 30.6507 29.8949 30.808C29.9456 30.9653 29.9709 31.1507 29.9709 31.364ZM29.0029 30.4C28.8376 30.4 28.7016 30.4547 28.5949 30.564C28.4909 30.6733 28.4389 30.84 28.4389 31.064C28.4389 31.248 28.4829 31.3933 28.5709 31.5C28.6616 31.604 28.8003 31.656 28.9869 31.656C29.1149 31.656 29.2256 31.6307 29.3189 31.58C29.4123 31.5267 29.4843 31.46 29.5349 31.38C29.5883 31.3 29.6149 31.2173 29.6149 31.132C29.6149 31.0467 29.6016 30.9613 29.5749 30.876C29.5509 30.788 29.5136 30.708 29.4629 30.636C29.4123 30.564 29.3483 30.5067 29.2709 30.464C29.1936 30.4213 29.1043 30.4 29.0029 30.4ZM31.364 33L32.536 30.464H30.996V30.144H32.912V30.416L31.752 33H31.364ZM34.8491 31.248C35.0437 31.248 35.2131 31.2813 35.3571 31.348C35.5011 31.4147 35.6117 31.5107 35.6891 31.636C35.7691 31.7587 35.8091 31.9093 35.8091 32.088C35.8091 32.2853 35.7664 32.456 35.6811 32.6C35.5957 32.7413 35.4731 32.8507 35.3131 32.928C35.1557 33.0027 34.9651 33.04 34.7411 33.04C34.5944 33.04 34.4557 33.0267 34.3251 33C34.1971 32.9733 34.0891 32.9347 34.0011 32.884V32.552C34.0971 32.6107 34.2131 32.6573 34.3491 32.692C34.4877 32.724 34.6197 32.74 34.7451 32.74C34.8864 32.74 35.0091 32.7187 35.1131 32.676C35.2197 32.6307 35.3024 32.5627 35.3611 32.472C35.4197 32.3787 35.4491 32.2627 35.4491 32.124C35.4491 31.9373 35.3917 31.7947 35.2771 31.696C35.1624 31.5947 34.9811 31.544 34.7331 31.544C34.6584 31.544 34.5731 31.5507 34.4771 31.564C34.3811 31.5773 34.3037 31.5907 34.2451 31.604L34.0691 31.492L34.1771 30.144H35.6091V30.464H34.4771L34.4091 31.292C34.4544 31.284 34.5157 31.2747 34.5931 31.264C34.6704 31.2533 34.7557 31.248 34.8491 31.248Z" fill="#314E52"/>
<path d="M47.5026 41.0647C46.7229 42.6224 45.7612 43.9592 44.5843 45.1361C41.0833 48.6371 37.0358 50.1336 33.4647 51.4541C32.4567 51.8269 31.4858 52.1859 30.5637 52.5746C29.6418 52.1859 28.6706 51.8269 27.6627 51.4541C24.0915 50.1336 20.044 48.6371 16.5431 45.1361C15.3519 43.945 14.3812 42.5899 13.5965 41.0078C12.887 41.5426 11.7854 41.8268 10.5993 41.9663C11.5583 44.0191 12.786 45.7899 14.3378 47.3417C19.8721 52.876 26.3988 53.9319 30.5637 56C34.7286 53.9319 41.2552 52.876 46.7896 47.3417C48.3379 45.7933 49.5638 44.0269 50.5219 41.9797C49.3392 41.8499 48.2362 41.5769 47.5026 41.0647Z" fill="#314E52"/>
<path d="M86.8 8.512C86.704 9.424 86.632 10.312 86.584 11.176C86.56 12.016 86.548 12.664 86.548 13.12C86.548 13.576 86.56 14.008 86.584 14.416C86.608 14.824 86.632 15.16 86.656 15.424H85.828C85.66 13.888 85.396 12.676 85.036 11.788C84.7 10.9 84.184 10.276 83.488 9.916C82.816 9.532 81.868 9.34 80.644 9.34H78.16C77.392 9.34 76.804 9.412 76.396 9.556C76.012 9.676 75.748 9.94 75.604 10.348C75.46 10.732 75.388 11.344 75.388 12.184V30.328C75.388 31.144 75.46 31.756 75.604 32.164C75.748 32.572 76.012 32.848 76.396 32.992C76.804 33.112 77.392 33.172 78.16 33.172H80.5C81.868 33.172 82.948 32.956 83.74 32.524C84.556 32.092 85.168 31.384 85.576 30.4C86.008 29.416 86.332 28.072 86.548 26.368H87.376C87.304 27.064 87.268 27.976 87.268 29.104C87.268 29.584 87.28 30.28 87.304 31.192C87.352 32.104 87.424 33.04 87.52 34C86.296 33.952 84.916 33.928 83.38 33.928C81.844 33.904 80.476 33.892 79.276 33.892C78.724 33.892 78.016 33.892 77.152 33.892C76.288 33.892 75.352 33.904 74.344 33.928C73.36 33.928 72.352 33.94 71.32 33.964C70.312 33.964 69.34 33.976 68.404 34V33.28C69.22 33.232 69.832 33.136 70.24 32.992C70.648 32.848 70.912 32.56 71.032 32.128C71.176 31.696 71.248 31.048 71.248 30.184V12.328C71.248 11.44 71.176 10.792 71.032 10.384C70.912 9.952 70.636 9.664 70.204 9.52C69.796 9.352 69.196 9.256 68.404 9.232V8.512C69.34 8.536 70.312 8.56 71.32 8.584C72.352 8.584 73.36 8.596 74.344 8.62C75.352 8.62 76.288 8.62 77.152 8.62C78.016 8.62 78.724 8.62 79.276 8.62C80.38 8.62 81.628 8.62 83.02 8.62C84.436 8.596 85.696 8.56 86.8 8.512ZM80.824 20.824C80.824 20.824 80.824 20.944 80.824 21.184C80.824 21.424 80.824 21.544 80.824 21.544H74.308C74.308 21.544 74.308 21.424 74.308 21.184C74.308 20.944 74.308 20.824 74.308 20.824H80.824ZM81.868 16.072C81.772 17.44 81.724 18.484 81.724 19.204C81.748 19.924 81.76 20.584 81.76 21.184C81.76 21.784 81.772 22.444 81.796 23.164C81.82 23.884 81.88 24.928 81.976 26.296H81.148C81.028 25.504 80.872 24.748 80.68 24.028C80.488 23.284 80.14 22.684 79.636 22.228C79.156 21.772 78.4 21.544 77.368 21.544V20.824C78.136 20.824 78.736 20.668 79.168 20.356C79.624 20.044 79.972 19.636 80.212 19.132C80.452 18.628 80.62 18.112 80.716 17.584C80.836 17.032 80.944 16.528 81.04 16.072H81.868ZM113.627 8.512V9.232C112.811 9.28 112.199 9.424 111.791 9.664C111.383 9.904 111.107 10.3 110.963 10.852C110.843 11.38 110.783 12.136 110.783 13.12V34.144C110.591 34.144 110.399 34.144 110.207 34.144C110.015 34.144 109.811 34.144 109.595 34.144L94.3308 11.968V29.248C94.3308 30.256 94.4028 31.048 94.5468 31.624C94.6908 32.176 95.0028 32.572 95.4828 32.812C95.9628 33.052 96.6948 33.208 97.6788 33.28V34C97.2228 33.952 96.6348 33.928 95.9148 33.928C95.2188 33.904 94.5588 33.892 93.9348 33.892C93.3348 33.892 92.7348 33.904 92.1348 33.928C91.5348 33.928 91.0428 33.952 90.6588 34V33.28C91.4508 33.208 92.0508 33.064 92.4588 32.848C92.8668 32.608 93.1428 32.212 93.2868 31.66C93.4308 31.108 93.5028 30.352 93.5028 29.392V12.328C93.5028 11.44 93.4308 10.792 93.2868 10.384C93.1428 9.952 92.8668 9.664 92.4588 9.52C92.0508 9.352 91.4508 9.256 90.6588 9.232V8.512C91.0428 8.536 91.5348 8.56 92.1348 8.584C92.7348 8.608 93.3348 8.62 93.9348 8.62C94.4628 8.62 94.9788 8.608 95.4828 8.584C95.9868 8.56 96.4308 8.536 96.8148 8.512L109.955 27.304V13.264C109.955 12.232 109.871 11.44 109.703 10.888C109.559 10.336 109.247 9.94 108.767 9.7C108.287 9.436 107.567 9.28 106.607 9.232V8.512C107.039 8.536 107.615 8.56 108.335 8.584C109.055 8.608 109.727 8.62 110.351 8.62C110.951 8.62 111.551 8.608 112.151 8.584C112.751 8.56 113.243 8.536 113.627 8.512ZM124.353 8.08C125.625 8.08 126.597 8.224 127.269 8.512C127.941 8.8 128.529 9.112 129.033 9.448C129.321 9.616 129.549 9.748 129.717 9.844C129.909 9.916 130.089 9.952 130.257 9.952C130.497 9.952 130.665 9.82 130.761 9.556C130.881 9.292 130.977 8.896 131.049 8.368H131.877C131.853 8.8 131.817 9.316 131.769 9.916C131.745 10.492 131.721 11.26 131.697 12.22C131.697 13.18 131.697 14.44 131.697 16H130.869C130.797 14.824 130.533 13.684 130.077 12.58C129.645 11.476 128.997 10.576 128.133 9.88C127.293 9.184 126.213 8.836 124.893 8.836C123.669 8.836 122.649 9.208 121.833 9.952C121.041 10.672 120.645 11.632 120.645 12.832C120.645 13.888 120.909 14.776 121.437 15.496C121.965 16.192 122.685 16.852 123.597 17.476C124.533 18.076 125.589 18.748 126.765 19.492C127.965 20.26 129.045 21.028 130.005 21.796C130.965 22.54 131.721 23.368 132.273 24.28C132.825 25.192 133.101 26.296 133.101 27.592C133.101 29.152 132.729 30.448 131.985 31.48C131.265 32.488 130.293 33.244 129.069 33.748C127.845 34.252 126.501 34.504 125.037 34.504C123.693 34.504 122.625 34.36 121.833 34.072C121.041 33.784 120.369 33.484 119.817 33.172C119.289 32.836 118.881 32.668 118.593 32.668C118.353 32.668 118.173 32.8 118.053 33.064C117.957 33.328 117.873 33.724 117.801 34.252H116.973C117.021 33.724 117.045 33.112 117.045 32.416C117.069 31.696 117.081 30.76 117.081 29.608C117.105 28.456 117.117 27.004 117.117 25.252H117.945C118.041 26.74 118.305 28.132 118.737 29.428C119.193 30.724 119.877 31.768 120.789 32.56C121.725 33.328 122.961 33.712 124.497 33.712C125.313 33.712 126.069 33.556 126.765 33.244C127.461 32.932 128.025 32.44 128.457 31.768C128.889 31.096 129.105 30.232 129.105 29.176C129.105 28.192 128.865 27.328 128.385 26.584C127.929 25.84 127.281 25.156 126.441 24.532C125.625 23.884 124.665 23.224 123.561 22.552C122.433 21.832 121.377 21.112 120.393 20.392C119.409 19.672 118.617 18.832 118.017 17.872C117.441 16.912 117.153 15.772 117.153 14.452C117.153 12.988 117.489 11.788 118.161 10.852C118.857 9.916 119.745 9.22 120.825 8.764C121.929 8.308 123.105 8.08 124.353 8.08ZM146.668 8.368L155.452 30.976C155.788 31.864 156.172 32.464 156.604 32.776C157.06 33.088 157.48 33.256 157.864 33.28V34C157.288 33.952 156.604 33.928 155.812 33.928C155.044 33.904 154.264 33.892 153.472 33.892C152.464 33.892 151.528 33.904 150.664 33.928C149.8 33.928 149.104 33.952 148.576 34V33.28C149.8 33.232 150.568 33.028 150.88 32.668C151.216 32.284 151.144 31.48 150.664 30.256L144.184 12.76L144.76 12.112L138.784 27.736C138.352 28.816 138.088 29.716 137.992 30.436C137.92 31.156 137.98 31.72 138.172 32.128C138.388 32.536 138.748 32.824 139.252 32.992C139.756 33.16 140.38 33.256 141.124 33.28V34C140.404 33.952 139.672 33.928 138.928 33.928C138.208 33.904 137.524 33.892 136.876 33.892C136.3 33.892 135.784 33.904 135.328 33.928C134.896 33.928 134.5 33.952 134.14 34V33.28C134.644 33.16 135.148 32.86 135.652 32.38C136.156 31.9 136.636 31.084 137.092 29.932L145.444 8.368C145.636 8.368 145.84 8.368 146.056 8.368C146.272 8.368 146.476 8.368 146.668 8.368ZM150.448 23.632V24.352H139.72L140.08 23.632H150.448ZM176.695 8.512C176.599 9.472 176.527 10.408 176.479 11.32C176.455 12.232 176.443 12.928 176.443 13.408C176.443 13.96 176.455 14.488 176.479 14.992C176.503 15.496 176.527 15.928 176.551 16.288H175.723C175.507 14.536 175.207 13.168 174.823 12.184C174.463 11.176 173.911 10.456 173.167 10.024C172.423 9.568 171.355 9.34 169.963 9.34H168.055C167.287 9.34 166.699 9.412 166.291 9.556C165.907 9.676 165.643 9.94 165.499 10.348C165.355 10.732 165.283 11.344 165.283 12.184V30.112C165.283 31 165.379 31.672 165.571 32.128C165.763 32.56 166.123 32.848 166.651 32.992C167.179 33.136 167.959 33.22 168.991 33.244V34C168.343 33.952 167.503 33.928 166.471 33.928C165.439 33.904 164.371 33.892 163.267 33.892C162.307 33.892 161.383 33.904 160.495 33.928C159.631 33.928 158.899 33.952 158.299 34V33.28C159.115 33.232 159.727 33.136 160.135 32.992C160.543 32.848 160.807 32.56 160.927 32.128C161.071 31.696 161.143 31.048 161.143 30.184V12.328C161.143 11.44 161.071 10.792 160.927 10.384C160.807 9.952 160.531 9.664 160.099 9.52C159.691 9.352 159.091 9.256 158.299 9.232V8.512C159.235 8.536 160.207 8.56 161.215 8.584C162.247 8.584 163.255 8.596 164.239 8.62C165.247 8.62 166.183 8.62 167.047 8.62C167.911 8.62 168.619 8.62 169.171 8.62C170.275 8.62 171.523 8.62 172.915 8.62C174.331 8.596 175.591 8.56 176.695 8.512ZM171.187 21.112C171.187 21.112 171.187 21.232 171.187 21.472C171.187 21.712 171.187 21.832 171.187 21.832H164.203C164.203 21.832 164.203 21.712 164.203 21.472C164.203 21.232 164.203 21.112 164.203 21.112H171.187ZM171.943 16.36C171.847 17.728 171.799 18.772 171.799 19.492C171.823 20.212 171.835 20.872 171.835 21.472C171.835 22.072 171.847 22.732 171.871 23.452C171.895 24.172 171.955 25.216 172.051 26.584H171.223C171.127 25.792 170.983 25.036 170.791 24.316C170.599 23.572 170.251 22.972 169.747 22.516C169.243 22.06 168.487 21.832 167.479 21.832V21.112C168.247 21.112 168.847 20.956 169.279 20.644C169.735 20.332 170.083 19.924 170.323 19.42C170.563 18.916 170.731 18.4 170.827 17.872C170.947 17.32 171.043 16.816 171.115 16.36H171.943Z" fill="#011C1A"/>
<path d="M71.54 40.05V45.06C71.54 45.68 71.35 46.17 70.97 46.53C70.5967 46.89 70.1033 47.07 69.49 47.07C68.8767 47.07 68.38 46.89 68 46.53C67.6267 46.17 67.44 45.68 67.44 45.06H68.59C68.5967 45.3667 68.6733 45.61 68.82 45.79C68.9733 45.97 69.1967 46.06 69.49 46.06C69.7833 46.06 70.0067 45.97 70.16 45.79C70.3133 45.6033 70.39 45.36 70.39 45.06V40.05H71.54ZM78.7245 40.05V44.48C78.7245 45.0067 78.8612 45.4033 79.1345 45.67C79.4145 45.9367 79.8012 46.07 80.2945 46.07C80.7945 46.07 81.1812 45.9367 81.4545 45.67C81.7345 45.4033 81.8745 45.0067 81.8745 44.48V40.05H83.0145V44.46C83.0145 45.0267 82.8912 45.5067 82.6445 45.9C82.3979 46.2933 82.0679 46.5867 81.6545 46.78C81.2412 46.9733 80.7845 47.07 80.2845 47.07C79.7845 47.07 79.3279 46.9733 78.9145 46.78C78.5079 46.5867 78.1845 46.2933 77.9445 45.9C77.7045 45.5067 77.5845 45.0267 77.5845 44.46V40.05H78.7245ZM90.9888 47.07C90.5222 47.07 90.1022 46.99 89.7288 46.83C89.3555 46.6633 89.0622 46.43 88.8488 46.13C88.6355 45.83 88.5288 45.48 88.5288 45.08H89.7488C89.7755 45.38 89.8922 45.6267 90.0988 45.82C90.3122 46.0133 90.6088 46.11 90.9888 46.11C91.3822 46.11 91.6888 46.0167 91.9088 45.83C92.1288 45.6367 92.2388 45.39 92.2388 45.09C92.2388 44.8567 92.1688 44.6667 92.0288 44.52C91.8955 44.3733 91.7255 44.26 91.5188 44.18C91.3188 44.1 91.0388 44.0133 90.6788 43.92C90.2255 43.8 89.8555 43.68 89.5688 43.56C89.2888 43.4333 89.0488 43.24 88.8488 42.98C88.6488 42.72 88.5488 42.3733 88.5488 41.94C88.5488 41.54 88.6488 41.19 88.8488 40.89C89.0488 40.59 89.3288 40.36 89.6888 40.2C90.0488 40.04 90.4655 39.96 90.9388 39.96C91.6122 39.96 92.1622 40.13 92.5888 40.47C93.0222 40.8033 93.2622 41.2633 93.3088 41.85H92.0488C92.0288 41.5967 91.9088 41.38 91.6888 41.2C91.4688 41.02 91.1788 40.93 90.8188 40.93C90.4922 40.93 90.2255 41.0133 90.0188 41.18C89.8122 41.3467 89.7088 41.5867 89.7088 41.9C89.7088 42.1133 89.7722 42.29 89.8988 42.43C90.0322 42.5633 90.1988 42.67 90.3988 42.75C90.5988 42.83 90.8722 42.9167 91.2188 43.01C91.6788 43.1367 92.0522 43.2633 92.3388 43.39C92.6322 43.5167 92.8788 43.7133 93.0788 43.98C93.2855 44.24 93.3888 44.59 93.3888 45.03C93.3888 45.3833 93.2922 45.7167 93.0988 46.03C92.9122 46.3433 92.6355 46.5967 92.2688 46.79C91.9088 46.9767 91.4822 47.07 90.9888 47.07ZM103.424 40.05V40.98H101.574V47H100.434V40.98H98.574V40.05H103.424ZM109.919 40.05V47H108.779V40.05H109.919ZM115.235 43.51C115.235 42.83 115.392 42.22 115.705 41.68C116.025 41.14 116.455 40.72 116.995 40.42C117.542 40.1133 118.139 39.96 118.785 39.96C119.525 39.96 120.182 40.1433 120.755 40.51C121.335 40.87 121.755 41.3833 122.015 42.05H120.645C120.465 41.6833 120.215 41.41 119.895 41.23C119.575 41.05 119.205 40.96 118.785 40.96C118.325 40.96 117.915 41.0633 117.555 41.27C117.195 41.4767 116.912 41.7733 116.705 42.16C116.505 42.5467 116.405 42.9967 116.405 43.51C116.405 44.0233 116.505 44.4733 116.705 44.86C116.912 45.2467 117.195 45.5467 117.555 45.76C117.915 45.9667 118.325 46.07 118.785 46.07C119.205 46.07 119.575 45.98 119.895 45.8C120.215 45.62 120.465 45.3467 120.645 44.98H122.015C121.755 45.6467 121.335 46.16 120.755 46.52C120.182 46.88 119.525 47.06 118.785 47.06C118.132 47.06 117.535 46.91 116.995 46.61C116.455 46.3033 116.025 45.88 115.705 45.34C115.392 44.8 115.235 44.19 115.235 43.51ZM128.69 40.97V43.01H131.09V43.94H128.69V46.07H131.39V47H127.55V40.04H131.39V40.97H128.69ZM144.931 46.08H147.281V47H143.791V40.05H144.931V46.08ZM156.625 45.58H153.715L153.215 47H152.025L154.515 40.04H155.835L158.325 47H157.125L156.625 45.58ZM156.305 44.65L155.175 41.42L154.035 44.65H156.305ZM172.657 40.05L170.597 47H169.307L167.847 41.74L166.297 47L165.017 47.01L163.047 40.05H164.257L165.697 45.71L167.257 40.05H168.537L169.987 45.68L171.437 40.05H172.657Z" fill="#868686"/>
</svg>
